G04 #@! TF.GenerationSoftware,KiCad,Pcbnew,9.0.6+1*
G04 #@! TF.CreationDate,2025-12-15T08:06:31+00:00*
G04 #@! TF.ProjectId,dreh_shield,64726568-5f73-4686-9965-6c642e6b6963,0.1*
G04 #@! TF.SameCoordinates,Original*
G04 #@! TF.FileFunction,Paste,Top*
G04 #@! TF.FilePolarity,Positive*
%FSLAX46Y46*%
G04 Gerber Fmt 4.6, Leading zero omitted, Abs format (unit mm)*
G04 Created by KiCad (PCBNEW 9.0.6+1) date 2025-12-15 08:06:31*
%MOMM*%
%LPD*%
G01*
G04 APERTURE LIST*
G04 APERTURE END LIST*
G36*
G01*
X120315000Y-59970000D02*
X120685000Y-59970000D01*
G75*
G02*
X120820000Y-60105000I0J-135000D01*
G01*
X120820000Y-60375000D01*
G75*
G02*
X120685000Y-60510000I-135000J0D01*
G01*
X120315000Y-60510000D01*
G75*
G02*
X120180000Y-60375000I0J135000D01*
G01*
X120180000Y-60105000D01*
G75*
G02*
X120315000Y-59970000I135000J0D01*
G01*
G37*
G36*
G01*
X120315000Y-60990000D02*
X120685000Y-60990000D01*
G75*
G02*
X120820000Y-61125000I0J-135000D01*
G01*
X120820000Y-61395000D01*
G75*
G02*
X120685000Y-61530000I-135000J0D01*
G01*
X120315000Y-61530000D01*
G75*
G02*
X120180000Y-61395000I0J135000D01*
G01*
X120180000Y-61125000D01*
G75*
G02*
X120315000Y-60990000I135000J0D01*
G01*
G37*
G36*
G01*
X124215000Y-56360000D02*
X124585000Y-56360000D01*
G75*
G02*
X124720000Y-56495000I0J-135000D01*
G01*
X124720000Y-56765000D01*
G75*
G02*
X124585000Y-56900000I-135000J0D01*
G01*
X124215000Y-56900000D01*
G75*
G02*
X124080000Y-56765000I0J135000D01*
G01*
X124080000Y-56495000D01*
G75*
G02*
X124215000Y-56360000I135000J0D01*
G01*
G37*
G36*
G01*
X124215000Y-57380000D02*
X124585000Y-57380000D01*
G75*
G02*
X124720000Y-57515000I0J-135000D01*
G01*
X124720000Y-57785000D01*
G75*
G02*
X124585000Y-57920000I-135000J0D01*
G01*
X124215000Y-57920000D01*
G75*
G02*
X124080000Y-57785000I0J135000D01*
G01*
X124080000Y-57515000D01*
G75*
G02*
X124215000Y-57380000I135000J0D01*
G01*
G37*
G36*
G01*
X143510000Y-70830000D02*
X143510000Y-71170000D01*
G75*
G02*
X143370000Y-71310000I-140000J0D01*
G01*
X143090000Y-71310000D01*
G75*
G02*
X142950000Y-71170000I0J140000D01*
G01*
X142950000Y-70830000D01*
G75*
G02*
X143090000Y-70690000I140000J0D01*
G01*
X143370000Y-70690000D01*
G75*
G02*
X143510000Y-70830000I0J-140000D01*
G01*
G37*
G36*
G01*
X142550000Y-70830000D02*
X142550000Y-71170000D01*
G75*
G02*
X142410000Y-71310000I-140000J0D01*
G01*
X142130000Y-71310000D01*
G75*
G02*
X141990000Y-71170000I0J140000D01*
G01*
X141990000Y-70830000D01*
G75*
G02*
X142130000Y-70690000I140000J0D01*
G01*
X142410000Y-70690000D01*
G75*
G02*
X142550000Y-70830000I0J-140000D01*
G01*
G37*
G36*
G01*
X144220000Y-85435000D02*
X144220000Y-85065000D01*
G75*
G02*
X144355000Y-84930000I135000J0D01*
G01*
X144625000Y-84930000D01*
G75*
G02*
X144760000Y-85065000I0J-135000D01*
G01*
X144760000Y-85435000D01*
G75*
G02*
X144625000Y-85570000I-135000J0D01*
G01*
X144355000Y-85570000D01*
G75*
G02*
X144220000Y-85435000I0J135000D01*
G01*
G37*
G36*
G01*
X145240000Y-85435000D02*
X145240000Y-85065000D01*
G75*
G02*
X145375000Y-84930000I135000J0D01*
G01*
X145645000Y-84930000D01*
G75*
G02*
X145780000Y-85065000I0J-135000D01*
G01*
X145780000Y-85435000D01*
G75*
G02*
X145645000Y-85570000I-135000J0D01*
G01*
X145375000Y-85570000D01*
G75*
G02*
X145240000Y-85435000I0J135000D01*
G01*
G37*
G36*
G01*
X119700000Y-56400000D02*
X119700000Y-56100000D01*
G75*
G02*
X119850000Y-55950000I150000J0D01*
G01*
X120875000Y-55950000D01*
G75*
G02*
X121025000Y-56100000I0J-150000D01*
G01*
X121025000Y-56400000D01*
G75*
G02*
X120875000Y-56550000I-150000J0D01*
G01*
X119850000Y-56550000D01*
G75*
G02*
X119700000Y-56400000I0J150000D01*
G01*
G37*
G36*
G01*
X119700000Y-57350000D02*
X119700000Y-57050000D01*
G75*
G02*
X119850000Y-56900000I150000J0D01*
G01*
X120875000Y-56900000D01*
G75*
G02*
X121025000Y-57050000I0J-150000D01*
G01*
X121025000Y-57350000D01*
G75*
G02*
X120875000Y-57500000I-150000J0D01*
G01*
X119850000Y-57500000D01*
G75*
G02*
X119700000Y-57350000I0J150000D01*
G01*
G37*
G36*
G01*
X119700000Y-58300000D02*
X119700000Y-58000000D01*
G75*
G02*
X119850000Y-57850000I150000J0D01*
G01*
X120875000Y-57850000D01*
G75*
G02*
X121025000Y-58000000I0J-150000D01*
G01*
X121025000Y-58300000D01*
G75*
G02*
X120875000Y-58450000I-150000J0D01*
G01*
X119850000Y-58450000D01*
G75*
G02*
X119700000Y-58300000I0J150000D01*
G01*
G37*
G36*
G01*
X121975000Y-58300000D02*
X121975000Y-58000000D01*
G75*
G02*
X122125000Y-57850000I150000J0D01*
G01*
X123150000Y-57850000D01*
G75*
G02*
X123300000Y-58000000I0J-150000D01*
G01*
X123300000Y-58300000D01*
G75*
G02*
X123150000Y-58450000I-150000J0D01*
G01*
X122125000Y-58450000D01*
G75*
G02*
X121975000Y-58300000I0J150000D01*
G01*
G37*
G36*
G01*
X121975000Y-56400000D02*
X121975000Y-56100000D01*
G75*
G02*
X122125000Y-55950000I150000J0D01*
G01*
X123150000Y-55950000D01*
G75*
G02*
X123300000Y-56100000I0J-150000D01*
G01*
X123300000Y-56400000D01*
G75*
G02*
X123150000Y-56550000I-150000J0D01*
G01*
X122125000Y-56550000D01*
G75*
G02*
X121975000Y-56400000I0J150000D01*
G01*
G37*
G36*
G01*
X141950000Y-82622500D02*
X141950000Y-82822500D01*
G75*
G02*
X141850000Y-82922500I-100000J0D01*
G01*
X140425000Y-82922500D01*
G75*
G02*
X140325000Y-82822500I0J100000D01*
G01*
X140325000Y-82622500D01*
G75*
G02*
X140425000Y-82522500I100000J0D01*
G01*
X141850000Y-82522500D01*
G75*
G02*
X141950000Y-82622500I0J-100000D01*
G01*
G37*
G36*
G01*
X141950000Y-81987500D02*
X141950000Y-82187500D01*
G75*
G02*
X141850000Y-82287500I-100000J0D01*
G01*
X140425000Y-82287500D01*
G75*
G02*
X140325000Y-82187500I0J100000D01*
G01*
X140325000Y-81987500D01*
G75*
G02*
X140425000Y-81887500I100000J0D01*
G01*
X141850000Y-81887500D01*
G75*
G02*
X141950000Y-81987500I0J-100000D01*
G01*
G37*
G36*
G01*
X141950000Y-81352500D02*
X141950000Y-81552500D01*
G75*
G02*
X141850000Y-81652500I-100000J0D01*
G01*
X140425000Y-81652500D01*
G75*
G02*
X140325000Y-81552500I0J100000D01*
G01*
X140325000Y-81352500D01*
G75*
G02*
X140425000Y-81252500I100000J0D01*
G01*
X141850000Y-81252500D01*
G75*
G02*
X141950000Y-81352500I0J-100000D01*
G01*
G37*
G36*
G01*
X141950000Y-80717500D02*
X141950000Y-80917500D01*
G75*
G02*
X141850000Y-81017500I-100000J0D01*
G01*
X140425000Y-81017500D01*
G75*
G02*
X140325000Y-80917500I0J100000D01*
G01*
X140325000Y-80717500D01*
G75*
G02*
X140425000Y-80617500I100000J0D01*
G01*
X141850000Y-80617500D01*
G75*
G02*
X141950000Y-80717500I0J-100000D01*
G01*
G37*
G36*
G01*
X141950000Y-80082500D02*
X141950000Y-80282500D01*
G75*
G02*
X141850000Y-80382500I-100000J0D01*
G01*
X140425000Y-80382500D01*
G75*
G02*
X140325000Y-80282500I0J100000D01*
G01*
X140325000Y-80082500D01*
G75*
G02*
X140425000Y-79982500I100000J0D01*
G01*
X141850000Y-79982500D01*
G75*
G02*
X141950000Y-80082500I0J-100000D01*
G01*
G37*
G36*
G01*
X141950000Y-79447500D02*
X141950000Y-79647500D01*
G75*
G02*
X141850000Y-79747500I-100000J0D01*
G01*
X140425000Y-79747500D01*
G75*
G02*
X140325000Y-79647500I0J100000D01*
G01*
X140325000Y-79447500D01*
G75*
G02*
X140425000Y-79347500I100000J0D01*
G01*
X141850000Y-79347500D01*
G75*
G02*
X141950000Y-79447500I0J-100000D01*
G01*
G37*
G36*
G01*
X141950000Y-78812500D02*
X141950000Y-79012500D01*
G75*
G02*
X141850000Y-79112500I-100000J0D01*
G01*
X140425000Y-79112500D01*
G75*
G02*
X140325000Y-79012500I0J100000D01*
G01*
X140325000Y-78812500D01*
G75*
G02*
X140425000Y-78712500I100000J0D01*
G01*
X141850000Y-78712500D01*
G75*
G02*
X141950000Y-78812500I0J-100000D01*
G01*
G37*
G36*
G01*
X141950000Y-78177500D02*
X141950000Y-78377500D01*
G75*
G02*
X141850000Y-78477500I-100000J0D01*
G01*
X140425000Y-78477500D01*
G75*
G02*
X140325000Y-78377500I0J100000D01*
G01*
X140325000Y-78177500D01*
G75*
G02*
X140425000Y-78077500I100000J0D01*
G01*
X141850000Y-78077500D01*
G75*
G02*
X141950000Y-78177500I0J-100000D01*
G01*
G37*
G36*
G01*
X136675000Y-78177500D02*
X136675000Y-78377500D01*
G75*
G02*
X136575000Y-78477500I-100000J0D01*
G01*
X135150000Y-78477500D01*
G75*
G02*
X135050000Y-78377500I0J100000D01*
G01*
X135050000Y-78177500D01*
G75*
G02*
X135150000Y-78077500I100000J0D01*
G01*
X136575000Y-78077500D01*
G75*
G02*
X136675000Y-78177500I0J-100000D01*
G01*
G37*
G36*
G01*
X136675000Y-78812500D02*
X136675000Y-79012500D01*
G75*
G02*
X136575000Y-79112500I-100000J0D01*
G01*
X135150000Y-79112500D01*
G75*
G02*
X135050000Y-79012500I0J100000D01*
G01*
X135050000Y-78812500D01*
G75*
G02*
X135150000Y-78712500I100000J0D01*
G01*
X136575000Y-78712500D01*
G75*
G02*
X136675000Y-78812500I0J-100000D01*
G01*
G37*
G36*
G01*
X136675000Y-79447500D02*
X136675000Y-79647500D01*
G75*
G02*
X136575000Y-79747500I-100000J0D01*
G01*
X135150000Y-79747500D01*
G75*
G02*
X135050000Y-79647500I0J100000D01*
G01*
X135050000Y-79447500D01*
G75*
G02*
X135150000Y-79347500I100000J0D01*
G01*
X136575000Y-79347500D01*
G75*
G02*
X136675000Y-79447500I0J-100000D01*
G01*
G37*
G36*
G01*
X136675000Y-80082500D02*
X136675000Y-80282500D01*
G75*
G02*
X136575000Y-80382500I-100000J0D01*
G01*
X135150000Y-80382500D01*
G75*
G02*
X135050000Y-80282500I0J100000D01*
G01*
X135050000Y-80082500D01*
G75*
G02*
X135150000Y-79982500I100000J0D01*
G01*
X136575000Y-79982500D01*
G75*
G02*
X136675000Y-80082500I0J-100000D01*
G01*
G37*
G36*
G01*
X136675000Y-80717500D02*
X136675000Y-80917500D01*
G75*
G02*
X136575000Y-81017500I-100000J0D01*
G01*
X135150000Y-81017500D01*
G75*
G02*
X135050000Y-80917500I0J100000D01*
G01*
X135050000Y-80717500D01*
G75*
G02*
X135150000Y-80617500I100000J0D01*
G01*
X136575000Y-80617500D01*
G75*
G02*
X136675000Y-80717500I0J-100000D01*
G01*
G37*
G36*
G01*
X136675000Y-81352500D02*
X136675000Y-81552500D01*
G75*
G02*
X136575000Y-81652500I-100000J0D01*
G01*
X135150000Y-81652500D01*
G75*
G02*
X135050000Y-81552500I0J100000D01*
G01*
X135050000Y-81352500D01*
G75*
G02*
X135150000Y-81252500I100000J0D01*
G01*
X136575000Y-81252500D01*
G75*
G02*
X136675000Y-81352500I0J-100000D01*
G01*
G37*
G36*
G01*
X136675000Y-81987500D02*
X136675000Y-82187500D01*
G75*
G02*
X136575000Y-82287500I-100000J0D01*
G01*
X135150000Y-82287500D01*
G75*
G02*
X135050000Y-82187500I0J100000D01*
G01*
X135050000Y-81987500D01*
G75*
G02*
X135150000Y-81887500I100000J0D01*
G01*
X136575000Y-81887500D01*
G75*
G02*
X136675000Y-81987500I0J-100000D01*
G01*
G37*
G36*
G01*
X136675000Y-82622500D02*
X136675000Y-82822500D01*
G75*
G02*
X136575000Y-82922500I-100000J0D01*
G01*
X135150000Y-82922500D01*
G75*
G02*
X135050000Y-82822500I0J100000D01*
G01*
X135050000Y-82622500D01*
G75*
G02*
X135150000Y-82522500I100000J0D01*
G01*
X136575000Y-82522500D01*
G75*
G02*
X136675000Y-82622500I0J-100000D01*
G01*
G37*
G36*
G01*
X117565000Y-59970000D02*
X117935000Y-59970000D01*
G75*
G02*
X118070000Y-60105000I0J-135000D01*
G01*
X118070000Y-60375000D01*
G75*
G02*
X117935000Y-60510000I-135000J0D01*
G01*
X117565000Y-60510000D01*
G75*
G02*
X117430000Y-60375000I0J135000D01*
G01*
X117430000Y-60105000D01*
G75*
G02*
X117565000Y-59970000I135000J0D01*
G01*
G37*
G36*
G01*
X117565000Y-60990000D02*
X117935000Y-60990000D01*
G75*
G02*
X118070000Y-61125000I0J-135000D01*
G01*
X118070000Y-61395000D01*
G75*
G02*
X117935000Y-61530000I-135000J0D01*
G01*
X117565000Y-61530000D01*
G75*
G02*
X117430000Y-61395000I0J135000D01*
G01*
X117430000Y-61125000D01*
G75*
G02*
X117565000Y-60990000I135000J0D01*
G01*
G37*
G36*
G01*
X144220000Y-90435000D02*
X144220000Y-90065000D01*
G75*
G02*
X144355000Y-89930000I135000J0D01*
G01*
X144625000Y-89930000D01*
G75*
G02*
X144760000Y-90065000I0J-135000D01*
G01*
X144760000Y-90435000D01*
G75*
G02*
X144625000Y-90570000I-135000J0D01*
G01*
X144355000Y-90570000D01*
G75*
G02*
X144220000Y-90435000I0J135000D01*
G01*
G37*
G36*
G01*
X145240000Y-90435000D02*
X145240000Y-90065000D01*
G75*
G02*
X145375000Y-89930000I135000J0D01*
G01*
X145645000Y-89930000D01*
G75*
G02*
X145780000Y-90065000I0J-135000D01*
G01*
X145780000Y-90435000D01*
G75*
G02*
X145645000Y-90570000I-135000J0D01*
G01*
X145375000Y-90570000D01*
G75*
G02*
X145240000Y-90435000I0J135000D01*
G01*
G37*
G36*
G01*
X143510000Y-90080000D02*
X143510000Y-90420000D01*
G75*
G02*
X143370000Y-90560000I-140000J0D01*
G01*
X143090000Y-90560000D01*
G75*
G02*
X142950000Y-90420000I0J140000D01*
G01*
X142950000Y-90080000D01*
G75*
G02*
X143090000Y-89940000I140000J0D01*
G01*
X143370000Y-89940000D01*
G75*
G02*
X143510000Y-90080000I0J-140000D01*
G01*
G37*
G36*
G01*
X142550000Y-90080000D02*
X142550000Y-90420000D01*
G75*
G02*
X142410000Y-90560000I-140000J0D01*
G01*
X142130000Y-90560000D01*
G75*
G02*
X141990000Y-90420000I0J140000D01*
G01*
X141990000Y-90080000D01*
G75*
G02*
X142130000Y-89940000I140000J0D01*
G01*
X142410000Y-89940000D01*
G75*
G02*
X142550000Y-90080000I0J-140000D01*
G01*
G37*
G36*
G01*
X144220000Y-71185000D02*
X144220000Y-70815000D01*
G75*
G02*
X144355000Y-70680000I135000J0D01*
G01*
X144625000Y-70680000D01*
G75*
G02*
X144760000Y-70815000I0J-135000D01*
G01*
X144760000Y-71185000D01*
G75*
G02*
X144625000Y-71320000I-135000J0D01*
G01*
X144355000Y-71320000D01*
G75*
G02*
X144220000Y-71185000I0J135000D01*
G01*
G37*
G36*
G01*
X145240000Y-71185000D02*
X145240000Y-70815000D01*
G75*
G02*
X145375000Y-70680000I135000J0D01*
G01*
X145645000Y-70680000D01*
G75*
G02*
X145780000Y-70815000I0J-135000D01*
G01*
X145780000Y-71185000D01*
G75*
G02*
X145645000Y-71320000I-135000J0D01*
G01*
X145375000Y-71320000D01*
G75*
G02*
X145240000Y-71185000I0J135000D01*
G01*
G37*
G36*
G01*
X143510000Y-75830000D02*
X143510000Y-76170000D01*
G75*
G02*
X143370000Y-76310000I-140000J0D01*
G01*
X143090000Y-76310000D01*
G75*
G02*
X142950000Y-76170000I0J140000D01*
G01*
X142950000Y-75830000D01*
G75*
G02*
X143090000Y-75690000I140000J0D01*
G01*
X143370000Y-75690000D01*
G75*
G02*
X143510000Y-75830000I0J-140000D01*
G01*
G37*
G36*
G01*
X142550000Y-75830000D02*
X142550000Y-76170000D01*
G75*
G02*
X142410000Y-76310000I-140000J0D01*
G01*
X142130000Y-76310000D01*
G75*
G02*
X141990000Y-76170000I0J140000D01*
G01*
X141990000Y-75830000D01*
G75*
G02*
X142130000Y-75690000I140000J0D01*
G01*
X142410000Y-75690000D01*
G75*
G02*
X142550000Y-75830000I0J-140000D01*
G01*
G37*
G36*
G01*
X144220000Y-76185000D02*
X144220000Y-75815000D01*
G75*
G02*
X144355000Y-75680000I135000J0D01*
G01*
X144625000Y-75680000D01*
G75*
G02*
X144760000Y-75815000I0J-135000D01*
G01*
X144760000Y-76185000D01*
G75*
G02*
X144625000Y-76320000I-135000J0D01*
G01*
X144355000Y-76320000D01*
G75*
G02*
X144220000Y-76185000I0J135000D01*
G01*
G37*
G36*
G01*
X145240000Y-76185000D02*
X145240000Y-75815000D01*
G75*
G02*
X145375000Y-75680000I135000J0D01*
G01*
X145645000Y-75680000D01*
G75*
G02*
X145780000Y-75815000I0J-135000D01*
G01*
X145780000Y-76185000D01*
G75*
G02*
X145645000Y-76320000I-135000J0D01*
G01*
X145375000Y-76320000D01*
G75*
G02*
X145240000Y-76185000I0J135000D01*
G01*
G37*
G36*
G01*
X143875000Y-61225000D02*
X145125000Y-61225000D01*
G75*
G02*
X145375000Y-61475000I0J-250000D01*
G01*
X145375000Y-62225000D01*
G75*
G02*
X145125000Y-62475000I-250000J0D01*
G01*
X143875000Y-62475000D01*
G75*
G02*
X143625000Y-62225000I0J250000D01*
G01*
X143625000Y-61475000D01*
G75*
G02*
X143875000Y-61225000I250000J0D01*
G01*
G37*
G36*
G01*
X143875000Y-64025000D02*
X145125000Y-64025000D01*
G75*
G02*
X145375000Y-64275000I0J-250000D01*
G01*
X145375000Y-65025000D01*
G75*
G02*
X145125000Y-65275000I-250000J0D01*
G01*
X143875000Y-65275000D01*
G75*
G02*
X143625000Y-65025000I0J250000D01*
G01*
X143625000Y-64275000D01*
G75*
G02*
X143875000Y-64025000I250000J0D01*
G01*
G37*
G36*
G01*
X140600000Y-59250000D02*
X141900000Y-59250000D01*
G75*
G02*
X142150000Y-59500000I0J-250000D01*
G01*
X142150000Y-61500000D01*
G75*
G02*
X141900000Y-61750000I-250000J0D01*
G01*
X140600000Y-61750000D01*
G75*
G02*
X140350000Y-61500000I0J250000D01*
G01*
X140350000Y-59500000D01*
G75*
G02*
X140600000Y-59250000I250000J0D01*
G01*
G37*
G36*
G01*
X140600000Y-63250000D02*
X141900000Y-63250000D01*
G75*
G02*
X142150000Y-63500000I0J-250000D01*
G01*
X142150000Y-65500000D01*
G75*
G02*
X141900000Y-65750000I-250000J0D01*
G01*
X140600000Y-65750000D01*
G75*
G02*
X140350000Y-65500000I0J250000D01*
G01*
X140350000Y-63500000D01*
G75*
G02*
X140600000Y-63250000I250000J0D01*
G01*
G37*
G36*
G01*
X143510000Y-85080000D02*
X143510000Y-85420000D01*
G75*
G02*
X143370000Y-85560000I-140000J0D01*
G01*
X143090000Y-85560000D01*
G75*
G02*
X142950000Y-85420000I0J140000D01*
G01*
X142950000Y-85080000D01*
G75*
G02*
X143090000Y-84940000I140000J0D01*
G01*
X143370000Y-84940000D01*
G75*
G02*
X143510000Y-85080000I0J-140000D01*
G01*
G37*
G36*
G01*
X142550000Y-85080000D02*
X142550000Y-85420000D01*
G75*
G02*
X142410000Y-85560000I-140000J0D01*
G01*
X142130000Y-85560000D01*
G75*
G02*
X141990000Y-85420000I0J140000D01*
G01*
X141990000Y-85080000D01*
G75*
G02*
X142130000Y-84940000I140000J0D01*
G01*
X142410000Y-84940000D01*
G75*
G02*
X142550000Y-85080000I0J-140000D01*
G01*
G37*
M02*
