M48
INCH,TZ
T1C0.0157
T2C0.0394
T3C0.0453
%
G90
G05
T1
X46752Y-22343
X46752Y-22933
X46949Y-24803
X47047Y-20374
X47835Y-23425
X52854Y-32283
X53051Y-31068
X53248Y-30413
X53370Y-32874
X53642Y-30413
X55610Y-26476
X55610Y-32776
X56102Y-32874
T2
X46770Y-19370
X47770Y-19370
X48770Y-19370
X49770Y-19370
X50370Y-38370
X50770Y-19370
X51370Y-38370
X51770Y-19370
X52370Y-38370
X52770Y-19370
X53370Y-38370
X53770Y-19370
X54370Y-38370
X54770Y-19370
X55370Y-38370
X55770Y-19370
X56370Y-38370
X57370Y-19370
X57370Y-38370
X58370Y-19370
X59370Y-19370
X59370Y-38370
X60370Y-19370
X60370Y-38370
X61370Y-19370
X61370Y-38370
X62370Y-19370
X62370Y-38370
X63370Y-19370
X63370Y-38370
X64370Y-19370
X64370Y-38370
T3
X60086Y-22264
X60086Y-24232
X60086Y-27913
X60086Y-29882
X60086Y-33563
X60086Y-35531
X62054Y-22264
X62054Y-24232
X62054Y-27913
X62054Y-29882
X62054Y-33563
X62054Y-35531
M30
