G04 #@! TF.GenerationSoftware,KiCad,Pcbnew,9.0.6+1*
G04 #@! TF.CreationDate,2025-12-15T08:06:25+00:00*
G04 #@! TF.ProjectId,dreh_shield,64726568-5f73-4686-9965-6c642e6b6963,0.1*
G04 #@! TF.SameCoordinates,Original*
G04 #@! TF.FileFunction,Legend,Top*
G04 #@! TF.FilePolarity,Positive*
%FSLAX46Y46*%
G04 Gerber Fmt 4.6, Leading zero omitted, Abs format (unit mm)*
G04 Created by KiCad (PCBNEW 9.0.6+1) date 2025-12-15 08:06:25*
%MOMM*%
%LPD*%
G01*
G04 APERTURE LIST*
%ADD10C,0.150000*%
%ADD11C,0.120000*%
%ADD12C,0.010000*%
%ADD13C,0.000000*%
G04 APERTURE END LIST*
D10*
X62204819Y40214286D02*
X62919104Y40214286D01*
X62919104Y40214286D02*
X63061961Y40166667D01*
X63061961Y40166667D02*
X63157200Y40071429D01*
X63157200Y40071429D02*
X63204819Y39928572D01*
X63204819Y39928572D02*
X63204819Y39833334D01*
X63204819Y41214286D02*
X63204819Y40642858D01*
X63204819Y40928572D02*
X62204819Y40928572D01*
X62204819Y40928572D02*
X62347676Y40833334D01*
X62347676Y40833334D02*
X62442914Y40738096D01*
X62442914Y40738096D02*
X62490533Y40642858D01*
X62204819Y41833334D02*
X62204819Y41928572D01*
X62204819Y41928572D02*
X62252438Y42023810D01*
X62252438Y42023810D02*
X62300057Y42071429D01*
X62300057Y42071429D02*
X62395295Y42119048D01*
X62395295Y42119048D02*
X62585771Y42166667D01*
X62585771Y42166667D02*
X62823866Y42166667D01*
X62823866Y42166667D02*
X63014342Y42119048D01*
X63014342Y42119048D02*
X63109580Y42071429D01*
X63109580Y42071429D02*
X63157200Y42023810D01*
X63157200Y42023810D02*
X63204819Y41928572D01*
X63204819Y41928572D02*
X63204819Y41833334D01*
X63204819Y41833334D02*
X63157200Y41738096D01*
X63157200Y41738096D02*
X63109580Y41690477D01*
X63109580Y41690477D02*
X63014342Y41642858D01*
X63014342Y41642858D02*
X62823866Y41595239D01*
X62823866Y41595239D02*
X62585771Y41595239D01*
X62585771Y41595239D02*
X62395295Y41642858D01*
X62395295Y41642858D02*
X62300057Y41690477D01*
X62300057Y41690477D02*
X62252438Y41738096D01*
X62252438Y41738096D02*
X62204819Y41833334D01*
X62204819Y42500001D02*
X62204819Y43119048D01*
X62204819Y43119048D02*
X62585771Y42785715D01*
X62585771Y42785715D02*
X62585771Y42928572D01*
X62585771Y42928572D02*
X62633390Y43023810D01*
X62633390Y43023810D02*
X62681009Y43071429D01*
X62681009Y43071429D02*
X62776247Y43119048D01*
X62776247Y43119048D02*
X63014342Y43119048D01*
X63014342Y43119048D02*
X63109580Y43071429D01*
X63109580Y43071429D02*
X63157200Y43023810D01*
X63157200Y43023810D02*
X63204819Y42928572D01*
X63204819Y42928572D02*
X63204819Y42642858D01*
X63204819Y42642858D02*
X63157200Y42547620D01*
X63157200Y42547620D02*
X63109580Y42500001D01*
X19454819Y38130953D02*
X18978628Y37797620D01*
X19454819Y37559525D02*
X18454819Y37559525D01*
X18454819Y37559525D02*
X18454819Y37940477D01*
X18454819Y37940477D02*
X18502438Y38035715D01*
X18502438Y38035715D02*
X18550057Y38083334D01*
X18550057Y38083334D02*
X18645295Y38130953D01*
X18645295Y38130953D02*
X18788152Y38130953D01*
X18788152Y38130953D02*
X18883390Y38083334D01*
X18883390Y38083334D02*
X18931009Y38035715D01*
X18931009Y38035715D02*
X18978628Y37940477D01*
X18978628Y37940477D02*
X18978628Y37559525D01*
X19454819Y39083334D02*
X19454819Y38511906D01*
X19454819Y38797620D02*
X18454819Y38797620D01*
X18454819Y38797620D02*
X18597676Y38702382D01*
X18597676Y38702382D02*
X18692914Y38607144D01*
X18692914Y38607144D02*
X18740533Y38511906D01*
X18454819Y39702382D02*
X18454819Y39797620D01*
X18454819Y39797620D02*
X18502438Y39892858D01*
X18502438Y39892858D02*
X18550057Y39940477D01*
X18550057Y39940477D02*
X18645295Y39988096D01*
X18645295Y39988096D02*
X18835771Y40035715D01*
X18835771Y40035715D02*
X19073866Y40035715D01*
X19073866Y40035715D02*
X19264342Y39988096D01*
X19264342Y39988096D02*
X19359580Y39940477D01*
X19359580Y39940477D02*
X19407200Y39892858D01*
X19407200Y39892858D02*
X19454819Y39797620D01*
X19454819Y39797620D02*
X19454819Y39702382D01*
X19454819Y39702382D02*
X19407200Y39607144D01*
X19407200Y39607144D02*
X19359580Y39559525D01*
X19359580Y39559525D02*
X19264342Y39511906D01*
X19264342Y39511906D02*
X19073866Y39464287D01*
X19073866Y39464287D02*
X18835771Y39464287D01*
X18835771Y39464287D02*
X18645295Y39511906D01*
X18645295Y39511906D02*
X18550057Y39559525D01*
X18550057Y39559525D02*
X18502438Y39607144D01*
X18502438Y39607144D02*
X18454819Y39702382D01*
X18454819Y40892858D02*
X18454819Y40702382D01*
X18454819Y40702382D02*
X18502438Y40607144D01*
X18502438Y40607144D02*
X18550057Y40559525D01*
X18550057Y40559525D02*
X18692914Y40464287D01*
X18692914Y40464287D02*
X18883390Y40416668D01*
X18883390Y40416668D02*
X19264342Y40416668D01*
X19264342Y40416668D02*
X19359580Y40464287D01*
X19359580Y40464287D02*
X19407200Y40511906D01*
X19407200Y40511906D02*
X19454819Y40607144D01*
X19454819Y40607144D02*
X19454819Y40797620D01*
X19454819Y40797620D02*
X19407200Y40892858D01*
X19407200Y40892858D02*
X19359580Y40940477D01*
X19359580Y40940477D02*
X19264342Y40988096D01*
X19264342Y40988096D02*
X19026247Y40988096D01*
X19026247Y40988096D02*
X18931009Y40940477D01*
X18931009Y40940477D02*
X18883390Y40892858D01*
X18883390Y40892858D02*
X18835771Y40797620D01*
X18835771Y40797620D02*
X18835771Y40607144D01*
X18835771Y40607144D02*
X18883390Y40511906D01*
X18883390Y40511906D02*
X18931009Y40464287D01*
X18931009Y40464287D02*
X19026247Y40416668D01*
X19714285Y32545181D02*
X19714285Y31830896D01*
X19714285Y31830896D02*
X19666666Y31688039D01*
X19666666Y31688039D02*
X19571428Y31592800D01*
X19571428Y31592800D02*
X19428571Y31545181D01*
X19428571Y31545181D02*
X19333333Y31545181D01*
X20190476Y31545181D02*
X20190476Y32545181D01*
X20190476Y32545181D02*
X20571428Y32545181D01*
X20571428Y32545181D02*
X20666666Y32497562D01*
X20666666Y32497562D02*
X20714285Y32449943D01*
X20714285Y32449943D02*
X20761904Y32354705D01*
X20761904Y32354705D02*
X20761904Y32211848D01*
X20761904Y32211848D02*
X20714285Y32116610D01*
X20714285Y32116610D02*
X20666666Y32068991D01*
X20666666Y32068991D02*
X20571428Y32021372D01*
X20571428Y32021372D02*
X20190476Y32021372D01*
X21714285Y31545181D02*
X21142857Y31545181D01*
X21428571Y31545181D02*
X21428571Y32545181D01*
X21428571Y32545181D02*
X21333333Y32402324D01*
X21333333Y32402324D02*
X21238095Y32307086D01*
X21238095Y32307086D02*
X21142857Y32259467D01*
X22333333Y32545181D02*
X22428571Y32545181D01*
X22428571Y32545181D02*
X22523809Y32497562D01*
X22523809Y32497562D02*
X22571428Y32449943D01*
X22571428Y32449943D02*
X22619047Y32354705D01*
X22619047Y32354705D02*
X22666666Y32164229D01*
X22666666Y32164229D02*
X22666666Y31926134D01*
X22666666Y31926134D02*
X22619047Y31735658D01*
X22619047Y31735658D02*
X22571428Y31640420D01*
X22571428Y31640420D02*
X22523809Y31592800D01*
X22523809Y31592800D02*
X22428571Y31545181D01*
X22428571Y31545181D02*
X22333333Y31545181D01*
X22333333Y31545181D02*
X22238095Y31592800D01*
X22238095Y31592800D02*
X22190476Y31640420D01*
X22190476Y31640420D02*
X22142857Y31735658D01*
X22142857Y31735658D02*
X22095238Y31926134D01*
X22095238Y31926134D02*
X22095238Y32164229D01*
X22095238Y32164229D02*
X22142857Y32354705D01*
X22142857Y32354705D02*
X22190476Y32449943D01*
X22190476Y32449943D02*
X22238095Y32497562D01*
X22238095Y32497562D02*
X22333333Y32545181D01*
X23000000Y32545181D02*
X23619047Y32545181D01*
X23619047Y32545181D02*
X23285714Y32164229D01*
X23285714Y32164229D02*
X23428571Y32164229D01*
X23428571Y32164229D02*
X23523809Y32116610D01*
X23523809Y32116610D02*
X23571428Y32068991D01*
X23571428Y32068991D02*
X23619047Y31973753D01*
X23619047Y31973753D02*
X23619047Y31735658D01*
X23619047Y31735658D02*
X23571428Y31640420D01*
X23571428Y31640420D02*
X23523809Y31592800D01*
X23523809Y31592800D02*
X23428571Y31545181D01*
X23428571Y31545181D02*
X23142857Y31545181D01*
X23142857Y31545181D02*
X23047619Y31592800D01*
X23047619Y31592800D02*
X23000000Y31640420D01*
X26024819Y41740953D02*
X25548628Y41407620D01*
X26024819Y41169525D02*
X25024819Y41169525D01*
X25024819Y41169525D02*
X25024819Y41550477D01*
X25024819Y41550477D02*
X25072438Y41645715D01*
X25072438Y41645715D02*
X25120057Y41693334D01*
X25120057Y41693334D02*
X25215295Y41740953D01*
X25215295Y41740953D02*
X25358152Y41740953D01*
X25358152Y41740953D02*
X25453390Y41693334D01*
X25453390Y41693334D02*
X25501009Y41645715D01*
X25501009Y41645715D02*
X25548628Y41550477D01*
X25548628Y41550477D02*
X25548628Y41169525D01*
X26024819Y42693334D02*
X26024819Y42121906D01*
X26024819Y42407620D02*
X25024819Y42407620D01*
X25024819Y42407620D02*
X25167676Y42312382D01*
X25167676Y42312382D02*
X25262914Y42217144D01*
X25262914Y42217144D02*
X25310533Y42121906D01*
X25024819Y43312382D02*
X25024819Y43407620D01*
X25024819Y43407620D02*
X25072438Y43502858D01*
X25072438Y43502858D02*
X25120057Y43550477D01*
X25120057Y43550477D02*
X25215295Y43598096D01*
X25215295Y43598096D02*
X25405771Y43645715D01*
X25405771Y43645715D02*
X25643866Y43645715D01*
X25643866Y43645715D02*
X25834342Y43598096D01*
X25834342Y43598096D02*
X25929580Y43550477D01*
X25929580Y43550477D02*
X25977200Y43502858D01*
X25977200Y43502858D02*
X26024819Y43407620D01*
X26024819Y43407620D02*
X26024819Y43312382D01*
X26024819Y43312382D02*
X25977200Y43217144D01*
X25977200Y43217144D02*
X25929580Y43169525D01*
X25929580Y43169525D02*
X25834342Y43121906D01*
X25834342Y43121906D02*
X25643866Y43074287D01*
X25643866Y43074287D02*
X25405771Y43074287D01*
X25405771Y43074287D02*
X25215295Y43121906D01*
X25215295Y43121906D02*
X25120057Y43169525D01*
X25120057Y43169525D02*
X25072438Y43217144D01*
X25072438Y43217144D02*
X25024819Y43312382D01*
X25024819Y44550477D02*
X25024819Y44074287D01*
X25024819Y44074287D02*
X25501009Y44026668D01*
X25501009Y44026668D02*
X25453390Y44074287D01*
X25453390Y44074287D02*
X25405771Y44169525D01*
X25405771Y44169525D02*
X25405771Y44407620D01*
X25405771Y44407620D02*
X25453390Y44502858D01*
X25453390Y44502858D02*
X25501009Y44550477D01*
X25501009Y44550477D02*
X25596247Y44598096D01*
X25596247Y44598096D02*
X25834342Y44598096D01*
X25834342Y44598096D02*
X25929580Y44550477D01*
X25929580Y44550477D02*
X25977200Y44502858D01*
X25977200Y44502858D02*
X26024819Y44407620D01*
X26024819Y44407620D02*
X26024819Y44169525D01*
X26024819Y44169525D02*
X25977200Y44074287D01*
X25977200Y44074287D02*
X25929580Y44026668D01*
X27614285Y47745181D02*
X27614285Y47030896D01*
X27614285Y47030896D02*
X27566666Y46888039D01*
X27566666Y46888039D02*
X27471428Y46792800D01*
X27471428Y46792800D02*
X27328571Y46745181D01*
X27328571Y46745181D02*
X27233333Y46745181D01*
X28090476Y46745181D02*
X28090476Y47745181D01*
X28090476Y47745181D02*
X28471428Y47745181D01*
X28471428Y47745181D02*
X28566666Y47697562D01*
X28566666Y47697562D02*
X28614285Y47649943D01*
X28614285Y47649943D02*
X28661904Y47554705D01*
X28661904Y47554705D02*
X28661904Y47411848D01*
X28661904Y47411848D02*
X28614285Y47316610D01*
X28614285Y47316610D02*
X28566666Y47268991D01*
X28566666Y47268991D02*
X28471428Y47221372D01*
X28471428Y47221372D02*
X28090476Y47221372D01*
X29614285Y46745181D02*
X29042857Y46745181D01*
X29328571Y46745181D02*
X29328571Y47745181D01*
X29328571Y47745181D02*
X29233333Y47602324D01*
X29233333Y47602324D02*
X29138095Y47507086D01*
X29138095Y47507086D02*
X29042857Y47459467D01*
X30233333Y47745181D02*
X30328571Y47745181D01*
X30328571Y47745181D02*
X30423809Y47697562D01*
X30423809Y47697562D02*
X30471428Y47649943D01*
X30471428Y47649943D02*
X30519047Y47554705D01*
X30519047Y47554705D02*
X30566666Y47364229D01*
X30566666Y47364229D02*
X30566666Y47126134D01*
X30566666Y47126134D02*
X30519047Y46935658D01*
X30519047Y46935658D02*
X30471428Y46840420D01*
X30471428Y46840420D02*
X30423809Y46792800D01*
X30423809Y46792800D02*
X30328571Y46745181D01*
X30328571Y46745181D02*
X30233333Y46745181D01*
X30233333Y46745181D02*
X30138095Y46792800D01*
X30138095Y46792800D02*
X30090476Y46840420D01*
X30090476Y46840420D02*
X30042857Y46935658D01*
X30042857Y46935658D02*
X29995238Y47126134D01*
X29995238Y47126134D02*
X29995238Y47364229D01*
X29995238Y47364229D02*
X30042857Y47554705D01*
X30042857Y47554705D02*
X30090476Y47649943D01*
X30090476Y47649943D02*
X30138095Y47697562D01*
X30138095Y47697562D02*
X30233333Y47745181D01*
X31519047Y46745181D02*
X30947619Y46745181D01*
X31233333Y46745181D02*
X31233333Y47745181D01*
X31233333Y47745181D02*
X31138095Y47602324D01*
X31138095Y47602324D02*
X31042857Y47507086D01*
X31042857Y47507086D02*
X30947619Y47459467D01*
X62204819Y25714286D02*
X62919104Y25714286D01*
X62919104Y25714286D02*
X63061961Y25666667D01*
X63061961Y25666667D02*
X63157200Y25571429D01*
X63157200Y25571429D02*
X63204819Y25428572D01*
X63204819Y25428572D02*
X63204819Y25333334D01*
X63204819Y26714286D02*
X63204819Y26142858D01*
X63204819Y26428572D02*
X62204819Y26428572D01*
X62204819Y26428572D02*
X62347676Y26333334D01*
X62347676Y26333334D02*
X62442914Y26238096D01*
X62442914Y26238096D02*
X62490533Y26142858D01*
X62204819Y27333334D02*
X62204819Y27428572D01*
X62204819Y27428572D02*
X62252438Y27523810D01*
X62252438Y27523810D02*
X62300057Y27571429D01*
X62300057Y27571429D02*
X62395295Y27619048D01*
X62395295Y27619048D02*
X62585771Y27666667D01*
X62585771Y27666667D02*
X62823866Y27666667D01*
X62823866Y27666667D02*
X63014342Y27619048D01*
X63014342Y27619048D02*
X63109580Y27571429D01*
X63109580Y27571429D02*
X63157200Y27523810D01*
X63157200Y27523810D02*
X63204819Y27428572D01*
X63204819Y27428572D02*
X63204819Y27333334D01*
X63204819Y27333334D02*
X63157200Y27238096D01*
X63157200Y27238096D02*
X63109580Y27190477D01*
X63109580Y27190477D02*
X63014342Y27142858D01*
X63014342Y27142858D02*
X62823866Y27095239D01*
X62823866Y27095239D02*
X62585771Y27095239D01*
X62585771Y27095239D02*
X62395295Y27142858D01*
X62395295Y27142858D02*
X62300057Y27190477D01*
X62300057Y27190477D02*
X62252438Y27238096D01*
X62252438Y27238096D02*
X62204819Y27333334D01*
X62300057Y28047620D02*
X62252438Y28095239D01*
X62252438Y28095239D02*
X62204819Y28190477D01*
X62204819Y28190477D02*
X62204819Y28428572D01*
X62204819Y28428572D02*
X62252438Y28523810D01*
X62252438Y28523810D02*
X62300057Y28571429D01*
X62300057Y28571429D02*
X62395295Y28619048D01*
X62395295Y28619048D02*
X62490533Y28619048D01*
X62490533Y28619048D02*
X62633390Y28571429D01*
X62633390Y28571429D02*
X63204819Y28000001D01*
X63204819Y28000001D02*
X63204819Y28619048D01*
X23454819Y34964286D02*
X24169104Y34964286D01*
X24169104Y34964286D02*
X24311961Y34916667D01*
X24311961Y34916667D02*
X24407200Y34821429D01*
X24407200Y34821429D02*
X24454819Y34678572D01*
X24454819Y34678572D02*
X24454819Y34583334D01*
X24454819Y35440477D02*
X23454819Y35440477D01*
X23454819Y35440477D02*
X23454819Y35821429D01*
X23454819Y35821429D02*
X23502438Y35916667D01*
X23502438Y35916667D02*
X23550057Y35964286D01*
X23550057Y35964286D02*
X23645295Y36011905D01*
X23645295Y36011905D02*
X23788152Y36011905D01*
X23788152Y36011905D02*
X23883390Y35964286D01*
X23883390Y35964286D02*
X23931009Y35916667D01*
X23931009Y35916667D02*
X23978628Y35821429D01*
X23978628Y35821429D02*
X23978628Y35440477D01*
X24454819Y36964286D02*
X24454819Y36392858D01*
X24454819Y36678572D02*
X23454819Y36678572D01*
X23454819Y36678572D02*
X23597676Y36583334D01*
X23597676Y36583334D02*
X23692914Y36488096D01*
X23692914Y36488096D02*
X23740533Y36392858D01*
X23454819Y37583334D02*
X23454819Y37678572D01*
X23454819Y37678572D02*
X23502438Y37773810D01*
X23502438Y37773810D02*
X23550057Y37821429D01*
X23550057Y37821429D02*
X23645295Y37869048D01*
X23645295Y37869048D02*
X23835771Y37916667D01*
X23835771Y37916667D02*
X24073866Y37916667D01*
X24073866Y37916667D02*
X24264342Y37869048D01*
X24264342Y37869048D02*
X24359580Y37821429D01*
X24359580Y37821429D02*
X24407200Y37773810D01*
X24407200Y37773810D02*
X24454819Y37678572D01*
X24454819Y37678572D02*
X24454819Y37583334D01*
X24454819Y37583334D02*
X24407200Y37488096D01*
X24407200Y37488096D02*
X24359580Y37440477D01*
X24359580Y37440477D02*
X24264342Y37392858D01*
X24264342Y37392858D02*
X24073866Y37345239D01*
X24073866Y37345239D02*
X23835771Y37345239D01*
X23835771Y37345239D02*
X23645295Y37392858D01*
X23645295Y37392858D02*
X23550057Y37440477D01*
X23550057Y37440477D02*
X23502438Y37488096D01*
X23502438Y37488096D02*
X23454819Y37583334D01*
X23550057Y38297620D02*
X23502438Y38345239D01*
X23502438Y38345239D02*
X23454819Y38440477D01*
X23454819Y38440477D02*
X23454819Y38678572D01*
X23454819Y38678572D02*
X23502438Y38773810D01*
X23502438Y38773810D02*
X23550057Y38821429D01*
X23550057Y38821429D02*
X23645295Y38869048D01*
X23645295Y38869048D02*
X23740533Y38869048D01*
X23740533Y38869048D02*
X23883390Y38821429D01*
X23883390Y38821429D02*
X24454819Y38250001D01*
X24454819Y38250001D02*
X24454819Y38869048D01*
X62204819Y11464286D02*
X62919104Y11464286D01*
X62919104Y11464286D02*
X63061961Y11416667D01*
X63061961Y11416667D02*
X63157200Y11321429D01*
X63157200Y11321429D02*
X63204819Y11178572D01*
X63204819Y11178572D02*
X63204819Y11083334D01*
X63204819Y12464286D02*
X63204819Y11892858D01*
X63204819Y12178572D02*
X62204819Y12178572D01*
X62204819Y12178572D02*
X62347676Y12083334D01*
X62347676Y12083334D02*
X62442914Y11988096D01*
X62442914Y11988096D02*
X62490533Y11892858D01*
X62204819Y13083334D02*
X62204819Y13178572D01*
X62204819Y13178572D02*
X62252438Y13273810D01*
X62252438Y13273810D02*
X62300057Y13321429D01*
X62300057Y13321429D02*
X62395295Y13369048D01*
X62395295Y13369048D02*
X62585771Y13416667D01*
X62585771Y13416667D02*
X62823866Y13416667D01*
X62823866Y13416667D02*
X63014342Y13369048D01*
X63014342Y13369048D02*
X63109580Y13321429D01*
X63109580Y13321429D02*
X63157200Y13273810D01*
X63157200Y13273810D02*
X63204819Y13178572D01*
X63204819Y13178572D02*
X63204819Y13083334D01*
X63204819Y13083334D02*
X63157200Y12988096D01*
X63157200Y12988096D02*
X63109580Y12940477D01*
X63109580Y12940477D02*
X63014342Y12892858D01*
X63014342Y12892858D02*
X62823866Y12845239D01*
X62823866Y12845239D02*
X62585771Y12845239D01*
X62585771Y12845239D02*
X62395295Y12892858D01*
X62395295Y12892858D02*
X62300057Y12940477D01*
X62300057Y12940477D02*
X62252438Y12988096D01*
X62252438Y12988096D02*
X62204819Y13083334D01*
X63204819Y14369048D02*
X63204819Y13797620D01*
X63204819Y14083334D02*
X62204819Y14083334D01*
X62204819Y14083334D02*
X62347676Y13988096D01*
X62347676Y13988096D02*
X62442914Y13892858D01*
X62442914Y13892858D02*
X62490533Y13797620D01*
X41630952Y27480420D02*
X41583333Y27432800D01*
X41583333Y27432800D02*
X41440476Y27385181D01*
X41440476Y27385181D02*
X41345238Y27385181D01*
X41345238Y27385181D02*
X41202381Y27432800D01*
X41202381Y27432800D02*
X41107143Y27528039D01*
X41107143Y27528039D02*
X41059524Y27623277D01*
X41059524Y27623277D02*
X41011905Y27813753D01*
X41011905Y27813753D02*
X41011905Y27956610D01*
X41011905Y27956610D02*
X41059524Y28147086D01*
X41059524Y28147086D02*
X41107143Y28242324D01*
X41107143Y28242324D02*
X41202381Y28337562D01*
X41202381Y28337562D02*
X41345238Y28385181D01*
X41345238Y28385181D02*
X41440476Y28385181D01*
X41440476Y28385181D02*
X41583333Y28337562D01*
X41583333Y28337562D02*
X41630952Y28289943D01*
X42583333Y27385181D02*
X42011905Y27385181D01*
X42297619Y27385181D02*
X42297619Y28385181D01*
X42297619Y28385181D02*
X42202381Y28242324D01*
X42202381Y28242324D02*
X42107143Y28147086D01*
X42107143Y28147086D02*
X42011905Y28099467D01*
X43202381Y28385181D02*
X43297619Y28385181D01*
X43297619Y28385181D02*
X43392857Y28337562D01*
X43392857Y28337562D02*
X43440476Y28289943D01*
X43440476Y28289943D02*
X43488095Y28194705D01*
X43488095Y28194705D02*
X43535714Y28004229D01*
X43535714Y28004229D02*
X43535714Y27766134D01*
X43535714Y27766134D02*
X43488095Y27575658D01*
X43488095Y27575658D02*
X43440476Y27480420D01*
X43440476Y27480420D02*
X43392857Y27432800D01*
X43392857Y27432800D02*
X43297619Y27385181D01*
X43297619Y27385181D02*
X43202381Y27385181D01*
X43202381Y27385181D02*
X43107143Y27432800D01*
X43107143Y27432800D02*
X43059524Y27480420D01*
X43059524Y27480420D02*
X43011905Y27575658D01*
X43011905Y27575658D02*
X42964286Y27766134D01*
X42964286Y27766134D02*
X42964286Y28004229D01*
X42964286Y28004229D02*
X43011905Y28194705D01*
X43011905Y28194705D02*
X43059524Y28289943D01*
X43059524Y28289943D02*
X43107143Y28337562D01*
X43107143Y28337562D02*
X43202381Y28385181D01*
X44392857Y28051848D02*
X44392857Y27385181D01*
X44154762Y28432800D02*
X43916667Y27718515D01*
X43916667Y27718515D02*
X44535714Y27718515D01*
X43880952Y15465181D02*
X43547619Y15941372D01*
X43309524Y15465181D02*
X43309524Y16465181D01*
X43309524Y16465181D02*
X43690476Y16465181D01*
X43690476Y16465181D02*
X43785714Y16417562D01*
X43785714Y16417562D02*
X43833333Y16369943D01*
X43833333Y16369943D02*
X43880952Y16274705D01*
X43880952Y16274705D02*
X43880952Y16131848D01*
X43880952Y16131848D02*
X43833333Y16036610D01*
X43833333Y16036610D02*
X43785714Y15988991D01*
X43785714Y15988991D02*
X43690476Y15941372D01*
X43690476Y15941372D02*
X43309524Y15941372D01*
X44833333Y15465181D02*
X44261905Y15465181D01*
X44547619Y15465181D02*
X44547619Y16465181D01*
X44547619Y16465181D02*
X44452381Y16322324D01*
X44452381Y16322324D02*
X44357143Y16227086D01*
X44357143Y16227086D02*
X44261905Y16179467D01*
X45452381Y16465181D02*
X45547619Y16465181D01*
X45547619Y16465181D02*
X45642857Y16417562D01*
X45642857Y16417562D02*
X45690476Y16369943D01*
X45690476Y16369943D02*
X45738095Y16274705D01*
X45738095Y16274705D02*
X45785714Y16084229D01*
X45785714Y16084229D02*
X45785714Y15846134D01*
X45785714Y15846134D02*
X45738095Y15655658D01*
X45738095Y15655658D02*
X45690476Y15560420D01*
X45690476Y15560420D02*
X45642857Y15512800D01*
X45642857Y15512800D02*
X45547619Y15465181D01*
X45547619Y15465181D02*
X45452381Y15465181D01*
X45452381Y15465181D02*
X45357143Y15512800D01*
X45357143Y15512800D02*
X45309524Y15560420D01*
X45309524Y15560420D02*
X45261905Y15655658D01*
X45261905Y15655658D02*
X45214286Y15846134D01*
X45214286Y15846134D02*
X45214286Y16084229D01*
X45214286Y16084229D02*
X45261905Y16274705D01*
X45261905Y16274705D02*
X45309524Y16369943D01*
X45309524Y16369943D02*
X45357143Y16417562D01*
X45357143Y16417562D02*
X45452381Y16465181D01*
X46166667Y16369943D02*
X46214286Y16417562D01*
X46214286Y16417562D02*
X46309524Y16465181D01*
X46309524Y16465181D02*
X46547619Y16465181D01*
X46547619Y16465181D02*
X46642857Y16417562D01*
X46642857Y16417562D02*
X46690476Y16369943D01*
X46690476Y16369943D02*
X46738095Y16274705D01*
X46738095Y16274705D02*
X46738095Y16179467D01*
X46738095Y16179467D02*
X46690476Y16036610D01*
X46690476Y16036610D02*
X46119048Y15465181D01*
X46119048Y15465181D02*
X46738095Y15465181D01*
X19785714Y46045181D02*
X19785714Y45235658D01*
X19785714Y45235658D02*
X19833333Y45140420D01*
X19833333Y45140420D02*
X19880952Y45092800D01*
X19880952Y45092800D02*
X19976190Y45045181D01*
X19976190Y45045181D02*
X20166666Y45045181D01*
X20166666Y45045181D02*
X20261904Y45092800D01*
X20261904Y45092800D02*
X20309523Y45140420D01*
X20309523Y45140420D02*
X20357142Y45235658D01*
X20357142Y45235658D02*
X20357142Y46045181D01*
X21357142Y45045181D02*
X20785714Y45045181D01*
X21071428Y45045181D02*
X21071428Y46045181D01*
X21071428Y46045181D02*
X20976190Y45902324D01*
X20976190Y45902324D02*
X20880952Y45807086D01*
X20880952Y45807086D02*
X20785714Y45759467D01*
X21976190Y46045181D02*
X22071428Y46045181D01*
X22071428Y46045181D02*
X22166666Y45997562D01*
X22166666Y45997562D02*
X22214285Y45949943D01*
X22214285Y45949943D02*
X22261904Y45854705D01*
X22261904Y45854705D02*
X22309523Y45664229D01*
X22309523Y45664229D02*
X22309523Y45426134D01*
X22309523Y45426134D02*
X22261904Y45235658D01*
X22261904Y45235658D02*
X22214285Y45140420D01*
X22214285Y45140420D02*
X22166666Y45092800D01*
X22166666Y45092800D02*
X22071428Y45045181D01*
X22071428Y45045181D02*
X21976190Y45045181D01*
X21976190Y45045181D02*
X21880952Y45092800D01*
X21880952Y45092800D02*
X21833333Y45140420D01*
X21833333Y45140420D02*
X21785714Y45235658D01*
X21785714Y45235658D02*
X21738095Y45426134D01*
X21738095Y45426134D02*
X21738095Y45664229D01*
X21738095Y45664229D02*
X21785714Y45854705D01*
X21785714Y45854705D02*
X21833333Y45949943D01*
X21833333Y45949943D02*
X21880952Y45997562D01*
X21880952Y45997562D02*
X21976190Y46045181D01*
X22690476Y45949943D02*
X22738095Y45997562D01*
X22738095Y45997562D02*
X22833333Y46045181D01*
X22833333Y46045181D02*
X23071428Y46045181D01*
X23071428Y46045181D02*
X23166666Y45997562D01*
X23166666Y45997562D02*
X23214285Y45949943D01*
X23214285Y45949943D02*
X23261904Y45854705D01*
X23261904Y45854705D02*
X23261904Y45759467D01*
X23261904Y45759467D02*
X23214285Y45616610D01*
X23214285Y45616610D02*
X22642857Y45045181D01*
X22642857Y45045181D02*
X23261904Y45045181D01*
X36785714Y16645181D02*
X36785714Y15835658D01*
X36785714Y15835658D02*
X36833333Y15740420D01*
X36833333Y15740420D02*
X36880952Y15692800D01*
X36880952Y15692800D02*
X36976190Y15645181D01*
X36976190Y15645181D02*
X37166666Y15645181D01*
X37166666Y15645181D02*
X37261904Y15692800D01*
X37261904Y15692800D02*
X37309523Y15740420D01*
X37309523Y15740420D02*
X37357142Y15835658D01*
X37357142Y15835658D02*
X37357142Y16645181D01*
X38357142Y15645181D02*
X37785714Y15645181D01*
X38071428Y15645181D02*
X38071428Y16645181D01*
X38071428Y16645181D02*
X37976190Y16502324D01*
X37976190Y16502324D02*
X37880952Y16407086D01*
X37880952Y16407086D02*
X37785714Y16359467D01*
X38976190Y16645181D02*
X39071428Y16645181D01*
X39071428Y16645181D02*
X39166666Y16597562D01*
X39166666Y16597562D02*
X39214285Y16549943D01*
X39214285Y16549943D02*
X39261904Y16454705D01*
X39261904Y16454705D02*
X39309523Y16264229D01*
X39309523Y16264229D02*
X39309523Y16026134D01*
X39309523Y16026134D02*
X39261904Y15835658D01*
X39261904Y15835658D02*
X39214285Y15740420D01*
X39214285Y15740420D02*
X39166666Y15692800D01*
X39166666Y15692800D02*
X39071428Y15645181D01*
X39071428Y15645181D02*
X38976190Y15645181D01*
X38976190Y15645181D02*
X38880952Y15692800D01*
X38880952Y15692800D02*
X38833333Y15740420D01*
X38833333Y15740420D02*
X38785714Y15835658D01*
X38785714Y15835658D02*
X38738095Y16026134D01*
X38738095Y16026134D02*
X38738095Y16264229D01*
X38738095Y16264229D02*
X38785714Y16454705D01*
X38785714Y16454705D02*
X38833333Y16549943D01*
X38833333Y16549943D02*
X38880952Y16597562D01*
X38880952Y16597562D02*
X38976190Y16645181D01*
X40261904Y15645181D02*
X39690476Y15645181D01*
X39976190Y15645181D02*
X39976190Y16645181D01*
X39976190Y16645181D02*
X39880952Y16502324D01*
X39880952Y16502324D02*
X39785714Y16407086D01*
X39785714Y16407086D02*
X39690476Y16359467D01*
X16954819Y38130953D02*
X16478628Y37797620D01*
X16954819Y37559525D02*
X15954819Y37559525D01*
X15954819Y37559525D02*
X15954819Y37940477D01*
X15954819Y37940477D02*
X16002438Y38035715D01*
X16002438Y38035715D02*
X16050057Y38083334D01*
X16050057Y38083334D02*
X16145295Y38130953D01*
X16145295Y38130953D02*
X16288152Y38130953D01*
X16288152Y38130953D02*
X16383390Y38083334D01*
X16383390Y38083334D02*
X16431009Y38035715D01*
X16431009Y38035715D02*
X16478628Y37940477D01*
X16478628Y37940477D02*
X16478628Y37559525D01*
X16954819Y39083334D02*
X16954819Y38511906D01*
X16954819Y38797620D02*
X15954819Y38797620D01*
X15954819Y38797620D02*
X16097676Y38702382D01*
X16097676Y38702382D02*
X16192914Y38607144D01*
X16192914Y38607144D02*
X16240533Y38511906D01*
X15954819Y39702382D02*
X15954819Y39797620D01*
X15954819Y39797620D02*
X16002438Y39892858D01*
X16002438Y39892858D02*
X16050057Y39940477D01*
X16050057Y39940477D02*
X16145295Y39988096D01*
X16145295Y39988096D02*
X16335771Y40035715D01*
X16335771Y40035715D02*
X16573866Y40035715D01*
X16573866Y40035715D02*
X16764342Y39988096D01*
X16764342Y39988096D02*
X16859580Y39940477D01*
X16859580Y39940477D02*
X16907200Y39892858D01*
X16907200Y39892858D02*
X16954819Y39797620D01*
X16954819Y39797620D02*
X16954819Y39702382D01*
X16954819Y39702382D02*
X16907200Y39607144D01*
X16907200Y39607144D02*
X16859580Y39559525D01*
X16859580Y39559525D02*
X16764342Y39511906D01*
X16764342Y39511906D02*
X16573866Y39464287D01*
X16573866Y39464287D02*
X16335771Y39464287D01*
X16335771Y39464287D02*
X16145295Y39511906D01*
X16145295Y39511906D02*
X16050057Y39559525D01*
X16050057Y39559525D02*
X16002438Y39607144D01*
X16002438Y39607144D02*
X15954819Y39702382D01*
X15954819Y40369049D02*
X15954819Y41035715D01*
X15954819Y41035715D02*
X16954819Y40607144D01*
X43880952Y10465181D02*
X43547619Y10941372D01*
X43309524Y10465181D02*
X43309524Y11465181D01*
X43309524Y11465181D02*
X43690476Y11465181D01*
X43690476Y11465181D02*
X43785714Y11417562D01*
X43785714Y11417562D02*
X43833333Y11369943D01*
X43833333Y11369943D02*
X43880952Y11274705D01*
X43880952Y11274705D02*
X43880952Y11131848D01*
X43880952Y11131848D02*
X43833333Y11036610D01*
X43833333Y11036610D02*
X43785714Y10988991D01*
X43785714Y10988991D02*
X43690476Y10941372D01*
X43690476Y10941372D02*
X43309524Y10941372D01*
X44833333Y10465181D02*
X44261905Y10465181D01*
X44547619Y10465181D02*
X44547619Y11465181D01*
X44547619Y11465181D02*
X44452381Y11322324D01*
X44452381Y11322324D02*
X44357143Y11227086D01*
X44357143Y11227086D02*
X44261905Y11179467D01*
X45452381Y11465181D02*
X45547619Y11465181D01*
X45547619Y11465181D02*
X45642857Y11417562D01*
X45642857Y11417562D02*
X45690476Y11369943D01*
X45690476Y11369943D02*
X45738095Y11274705D01*
X45738095Y11274705D02*
X45785714Y11084229D01*
X45785714Y11084229D02*
X45785714Y10846134D01*
X45785714Y10846134D02*
X45738095Y10655658D01*
X45738095Y10655658D02*
X45690476Y10560420D01*
X45690476Y10560420D02*
X45642857Y10512800D01*
X45642857Y10512800D02*
X45547619Y10465181D01*
X45547619Y10465181D02*
X45452381Y10465181D01*
X45452381Y10465181D02*
X45357143Y10512800D01*
X45357143Y10512800D02*
X45309524Y10560420D01*
X45309524Y10560420D02*
X45261905Y10655658D01*
X45261905Y10655658D02*
X45214286Y10846134D01*
X45214286Y10846134D02*
X45214286Y11084229D01*
X45214286Y11084229D02*
X45261905Y11274705D01*
X45261905Y11274705D02*
X45309524Y11369943D01*
X45309524Y11369943D02*
X45357143Y11417562D01*
X45357143Y11417562D02*
X45452381Y11465181D01*
X46738095Y10465181D02*
X46166667Y10465181D01*
X46452381Y10465181D02*
X46452381Y11465181D01*
X46452381Y11465181D02*
X46357143Y11322324D01*
X46357143Y11322324D02*
X46261905Y11227086D01*
X46261905Y11227086D02*
X46166667Y11179467D01*
X41630952Y8230420D02*
X41583333Y8182800D01*
X41583333Y8182800D02*
X41440476Y8135181D01*
X41440476Y8135181D02*
X41345238Y8135181D01*
X41345238Y8135181D02*
X41202381Y8182800D01*
X41202381Y8182800D02*
X41107143Y8278039D01*
X41107143Y8278039D02*
X41059524Y8373277D01*
X41059524Y8373277D02*
X41011905Y8563753D01*
X41011905Y8563753D02*
X41011905Y8706610D01*
X41011905Y8706610D02*
X41059524Y8897086D01*
X41059524Y8897086D02*
X41107143Y8992324D01*
X41107143Y8992324D02*
X41202381Y9087562D01*
X41202381Y9087562D02*
X41345238Y9135181D01*
X41345238Y9135181D02*
X41440476Y9135181D01*
X41440476Y9135181D02*
X41583333Y9087562D01*
X41583333Y9087562D02*
X41630952Y9039943D01*
X42583333Y8135181D02*
X42011905Y8135181D01*
X42297619Y8135181D02*
X42297619Y9135181D01*
X42297619Y9135181D02*
X42202381Y8992324D01*
X42202381Y8992324D02*
X42107143Y8897086D01*
X42107143Y8897086D02*
X42011905Y8849467D01*
X43202381Y9135181D02*
X43297619Y9135181D01*
X43297619Y9135181D02*
X43392857Y9087562D01*
X43392857Y9087562D02*
X43440476Y9039943D01*
X43440476Y9039943D02*
X43488095Y8944705D01*
X43488095Y8944705D02*
X43535714Y8754229D01*
X43535714Y8754229D02*
X43535714Y8516134D01*
X43535714Y8516134D02*
X43488095Y8325658D01*
X43488095Y8325658D02*
X43440476Y8230420D01*
X43440476Y8230420D02*
X43392857Y8182800D01*
X43392857Y8182800D02*
X43297619Y8135181D01*
X43297619Y8135181D02*
X43202381Y8135181D01*
X43202381Y8135181D02*
X43107143Y8182800D01*
X43107143Y8182800D02*
X43059524Y8230420D01*
X43059524Y8230420D02*
X43011905Y8325658D01*
X43011905Y8325658D02*
X42964286Y8516134D01*
X42964286Y8516134D02*
X42964286Y8754229D01*
X42964286Y8754229D02*
X43011905Y8944705D01*
X43011905Y8944705D02*
X43059524Y9039943D01*
X43059524Y9039943D02*
X43107143Y9087562D01*
X43107143Y9087562D02*
X43202381Y9135181D01*
X44488095Y8135181D02*
X43916667Y8135181D01*
X44202381Y8135181D02*
X44202381Y9135181D01*
X44202381Y9135181D02*
X44107143Y8992324D01*
X44107143Y8992324D02*
X44011905Y8897086D01*
X44011905Y8897086D02*
X43916667Y8849467D01*
X43880952Y29715181D02*
X43547619Y30191372D01*
X43309524Y29715181D02*
X43309524Y30715181D01*
X43309524Y30715181D02*
X43690476Y30715181D01*
X43690476Y30715181D02*
X43785714Y30667562D01*
X43785714Y30667562D02*
X43833333Y30619943D01*
X43833333Y30619943D02*
X43880952Y30524705D01*
X43880952Y30524705D02*
X43880952Y30381848D01*
X43880952Y30381848D02*
X43833333Y30286610D01*
X43833333Y30286610D02*
X43785714Y30238991D01*
X43785714Y30238991D02*
X43690476Y30191372D01*
X43690476Y30191372D02*
X43309524Y30191372D01*
X44833333Y29715181D02*
X44261905Y29715181D01*
X44547619Y29715181D02*
X44547619Y30715181D01*
X44547619Y30715181D02*
X44452381Y30572324D01*
X44452381Y30572324D02*
X44357143Y30477086D01*
X44357143Y30477086D02*
X44261905Y30429467D01*
X45452381Y30715181D02*
X45547619Y30715181D01*
X45547619Y30715181D02*
X45642857Y30667562D01*
X45642857Y30667562D02*
X45690476Y30619943D01*
X45690476Y30619943D02*
X45738095Y30524705D01*
X45738095Y30524705D02*
X45785714Y30334229D01*
X45785714Y30334229D02*
X45785714Y30096134D01*
X45785714Y30096134D02*
X45738095Y29905658D01*
X45738095Y29905658D02*
X45690476Y29810420D01*
X45690476Y29810420D02*
X45642857Y29762800D01*
X45642857Y29762800D02*
X45547619Y29715181D01*
X45547619Y29715181D02*
X45452381Y29715181D01*
X45452381Y29715181D02*
X45357143Y29762800D01*
X45357143Y29762800D02*
X45309524Y29810420D01*
X45309524Y29810420D02*
X45261905Y29905658D01*
X45261905Y29905658D02*
X45214286Y30096134D01*
X45214286Y30096134D02*
X45214286Y30334229D01*
X45214286Y30334229D02*
X45261905Y30524705D01*
X45261905Y30524705D02*
X45309524Y30619943D01*
X45309524Y30619943D02*
X45357143Y30667562D01*
X45357143Y30667562D02*
X45452381Y30715181D01*
X46642857Y30381848D02*
X46642857Y29715181D01*
X46404762Y30762800D02*
X46166667Y30048515D01*
X46166667Y30048515D02*
X46785714Y30048515D01*
X41630952Y22480420D02*
X41583333Y22432800D01*
X41583333Y22432800D02*
X41440476Y22385181D01*
X41440476Y22385181D02*
X41345238Y22385181D01*
X41345238Y22385181D02*
X41202381Y22432800D01*
X41202381Y22432800D02*
X41107143Y22528039D01*
X41107143Y22528039D02*
X41059524Y22623277D01*
X41059524Y22623277D02*
X41011905Y22813753D01*
X41011905Y22813753D02*
X41011905Y22956610D01*
X41011905Y22956610D02*
X41059524Y23147086D01*
X41059524Y23147086D02*
X41107143Y23242324D01*
X41107143Y23242324D02*
X41202381Y23337562D01*
X41202381Y23337562D02*
X41345238Y23385181D01*
X41345238Y23385181D02*
X41440476Y23385181D01*
X41440476Y23385181D02*
X41583333Y23337562D01*
X41583333Y23337562D02*
X41630952Y23289943D01*
X42583333Y22385181D02*
X42011905Y22385181D01*
X42297619Y22385181D02*
X42297619Y23385181D01*
X42297619Y23385181D02*
X42202381Y23242324D01*
X42202381Y23242324D02*
X42107143Y23147086D01*
X42107143Y23147086D02*
X42011905Y23099467D01*
X43202381Y23385181D02*
X43297619Y23385181D01*
X43297619Y23385181D02*
X43392857Y23337562D01*
X43392857Y23337562D02*
X43440476Y23289943D01*
X43440476Y23289943D02*
X43488095Y23194705D01*
X43488095Y23194705D02*
X43535714Y23004229D01*
X43535714Y23004229D02*
X43535714Y22766134D01*
X43535714Y22766134D02*
X43488095Y22575658D01*
X43488095Y22575658D02*
X43440476Y22480420D01*
X43440476Y22480420D02*
X43392857Y22432800D01*
X43392857Y22432800D02*
X43297619Y22385181D01*
X43297619Y22385181D02*
X43202381Y22385181D01*
X43202381Y22385181D02*
X43107143Y22432800D01*
X43107143Y22432800D02*
X43059524Y22480420D01*
X43059524Y22480420D02*
X43011905Y22575658D01*
X43011905Y22575658D02*
X42964286Y22766134D01*
X42964286Y22766134D02*
X42964286Y23004229D01*
X42964286Y23004229D02*
X43011905Y23194705D01*
X43011905Y23194705D02*
X43059524Y23289943D01*
X43059524Y23289943D02*
X43107143Y23337562D01*
X43107143Y23337562D02*
X43202381Y23385181D01*
X43869048Y23385181D02*
X44488095Y23385181D01*
X44488095Y23385181D02*
X44154762Y23004229D01*
X44154762Y23004229D02*
X44297619Y23004229D01*
X44297619Y23004229D02*
X44392857Y22956610D01*
X44392857Y22956610D02*
X44440476Y22908991D01*
X44440476Y22908991D02*
X44488095Y22813753D01*
X44488095Y22813753D02*
X44488095Y22575658D01*
X44488095Y22575658D02*
X44440476Y22480420D01*
X44440476Y22480420D02*
X44392857Y22432800D01*
X44392857Y22432800D02*
X44297619Y22385181D01*
X44297619Y22385181D02*
X44011905Y22385181D01*
X44011905Y22385181D02*
X43916667Y22432800D01*
X43916667Y22432800D02*
X43869048Y22480420D01*
X43880952Y24715181D02*
X43547619Y25191372D01*
X43309524Y24715181D02*
X43309524Y25715181D01*
X43309524Y25715181D02*
X43690476Y25715181D01*
X43690476Y25715181D02*
X43785714Y25667562D01*
X43785714Y25667562D02*
X43833333Y25619943D01*
X43833333Y25619943D02*
X43880952Y25524705D01*
X43880952Y25524705D02*
X43880952Y25381848D01*
X43880952Y25381848D02*
X43833333Y25286610D01*
X43833333Y25286610D02*
X43785714Y25238991D01*
X43785714Y25238991D02*
X43690476Y25191372D01*
X43690476Y25191372D02*
X43309524Y25191372D01*
X44833333Y24715181D02*
X44261905Y24715181D01*
X44547619Y24715181D02*
X44547619Y25715181D01*
X44547619Y25715181D02*
X44452381Y25572324D01*
X44452381Y25572324D02*
X44357143Y25477086D01*
X44357143Y25477086D02*
X44261905Y25429467D01*
X45452381Y25715181D02*
X45547619Y25715181D01*
X45547619Y25715181D02*
X45642857Y25667562D01*
X45642857Y25667562D02*
X45690476Y25619943D01*
X45690476Y25619943D02*
X45738095Y25524705D01*
X45738095Y25524705D02*
X45785714Y25334229D01*
X45785714Y25334229D02*
X45785714Y25096134D01*
X45785714Y25096134D02*
X45738095Y24905658D01*
X45738095Y24905658D02*
X45690476Y24810420D01*
X45690476Y24810420D02*
X45642857Y24762800D01*
X45642857Y24762800D02*
X45547619Y24715181D01*
X45547619Y24715181D02*
X45452381Y24715181D01*
X45452381Y24715181D02*
X45357143Y24762800D01*
X45357143Y24762800D02*
X45309524Y24810420D01*
X45309524Y24810420D02*
X45261905Y24905658D01*
X45261905Y24905658D02*
X45214286Y25096134D01*
X45214286Y25096134D02*
X45214286Y25334229D01*
X45214286Y25334229D02*
X45261905Y25524705D01*
X45261905Y25524705D02*
X45309524Y25619943D01*
X45309524Y25619943D02*
X45357143Y25667562D01*
X45357143Y25667562D02*
X45452381Y25715181D01*
X46119048Y25715181D02*
X46738095Y25715181D01*
X46738095Y25715181D02*
X46404762Y25334229D01*
X46404762Y25334229D02*
X46547619Y25334229D01*
X46547619Y25334229D02*
X46642857Y25286610D01*
X46642857Y25286610D02*
X46690476Y25238991D01*
X46690476Y25238991D02*
X46738095Y25143753D01*
X46738095Y25143753D02*
X46738095Y24905658D01*
X46738095Y24905658D02*
X46690476Y24810420D01*
X46690476Y24810420D02*
X46642857Y24762800D01*
X46642857Y24762800D02*
X46547619Y24715181D01*
X46547619Y24715181D02*
X46261905Y24715181D01*
X46261905Y24715181D02*
X46166667Y24762800D01*
X46166667Y24762800D02*
X46119048Y24810420D01*
X46261009Y35464286D02*
X46261009Y35130953D01*
X46784819Y35130953D02*
X45784819Y35130953D01*
X45784819Y35130953D02*
X45784819Y35607143D01*
X46784819Y36511905D02*
X46784819Y35940477D01*
X46784819Y36226191D02*
X45784819Y36226191D01*
X45784819Y36226191D02*
X45927676Y36130953D01*
X45927676Y36130953D02*
X46022914Y36035715D01*
X46022914Y36035715D02*
X46070533Y35940477D01*
X45784819Y37130953D02*
X45784819Y37226191D01*
X45784819Y37226191D02*
X45832438Y37321429D01*
X45832438Y37321429D02*
X45880057Y37369048D01*
X45880057Y37369048D02*
X45975295Y37416667D01*
X45975295Y37416667D02*
X46165771Y37464286D01*
X46165771Y37464286D02*
X46403866Y37464286D01*
X46403866Y37464286D02*
X46594342Y37416667D01*
X46594342Y37416667D02*
X46689580Y37369048D01*
X46689580Y37369048D02*
X46737200Y37321429D01*
X46737200Y37321429D02*
X46784819Y37226191D01*
X46784819Y37226191D02*
X46784819Y37130953D01*
X46784819Y37130953D02*
X46737200Y37035715D01*
X46737200Y37035715D02*
X46689580Y36988096D01*
X46689580Y36988096D02*
X46594342Y36940477D01*
X46594342Y36940477D02*
X46403866Y36892858D01*
X46403866Y36892858D02*
X46165771Y36892858D01*
X46165771Y36892858D02*
X45975295Y36940477D01*
X45975295Y36940477D02*
X45880057Y36988096D01*
X45880057Y36988096D02*
X45832438Y37035715D01*
X45832438Y37035715D02*
X45784819Y37130953D01*
X46784819Y38416667D02*
X46784819Y37845239D01*
X46784819Y38130953D02*
X45784819Y38130953D01*
X45784819Y38130953D02*
X45927676Y38035715D01*
X45927676Y38035715D02*
X46022914Y37940477D01*
X46022914Y37940477D02*
X46070533Y37845239D01*
X39204819Y35809525D02*
X38204819Y35809525D01*
X38204819Y35809525D02*
X38204819Y36047620D01*
X38204819Y36047620D02*
X38252438Y36190477D01*
X38252438Y36190477D02*
X38347676Y36285715D01*
X38347676Y36285715D02*
X38442914Y36333334D01*
X38442914Y36333334D02*
X38633390Y36380953D01*
X38633390Y36380953D02*
X38776247Y36380953D01*
X38776247Y36380953D02*
X38966723Y36333334D01*
X38966723Y36333334D02*
X39061961Y36285715D01*
X39061961Y36285715D02*
X39157200Y36190477D01*
X39157200Y36190477D02*
X39204819Y36047620D01*
X39204819Y36047620D02*
X39204819Y35809525D01*
X39204819Y37333334D02*
X39204819Y36761906D01*
X39204819Y37047620D02*
X38204819Y37047620D01*
X38204819Y37047620D02*
X38347676Y36952382D01*
X38347676Y36952382D02*
X38442914Y36857144D01*
X38442914Y36857144D02*
X38490533Y36761906D01*
X38204819Y37952382D02*
X38204819Y38047620D01*
X38204819Y38047620D02*
X38252438Y38142858D01*
X38252438Y38142858D02*
X38300057Y38190477D01*
X38300057Y38190477D02*
X38395295Y38238096D01*
X38395295Y38238096D02*
X38585771Y38285715D01*
X38585771Y38285715D02*
X38823866Y38285715D01*
X38823866Y38285715D02*
X39014342Y38238096D01*
X39014342Y38238096D02*
X39109580Y38190477D01*
X39109580Y38190477D02*
X39157200Y38142858D01*
X39157200Y38142858D02*
X39204819Y38047620D01*
X39204819Y38047620D02*
X39204819Y37952382D01*
X39204819Y37952382D02*
X39157200Y37857144D01*
X39157200Y37857144D02*
X39109580Y37809525D01*
X39109580Y37809525D02*
X39014342Y37761906D01*
X39014342Y37761906D02*
X38823866Y37714287D01*
X38823866Y37714287D02*
X38585771Y37714287D01*
X38585771Y37714287D02*
X38395295Y37761906D01*
X38395295Y37761906D02*
X38300057Y37809525D01*
X38300057Y37809525D02*
X38252438Y37857144D01*
X38252438Y37857144D02*
X38204819Y37952382D01*
X39204819Y39238096D02*
X39204819Y38666668D01*
X39204819Y38952382D02*
X38204819Y38952382D01*
X38204819Y38952382D02*
X38347676Y38857144D01*
X38347676Y38857144D02*
X38442914Y38761906D01*
X38442914Y38761906D02*
X38490533Y38666668D01*
X41630952Y13230420D02*
X41583333Y13182800D01*
X41583333Y13182800D02*
X41440476Y13135181D01*
X41440476Y13135181D02*
X41345238Y13135181D01*
X41345238Y13135181D02*
X41202381Y13182800D01*
X41202381Y13182800D02*
X41107143Y13278039D01*
X41107143Y13278039D02*
X41059524Y13373277D01*
X41059524Y13373277D02*
X41011905Y13563753D01*
X41011905Y13563753D02*
X41011905Y13706610D01*
X41011905Y13706610D02*
X41059524Y13897086D01*
X41059524Y13897086D02*
X41107143Y13992324D01*
X41107143Y13992324D02*
X41202381Y14087562D01*
X41202381Y14087562D02*
X41345238Y14135181D01*
X41345238Y14135181D02*
X41440476Y14135181D01*
X41440476Y14135181D02*
X41583333Y14087562D01*
X41583333Y14087562D02*
X41630952Y14039943D01*
X42583333Y13135181D02*
X42011905Y13135181D01*
X42297619Y13135181D02*
X42297619Y14135181D01*
X42297619Y14135181D02*
X42202381Y13992324D01*
X42202381Y13992324D02*
X42107143Y13897086D01*
X42107143Y13897086D02*
X42011905Y13849467D01*
X43202381Y14135181D02*
X43297619Y14135181D01*
X43297619Y14135181D02*
X43392857Y14087562D01*
X43392857Y14087562D02*
X43440476Y14039943D01*
X43440476Y14039943D02*
X43488095Y13944705D01*
X43488095Y13944705D02*
X43535714Y13754229D01*
X43535714Y13754229D02*
X43535714Y13516134D01*
X43535714Y13516134D02*
X43488095Y13325658D01*
X43488095Y13325658D02*
X43440476Y13230420D01*
X43440476Y13230420D02*
X43392857Y13182800D01*
X43392857Y13182800D02*
X43297619Y13135181D01*
X43297619Y13135181D02*
X43202381Y13135181D01*
X43202381Y13135181D02*
X43107143Y13182800D01*
X43107143Y13182800D02*
X43059524Y13230420D01*
X43059524Y13230420D02*
X43011905Y13325658D01*
X43011905Y13325658D02*
X42964286Y13516134D01*
X42964286Y13516134D02*
X42964286Y13754229D01*
X42964286Y13754229D02*
X43011905Y13944705D01*
X43011905Y13944705D02*
X43059524Y14039943D01*
X43059524Y14039943D02*
X43107143Y14087562D01*
X43107143Y14087562D02*
X43202381Y14135181D01*
X43916667Y14039943D02*
X43964286Y14087562D01*
X43964286Y14087562D02*
X44059524Y14135181D01*
X44059524Y14135181D02*
X44297619Y14135181D01*
X44297619Y14135181D02*
X44392857Y14087562D01*
X44392857Y14087562D02*
X44440476Y14039943D01*
X44440476Y14039943D02*
X44488095Y13944705D01*
X44488095Y13944705D02*
X44488095Y13849467D01*
X44488095Y13849467D02*
X44440476Y13706610D01*
X44440476Y13706610D02*
X43869048Y13135181D01*
X43869048Y13135181D02*
X44488095Y13135181D01*
D11*
X26610000Y3870000D02*
X27940000Y3870000D01*
X26610000Y2540000D02*
X26610000Y3870000D01*
X29210000Y3870000D02*
X47050000Y3870000D01*
X29210000Y1210000D02*
X29210000Y3870000D01*
X29210000Y1210000D02*
X47050000Y1210000D01*
X47050000Y1210000D02*
X47050000Y3870000D01*
X49470000Y3870000D02*
X50800000Y3870000D01*
X49470000Y2540000D02*
X49470000Y3870000D01*
X52070000Y3870000D02*
X64830000Y3870000D01*
X52070000Y1210000D02*
X52070000Y3870000D01*
X52070000Y1210000D02*
X64830000Y1210000D01*
X64830000Y1210000D02*
X64830000Y3870000D01*
X17466000Y52130000D02*
X18796000Y52130000D01*
X17466000Y50800000D02*
X17466000Y52130000D01*
X20066000Y52130000D02*
X42986000Y52130000D01*
X20066000Y49470000D02*
X20066000Y52130000D01*
X20066000Y49470000D02*
X42986000Y49470000D01*
X42986000Y49470000D02*
X42986000Y52130000D01*
X44390000Y52130000D02*
X45720000Y52130000D01*
X44390000Y50800000D02*
X44390000Y52130000D01*
X46990000Y52130000D02*
X64830000Y52130000D01*
X46990000Y49470000D02*
X46990000Y52130000D01*
X46990000Y49470000D02*
X64830000Y49470000D01*
X64830000Y49470000D02*
X64830000Y52130000D01*
X47497500Y47370000D02*
X61737500Y47370000D01*
X47497500Y34830000D02*
X47497500Y47370000D01*
X47617500Y46450000D02*
X61617500Y46450000D01*
X47617500Y41450000D02*
X47617500Y46450000D01*
X47617500Y41450000D02*
X61617500Y41450000D01*
X47617500Y36450000D02*
X47617500Y41450000D01*
X47967500Y44450000D02*
X50467500Y44450000D01*
X47967500Y43450000D02*
X47967500Y44450000D01*
X47967500Y39450000D02*
X50467500Y39450000D01*
X47967500Y38450000D02*
X47967500Y39450000D01*
X50467500Y44450000D02*
X50467500Y43450000D01*
X50467500Y43450000D02*
X47967500Y43450000D01*
X50467500Y39450000D02*
X50467500Y38450000D01*
X50467500Y38450000D02*
X47967500Y38450000D01*
X52117500Y44680000D02*
X52117500Y47370000D01*
X52117500Y39680000D02*
X52117500Y42220000D01*
X52117500Y34830000D02*
X52117500Y37220000D01*
X54917500Y34830000D02*
X54917500Y47370000D01*
X55317500Y45950000D02*
X56317500Y45950000D01*
X55317500Y41950000D02*
X55317500Y45950000D01*
X55317500Y40950000D02*
X56317500Y40950000D01*
X55317500Y36950000D02*
X55317500Y40950000D01*
X56317500Y45950000D02*
X56317500Y44680000D01*
X56317500Y42220000D02*
X56317500Y41950000D01*
X56317500Y41950000D02*
X55317500Y41950000D01*
X56317500Y40950000D02*
X56317500Y39680000D01*
X56317500Y37220000D02*
X56317500Y36950000D01*
X56317500Y36950000D02*
X55317500Y36950000D01*
X57017500Y45950000D02*
X60317500Y45950000D01*
X57017500Y44680000D02*
X57017500Y45950000D01*
X57017500Y41950000D02*
X57017500Y42220000D01*
X57017500Y40950000D02*
X60317500Y40950000D01*
X57017500Y39680000D02*
X57017500Y40950000D01*
X57017500Y36950000D02*
X57017500Y37220000D01*
X60317500Y45950000D02*
X60317500Y41950000D01*
X60317500Y41950000D02*
X57017500Y41950000D01*
X60317500Y40950000D02*
X60317500Y36950000D01*
X60317500Y36950000D02*
X57017500Y36950000D01*
X60617500Y34830000D02*
X60617500Y47370000D01*
X61617500Y46450000D02*
X61617500Y41450000D01*
X61617500Y41450000D02*
X47617500Y41450000D01*
X61617500Y41450000D02*
X61617500Y36450000D01*
X61617500Y36450000D02*
X47617500Y36450000D01*
X61737500Y47370000D02*
X61737500Y38750000D01*
X61737500Y38150000D02*
X61737500Y34830000D01*
X61737500Y34830000D02*
X47497500Y34830000D01*
X62347500Y38010000D02*
X61737500Y38450000D01*
X62347500Y38890000D01*
X62347500Y38010000D01*
G36*
X62347500Y38010000D02*
G01*
X61737500Y38450000D01*
X62347500Y38890000D01*
X62347500Y38010000D01*
G37*
X20120000Y39403641D02*
X20120000Y39096359D01*
X20880000Y39403641D02*
X20880000Y39096359D01*
X20100000Y35000000D02*
X22900000Y35000000D01*
X20100000Y33000000D02*
X20100000Y35000000D01*
X22900000Y35000000D02*
X22900000Y33000000D01*
X22900000Y33000000D02*
X20100000Y33000000D01*
X24020000Y43013641D02*
X24020000Y42706359D01*
X24780000Y43013641D02*
X24780000Y42706359D01*
X23800000Y48200000D02*
X26600000Y48200000D01*
X23800000Y46200000D02*
X23800000Y48200000D01*
X26600000Y48200000D02*
X26600000Y46200000D01*
X26600000Y46200000D02*
X23800000Y46200000D01*
X47497500Y33020000D02*
X61737500Y33020000D01*
X47497500Y20480000D02*
X47497500Y33020000D01*
X47617500Y32100000D02*
X61617500Y32100000D01*
X47617500Y27100000D02*
X47617500Y32100000D01*
X47617500Y27100000D02*
X61617500Y27100000D01*
X47617500Y22100000D02*
X47617500Y27100000D01*
X47967500Y30100000D02*
X50467500Y30100000D01*
X47967500Y29100000D02*
X47967500Y30100000D01*
X47967500Y25100000D02*
X50467500Y25100000D01*
X47967500Y24100000D02*
X47967500Y25100000D01*
X50467500Y30100000D02*
X50467500Y29100000D01*
X50467500Y29100000D02*
X47967500Y29100000D01*
X50467500Y25100000D02*
X50467500Y24100000D01*
X50467500Y24100000D02*
X47967500Y24100000D01*
X52117500Y30330000D02*
X52117500Y33020000D01*
X52117500Y25330000D02*
X52117500Y27870000D01*
X52117500Y20480000D02*
X52117500Y22870000D01*
X54917500Y20480000D02*
X54917500Y33020000D01*
X55317500Y31600000D02*
X56317500Y31600000D01*
X55317500Y27600000D02*
X55317500Y31600000D01*
X55317500Y26600000D02*
X56317500Y26600000D01*
X55317500Y22600000D02*
X55317500Y26600000D01*
X56317500Y31600000D02*
X56317500Y30330000D01*
X56317500Y27870000D02*
X56317500Y27600000D01*
X56317500Y27600000D02*
X55317500Y27600000D01*
X56317500Y26600000D02*
X56317500Y25330000D01*
X56317500Y22870000D02*
X56317500Y22600000D01*
X56317500Y22600000D02*
X55317500Y22600000D01*
X57017500Y31600000D02*
X60317500Y31600000D01*
X57017500Y30330000D02*
X57017500Y31600000D01*
X57017500Y27600000D02*
X57017500Y27870000D01*
X57017500Y26600000D02*
X60317500Y26600000D01*
X57017500Y25330000D02*
X57017500Y26600000D01*
X57017500Y22600000D02*
X57017500Y22870000D01*
X60317500Y31600000D02*
X60317500Y27600000D01*
X60317500Y27600000D02*
X57017500Y27600000D01*
X60317500Y26600000D02*
X60317500Y22600000D01*
X60317500Y22600000D02*
X57017500Y22600000D01*
X60617500Y20480000D02*
X60617500Y33020000D01*
X61617500Y32100000D02*
X61617500Y27100000D01*
X61617500Y27100000D02*
X47617500Y27100000D01*
X61617500Y27100000D02*
X61617500Y22100000D01*
X61617500Y22100000D02*
X47617500Y22100000D01*
X61737500Y33020000D02*
X61737500Y24400000D01*
X61737500Y23800000D02*
X61737500Y20480000D01*
X61737500Y20480000D02*
X47497500Y20480000D01*
X62347500Y23660000D02*
X61737500Y24100000D01*
X62347500Y24540000D01*
X62347500Y23660000D01*
G36*
X62347500Y23660000D02*
G01*
X61737500Y24100000D01*
X62347500Y24540000D01*
X62347500Y23660000D01*
G37*
X20100000Y37750000D02*
X22900000Y37750000D01*
X20100000Y35750000D02*
X20100000Y37750000D01*
X22900000Y37750000D02*
X22900000Y35750000D01*
X22900000Y35750000D02*
X20100000Y35750000D01*
X47497500Y18670000D02*
X61737500Y18670000D01*
X47497500Y6130000D02*
X47497500Y18670000D01*
X47617500Y17750000D02*
X61617500Y17750000D01*
X47617500Y12750000D02*
X47617500Y17750000D01*
X47617500Y12750000D02*
X61617500Y12750000D01*
X47617500Y7750000D02*
X47617500Y12750000D01*
X47967500Y15750000D02*
X50467500Y15750000D01*
X47967500Y14750000D02*
X47967500Y15750000D01*
X47967500Y10750000D02*
X50467500Y10750000D01*
X47967500Y9750000D02*
X47967500Y10750000D01*
X50467500Y15750000D02*
X50467500Y14750000D01*
X50467500Y14750000D02*
X47967500Y14750000D01*
X50467500Y10750000D02*
X50467500Y9750000D01*
X50467500Y9750000D02*
X47967500Y9750000D01*
X52117500Y15980000D02*
X52117500Y18670000D01*
X52117500Y10980000D02*
X52117500Y13520000D01*
X52117500Y6130000D02*
X52117500Y8520000D01*
X54917500Y6130000D02*
X54917500Y18670000D01*
X55317500Y17250000D02*
X56317500Y17250000D01*
X55317500Y13250000D02*
X55317500Y17250000D01*
X55317500Y12250000D02*
X56317500Y12250000D01*
X55317500Y8250000D02*
X55317500Y12250000D01*
X56317500Y17250000D02*
X56317500Y15980000D01*
X56317500Y13520000D02*
X56317500Y13250000D01*
X56317500Y13250000D02*
X55317500Y13250000D01*
X56317500Y12250000D02*
X56317500Y10980000D01*
X56317500Y8520000D02*
X56317500Y8250000D01*
X56317500Y8250000D02*
X55317500Y8250000D01*
X57017500Y17250000D02*
X60317500Y17250000D01*
X57017500Y15980000D02*
X57017500Y17250000D01*
X57017500Y13250000D02*
X57017500Y13520000D01*
X57017500Y12250000D02*
X60317500Y12250000D01*
X57017500Y10980000D02*
X57017500Y12250000D01*
X57017500Y8250000D02*
X57017500Y8520000D01*
X60317500Y17250000D02*
X60317500Y13250000D01*
X60317500Y13250000D02*
X57017500Y13250000D01*
X60317500Y12250000D02*
X60317500Y8250000D01*
X60317500Y8250000D02*
X57017500Y8250000D01*
X60617500Y6130000D02*
X60617500Y18670000D01*
X61617500Y17750000D02*
X61617500Y12750000D01*
X61617500Y12750000D02*
X47617500Y12750000D01*
X61617500Y12750000D02*
X61617500Y7750000D01*
X61617500Y7750000D02*
X47617500Y7750000D01*
X61737500Y18670000D02*
X61737500Y10050000D01*
X61737500Y9450000D02*
X61737500Y6130000D01*
X61737500Y6130000D02*
X47497500Y6130000D01*
X62347500Y9310000D02*
X61737500Y9750000D01*
X62347500Y10190000D01*
X62347500Y9310000D01*
G36*
X62347500Y9310000D02*
G01*
X61737500Y9750000D01*
X62347500Y10190000D01*
X62347500Y9310000D01*
G37*
X42857836Y29360000D02*
X42642164Y29360000D01*
X42857836Y28640000D02*
X42642164Y28640000D01*
X44846359Y15130000D02*
X45153641Y15130000D01*
X44846359Y14370000D02*
X45153641Y14370000D01*
D12*
X43987528Y44515381D02*
X43998908Y44496307D01*
X44024488Y44452579D01*
X44063002Y44386381D01*
X44113186Y44299898D01*
X44173775Y44195315D01*
X44243503Y44074817D01*
X44321107Y43940588D01*
X44405320Y43794813D01*
X44494879Y43639677D01*
X44586998Y43480000D01*
X44681076Y43316883D01*
X44771402Y43160291D01*
X44856665Y43012494D01*
X44935557Y42875760D01*
X45006769Y42752358D01*
X45068991Y42644556D01*
X45120913Y42554623D01*
X45161228Y42484827D01*
X45188624Y42437436D01*
X45201507Y42415214D01*
X45222507Y42377670D01*
X45233925Y42354169D01*
X45234551Y42350080D01*
X45220636Y42357758D01*
X45181941Y42379797D01*
X45120487Y42415029D01*
X45038298Y42462289D01*
X44937396Y42520411D01*
X44819805Y42588229D01*
X44687546Y42664576D01*
X44542642Y42748286D01*
X44387117Y42838194D01*
X44222992Y42933133D01*
X44160549Y42969268D01*
X43993487Y43065917D01*
X43834074Y43158062D01*
X43684355Y43244525D01*
X43546376Y43324129D01*
X43422185Y43395695D01*
X43313827Y43458045D01*
X43223348Y43510002D01*
X43152796Y43550387D01*
X43104215Y43578022D01*
X43079654Y43591728D01*
X43077085Y43593026D01*
X43084569Y43604780D01*
X43110614Y43636205D01*
X43152559Y43684406D01*
X43207746Y43746490D01*
X43273517Y43819561D01*
X43347212Y43900724D01*
X43426173Y43987084D01*
X43507740Y44075747D01*
X43589254Y44163818D01*
X43668057Y44248401D01*
X43741490Y44326603D01*
X43806893Y44395528D01*
X43861608Y44452281D01*
X43902977Y44493968D01*
X43917164Y44507637D01*
X43964180Y44551799D01*
X43987528Y44515381D01*
G36*
X43987528Y44515381D02*
G01*
X43998908Y44496307D01*
X44024488Y44452579D01*
X44063002Y44386381D01*
X44113186Y44299898D01*
X44173775Y44195315D01*
X44243503Y44074817D01*
X44321107Y43940588D01*
X44405320Y43794813D01*
X44494879Y43639677D01*
X44586998Y43480000D01*
X44681076Y43316883D01*
X44771402Y43160291D01*
X44856665Y43012494D01*
X44935557Y42875760D01*
X45006769Y42752358D01*
X45068991Y42644556D01*
X45120913Y42554623D01*
X45161228Y42484827D01*
X45188624Y42437436D01*
X45201507Y42415214D01*
X45222507Y42377670D01*
X45233925Y42354169D01*
X45234551Y42350080D01*
X45220636Y42357758D01*
X45181941Y42379797D01*
X45120487Y42415029D01*
X45038298Y42462289D01*
X44937396Y42520411D01*
X44819805Y42588229D01*
X44687546Y42664576D01*
X44542642Y42748286D01*
X44387117Y42838194D01*
X44222992Y42933133D01*
X44160549Y42969268D01*
X43993487Y43065917D01*
X43834074Y43158062D01*
X43684355Y43244525D01*
X43546376Y43324129D01*
X43422185Y43395695D01*
X43313827Y43458045D01*
X43223348Y43510002D01*
X43152796Y43550387D01*
X43104215Y43578022D01*
X43079654Y43591728D01*
X43077085Y43593026D01*
X43084569Y43604780D01*
X43110614Y43636205D01*
X43152559Y43684406D01*
X43207746Y43746490D01*
X43273517Y43819561D01*
X43347212Y43900724D01*
X43426173Y43987084D01*
X43507740Y44075747D01*
X43589254Y44163818D01*
X43668057Y44248401D01*
X43741490Y44326603D01*
X43806893Y44395528D01*
X43861608Y44452281D01*
X43902977Y44493968D01*
X43917164Y44507637D01*
X43964180Y44551799D01*
X43987528Y44515381D01*
G37*
X42164043Y47664165D02*
X42187065Y47626755D01*
X42222534Y47567486D01*
X42268996Y47488882D01*
X42324996Y47393462D01*
X42389081Y47283750D01*
X42459796Y47162266D01*
X42535687Y47031532D01*
X42615299Y46894070D01*
X42697178Y46752402D01*
X42779870Y46609049D01*
X42861921Y46466533D01*
X42941876Y46327376D01*
X43018281Y46194099D01*
X43089682Y46069224D01*
X43154624Y45955273D01*
X43211653Y45854767D01*
X43259315Y45770228D01*
X43296155Y45704178D01*
X43320720Y45659138D01*
X43331554Y45637630D01*
X43331951Y45636286D01*
X43318501Y45618035D01*
X43281114Y45590118D01*
X43224235Y45555275D01*
X43152312Y45516246D01*
X43077015Y45479157D01*
X42974560Y45434183D01*
X42866817Y45393774D01*
X42750073Y45357031D01*
X42620618Y45323058D01*
X42474740Y45290956D01*
X42308726Y45259827D01*
X42118866Y45228773D01*
X41922469Y45199855D01*
X41751834Y45174200D01*
X41608545Y45148802D01*
X41489008Y45122398D01*
X41389630Y45093727D01*
X41306818Y45061527D01*
X41236978Y45024535D01*
X41176518Y44981488D01*
X41121845Y44931125D01*
X41104214Y44912417D01*
X41066000Y44868861D01*
X41037732Y44833318D01*
X41024618Y44812417D01*
X41024268Y44810703D01*
X41019680Y44800194D01*
X41003758Y44800076D01*
X40973266Y44811746D01*
X40924968Y44836604D01*
X40855627Y44876048D01*
X40807439Y44904413D01*
X40735583Y44948753D01*
X40679742Y44986721D01*
X40643667Y45015584D01*
X40631113Y45032612D01*
X40631121Y45032736D01*
X40638906Y45048963D01*
X40660892Y45089600D01*
X40695803Y45152433D01*
X40742363Y45235248D01*
X40799295Y45335828D01*
X40865323Y45451960D01*
X40939172Y45581429D01*
X41019564Y45722020D01*
X41105224Y45871518D01*
X41194876Y46027708D01*
X41287243Y46188376D01*
X41381049Y46351307D01*
X41475018Y46514287D01*
X41567874Y46675100D01*
X41658340Y46831532D01*
X41745141Y46981367D01*
X41827000Y47122392D01*
X41902641Y47252391D01*
X41970787Y47369151D01*
X42030163Y47470455D01*
X42079493Y47554089D01*
X42117500Y47617838D01*
X42142907Y47659489D01*
X42154440Y47676825D01*
X42154923Y47677195D01*
X42164043Y47664165D01*
G36*
X42164043Y47664165D02*
G01*
X42187065Y47626755D01*
X42222534Y47567486D01*
X42268996Y47488882D01*
X42324996Y47393462D01*
X42389081Y47283750D01*
X42459796Y47162266D01*
X42535687Y47031532D01*
X42615299Y46894070D01*
X42697178Y46752402D01*
X42779870Y46609049D01*
X42861921Y46466533D01*
X42941876Y46327376D01*
X43018281Y46194099D01*
X43089682Y46069224D01*
X43154624Y45955273D01*
X43211653Y45854767D01*
X43259315Y45770228D01*
X43296155Y45704178D01*
X43320720Y45659138D01*
X43331554Y45637630D01*
X43331951Y45636286D01*
X43318501Y45618035D01*
X43281114Y45590118D01*
X43224235Y45555275D01*
X43152312Y45516246D01*
X43077015Y45479157D01*
X42974560Y45434183D01*
X42866817Y45393774D01*
X42750073Y45357031D01*
X42620618Y45323058D01*
X42474740Y45290956D01*
X42308726Y45259827D01*
X42118866Y45228773D01*
X41922469Y45199855D01*
X41751834Y45174200D01*
X41608545Y45148802D01*
X41489008Y45122398D01*
X41389630Y45093727D01*
X41306818Y45061527D01*
X41236978Y45024535D01*
X41176518Y44981488D01*
X41121845Y44931125D01*
X41104214Y44912417D01*
X41066000Y44868861D01*
X41037732Y44833318D01*
X41024618Y44812417D01*
X41024268Y44810703D01*
X41019680Y44800194D01*
X41003758Y44800076D01*
X40973266Y44811746D01*
X40924968Y44836604D01*
X40855627Y44876048D01*
X40807439Y44904413D01*
X40735583Y44948753D01*
X40679742Y44986721D01*
X40643667Y45015584D01*
X40631113Y45032612D01*
X40631121Y45032736D01*
X40638906Y45048963D01*
X40660892Y45089600D01*
X40695803Y45152433D01*
X40742363Y45235248D01*
X40799295Y45335828D01*
X40865323Y45451960D01*
X40939172Y45581429D01*
X41019564Y45722020D01*
X41105224Y45871518D01*
X41194876Y46027708D01*
X41287243Y46188376D01*
X41381049Y46351307D01*
X41475018Y46514287D01*
X41567874Y46675100D01*
X41658340Y46831532D01*
X41745141Y46981367D01*
X41827000Y47122392D01*
X41902641Y47252391D01*
X41970787Y47369151D01*
X42030163Y47470455D01*
X42079493Y47554089D01*
X42117500Y47617838D01*
X42142907Y47659489D01*
X42154440Y47676825D01*
X42154923Y47677195D01*
X42164043Y47664165D01*
G37*
X40322094Y44458842D02*
X40354619Y44446264D01*
X40404193Y44421288D01*
X40475374Y44382124D01*
X40480916Y44379012D01*
X40546474Y44341524D01*
X40601798Y44308681D01*
X40641455Y44283795D01*
X40660012Y44270180D01*
X40660531Y44269513D01*
X40656048Y44250610D01*
X40635486Y44208395D01*
X40600183Y44145168D01*
X40551480Y44063228D01*
X40490718Y43964878D01*
X40419236Y43852415D01*
X40401445Y43824835D01*
X40355093Y43748301D01*
X40321342Y43682444D01*
X40303153Y43633218D01*
X40301286Y43623493D01*
X40302115Y43580688D01*
X40311394Y43512791D01*
X40327968Y43424157D01*
X40350680Y43319141D01*
X40378373Y43202098D01*
X40409890Y43077384D01*
X40444075Y42949355D01*
X40479771Y42822366D01*
X40515821Y42700772D01*
X40551068Y42588928D01*
X40584356Y42491190D01*
X40614528Y42411913D01*
X40635561Y42364878D01*
X40660337Y42314775D01*
X40683730Y42266832D01*
X40684997Y42264207D01*
X40723699Y42215780D01*
X40780184Y42183172D01*
X40845939Y42167546D01*
X40912451Y42170063D01*
X40971205Y42191886D01*
X41004258Y42220618D01*
X41051859Y42299417D01*
X41086739Y42397622D01*
X41105877Y42505221D01*
X41108588Y42566220D01*
X41097670Y42680065D01*
X41065624Y42774340D01*
X41010726Y42853621D01*
X40993607Y42871267D01*
X40942661Y42920765D01*
X40939163Y43270638D01*
X40935664Y43620511D01*
X41024818Y43755469D01*
X41066654Y43816555D01*
X41106945Y43871507D01*
X41139943Y43912664D01*
X41154126Y43927808D01*
X41194281Y43965190D01*
X41248665Y43935902D01*
X41283039Y43914916D01*
X41301846Y43898622D01*
X41303049Y43895693D01*
X41315903Y43883272D01*
X41337896Y43874023D01*
X41359150Y43865687D01*
X41391694Y43849851D01*
X41438322Y43824967D01*
X41501829Y43789491D01*
X41585008Y43741877D01*
X41690653Y43680578D01*
X41748062Y43647068D01*
X41815594Y43606929D01*
X41859885Y43578341D01*
X41884855Y43557961D01*
X41894423Y43542447D01*
X41892508Y43528454D01*
X41890911Y43525204D01*
X41875376Y43504734D01*
X41842136Y43466335D01*
X41795062Y43414304D01*
X41738028Y43352934D01*
X41688700Y43300910D01*
X41575030Y43177433D01*
X41486105Y43070409D01*
X41421134Y42978760D01*
X41379321Y42901412D01*
X41365217Y42862134D01*
X41359392Y42827751D01*
X41353375Y42769101D01*
X41347696Y42692883D01*
X41342884Y42605798D01*
X41340619Y42550732D01*
X41337459Y42455536D01*
X41336069Y42385938D01*
X41336858Y42336591D01*
X41340235Y42302146D01*
X41346608Y42277257D01*
X41356387Y42256575D01*
X41364067Y42243947D01*
X41408421Y42195274D01*
X41465574Y42161355D01*
X41525708Y42146562D01*
X41570773Y42151914D01*
X41611576Y42175070D01*
X41662724Y42216538D01*
X41717042Y42269088D01*
X41767357Y42325484D01*
X41806494Y42378495D01*
X41820905Y42404111D01*
X41842491Y42439186D01*
X41881753Y42492611D01*
X41935102Y42560211D01*
X41998952Y42637810D01*
X42069715Y42721232D01*
X42143804Y42806302D01*
X42217632Y42888845D01*
X42287611Y42964684D01*
X42350155Y43029644D01*
X42399260Y43077331D01*
X42453779Y43124968D01*
X42499642Y43160092D01*
X42531811Y43179051D01*
X42542489Y43181136D01*
X42558853Y43172726D01*
X42599671Y43150154D01*
X42662586Y43114776D01*
X42745244Y43067946D01*
X42845289Y43011019D01*
X42960366Y42945351D01*
X43088119Y42872297D01*
X43226194Y42793212D01*
X43372234Y42709452D01*
X43523884Y42622371D01*
X43678790Y42533324D01*
X43834595Y42443668D01*
X43988944Y42354757D01*
X44139482Y42267946D01*
X44283854Y42184591D01*
X44419704Y42106046D01*
X44544677Y42033667D01*
X44656417Y41968810D01*
X44752570Y41912829D01*
X44830779Y41867080D01*
X44888689Y41832917D01*
X44923946Y41811696D01*
X44934165Y41805037D01*
X44920402Y41803720D01*
X44877104Y41802441D01*
X44805714Y41801204D01*
X44707673Y41800017D01*
X44584422Y41798885D01*
X44437403Y41797814D01*
X44268057Y41796811D01*
X44077826Y41795881D01*
X43868151Y41795032D01*
X43640473Y41794268D01*
X43396235Y41793597D01*
X43136877Y41793024D01*
X42863841Y41792556D01*
X42578568Y41792198D01*
X42282500Y41791958D01*
X41977079Y41791841D01*
X41848924Y41791829D01*
X38748970Y41791829D01*
X38970053Y42175153D01*
X39016856Y42256320D01*
X39077102Y42360834D01*
X39148778Y42485199D01*
X39229869Y42625918D01*
X39318362Y42779497D01*
X39412240Y42942438D01*
X39509491Y43111246D01*
X39608100Y43282425D01*
X39706053Y43452479D01*
X39730825Y43495488D01*
X39821152Y43652143D01*
X39907289Y43801197D01*
X39987942Y43940432D01*
X40061816Y44067629D01*
X40127617Y44180568D01*
X40184050Y44277032D01*
X40229821Y44354800D01*
X40263635Y44411654D01*
X40284198Y44445375D01*
X40289953Y44453960D01*
X40302058Y44460811D01*
X40322094Y44458842D01*
G36*
X40322094Y44458842D02*
G01*
X40354619Y44446264D01*
X40404193Y44421288D01*
X40475374Y44382124D01*
X40480916Y44379012D01*
X40546474Y44341524D01*
X40601798Y44308681D01*
X40641455Y44283795D01*
X40660012Y44270180D01*
X40660531Y44269513D01*
X40656048Y44250610D01*
X40635486Y44208395D01*
X40600183Y44145168D01*
X40551480Y44063228D01*
X40490718Y43964878D01*
X40419236Y43852415D01*
X40401445Y43824835D01*
X40355093Y43748301D01*
X40321342Y43682444D01*
X40303153Y43633218D01*
X40301286Y43623493D01*
X40302115Y43580688D01*
X40311394Y43512791D01*
X40327968Y43424157D01*
X40350680Y43319141D01*
X40378373Y43202098D01*
X40409890Y43077384D01*
X40444075Y42949355D01*
X40479771Y42822366D01*
X40515821Y42700772D01*
X40551068Y42588928D01*
X40584356Y42491190D01*
X40614528Y42411913D01*
X40635561Y42364878D01*
X40660337Y42314775D01*
X40683730Y42266832D01*
X40684997Y42264207D01*
X40723699Y42215780D01*
X40780184Y42183172D01*
X40845939Y42167546D01*
X40912451Y42170063D01*
X40971205Y42191886D01*
X41004258Y42220618D01*
X41051859Y42299417D01*
X41086739Y42397622D01*
X41105877Y42505221D01*
X41108588Y42566220D01*
X41097670Y42680065D01*
X41065624Y42774340D01*
X41010726Y42853621D01*
X40993607Y42871267D01*
X40942661Y42920765D01*
X40939163Y43270638D01*
X40935664Y43620511D01*
X41024818Y43755469D01*
X41066654Y43816555D01*
X41106945Y43871507D01*
X41139943Y43912664D01*
X41154126Y43927808D01*
X41194281Y43965190D01*
X41248665Y43935902D01*
X41283039Y43914916D01*
X41301846Y43898622D01*
X41303049Y43895693D01*
X41315903Y43883272D01*
X41337896Y43874023D01*
X41359150Y43865687D01*
X41391694Y43849851D01*
X41438322Y43824967D01*
X41501829Y43789491D01*
X41585008Y43741877D01*
X41690653Y43680578D01*
X41748062Y43647068D01*
X41815594Y43606929D01*
X41859885Y43578341D01*
X41884855Y43557961D01*
X41894423Y43542447D01*
X41892508Y43528454D01*
X41890911Y43525204D01*
X41875376Y43504734D01*
X41842136Y43466335D01*
X41795062Y43414304D01*
X41738028Y43352934D01*
X41688700Y43300910D01*
X41575030Y43177433D01*
X41486105Y43070409D01*
X41421134Y42978760D01*
X41379321Y42901412D01*
X41365217Y42862134D01*
X41359392Y42827751D01*
X41353375Y42769101D01*
X41347696Y42692883D01*
X41342884Y42605798D01*
X41340619Y42550732D01*
X41337459Y42455536D01*
X41336069Y42385938D01*
X41336858Y42336591D01*
X41340235Y42302146D01*
X41346608Y42277257D01*
X41356387Y42256575D01*
X41364067Y42243947D01*
X41408421Y42195274D01*
X41465574Y42161355D01*
X41525708Y42146562D01*
X41570773Y42151914D01*
X41611576Y42175070D01*
X41662724Y42216538D01*
X41717042Y42269088D01*
X41767357Y42325484D01*
X41806494Y42378495D01*
X41820905Y42404111D01*
X41842491Y42439186D01*
X41881753Y42492611D01*
X41935102Y42560211D01*
X41998952Y42637810D01*
X42069715Y42721232D01*
X42143804Y42806302D01*
X42217632Y42888845D01*
X42287611Y42964684D01*
X42350155Y43029644D01*
X42399260Y43077331D01*
X42453779Y43124968D01*
X42499642Y43160092D01*
X42531811Y43179051D01*
X42542489Y43181136D01*
X42558853Y43172726D01*
X42599671Y43150154D01*
X42662586Y43114776D01*
X42745244Y43067946D01*
X42845289Y43011019D01*
X42960366Y42945351D01*
X43088119Y42872297D01*
X43226194Y42793212D01*
X43372234Y42709452D01*
X43523884Y42622371D01*
X43678790Y42533324D01*
X43834595Y42443668D01*
X43988944Y42354757D01*
X44139482Y42267946D01*
X44283854Y42184591D01*
X44419704Y42106046D01*
X44544677Y42033667D01*
X44656417Y41968810D01*
X44752570Y41912829D01*
X44830779Y41867080D01*
X44888689Y41832917D01*
X44923946Y41811696D01*
X44934165Y41805037D01*
X44920402Y41803720D01*
X44877104Y41802441D01*
X44805714Y41801204D01*
X44707673Y41800017D01*
X44584422Y41798885D01*
X44437403Y41797814D01*
X44268057Y41796811D01*
X44077826Y41795881D01*
X43868151Y41795032D01*
X43640473Y41794268D01*
X43396235Y41793597D01*
X43136877Y41793024D01*
X42863841Y41792556D01*
X42578568Y41792198D01*
X42282500Y41791958D01*
X41977079Y41791841D01*
X41848924Y41791829D01*
X38748970Y41791829D01*
X38970053Y42175153D01*
X39016856Y42256320D01*
X39077102Y42360834D01*
X39148778Y42485199D01*
X39229869Y42625918D01*
X39318362Y42779497D01*
X39412240Y42942438D01*
X39509491Y43111246D01*
X39608100Y43282425D01*
X39706053Y43452479D01*
X39730825Y43495488D01*
X39821152Y43652143D01*
X39907289Y43801197D01*
X39987942Y43940432D01*
X40061816Y44067629D01*
X40127617Y44180568D01*
X40184050Y44277032D01*
X40229821Y44354800D01*
X40263635Y44411654D01*
X40284198Y44445375D01*
X40289953Y44453960D01*
X40302058Y44460811D01*
X40322094Y44458842D01*
G37*
D11*
X20590000Y44360000D02*
X22410000Y44360000D01*
X20590000Y44310000D02*
X20590000Y44360000D01*
X20590000Y41240000D02*
X20590000Y41290000D01*
X22410000Y44360000D02*
X22410000Y44310000D01*
X22410000Y43190000D02*
X22410000Y42410000D01*
X22410000Y41290000D02*
X22410000Y41240000D01*
X22410000Y41240000D02*
X20590000Y41240000D01*
X20050000Y44310000D02*
X19810000Y44640000D01*
X20290000Y44640000D01*
X20050000Y44310000D01*
G36*
X20050000Y44310000D02*
G01*
X19810000Y44640000D01*
X20290000Y44640000D01*
X20050000Y44310000D01*
G37*
X36440000Y22182500D02*
X40560000Y22182500D01*
X40560000Y16817500D02*
X36440000Y16817500D01*
X42540000Y17030000D02*
X42210000Y17270000D01*
X42540000Y17510000D01*
X42540000Y17030000D01*
G36*
X42540000Y17030000D02*
G01*
X42210000Y17270000D01*
X42540000Y17510000D01*
X42540000Y17030000D01*
G37*
X17370000Y39403641D02*
X17370000Y39096359D01*
X18130000Y39403641D02*
X18130000Y39096359D01*
X44846359Y10130000D02*
X45153641Y10130000D01*
X44846359Y9370000D02*
X45153641Y9370000D01*
X42857836Y10110000D02*
X42642164Y10110000D01*
X42857836Y9390000D02*
X42642164Y9390000D01*
D13*
G36*
X8729339Y23507586D02*
G01*
X5233777Y23507586D01*
X5233777Y24358782D01*
X8729339Y24358782D01*
X8729339Y23507586D01*
G37*
G36*
X7709894Y26089505D02*
G01*
X7715855Y26089051D01*
X7721729Y26088305D01*
X7727508Y26087273D01*
X7733187Y26085962D01*
X7738756Y26084380D01*
X7744210Y26082535D01*
X7749540Y26080433D01*
X7754739Y26078083D01*
X7759800Y26075491D01*
X7764715Y26072664D01*
X7769477Y26069611D01*
X7774079Y26066339D01*
X7778513Y26062854D01*
X7782772Y26059165D01*
X7786848Y26055279D01*
X7790735Y26051202D01*
X7794424Y26046943D01*
X7797908Y26042509D01*
X7801181Y26037907D01*
X7804234Y26033145D01*
X7807060Y26028230D01*
X7809652Y26023169D01*
X7812003Y26017970D01*
X7814105Y26012640D01*
X7815950Y26007187D01*
X7817532Y26001617D01*
X7818842Y25995939D01*
X7819875Y25990159D01*
X7820621Y25984285D01*
X7821074Y25978325D01*
X7821227Y25972285D01*
X7821074Y25966245D01*
X7820621Y25960285D01*
X7819875Y25954411D01*
X7818842Y25948632D01*
X7817532Y25942954D01*
X7815950Y25937384D01*
X7814105Y25931931D01*
X7812003Y25926601D01*
X7809652Y25921403D01*
X7807060Y25916342D01*
X7804234Y25911427D01*
X7801181Y25906666D01*
X7797908Y25902064D01*
X7794424Y25897631D01*
X7790735Y25893372D01*
X7786848Y25889297D01*
X7782772Y25885411D01*
X7778513Y25881722D01*
X7774079Y25878238D01*
X7769477Y25874966D01*
X7764715Y25871913D01*
X7759800Y25869087D01*
X7754739Y25866496D01*
X7749540Y25864145D01*
X7744210Y25862044D01*
X7738756Y25860199D01*
X7733187Y25858617D01*
X7727508Y25857307D01*
X7721729Y25856275D01*
X7715855Y25855529D01*
X7709894Y25855075D01*
X7703855Y25854923D01*
X7697815Y25855075D01*
X7691855Y25855529D01*
X7685981Y25856275D01*
X7680201Y25857307D01*
X7674523Y25858617D01*
X7668953Y25860199D01*
X7663500Y25862044D01*
X7658170Y25864145D01*
X7652970Y25866496D01*
X7647910Y25869087D01*
X7642994Y25871913D01*
X7638232Y25874966D01*
X7633630Y25878238D01*
X7629196Y25881722D01*
X7624937Y25885411D01*
X7620861Y25889297D01*
X7616975Y25893372D01*
X7613285Y25897631D01*
X7609801Y25902064D01*
X7606528Y25906666D01*
X7603475Y25911428D01*
X7600649Y25916342D01*
X7598057Y25921403D01*
X7595706Y25926601D01*
X7593605Y25931931D01*
X7591759Y25937384D01*
X7590178Y25942954D01*
X7588867Y25948632D01*
X7587835Y25954411D01*
X7587088Y25960285D01*
X7586635Y25966245D01*
X7586482Y25972285D01*
X7586635Y25978324D01*
X7587088Y25984285D01*
X7587835Y25990159D01*
X7588867Y25995938D01*
X7590178Y26001617D01*
X7591759Y26007186D01*
X7593605Y26012640D01*
X7595706Y26017970D01*
X7598057Y26023169D01*
X7600649Y26028230D01*
X7603475Y26033145D01*
X7606528Y26037907D01*
X7609801Y26042509D01*
X7613285Y26046943D01*
X7616975Y26051202D01*
X7620861Y26055278D01*
X7624937Y26059165D01*
X7629196Y26062854D01*
X7633630Y26066339D01*
X7638232Y26069611D01*
X7642994Y26072664D01*
X7647910Y26075490D01*
X7652970Y26078083D01*
X7658170Y26080433D01*
X7663500Y26082535D01*
X7668953Y26084380D01*
X7674523Y26085962D01*
X7680201Y26087273D01*
X7685981Y26088305D01*
X7691855Y26089051D01*
X7697815Y26089505D01*
X7703855Y26089657D01*
X7709894Y26089505D01*
G37*
G36*
X9120808Y29372765D02*
G01*
X8197785Y28432570D01*
X8216999Y28432570D01*
X8216999Y28011883D01*
X7942209Y28011883D01*
X7795478Y26437522D01*
X8880875Y25294413D01*
X8808868Y25226075D01*
X8046551Y26030227D01*
X8047664Y26023138D01*
X8048634Y26016002D01*
X8049459Y26008820D01*
X8050138Y26001595D01*
X8050669Y25994328D01*
X8051050Y25987019D01*
X8051280Y25979671D01*
X8051357Y25972285D01*
X8050905Y25954402D01*
X8049563Y25936754D01*
X8047353Y25919363D01*
X8044297Y25902250D01*
X8040417Y25885438D01*
X8035734Y25868948D01*
X8030271Y25852802D01*
X8024049Y25837021D01*
X8017090Y25821629D01*
X8009416Y25806645D01*
X8001049Y25792093D01*
X7992010Y25777995D01*
X7982322Y25764371D01*
X7972006Y25751244D01*
X7961084Y25738635D01*
X7949578Y25726567D01*
X7937510Y25715062D01*
X7924902Y25704140D01*
X7911774Y25693824D01*
X7898150Y25684136D01*
X7884052Y25675098D01*
X7869500Y25666731D01*
X7854516Y25659058D01*
X7839124Y25652099D01*
X7823344Y25645877D01*
X7807198Y25640414D01*
X7790708Y25635732D01*
X7773896Y25631852D01*
X7756784Y25628796D01*
X7739393Y25626587D01*
X7721746Y25625245D01*
X7703864Y25624793D01*
X7679092Y25625662D01*
X7654788Y25628231D01*
X7631012Y25632441D01*
X7607821Y25638234D01*
X7585276Y25645551D01*
X7563433Y25654334D01*
X7542352Y25664525D01*
X7522091Y25676064D01*
X7502709Y25688894D01*
X7484264Y25702955D01*
X7466814Y25718190D01*
X7450419Y25734540D01*
X7435136Y25751946D01*
X7421024Y25770351D01*
X7408143Y25789695D01*
X7396549Y25809920D01*
X6546771Y25809920D01*
X6546771Y25628392D01*
X6323196Y25628392D01*
X6323196Y25810383D01*
X6320746Y25810789D01*
X6318305Y25811316D01*
X6315879Y25811961D01*
X6313471Y25812718D01*
X6311085Y25813585D01*
X6308726Y25814558D01*
X6306396Y25815634D01*
X6304101Y25816808D01*
X6299629Y25819437D01*
X6295342Y25822418D01*
X6291272Y25825720D01*
X6287450Y25829313D01*
X6283909Y25833170D01*
X6280680Y25837261D01*
X6277795Y25841555D01*
X6276492Y25843770D01*
X6275287Y25846025D01*
X6274184Y25848316D01*
X6273188Y25850640D01*
X6272301Y25852993D01*
X6271528Y25855372D01*
X6270874Y25857772D01*
X6270341Y25860191D01*
X6269934Y25862623D01*
X6269658Y25865067D01*
X6221921Y26419927D01*
X5037530Y25213497D01*
X4966728Y25283072D01*
X6195348Y26533338D01*
X6333250Y26533338D01*
X6385100Y25930560D01*
X7358826Y25930560D01*
X7358252Y25935703D01*
X7357752Y25940867D01*
X7357327Y25946054D01*
X7356978Y25951260D01*
X7356706Y25956488D01*
X7356510Y25961735D01*
X7356392Y25967000D01*
X7356352Y25972285D01*
X7523131Y25972285D01*
X7523366Y25962985D01*
X7524064Y25953807D01*
X7525213Y25944763D01*
X7526802Y25935864D01*
X7528820Y25927120D01*
X7531255Y25918544D01*
X7534096Y25910147D01*
X7537332Y25901940D01*
X7540951Y25893935D01*
X7544942Y25886143D01*
X7549293Y25878575D01*
X7553994Y25871242D01*
X7559032Y25864156D01*
X7564397Y25857329D01*
X7570077Y25850772D01*
X7576061Y25844495D01*
X7582337Y25838511D01*
X7588895Y25832831D01*
X7595722Y25827466D01*
X7602807Y25822427D01*
X7610140Y25817726D01*
X7617708Y25813374D01*
X7625500Y25809383D01*
X7633506Y25805764D01*
X7641713Y25802528D01*
X7650110Y25799687D01*
X7658686Y25797251D01*
X7667430Y25795233D01*
X7676330Y25793644D01*
X7685375Y25792494D01*
X7694554Y25791796D01*
X7703854Y25791561D01*
X7713154Y25791796D01*
X7722332Y25792494D01*
X7731376Y25793644D01*
X7740276Y25795233D01*
X7749019Y25797251D01*
X7757595Y25799687D01*
X7765992Y25802528D01*
X7774199Y25805764D01*
X7782204Y25809383D01*
X7789997Y25813374D01*
X7797565Y25817726D01*
X7804897Y25822427D01*
X7811983Y25827466D01*
X7818810Y25832831D01*
X7825368Y25838511D01*
X7831644Y25844495D01*
X7837628Y25850772D01*
X7843309Y25857329D01*
X7848674Y25864156D01*
X7853712Y25871242D01*
X7858413Y25878575D01*
X7862765Y25886143D01*
X7866756Y25893935D01*
X7870375Y25901940D01*
X7873611Y25910147D01*
X7876453Y25918544D01*
X7878888Y25927120D01*
X7880906Y25935864D01*
X7882496Y25944763D01*
X7883645Y25953807D01*
X7884343Y25962985D01*
X7884578Y25972285D01*
X7884343Y25981585D01*
X7883645Y25990764D01*
X7882496Y25999809D01*
X7880906Y26008709D01*
X7878888Y26017453D01*
X7876453Y26026029D01*
X7873611Y26034426D01*
X7870375Y26042634D01*
X7866756Y26050639D01*
X7862765Y26058432D01*
X7858413Y26066000D01*
X7853712Y26073332D01*
X7848674Y26080418D01*
X7843309Y26087245D01*
X7837628Y26093802D01*
X7831644Y26100078D01*
X7825368Y26106062D01*
X7818810Y26111742D01*
X7811983Y26117107D01*
X7804897Y26122146D01*
X7797565Y26126846D01*
X7789997Y26131198D01*
X7782204Y26135188D01*
X7774199Y26138807D01*
X7765992Y26142043D01*
X7757595Y26144884D01*
X7749019Y26147319D01*
X7740276Y26149337D01*
X7731376Y26150926D01*
X7722332Y26152076D01*
X7713154Y26152774D01*
X7703854Y26153009D01*
X7694554Y26152774D01*
X7685375Y26152076D01*
X7676331Y26150926D01*
X7667430Y26149337D01*
X7658687Y26147319D01*
X7650110Y26144884D01*
X7641713Y26142043D01*
X7633506Y26138807D01*
X7625500Y26135188D01*
X7617708Y26131198D01*
X7610140Y26126846D01*
X7602807Y26122146D01*
X7595722Y26117107D01*
X7588895Y26111742D01*
X7582337Y26106062D01*
X7576061Y26100078D01*
X7570077Y26093802D01*
X7564397Y26087245D01*
X7559032Y26080418D01*
X7553994Y26073332D01*
X7549293Y26066000D01*
X7544942Y26058432D01*
X7540951Y26050639D01*
X7537332Y26042634D01*
X7534096Y26034426D01*
X7531255Y26026029D01*
X7528820Y26017453D01*
X7526802Y26008709D01*
X7525213Y25999809D01*
X7524064Y25990764D01*
X7523366Y25981585D01*
X7523131Y25972285D01*
X7356352Y25972285D01*
X7356742Y25988891D01*
X7357900Y26005296D01*
X7359808Y26021483D01*
X7362449Y26037433D01*
X7365806Y26053131D01*
X7369860Y26068558D01*
X7374595Y26083696D01*
X7379994Y26098529D01*
X7386038Y26113039D01*
X7392710Y26127208D01*
X7399993Y26141020D01*
X7407869Y26154455D01*
X7416321Y26167498D01*
X7425332Y26180130D01*
X7434883Y26192335D01*
X7444958Y26204094D01*
X7455539Y26215390D01*
X7466609Y26226206D01*
X7478150Y26236524D01*
X7490144Y26246327D01*
X7502574Y26255598D01*
X7515424Y26264318D01*
X7528674Y26272471D01*
X7542308Y26280039D01*
X7556309Y26287004D01*
X7570658Y26293349D01*
X7585339Y26299057D01*
X7600334Y26304110D01*
X7615626Y26308491D01*
X7631196Y26312182D01*
X7647029Y26315165D01*
X7663105Y26317424D01*
X7673059Y26424210D01*
X6962239Y27174029D01*
X6333250Y26533338D01*
X6195348Y26533338D01*
X6210811Y26549072D01*
X6088783Y27967675D01*
X6209876Y27967675D01*
X6322161Y26662383D01*
X6893077Y27243363D01*
X7030306Y27243363D01*
X7685124Y26553727D01*
X7821016Y28011883D01*
X7807613Y28011883D01*
X7807613Y28035148D01*
X7030306Y27243363D01*
X6893077Y27243363D01*
X6894826Y27245143D01*
X6209876Y27967675D01*
X6088783Y27967675D01*
X6076698Y28108162D01*
X4893162Y29356638D01*
X4893162Y29494129D01*
X6063497Y28261568D01*
X6033091Y28615043D01*
X6154186Y28615043D01*
X6196654Y28121333D01*
X6962862Y27314385D01*
X7416074Y27775570D01*
X6777112Y27775570D01*
X6777112Y28016870D01*
X7516103Y28016870D01*
X7516103Y27877368D01*
X7754902Y28120368D01*
X7952303Y28120368D01*
X8111411Y28120368D01*
X8111411Y28324065D01*
X8091272Y28324065D01*
X7958707Y28189038D01*
X7952303Y28120368D01*
X7754902Y28120368D01*
X7807613Y28174007D01*
X7807613Y28432549D01*
X7860217Y28432549D01*
X7877218Y28615043D01*
X6154186Y28615043D01*
X6033091Y28615043D01*
X6032661Y28620040D01*
X5887318Y28620040D01*
X5887318Y28740690D01*
X6015197Y28740690D01*
X6470490Y28740690D01*
X7872483Y28740690D01*
X7866864Y28752659D01*
X7860344Y28764231D01*
X7852951Y28775411D01*
X7844715Y28786206D01*
X7835665Y28796623D01*
X7825829Y28806668D01*
X7815238Y28816348D01*
X7803921Y28825670D01*
X7791906Y28834640D01*
X7779224Y28843264D01*
X7765903Y28851549D01*
X7751973Y28859502D01*
X7722400Y28874436D01*
X7690741Y28888120D01*
X7657229Y28900606D01*
X7622098Y28911945D01*
X7585583Y28922191D01*
X7547916Y28931396D01*
X7509332Y28939613D01*
X7470064Y28946893D01*
X7430348Y28953290D01*
X7390426Y28958854D01*
X7390426Y28846248D01*
X6797240Y28846248D01*
X6797240Y28966898D01*
X6797240Y28971543D01*
X6757367Y28968286D01*
X6716719Y28964369D01*
X6675545Y28959742D01*
X6634095Y28954356D01*
X6592615Y28948158D01*
X6551356Y28941100D01*
X6510564Y28933130D01*
X6470490Y28924198D01*
X6470490Y28740690D01*
X6015197Y28740690D01*
X6015200Y28740700D01*
X6144192Y28740700D01*
X6264319Y28740700D01*
X6264319Y28850481D01*
X6254255Y28844858D01*
X6244485Y28839079D01*
X6235019Y28833143D01*
X6225867Y28827047D01*
X6217039Y28820790D01*
X6208546Y28814369D01*
X6200396Y28807782D01*
X6192601Y28801027D01*
X6185171Y28794103D01*
X6178114Y28787006D01*
X6171441Y28779735D01*
X6165163Y28772289D01*
X6159289Y28764664D01*
X6153829Y28756859D01*
X6148793Y28748871D01*
X6144192Y28740700D01*
X6015200Y28740700D01*
X6016056Y28743284D01*
X6016985Y28745983D01*
X6017986Y28748785D01*
X6019060Y28751686D01*
X6020211Y28754685D01*
X6021441Y28757778D01*
X6022751Y28760962D01*
X6024145Y28764237D01*
X6032643Y28782337D01*
X6042168Y28799793D01*
X6052687Y28816614D01*
X6064165Y28832813D01*
X6076569Y28848401D01*
X6089864Y28863388D01*
X6104016Y28877786D01*
X6118991Y28891608D01*
X6134755Y28904863D01*
X6151274Y28917564D01*
X6160683Y28924198D01*
X6168514Y28929721D01*
X6186440Y28941346D01*
X6205019Y28952451D01*
X6224216Y28963046D01*
X6243997Y28973143D01*
X6264329Y28982754D01*
X6264329Y29022216D01*
X6917870Y29022216D01*
X6917870Y28966898D01*
X7269756Y28966898D01*
X7269756Y29022216D01*
X6917870Y29022216D01*
X6264329Y29022216D01*
X6264329Y29062493D01*
X6470490Y29062493D01*
X6470490Y29050157D01*
X6511029Y29058894D01*
X6551982Y29066630D01*
X6593185Y29073420D01*
X6634476Y29079318D01*
X6675690Y29084378D01*
X6716664Y29088655D01*
X6757235Y29092204D01*
X6797240Y29095079D01*
X6797240Y29142856D01*
X7390426Y29142856D01*
X7390426Y29081705D01*
X7470683Y29070133D01*
X7510604Y29063043D01*
X7550157Y29055014D01*
X7589173Y29045994D01*
X7627483Y29035928D01*
X7664918Y29024764D01*
X7701310Y29012450D01*
X7736488Y28998932D01*
X7770283Y28984158D01*
X7802527Y28968074D01*
X7833051Y28950629D01*
X7861685Y28931768D01*
X7888260Y28911439D01*
X7912607Y28889589D01*
X7934557Y28866166D01*
X7940267Y28873036D01*
X7946344Y28879576D01*
X7952772Y28885771D01*
X7959535Y28891605D01*
X7966617Y28897062D01*
X7974003Y28902126D01*
X7981678Y28906783D01*
X7989625Y28911016D01*
X7997830Y28914810D01*
X8006275Y28918148D01*
X8014946Y28921016D01*
X8023828Y28923398D01*
X8032903Y28925277D01*
X8042157Y28926639D01*
X8051575Y28927468D01*
X8061139Y28927747D01*
X8069418Y28927538D01*
X8077588Y28926917D01*
X8085639Y28925894D01*
X8093561Y28924479D01*
X8101344Y28922683D01*
X8108978Y28920516D01*
X8116452Y28917987D01*
X8123758Y28915106D01*
X8130884Y28911885D01*
X8137820Y28908333D01*
X8144557Y28904459D01*
X8151083Y28900275D01*
X8157390Y28895790D01*
X8163467Y28891015D01*
X8169304Y28885959D01*
X8174891Y28880632D01*
X8180217Y28875046D01*
X8185273Y28869209D01*
X8190049Y28863132D01*
X8194534Y28856825D01*
X8198718Y28850298D01*
X8202591Y28843561D01*
X8206144Y28836625D01*
X8209365Y28829499D01*
X8212245Y28822194D01*
X8214774Y28814719D01*
X8216942Y28807085D01*
X8218738Y28799302D01*
X8220153Y28791380D01*
X8221176Y28783329D01*
X8221797Y28775159D01*
X8222006Y28766881D01*
X8221797Y28758603D01*
X8221176Y28750434D01*
X8220153Y28742384D01*
X8218738Y28734462D01*
X8216942Y28726680D01*
X8214774Y28719046D01*
X8212245Y28711572D01*
X8209365Y28704267D01*
X8206144Y28697141D01*
X8202591Y28690205D01*
X8198718Y28683468D01*
X8194534Y28676941D01*
X8190049Y28670634D01*
X8185273Y28664557D01*
X8180217Y28658720D01*
X8174891Y28653133D01*
X8169304Y28647806D01*
X8163467Y28642750D01*
X8157390Y28637974D01*
X8151083Y28633489D01*
X8144557Y28629305D01*
X8137820Y28625431D01*
X8130884Y28621878D01*
X8123758Y28618657D01*
X8116452Y28615776D01*
X8108978Y28613247D01*
X8101344Y28611079D01*
X8093561Y28609283D01*
X8085639Y28607868D01*
X8077588Y28606845D01*
X8069418Y28606223D01*
X8061139Y28606014D01*
X8057004Y28606066D01*
X8052895Y28606222D01*
X8048812Y28606479D01*
X8044758Y28606838D01*
X8040732Y28607296D01*
X8036738Y28607853D01*
X8032775Y28608507D01*
X8028845Y28609257D01*
X8024950Y28610101D01*
X8021091Y28611039D01*
X8017268Y28612070D01*
X8013484Y28613191D01*
X8009739Y28614402D01*
X8006034Y28615702D01*
X8002372Y28617089D01*
X7998753Y28618562D01*
X7981410Y28432560D01*
X8061702Y28432560D01*
X9120808Y29510326D01*
X9120808Y29372765D01*
G37*
D11*
X44846359Y29380000D02*
X45153641Y29380000D01*
X44846359Y28620000D02*
X45153641Y28620000D01*
X42857836Y24360000D02*
X42642164Y24360000D01*
X42857836Y23640000D02*
X42642164Y23640000D01*
X44846359Y24380000D02*
X45153641Y24380000D01*
X44846359Y23620000D02*
X45153641Y23620000D01*
X43590000Y37352064D02*
X43590000Y36147936D01*
X45410000Y37352064D02*
X45410000Y36147936D01*
X39600000Y41010000D02*
X39600000Y35500000D01*
X42900000Y41010000D02*
X39600000Y41010000D01*
X42900000Y41010000D02*
X42900000Y35500000D01*
X42857836Y15110000D02*
X42642164Y15110000D01*
X42857836Y14390000D02*
X42642164Y14390000D01*
M02*
