M48
; DRILL file {KiCad 9.0.6+1} date 2025-12-14T17:41:01+0000
; FORMAT={-:-/ absolute / inch / decimal}
; #@! TF.CreationDate,2025-12-14T17:41:01+00:00
; #@! TF.GenerationSoftware,Kicad,Pcbnew,9.0.6+1
; #@! TF.FileFunction,Plated,1,2,PTH
FMAT,2
INCH
; #@! TA.AperFunction,Plated,PTH,ViaDrill
T1C0.0157
; #@! TA.AperFunction,Plated,PTH,ComponentDrill
T2C0.0394
; #@! TA.AperFunction,Plated,PTH,ComponentDrill
T3C0.0453
%
G90
G05
T1
X4.6752Y-2.2343
X4.6752Y-2.2933
X4.6949Y-2.4803
X4.7047Y-2.0374
X4.7835Y-2.3425
X5.2854Y-3.2283
X5.3051Y-3.1068
X5.3248Y-3.0413
X5.337Y-3.2874
X5.3642Y-3.0413
X5.561Y-2.6476
X5.561Y-3.2776
X5.6102Y-3.2874
T2
X4.677Y-1.937
X4.777Y-1.937
X4.877Y-1.937
X4.977Y-1.937
X5.037Y-3.837
X5.077Y-1.937
X5.137Y-3.837
X5.177Y-1.937
X5.237Y-3.837
X5.277Y-1.937
X5.337Y-3.837
X5.377Y-1.937
X5.437Y-3.837
X5.477Y-1.937
X5.537Y-3.837
X5.577Y-1.937
X5.637Y-3.837
X5.737Y-1.937
X5.737Y-3.837
X5.837Y-1.937
X5.937Y-1.937
X5.937Y-3.837
X6.037Y-1.937
X6.037Y-3.837
X6.137Y-1.937
X6.137Y-3.837
X6.237Y-1.937
X6.237Y-3.837
X6.337Y-1.937
X6.337Y-3.837
X6.437Y-1.937
X6.437Y-3.837
T3
X6.0086Y-2.2264
X6.0086Y-2.4232
X6.0086Y-2.7913
X6.0086Y-2.9882
X6.0086Y-3.3563
X6.0086Y-3.5531
X6.2054Y-2.2264
X6.2054Y-2.4232
X6.2054Y-2.7913
X6.2054Y-2.9882
X6.2054Y-3.3563
X6.2054Y-3.5531
M30
