%TF.GenerationSoftware,KiCad,Pcbnew,9.0.6+1*%
%TF.CreationDate,2025-12-14T17:41:01+00:00*%
%TF.ProjectId,dreh_shield,64726568-5f73-4686-9965-6c642e6b6963,0.1*%
%TF.SameCoordinates,Original*%
%TF.FileFunction,Plated,1,2,PTH,Drill*%
%TF.FilePolarity,Positive*%
%FSLAX46Y46*%
G04 Gerber Fmt 4.6, Leading zero omitted, Abs format (unit mm)*
G04 Created by KiCad (PCBNEW 9.0.6+1) date 2025-12-14 17:41:01*
%MOMM*%
%LPD*%
G01*
G04 APERTURE LIST*
%TA.AperFunction,ViaDrill*%
%ADD10C,0.400000*%
%TD*%
%TA.AperFunction,ComponentDrill*%
%ADD11C,1.000000*%
%TD*%
%TA.AperFunction,ComponentDrill*%
%ADD12C,1.150000*%
%TD*%
G04 APERTURE END LIST*
D10*
X118750000Y-56750000D03*
X118750000Y-58250000D03*
X119250000Y-63000000D03*
X119500000Y-51750000D03*
X121500000Y-59500000D03*
X134250000Y-82000000D03*
X134750000Y-78912500D03*
X135250000Y-77250000D03*
X135560000Y-83500000D03*
X136250000Y-77250000D03*
X141250000Y-67250000D03*
X141250000Y-83250000D03*
X142500000Y-83500000D03*
D11*
%TO.C,J2*%
X118796000Y-49200000D03*
X121336000Y-49200000D03*
X123876000Y-49200000D03*
X126416000Y-49200000D03*
%TO.C,J1*%
X127940000Y-97460000D03*
%TO.C,J2*%
X128956000Y-49200000D03*
%TO.C,J1*%
X130480000Y-97460000D03*
%TO.C,J2*%
X131496000Y-49200000D03*
%TO.C,J1*%
X133020000Y-97460000D03*
%TO.C,J2*%
X134036000Y-49200000D03*
%TO.C,J1*%
X135560000Y-97460000D03*
%TO.C,J2*%
X136576000Y-49200000D03*
%TO.C,J1*%
X138100000Y-97460000D03*
%TO.C,J2*%
X139116000Y-49200000D03*
%TO.C,J1*%
X140640000Y-97460000D03*
%TO.C,J2*%
X141656000Y-49200000D03*
%TO.C,J1*%
X143180000Y-97460000D03*
%TO.C,J4*%
X145720000Y-49200000D03*
%TO.C,J1*%
X145720000Y-97460000D03*
%TO.C,J4*%
X148260000Y-49200000D03*
X150800000Y-49200000D03*
%TO.C,J3*%
X150800000Y-97460000D03*
%TO.C,J4*%
X153340000Y-49200000D03*
%TO.C,J3*%
X153340000Y-97460000D03*
%TO.C,J4*%
X155880000Y-49200000D03*
%TO.C,J3*%
X155880000Y-97460000D03*
%TO.C,J4*%
X158420000Y-49200000D03*
%TO.C,J3*%
X158420000Y-97460000D03*
%TO.C,J4*%
X160960000Y-49200000D03*
%TO.C,J3*%
X160960000Y-97460000D03*
%TO.C,J4*%
X163500000Y-49200000D03*
%TO.C,J3*%
X163500000Y-97460000D03*
D12*
%TO.C,J103*%
X152617500Y-56550000D03*
X152617500Y-61550000D03*
%TO.C,J102*%
X152617500Y-70900000D03*
X152617500Y-75900000D03*
%TO.C,J101*%
X152617500Y-85250000D03*
X152617500Y-90250000D03*
%TO.C,J103*%
X157617500Y-56550000D03*
X157617500Y-61550000D03*
%TO.C,J102*%
X157617500Y-70900000D03*
X157617500Y-75900000D03*
%TO.C,J101*%
X157617500Y-85250000D03*
X157617500Y-90250000D03*
M02*
