%TF.GenerationSoftware,KiCad,Pcbnew,9.0.6+1*%
%TF.CreationDate,2025-12-15T08:06:45+00:00*%
%TF.ProjectId,dreh_shield,64726568-5f73-4686-9965-6c642e6b6963,0.1*%
%TF.SameCoordinates,Original*%
%TF.FileFunction,AssemblyDrawing,Top*%
%FSLAX46Y46*%
G04 Gerber Fmt 4.6, Leading zero omitted, Abs format (unit mm)*
G04 Created by KiCad (PCBNEW 9.0.6+1) date 2025-12-15 08:06:45*
%MOMM*%
%LPD*%
G01*
G04 APERTURE LIST*
%ADD10C,0.150000*%
%ADD11C,0.040000*%
%ADD12C,0.110000*%
%ADD13C,0.120000*%
%ADD14C,0.100000*%
G04 APERTURE END LIST*
D10*
X134853809Y-101724819D02*
X134853809Y-100724819D01*
X134853809Y-100724819D02*
X135234761Y-100724819D01*
X135234761Y-100724819D02*
X135329999Y-100772438D01*
X135329999Y-100772438D02*
X135377618Y-100820057D01*
X135377618Y-100820057D02*
X135425237Y-100915295D01*
X135425237Y-100915295D02*
X135425237Y-101058152D01*
X135425237Y-101058152D02*
X135377618Y-101153390D01*
X135377618Y-101153390D02*
X135329999Y-101201009D01*
X135329999Y-101201009D02*
X135234761Y-101248628D01*
X135234761Y-101248628D02*
X134853809Y-101248628D01*
X135996666Y-101724819D02*
X135901428Y-101677200D01*
X135901428Y-101677200D02*
X135853809Y-101629580D01*
X135853809Y-101629580D02*
X135806190Y-101534342D01*
X135806190Y-101534342D02*
X135806190Y-101248628D01*
X135806190Y-101248628D02*
X135853809Y-101153390D01*
X135853809Y-101153390D02*
X135901428Y-101105771D01*
X135901428Y-101105771D02*
X135996666Y-101058152D01*
X135996666Y-101058152D02*
X136139523Y-101058152D01*
X136139523Y-101058152D02*
X136234761Y-101105771D01*
X136234761Y-101105771D02*
X136282380Y-101153390D01*
X136282380Y-101153390D02*
X136329999Y-101248628D01*
X136329999Y-101248628D02*
X136329999Y-101534342D01*
X136329999Y-101534342D02*
X136282380Y-101629580D01*
X136282380Y-101629580D02*
X136234761Y-101677200D01*
X136234761Y-101677200D02*
X136139523Y-101724819D01*
X136139523Y-101724819D02*
X135996666Y-101724819D01*
X136663333Y-101058152D02*
X136853809Y-101724819D01*
X136853809Y-101724819D02*
X137044285Y-101248628D01*
X137044285Y-101248628D02*
X137234761Y-101724819D01*
X137234761Y-101724819D02*
X137425237Y-101058152D01*
X138187142Y-101677200D02*
X138091904Y-101724819D01*
X138091904Y-101724819D02*
X137901428Y-101724819D01*
X137901428Y-101724819D02*
X137806190Y-101677200D01*
X137806190Y-101677200D02*
X137758571Y-101581961D01*
X137758571Y-101581961D02*
X137758571Y-101201009D01*
X137758571Y-101201009D02*
X137806190Y-101105771D01*
X137806190Y-101105771D02*
X137901428Y-101058152D01*
X137901428Y-101058152D02*
X138091904Y-101058152D01*
X138091904Y-101058152D02*
X138187142Y-101105771D01*
X138187142Y-101105771D02*
X138234761Y-101201009D01*
X138234761Y-101201009D02*
X138234761Y-101296247D01*
X138234761Y-101296247D02*
X137758571Y-101391485D01*
X138663333Y-101724819D02*
X138663333Y-101058152D01*
X138663333Y-101248628D02*
X138710952Y-101153390D01*
X138710952Y-101153390D02*
X138758571Y-101105771D01*
X138758571Y-101105771D02*
X138853809Y-101058152D01*
X138853809Y-101058152D02*
X138949047Y-101058152D01*
X127606666Y-100724819D02*
X127606666Y-101439104D01*
X127606666Y-101439104D02*
X127559047Y-101581961D01*
X127559047Y-101581961D02*
X127463809Y-101677200D01*
X127463809Y-101677200D02*
X127320952Y-101724819D01*
X127320952Y-101724819D02*
X127225714Y-101724819D01*
X128606666Y-101724819D02*
X128035238Y-101724819D01*
X128320952Y-101724819D02*
X128320952Y-100724819D01*
X128320952Y-100724819D02*
X128225714Y-100867676D01*
X128225714Y-100867676D02*
X128130476Y-100962914D01*
X128130476Y-100962914D02*
X128035238Y-101010533D01*
X154840476Y-101439104D02*
X155316666Y-101439104D01*
X154745238Y-101724819D02*
X155078571Y-100724819D01*
X155078571Y-100724819D02*
X155411904Y-101724819D01*
X155745238Y-101058152D02*
X155745238Y-101724819D01*
X155745238Y-101153390D02*
X155792857Y-101105771D01*
X155792857Y-101105771D02*
X155888095Y-101058152D01*
X155888095Y-101058152D02*
X156030952Y-101058152D01*
X156030952Y-101058152D02*
X156126190Y-101105771D01*
X156126190Y-101105771D02*
X156173809Y-101201009D01*
X156173809Y-101201009D02*
X156173809Y-101724819D01*
X157078571Y-101724819D02*
X157078571Y-101201009D01*
X157078571Y-101201009D02*
X157030952Y-101105771D01*
X157030952Y-101105771D02*
X156935714Y-101058152D01*
X156935714Y-101058152D02*
X156745238Y-101058152D01*
X156745238Y-101058152D02*
X156650000Y-101105771D01*
X157078571Y-101677200D02*
X156983333Y-101724819D01*
X156983333Y-101724819D02*
X156745238Y-101724819D01*
X156745238Y-101724819D02*
X156650000Y-101677200D01*
X156650000Y-101677200D02*
X156602381Y-101581961D01*
X156602381Y-101581961D02*
X156602381Y-101486723D01*
X156602381Y-101486723D02*
X156650000Y-101391485D01*
X156650000Y-101391485D02*
X156745238Y-101343866D01*
X156745238Y-101343866D02*
X156983333Y-101343866D01*
X156983333Y-101343866D02*
X157078571Y-101296247D01*
X157697619Y-101724819D02*
X157602381Y-101677200D01*
X157602381Y-101677200D02*
X157554762Y-101581961D01*
X157554762Y-101581961D02*
X157554762Y-100724819D01*
X158221429Y-101724819D02*
X158126191Y-101677200D01*
X158126191Y-101677200D02*
X158078572Y-101629580D01*
X158078572Y-101629580D02*
X158030953Y-101534342D01*
X158030953Y-101534342D02*
X158030953Y-101248628D01*
X158030953Y-101248628D02*
X158078572Y-101153390D01*
X158078572Y-101153390D02*
X158126191Y-101105771D01*
X158126191Y-101105771D02*
X158221429Y-101058152D01*
X158221429Y-101058152D02*
X158364286Y-101058152D01*
X158364286Y-101058152D02*
X158459524Y-101105771D01*
X158459524Y-101105771D02*
X158507143Y-101153390D01*
X158507143Y-101153390D02*
X158554762Y-101248628D01*
X158554762Y-101248628D02*
X158554762Y-101534342D01*
X158554762Y-101534342D02*
X158507143Y-101629580D01*
X158507143Y-101629580D02*
X158459524Y-101677200D01*
X158459524Y-101677200D02*
X158364286Y-101724819D01*
X158364286Y-101724819D02*
X158221429Y-101724819D01*
X159411905Y-101058152D02*
X159411905Y-101867676D01*
X159411905Y-101867676D02*
X159364286Y-101962914D01*
X159364286Y-101962914D02*
X159316667Y-102010533D01*
X159316667Y-102010533D02*
X159221429Y-102058152D01*
X159221429Y-102058152D02*
X159078572Y-102058152D01*
X159078572Y-102058152D02*
X158983334Y-102010533D01*
X159411905Y-101677200D02*
X159316667Y-101724819D01*
X159316667Y-101724819D02*
X159126191Y-101724819D01*
X159126191Y-101724819D02*
X159030953Y-101677200D01*
X159030953Y-101677200D02*
X158983334Y-101629580D01*
X158983334Y-101629580D02*
X158935715Y-101534342D01*
X158935715Y-101534342D02*
X158935715Y-101248628D01*
X158935715Y-101248628D02*
X158983334Y-101153390D01*
X158983334Y-101153390D02*
X159030953Y-101105771D01*
X159030953Y-101105771D02*
X159126191Y-101058152D01*
X159126191Y-101058152D02*
X159316667Y-101058152D01*
X159316667Y-101058152D02*
X159411905Y-101105771D01*
X150466666Y-100724819D02*
X150466666Y-101439104D01*
X150466666Y-101439104D02*
X150419047Y-101581961D01*
X150419047Y-101581961D02*
X150323809Y-101677200D01*
X150323809Y-101677200D02*
X150180952Y-101724819D01*
X150180952Y-101724819D02*
X150085714Y-101724819D01*
X150847619Y-100724819D02*
X151466666Y-100724819D01*
X151466666Y-100724819D02*
X151133333Y-101105771D01*
X151133333Y-101105771D02*
X151276190Y-101105771D01*
X151276190Y-101105771D02*
X151371428Y-101153390D01*
X151371428Y-101153390D02*
X151419047Y-101201009D01*
X151419047Y-101201009D02*
X151466666Y-101296247D01*
X151466666Y-101296247D02*
X151466666Y-101534342D01*
X151466666Y-101534342D02*
X151419047Y-101629580D01*
X151419047Y-101629580D02*
X151371428Y-101677200D01*
X151371428Y-101677200D02*
X151276190Y-101724819D01*
X151276190Y-101724819D02*
X150990476Y-101724819D01*
X150990476Y-101724819D02*
X150895238Y-101677200D01*
X150895238Y-101677200D02*
X150847619Y-101629580D01*
X125868857Y-45844819D02*
X125868857Y-44844819D01*
X125868857Y-44844819D02*
X126106952Y-44844819D01*
X126106952Y-44844819D02*
X126249809Y-44892438D01*
X126249809Y-44892438D02*
X126345047Y-44987676D01*
X126345047Y-44987676D02*
X126392666Y-45082914D01*
X126392666Y-45082914D02*
X126440285Y-45273390D01*
X126440285Y-45273390D02*
X126440285Y-45416247D01*
X126440285Y-45416247D02*
X126392666Y-45606723D01*
X126392666Y-45606723D02*
X126345047Y-45701961D01*
X126345047Y-45701961D02*
X126249809Y-45797200D01*
X126249809Y-45797200D02*
X126106952Y-45844819D01*
X126106952Y-45844819D02*
X125868857Y-45844819D01*
X126868857Y-45844819D02*
X126868857Y-45178152D01*
X126868857Y-44844819D02*
X126821238Y-44892438D01*
X126821238Y-44892438D02*
X126868857Y-44940057D01*
X126868857Y-44940057D02*
X126916476Y-44892438D01*
X126916476Y-44892438D02*
X126868857Y-44844819D01*
X126868857Y-44844819D02*
X126868857Y-44940057D01*
X127773618Y-45178152D02*
X127773618Y-45987676D01*
X127773618Y-45987676D02*
X127725999Y-46082914D01*
X127725999Y-46082914D02*
X127678380Y-46130533D01*
X127678380Y-46130533D02*
X127583142Y-46178152D01*
X127583142Y-46178152D02*
X127440285Y-46178152D01*
X127440285Y-46178152D02*
X127345047Y-46130533D01*
X127773618Y-45797200D02*
X127678380Y-45844819D01*
X127678380Y-45844819D02*
X127487904Y-45844819D01*
X127487904Y-45844819D02*
X127392666Y-45797200D01*
X127392666Y-45797200D02*
X127345047Y-45749580D01*
X127345047Y-45749580D02*
X127297428Y-45654342D01*
X127297428Y-45654342D02*
X127297428Y-45368628D01*
X127297428Y-45368628D02*
X127345047Y-45273390D01*
X127345047Y-45273390D02*
X127392666Y-45225771D01*
X127392666Y-45225771D02*
X127487904Y-45178152D01*
X127487904Y-45178152D02*
X127678380Y-45178152D01*
X127678380Y-45178152D02*
X127773618Y-45225771D01*
X128249809Y-45844819D02*
X128249809Y-45178152D01*
X128249809Y-44844819D02*
X128202190Y-44892438D01*
X128202190Y-44892438D02*
X128249809Y-44940057D01*
X128249809Y-44940057D02*
X128297428Y-44892438D01*
X128297428Y-44892438D02*
X128249809Y-44844819D01*
X128249809Y-44844819D02*
X128249809Y-44940057D01*
X128583142Y-45178152D02*
X128964094Y-45178152D01*
X128725999Y-44844819D02*
X128725999Y-45701961D01*
X128725999Y-45701961D02*
X128773618Y-45797200D01*
X128773618Y-45797200D02*
X128868856Y-45844819D01*
X128868856Y-45844819D02*
X128964094Y-45844819D01*
X129725999Y-45844819D02*
X129725999Y-45321009D01*
X129725999Y-45321009D02*
X129678380Y-45225771D01*
X129678380Y-45225771D02*
X129583142Y-45178152D01*
X129583142Y-45178152D02*
X129392666Y-45178152D01*
X129392666Y-45178152D02*
X129297428Y-45225771D01*
X129725999Y-45797200D02*
X129630761Y-45844819D01*
X129630761Y-45844819D02*
X129392666Y-45844819D01*
X129392666Y-45844819D02*
X129297428Y-45797200D01*
X129297428Y-45797200D02*
X129249809Y-45701961D01*
X129249809Y-45701961D02*
X129249809Y-45606723D01*
X129249809Y-45606723D02*
X129297428Y-45511485D01*
X129297428Y-45511485D02*
X129392666Y-45463866D01*
X129392666Y-45463866D02*
X129630761Y-45463866D01*
X129630761Y-45463866D02*
X129725999Y-45416247D01*
X130345047Y-45844819D02*
X130249809Y-45797200D01*
X130249809Y-45797200D02*
X130202190Y-45701961D01*
X130202190Y-45701961D02*
X130202190Y-44844819D01*
X131440285Y-44797200D02*
X130583143Y-46082914D01*
X131773619Y-45844819D02*
X131773619Y-44844819D01*
X131773619Y-44844819D02*
X132154571Y-44844819D01*
X132154571Y-44844819D02*
X132249809Y-44892438D01*
X132249809Y-44892438D02*
X132297428Y-44940057D01*
X132297428Y-44940057D02*
X132345047Y-45035295D01*
X132345047Y-45035295D02*
X132345047Y-45178152D01*
X132345047Y-45178152D02*
X132297428Y-45273390D01*
X132297428Y-45273390D02*
X132249809Y-45321009D01*
X132249809Y-45321009D02*
X132154571Y-45368628D01*
X132154571Y-45368628D02*
X131773619Y-45368628D01*
X132678381Y-44844819D02*
X132916476Y-45844819D01*
X132916476Y-45844819D02*
X133106952Y-45130533D01*
X133106952Y-45130533D02*
X133297428Y-45844819D01*
X133297428Y-45844819D02*
X133535524Y-44844819D01*
X133916476Y-45844819D02*
X133916476Y-44844819D01*
X133916476Y-44844819D02*
X134249809Y-45559104D01*
X134249809Y-45559104D02*
X134583142Y-44844819D01*
X134583142Y-44844819D02*
X134583142Y-45844819D01*
X118462666Y-44844819D02*
X118462666Y-45559104D01*
X118462666Y-45559104D02*
X118415047Y-45701961D01*
X118415047Y-45701961D02*
X118319809Y-45797200D01*
X118319809Y-45797200D02*
X118176952Y-45844819D01*
X118176952Y-45844819D02*
X118081714Y-45844819D01*
X118891238Y-44940057D02*
X118938857Y-44892438D01*
X118938857Y-44892438D02*
X119034095Y-44844819D01*
X119034095Y-44844819D02*
X119272190Y-44844819D01*
X119272190Y-44844819D02*
X119367428Y-44892438D01*
X119367428Y-44892438D02*
X119415047Y-44940057D01*
X119415047Y-44940057D02*
X119462666Y-45035295D01*
X119462666Y-45035295D02*
X119462666Y-45130533D01*
X119462666Y-45130533D02*
X119415047Y-45273390D01*
X119415047Y-45273390D02*
X118843619Y-45844819D01*
X118843619Y-45844819D02*
X119462666Y-45844819D01*
X150252857Y-45844819D02*
X150252857Y-44844819D01*
X150252857Y-44844819D02*
X150490952Y-44844819D01*
X150490952Y-44844819D02*
X150633809Y-44892438D01*
X150633809Y-44892438D02*
X150729047Y-44987676D01*
X150729047Y-44987676D02*
X150776666Y-45082914D01*
X150776666Y-45082914D02*
X150824285Y-45273390D01*
X150824285Y-45273390D02*
X150824285Y-45416247D01*
X150824285Y-45416247D02*
X150776666Y-45606723D01*
X150776666Y-45606723D02*
X150729047Y-45701961D01*
X150729047Y-45701961D02*
X150633809Y-45797200D01*
X150633809Y-45797200D02*
X150490952Y-45844819D01*
X150490952Y-45844819D02*
X150252857Y-45844819D01*
X151252857Y-45844819D02*
X151252857Y-45178152D01*
X151252857Y-44844819D02*
X151205238Y-44892438D01*
X151205238Y-44892438D02*
X151252857Y-44940057D01*
X151252857Y-44940057D02*
X151300476Y-44892438D01*
X151300476Y-44892438D02*
X151252857Y-44844819D01*
X151252857Y-44844819D02*
X151252857Y-44940057D01*
X152157618Y-45178152D02*
X152157618Y-45987676D01*
X152157618Y-45987676D02*
X152109999Y-46082914D01*
X152109999Y-46082914D02*
X152062380Y-46130533D01*
X152062380Y-46130533D02*
X151967142Y-46178152D01*
X151967142Y-46178152D02*
X151824285Y-46178152D01*
X151824285Y-46178152D02*
X151729047Y-46130533D01*
X152157618Y-45797200D02*
X152062380Y-45844819D01*
X152062380Y-45844819D02*
X151871904Y-45844819D01*
X151871904Y-45844819D02*
X151776666Y-45797200D01*
X151776666Y-45797200D02*
X151729047Y-45749580D01*
X151729047Y-45749580D02*
X151681428Y-45654342D01*
X151681428Y-45654342D02*
X151681428Y-45368628D01*
X151681428Y-45368628D02*
X151729047Y-45273390D01*
X151729047Y-45273390D02*
X151776666Y-45225771D01*
X151776666Y-45225771D02*
X151871904Y-45178152D01*
X151871904Y-45178152D02*
X152062380Y-45178152D01*
X152062380Y-45178152D02*
X152157618Y-45225771D01*
X152633809Y-45844819D02*
X152633809Y-45178152D01*
X152633809Y-44844819D02*
X152586190Y-44892438D01*
X152586190Y-44892438D02*
X152633809Y-44940057D01*
X152633809Y-44940057D02*
X152681428Y-44892438D01*
X152681428Y-44892438D02*
X152633809Y-44844819D01*
X152633809Y-44844819D02*
X152633809Y-44940057D01*
X152967142Y-45178152D02*
X153348094Y-45178152D01*
X153109999Y-44844819D02*
X153109999Y-45701961D01*
X153109999Y-45701961D02*
X153157618Y-45797200D01*
X153157618Y-45797200D02*
X153252856Y-45844819D01*
X153252856Y-45844819D02*
X153348094Y-45844819D01*
X154109999Y-45844819D02*
X154109999Y-45321009D01*
X154109999Y-45321009D02*
X154062380Y-45225771D01*
X154062380Y-45225771D02*
X153967142Y-45178152D01*
X153967142Y-45178152D02*
X153776666Y-45178152D01*
X153776666Y-45178152D02*
X153681428Y-45225771D01*
X154109999Y-45797200D02*
X154014761Y-45844819D01*
X154014761Y-45844819D02*
X153776666Y-45844819D01*
X153776666Y-45844819D02*
X153681428Y-45797200D01*
X153681428Y-45797200D02*
X153633809Y-45701961D01*
X153633809Y-45701961D02*
X153633809Y-45606723D01*
X153633809Y-45606723D02*
X153681428Y-45511485D01*
X153681428Y-45511485D02*
X153776666Y-45463866D01*
X153776666Y-45463866D02*
X154014761Y-45463866D01*
X154014761Y-45463866D02*
X154109999Y-45416247D01*
X154729047Y-45844819D02*
X154633809Y-45797200D01*
X154633809Y-45797200D02*
X154586190Y-45701961D01*
X154586190Y-45701961D02*
X154586190Y-44844819D01*
X155824285Y-44797200D02*
X154967143Y-46082914D01*
X156157619Y-45844819D02*
X156157619Y-44844819D01*
X156157619Y-44844819D02*
X156538571Y-44844819D01*
X156538571Y-44844819D02*
X156633809Y-44892438D01*
X156633809Y-44892438D02*
X156681428Y-44940057D01*
X156681428Y-44940057D02*
X156729047Y-45035295D01*
X156729047Y-45035295D02*
X156729047Y-45178152D01*
X156729047Y-45178152D02*
X156681428Y-45273390D01*
X156681428Y-45273390D02*
X156633809Y-45321009D01*
X156633809Y-45321009D02*
X156538571Y-45368628D01*
X156538571Y-45368628D02*
X156157619Y-45368628D01*
X157062381Y-44844819D02*
X157300476Y-45844819D01*
X157300476Y-45844819D02*
X157490952Y-45130533D01*
X157490952Y-45130533D02*
X157681428Y-45844819D01*
X157681428Y-45844819D02*
X157919524Y-44844819D01*
X158300476Y-45844819D02*
X158300476Y-44844819D01*
X158300476Y-44844819D02*
X158633809Y-45559104D01*
X158633809Y-45559104D02*
X158967142Y-44844819D01*
X158967142Y-44844819D02*
X158967142Y-45844819D01*
X145386666Y-44844819D02*
X145386666Y-45559104D01*
X145386666Y-45559104D02*
X145339047Y-45701961D01*
X145339047Y-45701961D02*
X145243809Y-45797200D01*
X145243809Y-45797200D02*
X145100952Y-45844819D01*
X145100952Y-45844819D02*
X145005714Y-45844819D01*
X146291428Y-45178152D02*
X146291428Y-45844819D01*
X146053333Y-44797200D02*
X145815238Y-45511485D01*
X145815238Y-45511485D02*
X146434285Y-45511485D01*
X163192319Y-60233332D02*
X162192319Y-60233332D01*
X162192319Y-60233332D02*
X162192319Y-59852380D01*
X162192319Y-59852380D02*
X162239938Y-59757142D01*
X162239938Y-59757142D02*
X162287557Y-59709523D01*
X162287557Y-59709523D02*
X162382795Y-59661904D01*
X162382795Y-59661904D02*
X162525652Y-59661904D01*
X162525652Y-59661904D02*
X162620890Y-59709523D01*
X162620890Y-59709523D02*
X162668509Y-59757142D01*
X162668509Y-59757142D02*
X162716128Y-59852380D01*
X162716128Y-59852380D02*
X162716128Y-60233332D01*
X162192319Y-59328570D02*
X163192319Y-59090475D01*
X163192319Y-59090475D02*
X162478033Y-58899999D01*
X162478033Y-58899999D02*
X163192319Y-58709523D01*
X163192319Y-58709523D02*
X162192319Y-58471428D01*
X163192319Y-57519047D02*
X162716128Y-57852380D01*
X163192319Y-58090475D02*
X162192319Y-58090475D01*
X162192319Y-58090475D02*
X162192319Y-57709523D01*
X162192319Y-57709523D02*
X162239938Y-57614285D01*
X162239938Y-57614285D02*
X162287557Y-57566666D01*
X162287557Y-57566666D02*
X162382795Y-57519047D01*
X162382795Y-57519047D02*
X162525652Y-57519047D01*
X162525652Y-57519047D02*
X162620890Y-57566666D01*
X162620890Y-57566666D02*
X162668509Y-57614285D01*
X162668509Y-57614285D02*
X162716128Y-57709523D01*
X162716128Y-57709523D02*
X162716128Y-58090475D01*
X153072319Y-60185714D02*
X153786604Y-60185714D01*
X153786604Y-60185714D02*
X153929461Y-60233333D01*
X153929461Y-60233333D02*
X154024700Y-60328571D01*
X154024700Y-60328571D02*
X154072319Y-60471428D01*
X154072319Y-60471428D02*
X154072319Y-60566666D01*
X154072319Y-59185714D02*
X154072319Y-59757142D01*
X154072319Y-59471428D02*
X153072319Y-59471428D01*
X153072319Y-59471428D02*
X153215176Y-59566666D01*
X153215176Y-59566666D02*
X153310414Y-59661904D01*
X153310414Y-59661904D02*
X153358033Y-59757142D01*
X153072319Y-58566666D02*
X153072319Y-58471428D01*
X153072319Y-58471428D02*
X153119938Y-58376190D01*
X153119938Y-58376190D02*
X153167557Y-58328571D01*
X153167557Y-58328571D02*
X153262795Y-58280952D01*
X153262795Y-58280952D02*
X153453271Y-58233333D01*
X153453271Y-58233333D02*
X153691366Y-58233333D01*
X153691366Y-58233333D02*
X153881842Y-58280952D01*
X153881842Y-58280952D02*
X153977080Y-58328571D01*
X153977080Y-58328571D02*
X154024700Y-58376190D01*
X154024700Y-58376190D02*
X154072319Y-58471428D01*
X154072319Y-58471428D02*
X154072319Y-58566666D01*
X154072319Y-58566666D02*
X154024700Y-58661904D01*
X154024700Y-58661904D02*
X153977080Y-58709523D01*
X153977080Y-58709523D02*
X153881842Y-58757142D01*
X153881842Y-58757142D02*
X153691366Y-58804761D01*
X153691366Y-58804761D02*
X153453271Y-58804761D01*
X153453271Y-58804761D02*
X153262795Y-58757142D01*
X153262795Y-58757142D02*
X153167557Y-58709523D01*
X153167557Y-58709523D02*
X153119938Y-58661904D01*
X153119938Y-58661904D02*
X153072319Y-58566666D01*
X153072319Y-57899999D02*
X153072319Y-57280952D01*
X153072319Y-57280952D02*
X153453271Y-57614285D01*
X153453271Y-57614285D02*
X153453271Y-57471428D01*
X153453271Y-57471428D02*
X153500890Y-57376190D01*
X153500890Y-57376190D02*
X153548509Y-57328571D01*
X153548509Y-57328571D02*
X153643747Y-57280952D01*
X153643747Y-57280952D02*
X153881842Y-57280952D01*
X153881842Y-57280952D02*
X153977080Y-57328571D01*
X153977080Y-57328571D02*
X154024700Y-57376190D01*
X154024700Y-57376190D02*
X154072319Y-57471428D01*
X154072319Y-57471428D02*
X154072319Y-57757142D01*
X154072319Y-57757142D02*
X154024700Y-57852380D01*
X154024700Y-57852380D02*
X153977080Y-57899999D01*
X119784819Y-61345238D02*
X119784819Y-61916666D01*
X119784819Y-61630952D02*
X118784819Y-61630952D01*
X118784819Y-61630952D02*
X118927676Y-61726190D01*
X118927676Y-61726190D02*
X119022914Y-61821428D01*
X119022914Y-61821428D02*
X119070533Y-61916666D01*
X118784819Y-60726190D02*
X118784819Y-60630952D01*
X118784819Y-60630952D02*
X118832438Y-60535714D01*
X118832438Y-60535714D02*
X118880057Y-60488095D01*
X118880057Y-60488095D02*
X118975295Y-60440476D01*
X118975295Y-60440476D02*
X119165771Y-60392857D01*
X119165771Y-60392857D02*
X119403866Y-60392857D01*
X119403866Y-60392857D02*
X119594342Y-60440476D01*
X119594342Y-60440476D02*
X119689580Y-60488095D01*
X119689580Y-60488095D02*
X119737200Y-60535714D01*
X119737200Y-60535714D02*
X119784819Y-60630952D01*
X119784819Y-60630952D02*
X119784819Y-60726190D01*
X119784819Y-60726190D02*
X119737200Y-60821428D01*
X119737200Y-60821428D02*
X119689580Y-60869047D01*
X119689580Y-60869047D02*
X119594342Y-60916666D01*
X119594342Y-60916666D02*
X119403866Y-60964285D01*
X119403866Y-60964285D02*
X119165771Y-60964285D01*
X119165771Y-60964285D02*
X118975295Y-60916666D01*
X118975295Y-60916666D02*
X118880057Y-60869047D01*
X118880057Y-60869047D02*
X118832438Y-60821428D01*
X118832438Y-60821428D02*
X118784819Y-60726190D01*
X119784819Y-59964285D02*
X118784819Y-59964285D01*
X119403866Y-59869047D02*
X119784819Y-59583333D01*
X119118152Y-59583333D02*
X119499104Y-59964285D01*
D11*
X120618200Y-61040951D02*
X120494391Y-61127618D01*
X120618200Y-61189523D02*
X120358200Y-61189523D01*
X120358200Y-61189523D02*
X120358200Y-61090475D01*
X120358200Y-61090475D02*
X120370581Y-61065713D01*
X120370581Y-61065713D02*
X120382962Y-61053332D01*
X120382962Y-61053332D02*
X120407724Y-61040951D01*
X120407724Y-61040951D02*
X120444867Y-61040951D01*
X120444867Y-61040951D02*
X120469629Y-61053332D01*
X120469629Y-61053332D02*
X120482010Y-61065713D01*
X120482010Y-61065713D02*
X120494391Y-61090475D01*
X120494391Y-61090475D02*
X120494391Y-61189523D01*
X120618200Y-60793332D02*
X120618200Y-60941904D01*
X120618200Y-60867618D02*
X120358200Y-60867618D01*
X120358200Y-60867618D02*
X120395343Y-60892380D01*
X120395343Y-60892380D02*
X120420105Y-60917142D01*
X120420105Y-60917142D02*
X120432486Y-60941904D01*
X120358200Y-60632380D02*
X120358200Y-60607618D01*
X120358200Y-60607618D02*
X120370581Y-60582856D01*
X120370581Y-60582856D02*
X120382962Y-60570475D01*
X120382962Y-60570475D02*
X120407724Y-60558094D01*
X120407724Y-60558094D02*
X120457248Y-60545713D01*
X120457248Y-60545713D02*
X120519153Y-60545713D01*
X120519153Y-60545713D02*
X120568677Y-60558094D01*
X120568677Y-60558094D02*
X120593439Y-60570475D01*
X120593439Y-60570475D02*
X120605820Y-60582856D01*
X120605820Y-60582856D02*
X120618200Y-60607618D01*
X120618200Y-60607618D02*
X120618200Y-60632380D01*
X120618200Y-60632380D02*
X120605820Y-60657142D01*
X120605820Y-60657142D02*
X120593439Y-60669523D01*
X120593439Y-60669523D02*
X120568677Y-60681904D01*
X120568677Y-60681904D02*
X120519153Y-60694285D01*
X120519153Y-60694285D02*
X120457248Y-60694285D01*
X120457248Y-60694285D02*
X120407724Y-60681904D01*
X120407724Y-60681904D02*
X120382962Y-60669523D01*
X120382962Y-60669523D02*
X120370581Y-60657142D01*
X120370581Y-60657142D02*
X120358200Y-60632380D01*
X120358200Y-60322856D02*
X120358200Y-60372380D01*
X120358200Y-60372380D02*
X120370581Y-60397142D01*
X120370581Y-60397142D02*
X120382962Y-60409523D01*
X120382962Y-60409523D02*
X120420105Y-60434285D01*
X120420105Y-60434285D02*
X120469629Y-60446666D01*
X120469629Y-60446666D02*
X120568677Y-60446666D01*
X120568677Y-60446666D02*
X120593439Y-60434285D01*
X120593439Y-60434285D02*
X120605820Y-60421904D01*
X120605820Y-60421904D02*
X120618200Y-60397142D01*
X120618200Y-60397142D02*
X120618200Y-60347618D01*
X120618200Y-60347618D02*
X120605820Y-60322856D01*
X120605820Y-60322856D02*
X120593439Y-60310475D01*
X120593439Y-60310475D02*
X120568677Y-60298094D01*
X120568677Y-60298094D02*
X120506772Y-60298094D01*
X120506772Y-60298094D02*
X120482010Y-60310475D01*
X120482010Y-60310475D02*
X120469629Y-60322856D01*
X120469629Y-60322856D02*
X120457248Y-60347618D01*
X120457248Y-60347618D02*
X120457248Y-60397142D01*
X120457248Y-60397142D02*
X120469629Y-60421904D01*
X120469629Y-60421904D02*
X120482010Y-60434285D01*
X120482010Y-60434285D02*
X120506772Y-60446666D01*
D10*
X121238095Y-67973866D02*
X121285714Y-67926247D01*
X121285714Y-67926247D02*
X121380952Y-67878628D01*
X121380952Y-67878628D02*
X121571428Y-67973866D01*
X121571428Y-67973866D02*
X121666666Y-67926247D01*
X121666666Y-67926247D02*
X121714285Y-67878628D01*
X123684819Y-57735238D02*
X123684819Y-58306666D01*
X123684819Y-58020952D02*
X122684819Y-58020952D01*
X122684819Y-58020952D02*
X122827676Y-58116190D01*
X122827676Y-58116190D02*
X122922914Y-58211428D01*
X122922914Y-58211428D02*
X122970533Y-58306666D01*
X122684819Y-57116190D02*
X122684819Y-57020952D01*
X122684819Y-57020952D02*
X122732438Y-56925714D01*
X122732438Y-56925714D02*
X122780057Y-56878095D01*
X122780057Y-56878095D02*
X122875295Y-56830476D01*
X122875295Y-56830476D02*
X123065771Y-56782857D01*
X123065771Y-56782857D02*
X123303866Y-56782857D01*
X123303866Y-56782857D02*
X123494342Y-56830476D01*
X123494342Y-56830476D02*
X123589580Y-56878095D01*
X123589580Y-56878095D02*
X123637200Y-56925714D01*
X123637200Y-56925714D02*
X123684819Y-57020952D01*
X123684819Y-57020952D02*
X123684819Y-57116190D01*
X123684819Y-57116190D02*
X123637200Y-57211428D01*
X123637200Y-57211428D02*
X123589580Y-57259047D01*
X123589580Y-57259047D02*
X123494342Y-57306666D01*
X123494342Y-57306666D02*
X123303866Y-57354285D01*
X123303866Y-57354285D02*
X123065771Y-57354285D01*
X123065771Y-57354285D02*
X122875295Y-57306666D01*
X122875295Y-57306666D02*
X122780057Y-57259047D01*
X122780057Y-57259047D02*
X122732438Y-57211428D01*
X122732438Y-57211428D02*
X122684819Y-57116190D01*
X123684819Y-56354285D02*
X122684819Y-56354285D01*
X123303866Y-56259047D02*
X123684819Y-55973333D01*
X123018152Y-55973333D02*
X123399104Y-56354285D01*
D11*
X124518200Y-57430951D02*
X124394391Y-57517618D01*
X124518200Y-57579523D02*
X124258200Y-57579523D01*
X124258200Y-57579523D02*
X124258200Y-57480475D01*
X124258200Y-57480475D02*
X124270581Y-57455713D01*
X124270581Y-57455713D02*
X124282962Y-57443332D01*
X124282962Y-57443332D02*
X124307724Y-57430951D01*
X124307724Y-57430951D02*
X124344867Y-57430951D01*
X124344867Y-57430951D02*
X124369629Y-57443332D01*
X124369629Y-57443332D02*
X124382010Y-57455713D01*
X124382010Y-57455713D02*
X124394391Y-57480475D01*
X124394391Y-57480475D02*
X124394391Y-57579523D01*
X124518200Y-57183332D02*
X124518200Y-57331904D01*
X124518200Y-57257618D02*
X124258200Y-57257618D01*
X124258200Y-57257618D02*
X124295343Y-57282380D01*
X124295343Y-57282380D02*
X124320105Y-57307142D01*
X124320105Y-57307142D02*
X124332486Y-57331904D01*
X124258200Y-57022380D02*
X124258200Y-56997618D01*
X124258200Y-56997618D02*
X124270581Y-56972856D01*
X124270581Y-56972856D02*
X124282962Y-56960475D01*
X124282962Y-56960475D02*
X124307724Y-56948094D01*
X124307724Y-56948094D02*
X124357248Y-56935713D01*
X124357248Y-56935713D02*
X124419153Y-56935713D01*
X124419153Y-56935713D02*
X124468677Y-56948094D01*
X124468677Y-56948094D02*
X124493439Y-56960475D01*
X124493439Y-56960475D02*
X124505820Y-56972856D01*
X124505820Y-56972856D02*
X124518200Y-56997618D01*
X124518200Y-56997618D02*
X124518200Y-57022380D01*
X124518200Y-57022380D02*
X124505820Y-57047142D01*
X124505820Y-57047142D02*
X124493439Y-57059523D01*
X124493439Y-57059523D02*
X124468677Y-57071904D01*
X124468677Y-57071904D02*
X124419153Y-57084285D01*
X124419153Y-57084285D02*
X124357248Y-57084285D01*
X124357248Y-57084285D02*
X124307724Y-57071904D01*
X124307724Y-57071904D02*
X124282962Y-57059523D01*
X124282962Y-57059523D02*
X124270581Y-57047142D01*
X124270581Y-57047142D02*
X124258200Y-57022380D01*
X124258200Y-56700475D02*
X124258200Y-56824285D01*
X124258200Y-56824285D02*
X124382010Y-56836666D01*
X124382010Y-56836666D02*
X124369629Y-56824285D01*
X124369629Y-56824285D02*
X124357248Y-56799523D01*
X124357248Y-56799523D02*
X124357248Y-56737618D01*
X124357248Y-56737618D02*
X124369629Y-56712856D01*
X124369629Y-56712856D02*
X124382010Y-56700475D01*
X124382010Y-56700475D02*
X124406772Y-56688094D01*
X124406772Y-56688094D02*
X124468677Y-56688094D01*
X124468677Y-56688094D02*
X124493439Y-56700475D01*
X124493439Y-56700475D02*
X124505820Y-56712856D01*
X124505820Y-56712856D02*
X124518200Y-56737618D01*
X124518200Y-56737618D02*
X124518200Y-56799523D01*
X124518200Y-56799523D02*
X124505820Y-56824285D01*
X124505820Y-56824285D02*
X124493439Y-56836666D01*
D10*
X124271429Y-50354819D02*
X124509524Y-51354819D01*
X124509524Y-51354819D02*
X124700000Y-50640533D01*
X124700000Y-50640533D02*
X124890476Y-51354819D01*
X124890476Y-51354819D02*
X125128572Y-50354819D01*
X125509524Y-51354819D02*
X125509524Y-50354819D01*
X125509524Y-50354819D02*
X125890476Y-50354819D01*
X125890476Y-50354819D02*
X125985714Y-50402438D01*
X125985714Y-50402438D02*
X126033333Y-50450057D01*
X126033333Y-50450057D02*
X126080952Y-50545295D01*
X126080952Y-50545295D02*
X126080952Y-50688152D01*
X126080952Y-50688152D02*
X126033333Y-50783390D01*
X126033333Y-50783390D02*
X125985714Y-50831009D01*
X125985714Y-50831009D02*
X125890476Y-50878628D01*
X125890476Y-50878628D02*
X125509524Y-50878628D01*
X162906604Y-74464285D02*
X162906604Y-73988095D01*
X163192319Y-74559523D02*
X162192319Y-74226190D01*
X162192319Y-74226190D02*
X163192319Y-73892857D01*
X162668509Y-73226190D02*
X162716128Y-73083333D01*
X162716128Y-73083333D02*
X162763747Y-73035714D01*
X162763747Y-73035714D02*
X162858985Y-72988095D01*
X162858985Y-72988095D02*
X163001842Y-72988095D01*
X163001842Y-72988095D02*
X163097080Y-73035714D01*
X163097080Y-73035714D02*
X163144700Y-73083333D01*
X163144700Y-73083333D02*
X163192319Y-73178571D01*
X163192319Y-73178571D02*
X163192319Y-73559523D01*
X163192319Y-73559523D02*
X162192319Y-73559523D01*
X162192319Y-73559523D02*
X162192319Y-73226190D01*
X162192319Y-73226190D02*
X162239938Y-73130952D01*
X162239938Y-73130952D02*
X162287557Y-73083333D01*
X162287557Y-73083333D02*
X162382795Y-73035714D01*
X162382795Y-73035714D02*
X162478033Y-73035714D01*
X162478033Y-73035714D02*
X162573271Y-73083333D01*
X162573271Y-73083333D02*
X162620890Y-73130952D01*
X162620890Y-73130952D02*
X162668509Y-73226190D01*
X162668509Y-73226190D02*
X162668509Y-73559523D01*
X162287557Y-72607142D02*
X162239938Y-72559523D01*
X162239938Y-72559523D02*
X162192319Y-72464285D01*
X162192319Y-72464285D02*
X162192319Y-72226190D01*
X162192319Y-72226190D02*
X162239938Y-72130952D01*
X162239938Y-72130952D02*
X162287557Y-72083333D01*
X162287557Y-72083333D02*
X162382795Y-72035714D01*
X162382795Y-72035714D02*
X162478033Y-72035714D01*
X162478033Y-72035714D02*
X162620890Y-72083333D01*
X162620890Y-72083333D02*
X163192319Y-72654761D01*
X163192319Y-72654761D02*
X163192319Y-72035714D01*
X153072319Y-74535714D02*
X153786604Y-74535714D01*
X153786604Y-74535714D02*
X153929461Y-74583333D01*
X153929461Y-74583333D02*
X154024700Y-74678571D01*
X154024700Y-74678571D02*
X154072319Y-74821428D01*
X154072319Y-74821428D02*
X154072319Y-74916666D01*
X154072319Y-73535714D02*
X154072319Y-74107142D01*
X154072319Y-73821428D02*
X153072319Y-73821428D01*
X153072319Y-73821428D02*
X153215176Y-73916666D01*
X153215176Y-73916666D02*
X153310414Y-74011904D01*
X153310414Y-74011904D02*
X153358033Y-74107142D01*
X153072319Y-72916666D02*
X153072319Y-72821428D01*
X153072319Y-72821428D02*
X153119938Y-72726190D01*
X153119938Y-72726190D02*
X153167557Y-72678571D01*
X153167557Y-72678571D02*
X153262795Y-72630952D01*
X153262795Y-72630952D02*
X153453271Y-72583333D01*
X153453271Y-72583333D02*
X153691366Y-72583333D01*
X153691366Y-72583333D02*
X153881842Y-72630952D01*
X153881842Y-72630952D02*
X153977080Y-72678571D01*
X153977080Y-72678571D02*
X154024700Y-72726190D01*
X154024700Y-72726190D02*
X154072319Y-72821428D01*
X154072319Y-72821428D02*
X154072319Y-72916666D01*
X154072319Y-72916666D02*
X154024700Y-73011904D01*
X154024700Y-73011904D02*
X153977080Y-73059523D01*
X153977080Y-73059523D02*
X153881842Y-73107142D01*
X153881842Y-73107142D02*
X153691366Y-73154761D01*
X153691366Y-73154761D02*
X153453271Y-73154761D01*
X153453271Y-73154761D02*
X153262795Y-73107142D01*
X153262795Y-73107142D02*
X153167557Y-73059523D01*
X153167557Y-73059523D02*
X153119938Y-73011904D01*
X153119938Y-73011904D02*
X153072319Y-72916666D01*
X153167557Y-72202380D02*
X153119938Y-72154761D01*
X153119938Y-72154761D02*
X153072319Y-72059523D01*
X153072319Y-72059523D02*
X153072319Y-71821428D01*
X153072319Y-71821428D02*
X153119938Y-71726190D01*
X153119938Y-71726190D02*
X153167557Y-71678571D01*
X153167557Y-71678571D02*
X153262795Y-71630952D01*
X153262795Y-71630952D02*
X153358033Y-71630952D01*
X153358033Y-71630952D02*
X153500890Y-71678571D01*
X153500890Y-71678571D02*
X154072319Y-72249999D01*
X154072319Y-72249999D02*
X154072319Y-71630952D01*
X121238095Y-65223866D02*
X121285714Y-65176247D01*
X121285714Y-65176247D02*
X121380952Y-65128628D01*
X121380952Y-65128628D02*
X121571428Y-65223866D01*
X121571428Y-65223866D02*
X121666666Y-65176247D01*
X121666666Y-65176247D02*
X121714285Y-65128628D01*
X162906604Y-88814285D02*
X162906604Y-88338095D01*
X163192319Y-88909523D02*
X162192319Y-88576190D01*
X162192319Y-88576190D02*
X163192319Y-88242857D01*
X162668509Y-87576190D02*
X162716128Y-87433333D01*
X162716128Y-87433333D02*
X162763747Y-87385714D01*
X162763747Y-87385714D02*
X162858985Y-87338095D01*
X162858985Y-87338095D02*
X163001842Y-87338095D01*
X163001842Y-87338095D02*
X163097080Y-87385714D01*
X163097080Y-87385714D02*
X163144700Y-87433333D01*
X163144700Y-87433333D02*
X163192319Y-87528571D01*
X163192319Y-87528571D02*
X163192319Y-87909523D01*
X163192319Y-87909523D02*
X162192319Y-87909523D01*
X162192319Y-87909523D02*
X162192319Y-87576190D01*
X162192319Y-87576190D02*
X162239938Y-87480952D01*
X162239938Y-87480952D02*
X162287557Y-87433333D01*
X162287557Y-87433333D02*
X162382795Y-87385714D01*
X162382795Y-87385714D02*
X162478033Y-87385714D01*
X162478033Y-87385714D02*
X162573271Y-87433333D01*
X162573271Y-87433333D02*
X162620890Y-87480952D01*
X162620890Y-87480952D02*
X162668509Y-87576190D01*
X162668509Y-87576190D02*
X162668509Y-87909523D01*
X163192319Y-86385714D02*
X163192319Y-86957142D01*
X163192319Y-86671428D02*
X162192319Y-86671428D01*
X162192319Y-86671428D02*
X162335176Y-86766666D01*
X162335176Y-86766666D02*
X162430414Y-86861904D01*
X162430414Y-86861904D02*
X162478033Y-86957142D01*
X153072319Y-88885714D02*
X153786604Y-88885714D01*
X153786604Y-88885714D02*
X153929461Y-88933333D01*
X153929461Y-88933333D02*
X154024700Y-89028571D01*
X154024700Y-89028571D02*
X154072319Y-89171428D01*
X154072319Y-89171428D02*
X154072319Y-89266666D01*
X154072319Y-87885714D02*
X154072319Y-88457142D01*
X154072319Y-88171428D02*
X153072319Y-88171428D01*
X153072319Y-88171428D02*
X153215176Y-88266666D01*
X153215176Y-88266666D02*
X153310414Y-88361904D01*
X153310414Y-88361904D02*
X153358033Y-88457142D01*
X153072319Y-87266666D02*
X153072319Y-87171428D01*
X153072319Y-87171428D02*
X153119938Y-87076190D01*
X153119938Y-87076190D02*
X153167557Y-87028571D01*
X153167557Y-87028571D02*
X153262795Y-86980952D01*
X153262795Y-86980952D02*
X153453271Y-86933333D01*
X153453271Y-86933333D02*
X153691366Y-86933333D01*
X153691366Y-86933333D02*
X153881842Y-86980952D01*
X153881842Y-86980952D02*
X153977080Y-87028571D01*
X153977080Y-87028571D02*
X154024700Y-87076190D01*
X154024700Y-87076190D02*
X154072319Y-87171428D01*
X154072319Y-87171428D02*
X154072319Y-87266666D01*
X154072319Y-87266666D02*
X154024700Y-87361904D01*
X154024700Y-87361904D02*
X153977080Y-87409523D01*
X153977080Y-87409523D02*
X153881842Y-87457142D01*
X153881842Y-87457142D02*
X153691366Y-87504761D01*
X153691366Y-87504761D02*
X153453271Y-87504761D01*
X153453271Y-87504761D02*
X153262795Y-87457142D01*
X153262795Y-87457142D02*
X153167557Y-87409523D01*
X153167557Y-87409523D02*
X153119938Y-87361904D01*
X153119938Y-87361904D02*
X153072319Y-87266666D01*
X154072319Y-85980952D02*
X154072319Y-86552380D01*
X154072319Y-86266666D02*
X153072319Y-86266666D01*
X153072319Y-86266666D02*
X153215176Y-86361904D01*
X153215176Y-86361904D02*
X153310414Y-86457142D01*
X153310414Y-86457142D02*
X153358033Y-86552380D01*
X141535714Y-69390057D02*
X141583333Y-69342438D01*
X141583333Y-69342438D02*
X141678571Y-69294819D01*
X141678571Y-69294819D02*
X141916666Y-69294819D01*
X141916666Y-69294819D02*
X142011904Y-69342438D01*
X142011904Y-69342438D02*
X142059523Y-69390057D01*
X142059523Y-69390057D02*
X142107142Y-69485295D01*
X142107142Y-69485295D02*
X142107142Y-69580533D01*
X142107142Y-69580533D02*
X142059523Y-69723390D01*
X142059523Y-69723390D02*
X141488095Y-70294819D01*
X141488095Y-70294819D02*
X142107142Y-70294819D01*
X142488095Y-69390057D02*
X142535714Y-69342438D01*
X142535714Y-69342438D02*
X142630952Y-69294819D01*
X142630952Y-69294819D02*
X142869047Y-69294819D01*
X142869047Y-69294819D02*
X142964285Y-69342438D01*
X142964285Y-69342438D02*
X143011904Y-69390057D01*
X143011904Y-69390057D02*
X143059523Y-69485295D01*
X143059523Y-69485295D02*
X143059523Y-69580533D01*
X143059523Y-69580533D02*
X143011904Y-69723390D01*
X143011904Y-69723390D02*
X142440476Y-70294819D01*
X142440476Y-70294819D02*
X143059523Y-70294819D01*
X143488095Y-69628152D02*
X143488095Y-70294819D01*
X143488095Y-69723390D02*
X143535714Y-69675771D01*
X143535714Y-69675771D02*
X143630952Y-69628152D01*
X143630952Y-69628152D02*
X143773809Y-69628152D01*
X143773809Y-69628152D02*
X143869047Y-69675771D01*
X143869047Y-69675771D02*
X143916666Y-69771009D01*
X143916666Y-69771009D02*
X143916666Y-70294819D01*
D11*
X142470238Y-71089765D02*
X142458334Y-71101670D01*
X142458334Y-71101670D02*
X142422619Y-71113574D01*
X142422619Y-71113574D02*
X142398810Y-71113574D01*
X142398810Y-71113574D02*
X142363096Y-71101670D01*
X142363096Y-71101670D02*
X142339286Y-71077860D01*
X142339286Y-71077860D02*
X142327381Y-71054050D01*
X142327381Y-71054050D02*
X142315477Y-71006431D01*
X142315477Y-71006431D02*
X142315477Y-70970717D01*
X142315477Y-70970717D02*
X142327381Y-70923098D01*
X142327381Y-70923098D02*
X142339286Y-70899289D01*
X142339286Y-70899289D02*
X142363096Y-70875479D01*
X142363096Y-70875479D02*
X142398810Y-70863574D01*
X142398810Y-70863574D02*
X142422619Y-70863574D01*
X142422619Y-70863574D02*
X142458334Y-70875479D01*
X142458334Y-70875479D02*
X142470238Y-70887384D01*
X142708334Y-71113574D02*
X142565477Y-71113574D01*
X142636905Y-71113574D02*
X142636905Y-70863574D01*
X142636905Y-70863574D02*
X142613096Y-70899289D01*
X142613096Y-70899289D02*
X142589286Y-70923098D01*
X142589286Y-70923098D02*
X142565477Y-70935003D01*
X142863095Y-70863574D02*
X142886905Y-70863574D01*
X142886905Y-70863574D02*
X142910714Y-70875479D01*
X142910714Y-70875479D02*
X142922619Y-70887384D01*
X142922619Y-70887384D02*
X142934524Y-70911193D01*
X142934524Y-70911193D02*
X142946429Y-70958812D01*
X142946429Y-70958812D02*
X142946429Y-71018336D01*
X142946429Y-71018336D02*
X142934524Y-71065955D01*
X142934524Y-71065955D02*
X142922619Y-71089765D01*
X142922619Y-71089765D02*
X142910714Y-71101670D01*
X142910714Y-71101670D02*
X142886905Y-71113574D01*
X142886905Y-71113574D02*
X142863095Y-71113574D01*
X142863095Y-71113574D02*
X142839286Y-71101670D01*
X142839286Y-71101670D02*
X142827381Y-71089765D01*
X142827381Y-71089765D02*
X142815476Y-71065955D01*
X142815476Y-71065955D02*
X142803572Y-71018336D01*
X142803572Y-71018336D02*
X142803572Y-70958812D01*
X142803572Y-70958812D02*
X142815476Y-70911193D01*
X142815476Y-70911193D02*
X142827381Y-70887384D01*
X142827381Y-70887384D02*
X142839286Y-70875479D01*
X142839286Y-70875479D02*
X142863095Y-70863574D01*
X143160714Y-70946908D02*
X143160714Y-71113574D01*
X143101190Y-70851670D02*
X143041667Y-71030241D01*
X143041667Y-71030241D02*
X143196428Y-71030241D01*
D10*
X143928571Y-86874819D02*
X143357143Y-86874819D01*
X143642857Y-86874819D02*
X143642857Y-85874819D01*
X143642857Y-85874819D02*
X143547619Y-86017676D01*
X143547619Y-86017676D02*
X143452381Y-86112914D01*
X143452381Y-86112914D02*
X143357143Y-86160533D01*
X144547619Y-85874819D02*
X144642857Y-85874819D01*
X144642857Y-85874819D02*
X144738095Y-85922438D01*
X144738095Y-85922438D02*
X144785714Y-85970057D01*
X144785714Y-85970057D02*
X144833333Y-86065295D01*
X144833333Y-86065295D02*
X144880952Y-86255771D01*
X144880952Y-86255771D02*
X144880952Y-86493866D01*
X144880952Y-86493866D02*
X144833333Y-86684342D01*
X144833333Y-86684342D02*
X144785714Y-86779580D01*
X144785714Y-86779580D02*
X144738095Y-86827200D01*
X144738095Y-86827200D02*
X144642857Y-86874819D01*
X144642857Y-86874819D02*
X144547619Y-86874819D01*
X144547619Y-86874819D02*
X144452381Y-86827200D01*
X144452381Y-86827200D02*
X144404762Y-86779580D01*
X144404762Y-86779580D02*
X144357143Y-86684342D01*
X144357143Y-86684342D02*
X144309524Y-86493866D01*
X144309524Y-86493866D02*
X144309524Y-86255771D01*
X144309524Y-86255771D02*
X144357143Y-86065295D01*
X144357143Y-86065295D02*
X144404762Y-85970057D01*
X144404762Y-85970057D02*
X144452381Y-85922438D01*
X144452381Y-85922438D02*
X144547619Y-85874819D01*
X145500000Y-85874819D02*
X145595238Y-85874819D01*
X145595238Y-85874819D02*
X145690476Y-85922438D01*
X145690476Y-85922438D02*
X145738095Y-85970057D01*
X145738095Y-85970057D02*
X145785714Y-86065295D01*
X145785714Y-86065295D02*
X145833333Y-86255771D01*
X145833333Y-86255771D02*
X145833333Y-86493866D01*
X145833333Y-86493866D02*
X145785714Y-86684342D01*
X145785714Y-86684342D02*
X145738095Y-86779580D01*
X145738095Y-86779580D02*
X145690476Y-86827200D01*
X145690476Y-86827200D02*
X145595238Y-86874819D01*
X145595238Y-86874819D02*
X145500000Y-86874819D01*
X145500000Y-86874819D02*
X145404762Y-86827200D01*
X145404762Y-86827200D02*
X145357143Y-86779580D01*
X145357143Y-86779580D02*
X145309524Y-86684342D01*
X145309524Y-86684342D02*
X145261905Y-86493866D01*
X145261905Y-86493866D02*
X145261905Y-86255771D01*
X145261905Y-86255771D02*
X145309524Y-86065295D01*
X145309524Y-86065295D02*
X145357143Y-85970057D01*
X145357143Y-85970057D02*
X145404762Y-85922438D01*
X145404762Y-85922438D02*
X145500000Y-85874819D01*
X146261905Y-86874819D02*
X146261905Y-85874819D01*
X146357143Y-86493866D02*
X146642857Y-86874819D01*
X146642857Y-86208152D02*
X146261905Y-86589104D01*
D11*
X144709048Y-85368200D02*
X144622381Y-85244391D01*
X144560476Y-85368200D02*
X144560476Y-85108200D01*
X144560476Y-85108200D02*
X144659524Y-85108200D01*
X144659524Y-85108200D02*
X144684286Y-85120581D01*
X144684286Y-85120581D02*
X144696667Y-85132962D01*
X144696667Y-85132962D02*
X144709048Y-85157724D01*
X144709048Y-85157724D02*
X144709048Y-85194867D01*
X144709048Y-85194867D02*
X144696667Y-85219629D01*
X144696667Y-85219629D02*
X144684286Y-85232010D01*
X144684286Y-85232010D02*
X144659524Y-85244391D01*
X144659524Y-85244391D02*
X144560476Y-85244391D01*
X144956667Y-85368200D02*
X144808095Y-85368200D01*
X144882381Y-85368200D02*
X144882381Y-85108200D01*
X144882381Y-85108200D02*
X144857619Y-85145343D01*
X144857619Y-85145343D02*
X144832857Y-85170105D01*
X144832857Y-85170105D02*
X144808095Y-85182486D01*
X145117619Y-85108200D02*
X145142381Y-85108200D01*
X145142381Y-85108200D02*
X145167143Y-85120581D01*
X145167143Y-85120581D02*
X145179524Y-85132962D01*
X145179524Y-85132962D02*
X145191905Y-85157724D01*
X145191905Y-85157724D02*
X145204286Y-85207248D01*
X145204286Y-85207248D02*
X145204286Y-85269153D01*
X145204286Y-85269153D02*
X145191905Y-85318677D01*
X145191905Y-85318677D02*
X145179524Y-85343439D01*
X145179524Y-85343439D02*
X145167143Y-85355820D01*
X145167143Y-85355820D02*
X145142381Y-85368200D01*
X145142381Y-85368200D02*
X145117619Y-85368200D01*
X145117619Y-85368200D02*
X145092857Y-85355820D01*
X145092857Y-85355820D02*
X145080476Y-85343439D01*
X145080476Y-85343439D02*
X145068095Y-85318677D01*
X145068095Y-85318677D02*
X145055714Y-85269153D01*
X145055714Y-85269153D02*
X145055714Y-85207248D01*
X145055714Y-85207248D02*
X145068095Y-85157724D01*
X145068095Y-85157724D02*
X145080476Y-85132962D01*
X145080476Y-85132962D02*
X145092857Y-85120581D01*
X145092857Y-85120581D02*
X145117619Y-85108200D01*
X145303333Y-85132962D02*
X145315714Y-85120581D01*
X145315714Y-85120581D02*
X145340476Y-85108200D01*
X145340476Y-85108200D02*
X145402381Y-85108200D01*
X145402381Y-85108200D02*
X145427143Y-85120581D01*
X145427143Y-85120581D02*
X145439524Y-85132962D01*
X145439524Y-85132962D02*
X145451905Y-85157724D01*
X145451905Y-85157724D02*
X145451905Y-85182486D01*
X145451905Y-85182486D02*
X145439524Y-85219629D01*
X145439524Y-85219629D02*
X145290952Y-85368200D01*
X145290952Y-85368200D02*
X145451905Y-85368200D01*
D10*
X115428571Y-59769104D02*
X115904761Y-59769104D01*
X115333333Y-60054819D02*
X115666666Y-59054819D01*
X115666666Y-59054819D02*
X115999999Y-60054819D01*
X116190476Y-59054819D02*
X116761904Y-59054819D01*
X116476190Y-60054819D02*
X116476190Y-59054819D01*
X117047619Y-59150057D02*
X117095238Y-59102438D01*
X117095238Y-59102438D02*
X117190476Y-59054819D01*
X117190476Y-59054819D02*
X117428571Y-59054819D01*
X117428571Y-59054819D02*
X117523809Y-59102438D01*
X117523809Y-59102438D02*
X117571428Y-59150057D01*
X117571428Y-59150057D02*
X117619047Y-59245295D01*
X117619047Y-59245295D02*
X117619047Y-59340533D01*
X117619047Y-59340533D02*
X117571428Y-59483390D01*
X117571428Y-59483390D02*
X117000000Y-60054819D01*
X117000000Y-60054819D02*
X117619047Y-60054819D01*
X118476190Y-59388152D02*
X118476190Y-60054819D01*
X118238095Y-59007200D02*
X118000000Y-59721485D01*
X118000000Y-59721485D02*
X118619047Y-59721485D01*
X119571428Y-59959580D02*
X119523809Y-60007200D01*
X119523809Y-60007200D02*
X119380952Y-60054819D01*
X119380952Y-60054819D02*
X119285714Y-60054819D01*
X119285714Y-60054819D02*
X119142857Y-60007200D01*
X119142857Y-60007200D02*
X119047619Y-59911961D01*
X119047619Y-59911961D02*
X119000000Y-59816723D01*
X119000000Y-59816723D02*
X118952381Y-59626247D01*
X118952381Y-59626247D02*
X118952381Y-59483390D01*
X118952381Y-59483390D02*
X119000000Y-59292914D01*
X119000000Y-59292914D02*
X119047619Y-59197676D01*
X119047619Y-59197676D02*
X119142857Y-59102438D01*
X119142857Y-59102438D02*
X119285714Y-59054819D01*
X119285714Y-59054819D02*
X119380952Y-59054819D01*
X119380952Y-59054819D02*
X119523809Y-59102438D01*
X119523809Y-59102438D02*
X119571428Y-59150057D01*
X119952381Y-60007200D02*
X120095238Y-60054819D01*
X120095238Y-60054819D02*
X120333333Y-60054819D01*
X120333333Y-60054819D02*
X120428571Y-60007200D01*
X120428571Y-60007200D02*
X120476190Y-59959580D01*
X120476190Y-59959580D02*
X120523809Y-59864342D01*
X120523809Y-59864342D02*
X120523809Y-59769104D01*
X120523809Y-59769104D02*
X120476190Y-59673866D01*
X120476190Y-59673866D02*
X120428571Y-59626247D01*
X120428571Y-59626247D02*
X120333333Y-59578628D01*
X120333333Y-59578628D02*
X120142857Y-59531009D01*
X120142857Y-59531009D02*
X120047619Y-59483390D01*
X120047619Y-59483390D02*
X120000000Y-59435771D01*
X120000000Y-59435771D02*
X119952381Y-59340533D01*
X119952381Y-59340533D02*
X119952381Y-59245295D01*
X119952381Y-59245295D02*
X120000000Y-59150057D01*
X120000000Y-59150057D02*
X120047619Y-59102438D01*
X120047619Y-59102438D02*
X120142857Y-59054819D01*
X120142857Y-59054819D02*
X120380952Y-59054819D01*
X120380952Y-59054819D02*
X120523809Y-59102438D01*
X121142857Y-59054819D02*
X121238095Y-59054819D01*
X121238095Y-59054819D02*
X121333333Y-59102438D01*
X121333333Y-59102438D02*
X121380952Y-59150057D01*
X121380952Y-59150057D02*
X121428571Y-59245295D01*
X121428571Y-59245295D02*
X121476190Y-59435771D01*
X121476190Y-59435771D02*
X121476190Y-59673866D01*
X121476190Y-59673866D02*
X121428571Y-59864342D01*
X121428571Y-59864342D02*
X121380952Y-59959580D01*
X121380952Y-59959580D02*
X121333333Y-60007200D01*
X121333333Y-60007200D02*
X121238095Y-60054819D01*
X121238095Y-60054819D02*
X121142857Y-60054819D01*
X121142857Y-60054819D02*
X121047619Y-60007200D01*
X121047619Y-60007200D02*
X121000000Y-59959580D01*
X121000000Y-59959580D02*
X120952381Y-59864342D01*
X120952381Y-59864342D02*
X120904762Y-59673866D01*
X120904762Y-59673866D02*
X120904762Y-59435771D01*
X120904762Y-59435771D02*
X120952381Y-59245295D01*
X120952381Y-59245295D02*
X121000000Y-59150057D01*
X121000000Y-59150057D02*
X121047619Y-59102438D01*
X121047619Y-59102438D02*
X121142857Y-59054819D01*
X121857143Y-59150057D02*
X121904762Y-59102438D01*
X121904762Y-59102438D02*
X122000000Y-59054819D01*
X122000000Y-59054819D02*
X122238095Y-59054819D01*
X122238095Y-59054819D02*
X122333333Y-59102438D01*
X122333333Y-59102438D02*
X122380952Y-59150057D01*
X122380952Y-59150057D02*
X122428571Y-59245295D01*
X122428571Y-59245295D02*
X122428571Y-59340533D01*
X122428571Y-59340533D02*
X122380952Y-59483390D01*
X122380952Y-59483390D02*
X121809524Y-60054819D01*
X121809524Y-60054819D02*
X122428571Y-60054819D01*
X122857143Y-59673866D02*
X123619048Y-59673866D01*
X124047619Y-60007200D02*
X124190476Y-60054819D01*
X124190476Y-60054819D02*
X124428571Y-60054819D01*
X124428571Y-60054819D02*
X124523809Y-60007200D01*
X124523809Y-60007200D02*
X124571428Y-59959580D01*
X124571428Y-59959580D02*
X124619047Y-59864342D01*
X124619047Y-59864342D02*
X124619047Y-59769104D01*
X124619047Y-59769104D02*
X124571428Y-59673866D01*
X124571428Y-59673866D02*
X124523809Y-59626247D01*
X124523809Y-59626247D02*
X124428571Y-59578628D01*
X124428571Y-59578628D02*
X124238095Y-59531009D01*
X124238095Y-59531009D02*
X124142857Y-59483390D01*
X124142857Y-59483390D02*
X124095238Y-59435771D01*
X124095238Y-59435771D02*
X124047619Y-59340533D01*
X124047619Y-59340533D02*
X124047619Y-59245295D01*
X124047619Y-59245295D02*
X124095238Y-59150057D01*
X124095238Y-59150057D02*
X124142857Y-59102438D01*
X124142857Y-59102438D02*
X124238095Y-59054819D01*
X124238095Y-59054819D02*
X124476190Y-59054819D01*
X124476190Y-59054819D02*
X124619047Y-59102438D01*
X124904762Y-59054819D02*
X125476190Y-59054819D01*
X125190476Y-60054819D02*
X125190476Y-59054819D01*
X125809524Y-59054819D02*
X125809524Y-59864342D01*
X125809524Y-59864342D02*
X125857143Y-59959580D01*
X125857143Y-59959580D02*
X125904762Y-60007200D01*
X125904762Y-60007200D02*
X126000000Y-60054819D01*
X126000000Y-60054819D02*
X126190476Y-60054819D01*
X126190476Y-60054819D02*
X126285714Y-60007200D01*
X126285714Y-60007200D02*
X126333333Y-59959580D01*
X126333333Y-59959580D02*
X126380952Y-59864342D01*
X126380952Y-59864342D02*
X126380952Y-59054819D01*
X126857143Y-60054819D02*
X126857143Y-59054819D01*
X126857143Y-59054819D02*
X127190476Y-59769104D01*
X127190476Y-59769104D02*
X127523809Y-59054819D01*
X127523809Y-59054819D02*
X127523809Y-60054819D01*
D12*
X121107365Y-58434285D02*
X121690222Y-58434285D01*
X121690222Y-58434285D02*
X121758794Y-58399999D01*
X121758794Y-58399999D02*
X121793080Y-58365714D01*
X121793080Y-58365714D02*
X121827365Y-58297142D01*
X121827365Y-58297142D02*
X121827365Y-58159999D01*
X121827365Y-58159999D02*
X121793080Y-58091428D01*
X121793080Y-58091428D02*
X121758794Y-58057142D01*
X121758794Y-58057142D02*
X121690222Y-58022856D01*
X121690222Y-58022856D02*
X121107365Y-58022856D01*
X121827365Y-57302856D02*
X121827365Y-57714285D01*
X121827365Y-57508570D02*
X121107365Y-57508570D01*
X121107365Y-57508570D02*
X121210222Y-57577142D01*
X121210222Y-57577142D02*
X121278794Y-57645713D01*
X121278794Y-57645713D02*
X121313080Y-57714285D01*
X121107365Y-56857142D02*
X121107365Y-56788571D01*
X121107365Y-56788571D02*
X121141651Y-56719999D01*
X121141651Y-56719999D02*
X121175937Y-56685714D01*
X121175937Y-56685714D02*
X121244508Y-56651428D01*
X121244508Y-56651428D02*
X121381651Y-56617142D01*
X121381651Y-56617142D02*
X121553080Y-56617142D01*
X121553080Y-56617142D02*
X121690222Y-56651428D01*
X121690222Y-56651428D02*
X121758794Y-56685714D01*
X121758794Y-56685714D02*
X121793080Y-56719999D01*
X121793080Y-56719999D02*
X121827365Y-56788571D01*
X121827365Y-56788571D02*
X121827365Y-56857142D01*
X121827365Y-56857142D02*
X121793080Y-56925714D01*
X121793080Y-56925714D02*
X121758794Y-56959999D01*
X121758794Y-56959999D02*
X121690222Y-56994285D01*
X121690222Y-56994285D02*
X121553080Y-57028571D01*
X121553080Y-57028571D02*
X121381651Y-57028571D01*
X121381651Y-57028571D02*
X121244508Y-56994285D01*
X121244508Y-56994285D02*
X121175937Y-56959999D01*
X121175937Y-56959999D02*
X121141651Y-56925714D01*
X121141651Y-56925714D02*
X121107365Y-56857142D01*
X121175937Y-56342857D02*
X121141651Y-56308571D01*
X121141651Y-56308571D02*
X121107365Y-56240000D01*
X121107365Y-56240000D02*
X121107365Y-56068571D01*
X121107365Y-56068571D02*
X121141651Y-56000000D01*
X121141651Y-56000000D02*
X121175937Y-55965714D01*
X121175937Y-55965714D02*
X121244508Y-55931428D01*
X121244508Y-55931428D02*
X121313080Y-55931428D01*
X121313080Y-55931428D02*
X121415937Y-55965714D01*
X121415937Y-55965714D02*
X121827365Y-56377142D01*
X121827365Y-56377142D02*
X121827365Y-55931428D01*
D10*
X114206667Y-49654819D02*
X114206667Y-48654819D01*
X114206667Y-48654819D02*
X114540000Y-49369104D01*
X114540000Y-49369104D02*
X114873333Y-48654819D01*
X114873333Y-48654819D02*
X114873333Y-49654819D01*
X115349524Y-49654819D02*
X115349524Y-48654819D01*
X115349524Y-49131009D02*
X115920952Y-49131009D01*
X115920952Y-49654819D02*
X115920952Y-48654819D01*
X116920952Y-49654819D02*
X116349524Y-49654819D01*
X116635238Y-49654819D02*
X116635238Y-48654819D01*
X116635238Y-48654819D02*
X116540000Y-48797676D01*
X116540000Y-48797676D02*
X116444762Y-48892914D01*
X116444762Y-48892914D02*
X116349524Y-48940533D01*
X132642858Y-77507200D02*
X132785715Y-77554819D01*
X132785715Y-77554819D02*
X133023810Y-77554819D01*
X133023810Y-77554819D02*
X133119048Y-77507200D01*
X133119048Y-77507200D02*
X133166667Y-77459580D01*
X133166667Y-77459580D02*
X133214286Y-77364342D01*
X133214286Y-77364342D02*
X133214286Y-77269104D01*
X133214286Y-77269104D02*
X133166667Y-77173866D01*
X133166667Y-77173866D02*
X133119048Y-77126247D01*
X133119048Y-77126247D02*
X133023810Y-77078628D01*
X133023810Y-77078628D02*
X132833334Y-77031009D01*
X132833334Y-77031009D02*
X132738096Y-76983390D01*
X132738096Y-76983390D02*
X132690477Y-76935771D01*
X132690477Y-76935771D02*
X132642858Y-76840533D01*
X132642858Y-76840533D02*
X132642858Y-76745295D01*
X132642858Y-76745295D02*
X132690477Y-76650057D01*
X132690477Y-76650057D02*
X132738096Y-76602438D01*
X132738096Y-76602438D02*
X132833334Y-76554819D01*
X132833334Y-76554819D02*
X133071429Y-76554819D01*
X133071429Y-76554819D02*
X133214286Y-76602438D01*
X133642858Y-77554819D02*
X133642858Y-76888152D01*
X133642858Y-76554819D02*
X133595239Y-76602438D01*
X133595239Y-76602438D02*
X133642858Y-76650057D01*
X133642858Y-76650057D02*
X133690477Y-76602438D01*
X133690477Y-76602438D02*
X133642858Y-76554819D01*
X133642858Y-76554819D02*
X133642858Y-76650057D01*
X134261905Y-76983390D02*
X134166667Y-76935771D01*
X134166667Y-76935771D02*
X134119048Y-76888152D01*
X134119048Y-76888152D02*
X134071429Y-76792914D01*
X134071429Y-76792914D02*
X134071429Y-76745295D01*
X134071429Y-76745295D02*
X134119048Y-76650057D01*
X134119048Y-76650057D02*
X134166667Y-76602438D01*
X134166667Y-76602438D02*
X134261905Y-76554819D01*
X134261905Y-76554819D02*
X134452381Y-76554819D01*
X134452381Y-76554819D02*
X134547619Y-76602438D01*
X134547619Y-76602438D02*
X134595238Y-76650057D01*
X134595238Y-76650057D02*
X134642857Y-76745295D01*
X134642857Y-76745295D02*
X134642857Y-76792914D01*
X134642857Y-76792914D02*
X134595238Y-76888152D01*
X134595238Y-76888152D02*
X134547619Y-76935771D01*
X134547619Y-76935771D02*
X134452381Y-76983390D01*
X134452381Y-76983390D02*
X134261905Y-76983390D01*
X134261905Y-76983390D02*
X134166667Y-77031009D01*
X134166667Y-77031009D02*
X134119048Y-77078628D01*
X134119048Y-77078628D02*
X134071429Y-77173866D01*
X134071429Y-77173866D02*
X134071429Y-77364342D01*
X134071429Y-77364342D02*
X134119048Y-77459580D01*
X134119048Y-77459580D02*
X134166667Y-77507200D01*
X134166667Y-77507200D02*
X134261905Y-77554819D01*
X134261905Y-77554819D02*
X134452381Y-77554819D01*
X134452381Y-77554819D02*
X134547619Y-77507200D01*
X134547619Y-77507200D02*
X134595238Y-77459580D01*
X134595238Y-77459580D02*
X134642857Y-77364342D01*
X134642857Y-77364342D02*
X134642857Y-77173866D01*
X134642857Y-77173866D02*
X134595238Y-77078628D01*
X134595238Y-77078628D02*
X134547619Y-77031009D01*
X134547619Y-77031009D02*
X134452381Y-76983390D01*
X135500000Y-76554819D02*
X135309524Y-76554819D01*
X135309524Y-76554819D02*
X135214286Y-76602438D01*
X135214286Y-76602438D02*
X135166667Y-76650057D01*
X135166667Y-76650057D02*
X135071429Y-76792914D01*
X135071429Y-76792914D02*
X135023810Y-76983390D01*
X135023810Y-76983390D02*
X135023810Y-77364342D01*
X135023810Y-77364342D02*
X135071429Y-77459580D01*
X135071429Y-77459580D02*
X135119048Y-77507200D01*
X135119048Y-77507200D02*
X135214286Y-77554819D01*
X135214286Y-77554819D02*
X135404762Y-77554819D01*
X135404762Y-77554819D02*
X135500000Y-77507200D01*
X135500000Y-77507200D02*
X135547619Y-77459580D01*
X135547619Y-77459580D02*
X135595238Y-77364342D01*
X135595238Y-77364342D02*
X135595238Y-77126247D01*
X135595238Y-77126247D02*
X135547619Y-77031009D01*
X135547619Y-77031009D02*
X135500000Y-76983390D01*
X135500000Y-76983390D02*
X135404762Y-76935771D01*
X135404762Y-76935771D02*
X135214286Y-76935771D01*
X135214286Y-76935771D02*
X135119048Y-76983390D01*
X135119048Y-76983390D02*
X135071429Y-77031009D01*
X135071429Y-77031009D02*
X135023810Y-77126247D01*
X136452381Y-76888152D02*
X136452381Y-77554819D01*
X136214286Y-76507200D02*
X135976191Y-77221485D01*
X135976191Y-77221485D02*
X136595238Y-77221485D01*
X137166667Y-76554819D02*
X137261905Y-76554819D01*
X137261905Y-76554819D02*
X137357143Y-76602438D01*
X137357143Y-76602438D02*
X137404762Y-76650057D01*
X137404762Y-76650057D02*
X137452381Y-76745295D01*
X137452381Y-76745295D02*
X137500000Y-76935771D01*
X137500000Y-76935771D02*
X137500000Y-77173866D01*
X137500000Y-77173866D02*
X137452381Y-77364342D01*
X137452381Y-77364342D02*
X137404762Y-77459580D01*
X137404762Y-77459580D02*
X137357143Y-77507200D01*
X137357143Y-77507200D02*
X137261905Y-77554819D01*
X137261905Y-77554819D02*
X137166667Y-77554819D01*
X137166667Y-77554819D02*
X137071429Y-77507200D01*
X137071429Y-77507200D02*
X137023810Y-77459580D01*
X137023810Y-77459580D02*
X136976191Y-77364342D01*
X136976191Y-77364342D02*
X136928572Y-77173866D01*
X136928572Y-77173866D02*
X136928572Y-76935771D01*
X136928572Y-76935771D02*
X136976191Y-76745295D01*
X136976191Y-76745295D02*
X137023810Y-76650057D01*
X137023810Y-76650057D02*
X137071429Y-76602438D01*
X137071429Y-76602438D02*
X137166667Y-76554819D01*
X138261905Y-77031009D02*
X138404762Y-77078628D01*
X138404762Y-77078628D02*
X138452381Y-77126247D01*
X138452381Y-77126247D02*
X138500000Y-77221485D01*
X138500000Y-77221485D02*
X138500000Y-77364342D01*
X138500000Y-77364342D02*
X138452381Y-77459580D01*
X138452381Y-77459580D02*
X138404762Y-77507200D01*
X138404762Y-77507200D02*
X138309524Y-77554819D01*
X138309524Y-77554819D02*
X137928572Y-77554819D01*
X137928572Y-77554819D02*
X137928572Y-76554819D01*
X137928572Y-76554819D02*
X138261905Y-76554819D01*
X138261905Y-76554819D02*
X138357143Y-76602438D01*
X138357143Y-76602438D02*
X138404762Y-76650057D01*
X138404762Y-76650057D02*
X138452381Y-76745295D01*
X138452381Y-76745295D02*
X138452381Y-76840533D01*
X138452381Y-76840533D02*
X138404762Y-76935771D01*
X138404762Y-76935771D02*
X138357143Y-76983390D01*
X138357143Y-76983390D02*
X138261905Y-77031009D01*
X138261905Y-77031009D02*
X137928572Y-77031009D01*
X138880953Y-77269104D02*
X139357143Y-77269104D01*
X138785715Y-77554819D02*
X139119048Y-76554819D01*
X139119048Y-76554819D02*
X139452381Y-77554819D01*
X139785715Y-77173866D02*
X140547620Y-77173866D01*
X141357143Y-77031009D02*
X141500000Y-77078628D01*
X141500000Y-77078628D02*
X141547619Y-77126247D01*
X141547619Y-77126247D02*
X141595238Y-77221485D01*
X141595238Y-77221485D02*
X141595238Y-77364342D01*
X141595238Y-77364342D02*
X141547619Y-77459580D01*
X141547619Y-77459580D02*
X141500000Y-77507200D01*
X141500000Y-77507200D02*
X141404762Y-77554819D01*
X141404762Y-77554819D02*
X141023810Y-77554819D01*
X141023810Y-77554819D02*
X141023810Y-76554819D01*
X141023810Y-76554819D02*
X141357143Y-76554819D01*
X141357143Y-76554819D02*
X141452381Y-76602438D01*
X141452381Y-76602438D02*
X141500000Y-76650057D01*
X141500000Y-76650057D02*
X141547619Y-76745295D01*
X141547619Y-76745295D02*
X141547619Y-76840533D01*
X141547619Y-76840533D02*
X141500000Y-76935771D01*
X141500000Y-76935771D02*
X141452381Y-76983390D01*
X141452381Y-76983390D02*
X141357143Y-77031009D01*
X141357143Y-77031009D02*
X141023810Y-77031009D01*
X142023810Y-77173866D02*
X142785715Y-77173866D01*
X143261905Y-77554819D02*
X143261905Y-76554819D01*
X143738095Y-76554819D02*
X143738095Y-77364342D01*
X143738095Y-77364342D02*
X143785714Y-77459580D01*
X143785714Y-77459580D02*
X143833333Y-77507200D01*
X143833333Y-77507200D02*
X143928571Y-77554819D01*
X143928571Y-77554819D02*
X144119047Y-77554819D01*
X144119047Y-77554819D02*
X144214285Y-77507200D01*
X144214285Y-77507200D02*
X144261904Y-77459580D01*
X144261904Y-77459580D02*
X144309523Y-77364342D01*
X144309523Y-77364342D02*
X144309523Y-76554819D01*
X137954819Y-82214285D02*
X138764342Y-82214285D01*
X138764342Y-82214285D02*
X138859580Y-82166666D01*
X138859580Y-82166666D02*
X138907200Y-82119047D01*
X138907200Y-82119047D02*
X138954819Y-82023809D01*
X138954819Y-82023809D02*
X138954819Y-81833333D01*
X138954819Y-81833333D02*
X138907200Y-81738095D01*
X138907200Y-81738095D02*
X138859580Y-81690476D01*
X138859580Y-81690476D02*
X138764342Y-81642857D01*
X138764342Y-81642857D02*
X137954819Y-81642857D01*
X138954819Y-80642857D02*
X138954819Y-81214285D01*
X138954819Y-80928571D02*
X137954819Y-80928571D01*
X137954819Y-80928571D02*
X138097676Y-81023809D01*
X138097676Y-81023809D02*
X138192914Y-81119047D01*
X138192914Y-81119047D02*
X138240533Y-81214285D01*
X137954819Y-80023809D02*
X137954819Y-79928571D01*
X137954819Y-79928571D02*
X138002438Y-79833333D01*
X138002438Y-79833333D02*
X138050057Y-79785714D01*
X138050057Y-79785714D02*
X138145295Y-79738095D01*
X138145295Y-79738095D02*
X138335771Y-79690476D01*
X138335771Y-79690476D02*
X138573866Y-79690476D01*
X138573866Y-79690476D02*
X138764342Y-79738095D01*
X138764342Y-79738095D02*
X138859580Y-79785714D01*
X138859580Y-79785714D02*
X138907200Y-79833333D01*
X138907200Y-79833333D02*
X138954819Y-79928571D01*
X138954819Y-79928571D02*
X138954819Y-80023809D01*
X138954819Y-80023809D02*
X138907200Y-80119047D01*
X138907200Y-80119047D02*
X138859580Y-80166666D01*
X138859580Y-80166666D02*
X138764342Y-80214285D01*
X138764342Y-80214285D02*
X138573866Y-80261904D01*
X138573866Y-80261904D02*
X138335771Y-80261904D01*
X138335771Y-80261904D02*
X138145295Y-80214285D01*
X138145295Y-80214285D02*
X138050057Y-80166666D01*
X138050057Y-80166666D02*
X138002438Y-80119047D01*
X138002438Y-80119047D02*
X137954819Y-80023809D01*
X138954819Y-78738095D02*
X138954819Y-79309523D01*
X138954819Y-79023809D02*
X137954819Y-79023809D01*
X137954819Y-79023809D02*
X138097676Y-79119047D01*
X138097676Y-79119047D02*
X138192914Y-79214285D01*
X138192914Y-79214285D02*
X138240533Y-79309523D01*
X117034819Y-61345238D02*
X117034819Y-61916666D01*
X117034819Y-61630952D02*
X116034819Y-61630952D01*
X116034819Y-61630952D02*
X116177676Y-61726190D01*
X116177676Y-61726190D02*
X116272914Y-61821428D01*
X116272914Y-61821428D02*
X116320533Y-61916666D01*
X116034819Y-60726190D02*
X116034819Y-60630952D01*
X116034819Y-60630952D02*
X116082438Y-60535714D01*
X116082438Y-60535714D02*
X116130057Y-60488095D01*
X116130057Y-60488095D02*
X116225295Y-60440476D01*
X116225295Y-60440476D02*
X116415771Y-60392857D01*
X116415771Y-60392857D02*
X116653866Y-60392857D01*
X116653866Y-60392857D02*
X116844342Y-60440476D01*
X116844342Y-60440476D02*
X116939580Y-60488095D01*
X116939580Y-60488095D02*
X116987200Y-60535714D01*
X116987200Y-60535714D02*
X117034819Y-60630952D01*
X117034819Y-60630952D02*
X117034819Y-60726190D01*
X117034819Y-60726190D02*
X116987200Y-60821428D01*
X116987200Y-60821428D02*
X116939580Y-60869047D01*
X116939580Y-60869047D02*
X116844342Y-60916666D01*
X116844342Y-60916666D02*
X116653866Y-60964285D01*
X116653866Y-60964285D02*
X116415771Y-60964285D01*
X116415771Y-60964285D02*
X116225295Y-60916666D01*
X116225295Y-60916666D02*
X116130057Y-60869047D01*
X116130057Y-60869047D02*
X116082438Y-60821428D01*
X116082438Y-60821428D02*
X116034819Y-60726190D01*
X117034819Y-59964285D02*
X116034819Y-59964285D01*
X116653866Y-59869047D02*
X117034819Y-59583333D01*
X116368152Y-59583333D02*
X116749104Y-59964285D01*
D11*
X117868200Y-61040951D02*
X117744391Y-61127618D01*
X117868200Y-61189523D02*
X117608200Y-61189523D01*
X117608200Y-61189523D02*
X117608200Y-61090475D01*
X117608200Y-61090475D02*
X117620581Y-61065713D01*
X117620581Y-61065713D02*
X117632962Y-61053332D01*
X117632962Y-61053332D02*
X117657724Y-61040951D01*
X117657724Y-61040951D02*
X117694867Y-61040951D01*
X117694867Y-61040951D02*
X117719629Y-61053332D01*
X117719629Y-61053332D02*
X117732010Y-61065713D01*
X117732010Y-61065713D02*
X117744391Y-61090475D01*
X117744391Y-61090475D02*
X117744391Y-61189523D01*
X117868200Y-60793332D02*
X117868200Y-60941904D01*
X117868200Y-60867618D02*
X117608200Y-60867618D01*
X117608200Y-60867618D02*
X117645343Y-60892380D01*
X117645343Y-60892380D02*
X117670105Y-60917142D01*
X117670105Y-60917142D02*
X117682486Y-60941904D01*
X117608200Y-60632380D02*
X117608200Y-60607618D01*
X117608200Y-60607618D02*
X117620581Y-60582856D01*
X117620581Y-60582856D02*
X117632962Y-60570475D01*
X117632962Y-60570475D02*
X117657724Y-60558094D01*
X117657724Y-60558094D02*
X117707248Y-60545713D01*
X117707248Y-60545713D02*
X117769153Y-60545713D01*
X117769153Y-60545713D02*
X117818677Y-60558094D01*
X117818677Y-60558094D02*
X117843439Y-60570475D01*
X117843439Y-60570475D02*
X117855820Y-60582856D01*
X117855820Y-60582856D02*
X117868200Y-60607618D01*
X117868200Y-60607618D02*
X117868200Y-60632380D01*
X117868200Y-60632380D02*
X117855820Y-60657142D01*
X117855820Y-60657142D02*
X117843439Y-60669523D01*
X117843439Y-60669523D02*
X117818677Y-60681904D01*
X117818677Y-60681904D02*
X117769153Y-60694285D01*
X117769153Y-60694285D02*
X117707248Y-60694285D01*
X117707248Y-60694285D02*
X117657724Y-60681904D01*
X117657724Y-60681904D02*
X117632962Y-60669523D01*
X117632962Y-60669523D02*
X117620581Y-60657142D01*
X117620581Y-60657142D02*
X117608200Y-60632380D01*
X117608200Y-60459047D02*
X117608200Y-60285713D01*
X117608200Y-60285713D02*
X117868200Y-60397142D01*
D10*
X143928571Y-91874819D02*
X143357143Y-91874819D01*
X143642857Y-91874819D02*
X143642857Y-90874819D01*
X143642857Y-90874819D02*
X143547619Y-91017676D01*
X143547619Y-91017676D02*
X143452381Y-91112914D01*
X143452381Y-91112914D02*
X143357143Y-91160533D01*
X144547619Y-90874819D02*
X144642857Y-90874819D01*
X144642857Y-90874819D02*
X144738095Y-90922438D01*
X144738095Y-90922438D02*
X144785714Y-90970057D01*
X144785714Y-90970057D02*
X144833333Y-91065295D01*
X144833333Y-91065295D02*
X144880952Y-91255771D01*
X144880952Y-91255771D02*
X144880952Y-91493866D01*
X144880952Y-91493866D02*
X144833333Y-91684342D01*
X144833333Y-91684342D02*
X144785714Y-91779580D01*
X144785714Y-91779580D02*
X144738095Y-91827200D01*
X144738095Y-91827200D02*
X144642857Y-91874819D01*
X144642857Y-91874819D02*
X144547619Y-91874819D01*
X144547619Y-91874819D02*
X144452381Y-91827200D01*
X144452381Y-91827200D02*
X144404762Y-91779580D01*
X144404762Y-91779580D02*
X144357143Y-91684342D01*
X144357143Y-91684342D02*
X144309524Y-91493866D01*
X144309524Y-91493866D02*
X144309524Y-91255771D01*
X144309524Y-91255771D02*
X144357143Y-91065295D01*
X144357143Y-91065295D02*
X144404762Y-90970057D01*
X144404762Y-90970057D02*
X144452381Y-90922438D01*
X144452381Y-90922438D02*
X144547619Y-90874819D01*
X145500000Y-90874819D02*
X145595238Y-90874819D01*
X145595238Y-90874819D02*
X145690476Y-90922438D01*
X145690476Y-90922438D02*
X145738095Y-90970057D01*
X145738095Y-90970057D02*
X145785714Y-91065295D01*
X145785714Y-91065295D02*
X145833333Y-91255771D01*
X145833333Y-91255771D02*
X145833333Y-91493866D01*
X145833333Y-91493866D02*
X145785714Y-91684342D01*
X145785714Y-91684342D02*
X145738095Y-91779580D01*
X145738095Y-91779580D02*
X145690476Y-91827200D01*
X145690476Y-91827200D02*
X145595238Y-91874819D01*
X145595238Y-91874819D02*
X145500000Y-91874819D01*
X145500000Y-91874819D02*
X145404762Y-91827200D01*
X145404762Y-91827200D02*
X145357143Y-91779580D01*
X145357143Y-91779580D02*
X145309524Y-91684342D01*
X145309524Y-91684342D02*
X145261905Y-91493866D01*
X145261905Y-91493866D02*
X145261905Y-91255771D01*
X145261905Y-91255771D02*
X145309524Y-91065295D01*
X145309524Y-91065295D02*
X145357143Y-90970057D01*
X145357143Y-90970057D02*
X145404762Y-90922438D01*
X145404762Y-90922438D02*
X145500000Y-90874819D01*
X146261905Y-91874819D02*
X146261905Y-90874819D01*
X146357143Y-91493866D02*
X146642857Y-91874819D01*
X146642857Y-91208152D02*
X146261905Y-91589104D01*
D11*
X144709048Y-90368200D02*
X144622381Y-90244391D01*
X144560476Y-90368200D02*
X144560476Y-90108200D01*
X144560476Y-90108200D02*
X144659524Y-90108200D01*
X144659524Y-90108200D02*
X144684286Y-90120581D01*
X144684286Y-90120581D02*
X144696667Y-90132962D01*
X144696667Y-90132962D02*
X144709048Y-90157724D01*
X144709048Y-90157724D02*
X144709048Y-90194867D01*
X144709048Y-90194867D02*
X144696667Y-90219629D01*
X144696667Y-90219629D02*
X144684286Y-90232010D01*
X144684286Y-90232010D02*
X144659524Y-90244391D01*
X144659524Y-90244391D02*
X144560476Y-90244391D01*
X144956667Y-90368200D02*
X144808095Y-90368200D01*
X144882381Y-90368200D02*
X144882381Y-90108200D01*
X144882381Y-90108200D02*
X144857619Y-90145343D01*
X144857619Y-90145343D02*
X144832857Y-90170105D01*
X144832857Y-90170105D02*
X144808095Y-90182486D01*
X145117619Y-90108200D02*
X145142381Y-90108200D01*
X145142381Y-90108200D02*
X145167143Y-90120581D01*
X145167143Y-90120581D02*
X145179524Y-90132962D01*
X145179524Y-90132962D02*
X145191905Y-90157724D01*
X145191905Y-90157724D02*
X145204286Y-90207248D01*
X145204286Y-90207248D02*
X145204286Y-90269153D01*
X145204286Y-90269153D02*
X145191905Y-90318677D01*
X145191905Y-90318677D02*
X145179524Y-90343439D01*
X145179524Y-90343439D02*
X145167143Y-90355820D01*
X145167143Y-90355820D02*
X145142381Y-90368200D01*
X145142381Y-90368200D02*
X145117619Y-90368200D01*
X145117619Y-90368200D02*
X145092857Y-90355820D01*
X145092857Y-90355820D02*
X145080476Y-90343439D01*
X145080476Y-90343439D02*
X145068095Y-90318677D01*
X145068095Y-90318677D02*
X145055714Y-90269153D01*
X145055714Y-90269153D02*
X145055714Y-90207248D01*
X145055714Y-90207248D02*
X145068095Y-90157724D01*
X145068095Y-90157724D02*
X145080476Y-90132962D01*
X145080476Y-90132962D02*
X145092857Y-90120581D01*
X145092857Y-90120581D02*
X145117619Y-90108200D01*
X145451905Y-90368200D02*
X145303333Y-90368200D01*
X145377619Y-90368200D02*
X145377619Y-90108200D01*
X145377619Y-90108200D02*
X145352857Y-90145343D01*
X145352857Y-90145343D02*
X145328095Y-90170105D01*
X145328095Y-90170105D02*
X145303333Y-90182486D01*
D10*
X141535714Y-88640057D02*
X141583333Y-88592438D01*
X141583333Y-88592438D02*
X141678571Y-88544819D01*
X141678571Y-88544819D02*
X141916666Y-88544819D01*
X141916666Y-88544819D02*
X142011904Y-88592438D01*
X142011904Y-88592438D02*
X142059523Y-88640057D01*
X142059523Y-88640057D02*
X142107142Y-88735295D01*
X142107142Y-88735295D02*
X142107142Y-88830533D01*
X142107142Y-88830533D02*
X142059523Y-88973390D01*
X142059523Y-88973390D02*
X141488095Y-89544819D01*
X141488095Y-89544819D02*
X142107142Y-89544819D01*
X142488095Y-88640057D02*
X142535714Y-88592438D01*
X142535714Y-88592438D02*
X142630952Y-88544819D01*
X142630952Y-88544819D02*
X142869047Y-88544819D01*
X142869047Y-88544819D02*
X142964285Y-88592438D01*
X142964285Y-88592438D02*
X143011904Y-88640057D01*
X143011904Y-88640057D02*
X143059523Y-88735295D01*
X143059523Y-88735295D02*
X143059523Y-88830533D01*
X143059523Y-88830533D02*
X143011904Y-88973390D01*
X143011904Y-88973390D02*
X142440476Y-89544819D01*
X142440476Y-89544819D02*
X143059523Y-89544819D01*
X143488095Y-88878152D02*
X143488095Y-89544819D01*
X143488095Y-88973390D02*
X143535714Y-88925771D01*
X143535714Y-88925771D02*
X143630952Y-88878152D01*
X143630952Y-88878152D02*
X143773809Y-88878152D01*
X143773809Y-88878152D02*
X143869047Y-88925771D01*
X143869047Y-88925771D02*
X143916666Y-89021009D01*
X143916666Y-89021009D02*
X143916666Y-89544819D01*
D11*
X142470238Y-90339765D02*
X142458334Y-90351670D01*
X142458334Y-90351670D02*
X142422619Y-90363574D01*
X142422619Y-90363574D02*
X142398810Y-90363574D01*
X142398810Y-90363574D02*
X142363096Y-90351670D01*
X142363096Y-90351670D02*
X142339286Y-90327860D01*
X142339286Y-90327860D02*
X142327381Y-90304050D01*
X142327381Y-90304050D02*
X142315477Y-90256431D01*
X142315477Y-90256431D02*
X142315477Y-90220717D01*
X142315477Y-90220717D02*
X142327381Y-90173098D01*
X142327381Y-90173098D02*
X142339286Y-90149289D01*
X142339286Y-90149289D02*
X142363096Y-90125479D01*
X142363096Y-90125479D02*
X142398810Y-90113574D01*
X142398810Y-90113574D02*
X142422619Y-90113574D01*
X142422619Y-90113574D02*
X142458334Y-90125479D01*
X142458334Y-90125479D02*
X142470238Y-90137384D01*
X142708334Y-90363574D02*
X142565477Y-90363574D01*
X142636905Y-90363574D02*
X142636905Y-90113574D01*
X142636905Y-90113574D02*
X142613096Y-90149289D01*
X142613096Y-90149289D02*
X142589286Y-90173098D01*
X142589286Y-90173098D02*
X142565477Y-90185003D01*
X142863095Y-90113574D02*
X142886905Y-90113574D01*
X142886905Y-90113574D02*
X142910714Y-90125479D01*
X142910714Y-90125479D02*
X142922619Y-90137384D01*
X142922619Y-90137384D02*
X142934524Y-90161193D01*
X142934524Y-90161193D02*
X142946429Y-90208812D01*
X142946429Y-90208812D02*
X142946429Y-90268336D01*
X142946429Y-90268336D02*
X142934524Y-90315955D01*
X142934524Y-90315955D02*
X142922619Y-90339765D01*
X142922619Y-90339765D02*
X142910714Y-90351670D01*
X142910714Y-90351670D02*
X142886905Y-90363574D01*
X142886905Y-90363574D02*
X142863095Y-90363574D01*
X142863095Y-90363574D02*
X142839286Y-90351670D01*
X142839286Y-90351670D02*
X142827381Y-90339765D01*
X142827381Y-90339765D02*
X142815476Y-90315955D01*
X142815476Y-90315955D02*
X142803572Y-90268336D01*
X142803572Y-90268336D02*
X142803572Y-90208812D01*
X142803572Y-90208812D02*
X142815476Y-90161193D01*
X142815476Y-90161193D02*
X142827381Y-90137384D01*
X142827381Y-90137384D02*
X142839286Y-90125479D01*
X142839286Y-90125479D02*
X142863095Y-90113574D01*
X143184524Y-90363574D02*
X143041667Y-90363574D01*
X143113095Y-90363574D02*
X143113095Y-90113574D01*
X143113095Y-90113574D02*
X143089286Y-90149289D01*
X143089286Y-90149289D02*
X143065476Y-90173098D01*
X143065476Y-90173098D02*
X143041667Y-90185003D01*
D10*
X143928571Y-72624819D02*
X143357143Y-72624819D01*
X143642857Y-72624819D02*
X143642857Y-71624819D01*
X143642857Y-71624819D02*
X143547619Y-71767676D01*
X143547619Y-71767676D02*
X143452381Y-71862914D01*
X143452381Y-71862914D02*
X143357143Y-71910533D01*
X144547619Y-71624819D02*
X144642857Y-71624819D01*
X144642857Y-71624819D02*
X144738095Y-71672438D01*
X144738095Y-71672438D02*
X144785714Y-71720057D01*
X144785714Y-71720057D02*
X144833333Y-71815295D01*
X144833333Y-71815295D02*
X144880952Y-72005771D01*
X144880952Y-72005771D02*
X144880952Y-72243866D01*
X144880952Y-72243866D02*
X144833333Y-72434342D01*
X144833333Y-72434342D02*
X144785714Y-72529580D01*
X144785714Y-72529580D02*
X144738095Y-72577200D01*
X144738095Y-72577200D02*
X144642857Y-72624819D01*
X144642857Y-72624819D02*
X144547619Y-72624819D01*
X144547619Y-72624819D02*
X144452381Y-72577200D01*
X144452381Y-72577200D02*
X144404762Y-72529580D01*
X144404762Y-72529580D02*
X144357143Y-72434342D01*
X144357143Y-72434342D02*
X144309524Y-72243866D01*
X144309524Y-72243866D02*
X144309524Y-72005771D01*
X144309524Y-72005771D02*
X144357143Y-71815295D01*
X144357143Y-71815295D02*
X144404762Y-71720057D01*
X144404762Y-71720057D02*
X144452381Y-71672438D01*
X144452381Y-71672438D02*
X144547619Y-71624819D01*
X145500000Y-71624819D02*
X145595238Y-71624819D01*
X145595238Y-71624819D02*
X145690476Y-71672438D01*
X145690476Y-71672438D02*
X145738095Y-71720057D01*
X145738095Y-71720057D02*
X145785714Y-71815295D01*
X145785714Y-71815295D02*
X145833333Y-72005771D01*
X145833333Y-72005771D02*
X145833333Y-72243866D01*
X145833333Y-72243866D02*
X145785714Y-72434342D01*
X145785714Y-72434342D02*
X145738095Y-72529580D01*
X145738095Y-72529580D02*
X145690476Y-72577200D01*
X145690476Y-72577200D02*
X145595238Y-72624819D01*
X145595238Y-72624819D02*
X145500000Y-72624819D01*
X145500000Y-72624819D02*
X145404762Y-72577200D01*
X145404762Y-72577200D02*
X145357143Y-72529580D01*
X145357143Y-72529580D02*
X145309524Y-72434342D01*
X145309524Y-72434342D02*
X145261905Y-72243866D01*
X145261905Y-72243866D02*
X145261905Y-72005771D01*
X145261905Y-72005771D02*
X145309524Y-71815295D01*
X145309524Y-71815295D02*
X145357143Y-71720057D01*
X145357143Y-71720057D02*
X145404762Y-71672438D01*
X145404762Y-71672438D02*
X145500000Y-71624819D01*
X146261905Y-72624819D02*
X146261905Y-71624819D01*
X146357143Y-72243866D02*
X146642857Y-72624819D01*
X146642857Y-71958152D02*
X146261905Y-72339104D01*
D11*
X144709048Y-71118200D02*
X144622381Y-70994391D01*
X144560476Y-71118200D02*
X144560476Y-70858200D01*
X144560476Y-70858200D02*
X144659524Y-70858200D01*
X144659524Y-70858200D02*
X144684286Y-70870581D01*
X144684286Y-70870581D02*
X144696667Y-70882962D01*
X144696667Y-70882962D02*
X144709048Y-70907724D01*
X144709048Y-70907724D02*
X144709048Y-70944867D01*
X144709048Y-70944867D02*
X144696667Y-70969629D01*
X144696667Y-70969629D02*
X144684286Y-70982010D01*
X144684286Y-70982010D02*
X144659524Y-70994391D01*
X144659524Y-70994391D02*
X144560476Y-70994391D01*
X144956667Y-71118200D02*
X144808095Y-71118200D01*
X144882381Y-71118200D02*
X144882381Y-70858200D01*
X144882381Y-70858200D02*
X144857619Y-70895343D01*
X144857619Y-70895343D02*
X144832857Y-70920105D01*
X144832857Y-70920105D02*
X144808095Y-70932486D01*
X145117619Y-70858200D02*
X145142381Y-70858200D01*
X145142381Y-70858200D02*
X145167143Y-70870581D01*
X145167143Y-70870581D02*
X145179524Y-70882962D01*
X145179524Y-70882962D02*
X145191905Y-70907724D01*
X145191905Y-70907724D02*
X145204286Y-70957248D01*
X145204286Y-70957248D02*
X145204286Y-71019153D01*
X145204286Y-71019153D02*
X145191905Y-71068677D01*
X145191905Y-71068677D02*
X145179524Y-71093439D01*
X145179524Y-71093439D02*
X145167143Y-71105820D01*
X145167143Y-71105820D02*
X145142381Y-71118200D01*
X145142381Y-71118200D02*
X145117619Y-71118200D01*
X145117619Y-71118200D02*
X145092857Y-71105820D01*
X145092857Y-71105820D02*
X145080476Y-71093439D01*
X145080476Y-71093439D02*
X145068095Y-71068677D01*
X145068095Y-71068677D02*
X145055714Y-71019153D01*
X145055714Y-71019153D02*
X145055714Y-70957248D01*
X145055714Y-70957248D02*
X145068095Y-70907724D01*
X145068095Y-70907724D02*
X145080476Y-70882962D01*
X145080476Y-70882962D02*
X145092857Y-70870581D01*
X145092857Y-70870581D02*
X145117619Y-70858200D01*
X145427143Y-70944867D02*
X145427143Y-71118200D01*
X145365238Y-70845820D02*
X145303333Y-71031534D01*
X145303333Y-71031534D02*
X145464286Y-71031534D01*
D10*
X141535714Y-74390057D02*
X141583333Y-74342438D01*
X141583333Y-74342438D02*
X141678571Y-74294819D01*
X141678571Y-74294819D02*
X141916666Y-74294819D01*
X141916666Y-74294819D02*
X142011904Y-74342438D01*
X142011904Y-74342438D02*
X142059523Y-74390057D01*
X142059523Y-74390057D02*
X142107142Y-74485295D01*
X142107142Y-74485295D02*
X142107142Y-74580533D01*
X142107142Y-74580533D02*
X142059523Y-74723390D01*
X142059523Y-74723390D02*
X141488095Y-75294819D01*
X141488095Y-75294819D02*
X142107142Y-75294819D01*
X142488095Y-74390057D02*
X142535714Y-74342438D01*
X142535714Y-74342438D02*
X142630952Y-74294819D01*
X142630952Y-74294819D02*
X142869047Y-74294819D01*
X142869047Y-74294819D02*
X142964285Y-74342438D01*
X142964285Y-74342438D02*
X143011904Y-74390057D01*
X143011904Y-74390057D02*
X143059523Y-74485295D01*
X143059523Y-74485295D02*
X143059523Y-74580533D01*
X143059523Y-74580533D02*
X143011904Y-74723390D01*
X143011904Y-74723390D02*
X142440476Y-75294819D01*
X142440476Y-75294819D02*
X143059523Y-75294819D01*
X143488095Y-74628152D02*
X143488095Y-75294819D01*
X143488095Y-74723390D02*
X143535714Y-74675771D01*
X143535714Y-74675771D02*
X143630952Y-74628152D01*
X143630952Y-74628152D02*
X143773809Y-74628152D01*
X143773809Y-74628152D02*
X143869047Y-74675771D01*
X143869047Y-74675771D02*
X143916666Y-74771009D01*
X143916666Y-74771009D02*
X143916666Y-75294819D01*
D11*
X142470238Y-76089765D02*
X142458334Y-76101670D01*
X142458334Y-76101670D02*
X142422619Y-76113574D01*
X142422619Y-76113574D02*
X142398810Y-76113574D01*
X142398810Y-76113574D02*
X142363096Y-76101670D01*
X142363096Y-76101670D02*
X142339286Y-76077860D01*
X142339286Y-76077860D02*
X142327381Y-76054050D01*
X142327381Y-76054050D02*
X142315477Y-76006431D01*
X142315477Y-76006431D02*
X142315477Y-75970717D01*
X142315477Y-75970717D02*
X142327381Y-75923098D01*
X142327381Y-75923098D02*
X142339286Y-75899289D01*
X142339286Y-75899289D02*
X142363096Y-75875479D01*
X142363096Y-75875479D02*
X142398810Y-75863574D01*
X142398810Y-75863574D02*
X142422619Y-75863574D01*
X142422619Y-75863574D02*
X142458334Y-75875479D01*
X142458334Y-75875479D02*
X142470238Y-75887384D01*
X142708334Y-76113574D02*
X142565477Y-76113574D01*
X142636905Y-76113574D02*
X142636905Y-75863574D01*
X142636905Y-75863574D02*
X142613096Y-75899289D01*
X142613096Y-75899289D02*
X142589286Y-75923098D01*
X142589286Y-75923098D02*
X142565477Y-75935003D01*
X142863095Y-75863574D02*
X142886905Y-75863574D01*
X142886905Y-75863574D02*
X142910714Y-75875479D01*
X142910714Y-75875479D02*
X142922619Y-75887384D01*
X142922619Y-75887384D02*
X142934524Y-75911193D01*
X142934524Y-75911193D02*
X142946429Y-75958812D01*
X142946429Y-75958812D02*
X142946429Y-76018336D01*
X142946429Y-76018336D02*
X142934524Y-76065955D01*
X142934524Y-76065955D02*
X142922619Y-76089765D01*
X142922619Y-76089765D02*
X142910714Y-76101670D01*
X142910714Y-76101670D02*
X142886905Y-76113574D01*
X142886905Y-76113574D02*
X142863095Y-76113574D01*
X142863095Y-76113574D02*
X142839286Y-76101670D01*
X142839286Y-76101670D02*
X142827381Y-76089765D01*
X142827381Y-76089765D02*
X142815476Y-76065955D01*
X142815476Y-76065955D02*
X142803572Y-76018336D01*
X142803572Y-76018336D02*
X142803572Y-75958812D01*
X142803572Y-75958812D02*
X142815476Y-75911193D01*
X142815476Y-75911193D02*
X142827381Y-75887384D01*
X142827381Y-75887384D02*
X142839286Y-75875479D01*
X142839286Y-75875479D02*
X142863095Y-75863574D01*
X143029762Y-75863574D02*
X143184524Y-75863574D01*
X143184524Y-75863574D02*
X143101190Y-75958812D01*
X143101190Y-75958812D02*
X143136905Y-75958812D01*
X143136905Y-75958812D02*
X143160714Y-75970717D01*
X143160714Y-75970717D02*
X143172619Y-75982622D01*
X143172619Y-75982622D02*
X143184524Y-76006431D01*
X143184524Y-76006431D02*
X143184524Y-76065955D01*
X143184524Y-76065955D02*
X143172619Y-76089765D01*
X143172619Y-76089765D02*
X143160714Y-76101670D01*
X143160714Y-76101670D02*
X143136905Y-76113574D01*
X143136905Y-76113574D02*
X143065476Y-76113574D01*
X143065476Y-76113574D02*
X143041667Y-76101670D01*
X143041667Y-76101670D02*
X143029762Y-76089765D01*
D10*
X143928571Y-77624819D02*
X143357143Y-77624819D01*
X143642857Y-77624819D02*
X143642857Y-76624819D01*
X143642857Y-76624819D02*
X143547619Y-76767676D01*
X143547619Y-76767676D02*
X143452381Y-76862914D01*
X143452381Y-76862914D02*
X143357143Y-76910533D01*
X144547619Y-76624819D02*
X144642857Y-76624819D01*
X144642857Y-76624819D02*
X144738095Y-76672438D01*
X144738095Y-76672438D02*
X144785714Y-76720057D01*
X144785714Y-76720057D02*
X144833333Y-76815295D01*
X144833333Y-76815295D02*
X144880952Y-77005771D01*
X144880952Y-77005771D02*
X144880952Y-77243866D01*
X144880952Y-77243866D02*
X144833333Y-77434342D01*
X144833333Y-77434342D02*
X144785714Y-77529580D01*
X144785714Y-77529580D02*
X144738095Y-77577200D01*
X144738095Y-77577200D02*
X144642857Y-77624819D01*
X144642857Y-77624819D02*
X144547619Y-77624819D01*
X144547619Y-77624819D02*
X144452381Y-77577200D01*
X144452381Y-77577200D02*
X144404762Y-77529580D01*
X144404762Y-77529580D02*
X144357143Y-77434342D01*
X144357143Y-77434342D02*
X144309524Y-77243866D01*
X144309524Y-77243866D02*
X144309524Y-77005771D01*
X144309524Y-77005771D02*
X144357143Y-76815295D01*
X144357143Y-76815295D02*
X144404762Y-76720057D01*
X144404762Y-76720057D02*
X144452381Y-76672438D01*
X144452381Y-76672438D02*
X144547619Y-76624819D01*
X145500000Y-76624819D02*
X145595238Y-76624819D01*
X145595238Y-76624819D02*
X145690476Y-76672438D01*
X145690476Y-76672438D02*
X145738095Y-76720057D01*
X145738095Y-76720057D02*
X145785714Y-76815295D01*
X145785714Y-76815295D02*
X145833333Y-77005771D01*
X145833333Y-77005771D02*
X145833333Y-77243866D01*
X145833333Y-77243866D02*
X145785714Y-77434342D01*
X145785714Y-77434342D02*
X145738095Y-77529580D01*
X145738095Y-77529580D02*
X145690476Y-77577200D01*
X145690476Y-77577200D02*
X145595238Y-77624819D01*
X145595238Y-77624819D02*
X145500000Y-77624819D01*
X145500000Y-77624819D02*
X145404762Y-77577200D01*
X145404762Y-77577200D02*
X145357143Y-77529580D01*
X145357143Y-77529580D02*
X145309524Y-77434342D01*
X145309524Y-77434342D02*
X145261905Y-77243866D01*
X145261905Y-77243866D02*
X145261905Y-77005771D01*
X145261905Y-77005771D02*
X145309524Y-76815295D01*
X145309524Y-76815295D02*
X145357143Y-76720057D01*
X145357143Y-76720057D02*
X145404762Y-76672438D01*
X145404762Y-76672438D02*
X145500000Y-76624819D01*
X146261905Y-77624819D02*
X146261905Y-76624819D01*
X146357143Y-77243866D02*
X146642857Y-77624819D01*
X146642857Y-76958152D02*
X146261905Y-77339104D01*
D11*
X144709048Y-76118200D02*
X144622381Y-75994391D01*
X144560476Y-76118200D02*
X144560476Y-75858200D01*
X144560476Y-75858200D02*
X144659524Y-75858200D01*
X144659524Y-75858200D02*
X144684286Y-75870581D01*
X144684286Y-75870581D02*
X144696667Y-75882962D01*
X144696667Y-75882962D02*
X144709048Y-75907724D01*
X144709048Y-75907724D02*
X144709048Y-75944867D01*
X144709048Y-75944867D02*
X144696667Y-75969629D01*
X144696667Y-75969629D02*
X144684286Y-75982010D01*
X144684286Y-75982010D02*
X144659524Y-75994391D01*
X144659524Y-75994391D02*
X144560476Y-75994391D01*
X144956667Y-76118200D02*
X144808095Y-76118200D01*
X144882381Y-76118200D02*
X144882381Y-75858200D01*
X144882381Y-75858200D02*
X144857619Y-75895343D01*
X144857619Y-75895343D02*
X144832857Y-75920105D01*
X144832857Y-75920105D02*
X144808095Y-75932486D01*
X145117619Y-75858200D02*
X145142381Y-75858200D01*
X145142381Y-75858200D02*
X145167143Y-75870581D01*
X145167143Y-75870581D02*
X145179524Y-75882962D01*
X145179524Y-75882962D02*
X145191905Y-75907724D01*
X145191905Y-75907724D02*
X145204286Y-75957248D01*
X145204286Y-75957248D02*
X145204286Y-76019153D01*
X145204286Y-76019153D02*
X145191905Y-76068677D01*
X145191905Y-76068677D02*
X145179524Y-76093439D01*
X145179524Y-76093439D02*
X145167143Y-76105820D01*
X145167143Y-76105820D02*
X145142381Y-76118200D01*
X145142381Y-76118200D02*
X145117619Y-76118200D01*
X145117619Y-76118200D02*
X145092857Y-76105820D01*
X145092857Y-76105820D02*
X145080476Y-76093439D01*
X145080476Y-76093439D02*
X145068095Y-76068677D01*
X145068095Y-76068677D02*
X145055714Y-76019153D01*
X145055714Y-76019153D02*
X145055714Y-75957248D01*
X145055714Y-75957248D02*
X145068095Y-75907724D01*
X145068095Y-75907724D02*
X145080476Y-75882962D01*
X145080476Y-75882962D02*
X145092857Y-75870581D01*
X145092857Y-75870581D02*
X145117619Y-75858200D01*
X145290952Y-75858200D02*
X145451905Y-75858200D01*
X145451905Y-75858200D02*
X145365238Y-75957248D01*
X145365238Y-75957248D02*
X145402381Y-75957248D01*
X145402381Y-75957248D02*
X145427143Y-75969629D01*
X145427143Y-75969629D02*
X145439524Y-75982010D01*
X145439524Y-75982010D02*
X145451905Y-76006772D01*
X145451905Y-76006772D02*
X145451905Y-76068677D01*
X145451905Y-76068677D02*
X145439524Y-76093439D01*
X145439524Y-76093439D02*
X145427143Y-76105820D01*
X145427143Y-76105820D02*
X145402381Y-76118200D01*
X145402381Y-76118200D02*
X145328095Y-76118200D01*
X145328095Y-76118200D02*
X145303333Y-76105820D01*
X145303333Y-76105820D02*
X145290952Y-76093439D01*
D10*
X112936667Y-97914819D02*
X112936667Y-96914819D01*
X112936667Y-96914819D02*
X113270000Y-97629104D01*
X113270000Y-97629104D02*
X113603333Y-96914819D01*
X113603333Y-96914819D02*
X113603333Y-97914819D01*
X114079524Y-97914819D02*
X114079524Y-96914819D01*
X114079524Y-97391009D02*
X114650952Y-97391009D01*
X114650952Y-97914819D02*
X114650952Y-96914819D01*
X115079524Y-97010057D02*
X115127143Y-96962438D01*
X115127143Y-96962438D02*
X115222381Y-96914819D01*
X115222381Y-96914819D02*
X115460476Y-96914819D01*
X115460476Y-96914819D02*
X115555714Y-96962438D01*
X115555714Y-96962438D02*
X115603333Y-97010057D01*
X115603333Y-97010057D02*
X115650952Y-97105295D01*
X115650952Y-97105295D02*
X115650952Y-97200533D01*
X115650952Y-97200533D02*
X115603333Y-97343390D01*
X115603333Y-97343390D02*
X115031905Y-97914819D01*
X115031905Y-97914819D02*
X115650952Y-97914819D01*
X165006667Y-64894819D02*
X165006667Y-63894819D01*
X165006667Y-63894819D02*
X165340000Y-64609104D01*
X165340000Y-64609104D02*
X165673333Y-63894819D01*
X165673333Y-63894819D02*
X165673333Y-64894819D01*
X166149524Y-64894819D02*
X166149524Y-63894819D01*
X166149524Y-64371009D02*
X166720952Y-64371009D01*
X166720952Y-64894819D02*
X166720952Y-63894819D01*
X167101905Y-63894819D02*
X167720952Y-63894819D01*
X167720952Y-63894819D02*
X167387619Y-64275771D01*
X167387619Y-64275771D02*
X167530476Y-64275771D01*
X167530476Y-64275771D02*
X167625714Y-64323390D01*
X167625714Y-64323390D02*
X167673333Y-64371009D01*
X167673333Y-64371009D02*
X167720952Y-64466247D01*
X167720952Y-64466247D02*
X167720952Y-64704342D01*
X167720952Y-64704342D02*
X167673333Y-64799580D01*
X167673333Y-64799580D02*
X167625714Y-64847200D01*
X167625714Y-64847200D02*
X167530476Y-64894819D01*
X167530476Y-64894819D02*
X167244762Y-64894819D01*
X167244762Y-64894819D02*
X167149524Y-64847200D01*
X167149524Y-64847200D02*
X167101905Y-64799580D01*
X142601009Y-66892857D02*
X142601009Y-67226190D01*
X143124819Y-67226190D02*
X142124819Y-67226190D01*
X142124819Y-67226190D02*
X142124819Y-66750000D01*
X142458152Y-65940476D02*
X143124819Y-65940476D01*
X142458152Y-66369047D02*
X142981961Y-66369047D01*
X142981961Y-66369047D02*
X143077200Y-66321428D01*
X143077200Y-66321428D02*
X143124819Y-66226190D01*
X143124819Y-66226190D02*
X143124819Y-66083333D01*
X143124819Y-66083333D02*
X143077200Y-65988095D01*
X143077200Y-65988095D02*
X143029580Y-65940476D01*
X143077200Y-65511904D02*
X143124819Y-65416666D01*
X143124819Y-65416666D02*
X143124819Y-65226190D01*
X143124819Y-65226190D02*
X143077200Y-65130952D01*
X143077200Y-65130952D02*
X142981961Y-65083333D01*
X142981961Y-65083333D02*
X142934342Y-65083333D01*
X142934342Y-65083333D02*
X142839104Y-65130952D01*
X142839104Y-65130952D02*
X142791485Y-65226190D01*
X142791485Y-65226190D02*
X142791485Y-65369047D01*
X142791485Y-65369047D02*
X142743866Y-65464285D01*
X142743866Y-65464285D02*
X142648628Y-65511904D01*
X142648628Y-65511904D02*
X142601009Y-65511904D01*
X142601009Y-65511904D02*
X142505771Y-65464285D01*
X142505771Y-65464285D02*
X142458152Y-65369047D01*
X142458152Y-65369047D02*
X142458152Y-65226190D01*
X142458152Y-65226190D02*
X142505771Y-65130952D01*
X143077200Y-64273809D02*
X143124819Y-64369047D01*
X143124819Y-64369047D02*
X143124819Y-64559523D01*
X143124819Y-64559523D02*
X143077200Y-64654761D01*
X143077200Y-64654761D02*
X142981961Y-64702380D01*
X142981961Y-64702380D02*
X142601009Y-64702380D01*
X142601009Y-64702380D02*
X142505771Y-64654761D01*
X142505771Y-64654761D02*
X142458152Y-64559523D01*
X142458152Y-64559523D02*
X142458152Y-64369047D01*
X142458152Y-64369047D02*
X142505771Y-64273809D01*
X142505771Y-64273809D02*
X142601009Y-64226190D01*
X142601009Y-64226190D02*
X142696247Y-64226190D01*
X142696247Y-64226190D02*
X142791485Y-64702380D01*
X143220057Y-64035714D02*
X143220057Y-63273809D01*
X143077200Y-63083332D02*
X143124819Y-62940475D01*
X143124819Y-62940475D02*
X143124819Y-62702380D01*
X143124819Y-62702380D02*
X143077200Y-62607142D01*
X143077200Y-62607142D02*
X143029580Y-62559523D01*
X143029580Y-62559523D02*
X142934342Y-62511904D01*
X142934342Y-62511904D02*
X142839104Y-62511904D01*
X142839104Y-62511904D02*
X142743866Y-62559523D01*
X142743866Y-62559523D02*
X142696247Y-62607142D01*
X142696247Y-62607142D02*
X142648628Y-62702380D01*
X142648628Y-62702380D02*
X142601009Y-62892856D01*
X142601009Y-62892856D02*
X142553390Y-62988094D01*
X142553390Y-62988094D02*
X142505771Y-63035713D01*
X142505771Y-63035713D02*
X142410533Y-63083332D01*
X142410533Y-63083332D02*
X142315295Y-63083332D01*
X142315295Y-63083332D02*
X142220057Y-63035713D01*
X142220057Y-63035713D02*
X142172438Y-62988094D01*
X142172438Y-62988094D02*
X142124819Y-62892856D01*
X142124819Y-62892856D02*
X142124819Y-62654761D01*
X142124819Y-62654761D02*
X142172438Y-62511904D01*
X143124819Y-62083332D02*
X142458152Y-62083332D01*
X142553390Y-62083332D02*
X142505771Y-62035713D01*
X142505771Y-62035713D02*
X142458152Y-61940475D01*
X142458152Y-61940475D02*
X142458152Y-61797618D01*
X142458152Y-61797618D02*
X142505771Y-61702380D01*
X142505771Y-61702380D02*
X142601009Y-61654761D01*
X142601009Y-61654761D02*
X143124819Y-61654761D01*
X142601009Y-61654761D02*
X142505771Y-61607142D01*
X142505771Y-61607142D02*
X142458152Y-61511904D01*
X142458152Y-61511904D02*
X142458152Y-61369047D01*
X142458152Y-61369047D02*
X142505771Y-61273808D01*
X142505771Y-61273808D02*
X142601009Y-61226189D01*
X142601009Y-61226189D02*
X143124819Y-61226189D01*
X143124819Y-60321428D02*
X142601009Y-60321428D01*
X142601009Y-60321428D02*
X142505771Y-60369047D01*
X142505771Y-60369047D02*
X142458152Y-60464285D01*
X142458152Y-60464285D02*
X142458152Y-60654761D01*
X142458152Y-60654761D02*
X142505771Y-60749999D01*
X143077200Y-60321428D02*
X143124819Y-60416666D01*
X143124819Y-60416666D02*
X143124819Y-60654761D01*
X143124819Y-60654761D02*
X143077200Y-60749999D01*
X143077200Y-60749999D02*
X142981961Y-60797618D01*
X142981961Y-60797618D02*
X142886723Y-60797618D01*
X142886723Y-60797618D02*
X142791485Y-60749999D01*
X142791485Y-60749999D02*
X142743866Y-60654761D01*
X142743866Y-60654761D02*
X142743866Y-60416666D01*
X142743866Y-60416666D02*
X142696247Y-60321428D01*
X143124819Y-59702380D02*
X143077200Y-59797618D01*
X143077200Y-59797618D02*
X142981961Y-59845237D01*
X142981961Y-59845237D02*
X142124819Y-59845237D01*
X143124819Y-59178570D02*
X143077200Y-59273808D01*
X143077200Y-59273808D02*
X142981961Y-59321427D01*
X142981961Y-59321427D02*
X142124819Y-59321427D01*
D13*
X144444807Y-64278571D02*
X144444807Y-64545237D01*
X144863855Y-64545237D02*
X144063855Y-64545237D01*
X144063855Y-64545237D02*
X144063855Y-64164285D01*
X144863855Y-63440476D02*
X144863855Y-63897619D01*
X144863855Y-63669047D02*
X144063855Y-63669047D01*
X144063855Y-63669047D02*
X144178140Y-63745238D01*
X144178140Y-63745238D02*
X144254331Y-63821428D01*
X144254331Y-63821428D02*
X144292426Y-63897619D01*
X144063855Y-62945237D02*
X144063855Y-62869047D01*
X144063855Y-62869047D02*
X144101950Y-62792856D01*
X144101950Y-62792856D02*
X144140045Y-62754761D01*
X144140045Y-62754761D02*
X144216236Y-62716666D01*
X144216236Y-62716666D02*
X144368617Y-62678571D01*
X144368617Y-62678571D02*
X144559093Y-62678571D01*
X144559093Y-62678571D02*
X144711474Y-62716666D01*
X144711474Y-62716666D02*
X144787664Y-62754761D01*
X144787664Y-62754761D02*
X144825760Y-62792856D01*
X144825760Y-62792856D02*
X144863855Y-62869047D01*
X144863855Y-62869047D02*
X144863855Y-62945237D01*
X144863855Y-62945237D02*
X144825760Y-63021428D01*
X144825760Y-63021428D02*
X144787664Y-63059523D01*
X144787664Y-63059523D02*
X144711474Y-63097618D01*
X144711474Y-63097618D02*
X144559093Y-63135714D01*
X144559093Y-63135714D02*
X144368617Y-63135714D01*
X144368617Y-63135714D02*
X144216236Y-63097618D01*
X144216236Y-63097618D02*
X144140045Y-63059523D01*
X144140045Y-63059523D02*
X144101950Y-63021428D01*
X144101950Y-63021428D02*
X144063855Y-62945237D01*
X144863855Y-61916666D02*
X144863855Y-62373809D01*
X144863855Y-62145237D02*
X144063855Y-62145237D01*
X144063855Y-62145237D02*
X144178140Y-62221428D01*
X144178140Y-62221428D02*
X144254331Y-62297618D01*
X144254331Y-62297618D02*
X144292426Y-62373809D01*
D10*
X165006667Y-92834819D02*
X165006667Y-91834819D01*
X165006667Y-91834819D02*
X165340000Y-92549104D01*
X165340000Y-92549104D02*
X165673333Y-91834819D01*
X165673333Y-91834819D02*
X165673333Y-92834819D01*
X166149524Y-92834819D02*
X166149524Y-91834819D01*
X166149524Y-92311009D02*
X166720952Y-92311009D01*
X166720952Y-92834819D02*
X166720952Y-91834819D01*
X167625714Y-92168152D02*
X167625714Y-92834819D01*
X167387619Y-91787200D02*
X167149524Y-92501485D01*
X167149524Y-92501485D02*
X167768571Y-92501485D01*
X139057200Y-66285713D02*
X139104819Y-66142856D01*
X139104819Y-66142856D02*
X139104819Y-65904761D01*
X139104819Y-65904761D02*
X139057200Y-65809523D01*
X139057200Y-65809523D02*
X139009580Y-65761904D01*
X139009580Y-65761904D02*
X138914342Y-65714285D01*
X138914342Y-65714285D02*
X138819104Y-65714285D01*
X138819104Y-65714285D02*
X138723866Y-65761904D01*
X138723866Y-65761904D02*
X138676247Y-65809523D01*
X138676247Y-65809523D02*
X138628628Y-65904761D01*
X138628628Y-65904761D02*
X138581009Y-66095237D01*
X138581009Y-66095237D02*
X138533390Y-66190475D01*
X138533390Y-66190475D02*
X138485771Y-66238094D01*
X138485771Y-66238094D02*
X138390533Y-66285713D01*
X138390533Y-66285713D02*
X138295295Y-66285713D01*
X138295295Y-66285713D02*
X138200057Y-66238094D01*
X138200057Y-66238094D02*
X138152438Y-66190475D01*
X138152438Y-66190475D02*
X138104819Y-66095237D01*
X138104819Y-66095237D02*
X138104819Y-65857142D01*
X138104819Y-65857142D02*
X138152438Y-65714285D01*
X139104819Y-65285713D02*
X138104819Y-65285713D01*
X138104819Y-65285713D02*
X138819104Y-64952380D01*
X138819104Y-64952380D02*
X138104819Y-64619047D01*
X138104819Y-64619047D02*
X139104819Y-64619047D01*
X138819104Y-64190475D02*
X138819104Y-63714285D01*
X139104819Y-64285713D02*
X138104819Y-63952380D01*
X138104819Y-63952380D02*
X139104819Y-63619047D01*
X138104819Y-62999999D02*
X138819104Y-62999999D01*
X138819104Y-62999999D02*
X138961961Y-63047618D01*
X138961961Y-63047618D02*
X139057200Y-63142856D01*
X139057200Y-63142856D02*
X139104819Y-63285713D01*
X139104819Y-63285713D02*
X139104819Y-63380951D01*
X138104819Y-62047618D02*
X138104819Y-62523808D01*
X138104819Y-62523808D02*
X138581009Y-62571427D01*
X138581009Y-62571427D02*
X138533390Y-62523808D01*
X138533390Y-62523808D02*
X138485771Y-62428570D01*
X138485771Y-62428570D02*
X138485771Y-62190475D01*
X138485771Y-62190475D02*
X138533390Y-62095237D01*
X138533390Y-62095237D02*
X138581009Y-62047618D01*
X138581009Y-62047618D02*
X138676247Y-61999999D01*
X138676247Y-61999999D02*
X138914342Y-61999999D01*
X138914342Y-61999999D02*
X139009580Y-62047618D01*
X139009580Y-62047618D02*
X139057200Y-62095237D01*
X139057200Y-62095237D02*
X139104819Y-62190475D01*
X139104819Y-62190475D02*
X139104819Y-62428570D01*
X139104819Y-62428570D02*
X139057200Y-62523808D01*
X139057200Y-62523808D02*
X139009580Y-62571427D01*
X139009580Y-61571427D02*
X139057200Y-61523808D01*
X139057200Y-61523808D02*
X139104819Y-61571427D01*
X139104819Y-61571427D02*
X139057200Y-61619046D01*
X139057200Y-61619046D02*
X139009580Y-61571427D01*
X139009580Y-61571427D02*
X139104819Y-61571427D01*
X138104819Y-60904761D02*
X138104819Y-60809523D01*
X138104819Y-60809523D02*
X138152438Y-60714285D01*
X138152438Y-60714285D02*
X138200057Y-60666666D01*
X138200057Y-60666666D02*
X138295295Y-60619047D01*
X138295295Y-60619047D02*
X138485771Y-60571428D01*
X138485771Y-60571428D02*
X138723866Y-60571428D01*
X138723866Y-60571428D02*
X138914342Y-60619047D01*
X138914342Y-60619047D02*
X139009580Y-60666666D01*
X139009580Y-60666666D02*
X139057200Y-60714285D01*
X139057200Y-60714285D02*
X139104819Y-60809523D01*
X139104819Y-60809523D02*
X139104819Y-60904761D01*
X139104819Y-60904761D02*
X139057200Y-60999999D01*
X139057200Y-60999999D02*
X139009580Y-61047618D01*
X139009580Y-61047618D02*
X138914342Y-61095237D01*
X138914342Y-61095237D02*
X138723866Y-61142856D01*
X138723866Y-61142856D02*
X138485771Y-61142856D01*
X138485771Y-61142856D02*
X138295295Y-61095237D01*
X138295295Y-61095237D02*
X138200057Y-61047618D01*
X138200057Y-61047618D02*
X138152438Y-60999999D01*
X138152438Y-60999999D02*
X138104819Y-60904761D01*
X139009580Y-59571428D02*
X139057200Y-59619047D01*
X139057200Y-59619047D02*
X139104819Y-59761904D01*
X139104819Y-59761904D02*
X139104819Y-59857142D01*
X139104819Y-59857142D02*
X139057200Y-59999999D01*
X139057200Y-59999999D02*
X138961961Y-60095237D01*
X138961961Y-60095237D02*
X138866723Y-60142856D01*
X138866723Y-60142856D02*
X138676247Y-60190475D01*
X138676247Y-60190475D02*
X138533390Y-60190475D01*
X138533390Y-60190475D02*
X138342914Y-60142856D01*
X138342914Y-60142856D02*
X138247676Y-60095237D01*
X138247676Y-60095237D02*
X138152438Y-59999999D01*
X138152438Y-59999999D02*
X138104819Y-59857142D01*
X138104819Y-59857142D02*
X138104819Y-59761904D01*
X138104819Y-59761904D02*
X138152438Y-59619047D01*
X138152438Y-59619047D02*
X138200057Y-59571428D01*
X138819104Y-59190475D02*
X138819104Y-58714285D01*
X139104819Y-59285713D02*
X138104819Y-58952380D01*
X138104819Y-58952380D02*
X139104819Y-58619047D01*
X144204819Y-64190475D02*
X143204819Y-64190475D01*
X143204819Y-64190475D02*
X143204819Y-63952380D01*
X143204819Y-63952380D02*
X143252438Y-63809523D01*
X143252438Y-63809523D02*
X143347676Y-63714285D01*
X143347676Y-63714285D02*
X143442914Y-63666666D01*
X143442914Y-63666666D02*
X143633390Y-63619047D01*
X143633390Y-63619047D02*
X143776247Y-63619047D01*
X143776247Y-63619047D02*
X143966723Y-63666666D01*
X143966723Y-63666666D02*
X144061961Y-63714285D01*
X144061961Y-63714285D02*
X144157200Y-63809523D01*
X144157200Y-63809523D02*
X144204819Y-63952380D01*
X144204819Y-63952380D02*
X144204819Y-64190475D01*
X144204819Y-62666666D02*
X144204819Y-63238094D01*
X144204819Y-62952380D02*
X143204819Y-62952380D01*
X143204819Y-62952380D02*
X143347676Y-63047618D01*
X143347676Y-63047618D02*
X143442914Y-63142856D01*
X143442914Y-63142856D02*
X143490533Y-63238094D01*
X143204819Y-62047618D02*
X143204819Y-61952380D01*
X143204819Y-61952380D02*
X143252438Y-61857142D01*
X143252438Y-61857142D02*
X143300057Y-61809523D01*
X143300057Y-61809523D02*
X143395295Y-61761904D01*
X143395295Y-61761904D02*
X143585771Y-61714285D01*
X143585771Y-61714285D02*
X143823866Y-61714285D01*
X143823866Y-61714285D02*
X144014342Y-61761904D01*
X144014342Y-61761904D02*
X144109580Y-61809523D01*
X144109580Y-61809523D02*
X144157200Y-61857142D01*
X144157200Y-61857142D02*
X144204819Y-61952380D01*
X144204819Y-61952380D02*
X144204819Y-62047618D01*
X144204819Y-62047618D02*
X144157200Y-62142856D01*
X144157200Y-62142856D02*
X144109580Y-62190475D01*
X144109580Y-62190475D02*
X144014342Y-62238094D01*
X144014342Y-62238094D02*
X143823866Y-62285713D01*
X143823866Y-62285713D02*
X143585771Y-62285713D01*
X143585771Y-62285713D02*
X143395295Y-62238094D01*
X143395295Y-62238094D02*
X143300057Y-62190475D01*
X143300057Y-62190475D02*
X143252438Y-62142856D01*
X143252438Y-62142856D02*
X143204819Y-62047618D01*
X144204819Y-60761904D02*
X144204819Y-61333332D01*
X144204819Y-61047618D02*
X143204819Y-61047618D01*
X143204819Y-61047618D02*
X143347676Y-61142856D01*
X143347676Y-61142856D02*
X143442914Y-61238094D01*
X143442914Y-61238094D02*
X143490533Y-61333332D01*
X141535714Y-83640057D02*
X141583333Y-83592438D01*
X141583333Y-83592438D02*
X141678571Y-83544819D01*
X141678571Y-83544819D02*
X141916666Y-83544819D01*
X141916666Y-83544819D02*
X142011904Y-83592438D01*
X142011904Y-83592438D02*
X142059523Y-83640057D01*
X142059523Y-83640057D02*
X142107142Y-83735295D01*
X142107142Y-83735295D02*
X142107142Y-83830533D01*
X142107142Y-83830533D02*
X142059523Y-83973390D01*
X142059523Y-83973390D02*
X141488095Y-84544819D01*
X141488095Y-84544819D02*
X142107142Y-84544819D01*
X142488095Y-83640057D02*
X142535714Y-83592438D01*
X142535714Y-83592438D02*
X142630952Y-83544819D01*
X142630952Y-83544819D02*
X142869047Y-83544819D01*
X142869047Y-83544819D02*
X142964285Y-83592438D01*
X142964285Y-83592438D02*
X143011904Y-83640057D01*
X143011904Y-83640057D02*
X143059523Y-83735295D01*
X143059523Y-83735295D02*
X143059523Y-83830533D01*
X143059523Y-83830533D02*
X143011904Y-83973390D01*
X143011904Y-83973390D02*
X142440476Y-84544819D01*
X142440476Y-84544819D02*
X143059523Y-84544819D01*
X143488095Y-83878152D02*
X143488095Y-84544819D01*
X143488095Y-83973390D02*
X143535714Y-83925771D01*
X143535714Y-83925771D02*
X143630952Y-83878152D01*
X143630952Y-83878152D02*
X143773809Y-83878152D01*
X143773809Y-83878152D02*
X143869047Y-83925771D01*
X143869047Y-83925771D02*
X143916666Y-84021009D01*
X143916666Y-84021009D02*
X143916666Y-84544819D01*
D11*
X142470238Y-85339765D02*
X142458334Y-85351670D01*
X142458334Y-85351670D02*
X142422619Y-85363574D01*
X142422619Y-85363574D02*
X142398810Y-85363574D01*
X142398810Y-85363574D02*
X142363096Y-85351670D01*
X142363096Y-85351670D02*
X142339286Y-85327860D01*
X142339286Y-85327860D02*
X142327381Y-85304050D01*
X142327381Y-85304050D02*
X142315477Y-85256431D01*
X142315477Y-85256431D02*
X142315477Y-85220717D01*
X142315477Y-85220717D02*
X142327381Y-85173098D01*
X142327381Y-85173098D02*
X142339286Y-85149289D01*
X142339286Y-85149289D02*
X142363096Y-85125479D01*
X142363096Y-85125479D02*
X142398810Y-85113574D01*
X142398810Y-85113574D02*
X142422619Y-85113574D01*
X142422619Y-85113574D02*
X142458334Y-85125479D01*
X142458334Y-85125479D02*
X142470238Y-85137384D01*
X142708334Y-85363574D02*
X142565477Y-85363574D01*
X142636905Y-85363574D02*
X142636905Y-85113574D01*
X142636905Y-85113574D02*
X142613096Y-85149289D01*
X142613096Y-85149289D02*
X142589286Y-85173098D01*
X142589286Y-85173098D02*
X142565477Y-85185003D01*
X142863095Y-85113574D02*
X142886905Y-85113574D01*
X142886905Y-85113574D02*
X142910714Y-85125479D01*
X142910714Y-85125479D02*
X142922619Y-85137384D01*
X142922619Y-85137384D02*
X142934524Y-85161193D01*
X142934524Y-85161193D02*
X142946429Y-85208812D01*
X142946429Y-85208812D02*
X142946429Y-85268336D01*
X142946429Y-85268336D02*
X142934524Y-85315955D01*
X142934524Y-85315955D02*
X142922619Y-85339765D01*
X142922619Y-85339765D02*
X142910714Y-85351670D01*
X142910714Y-85351670D02*
X142886905Y-85363574D01*
X142886905Y-85363574D02*
X142863095Y-85363574D01*
X142863095Y-85363574D02*
X142839286Y-85351670D01*
X142839286Y-85351670D02*
X142827381Y-85339765D01*
X142827381Y-85339765D02*
X142815476Y-85315955D01*
X142815476Y-85315955D02*
X142803572Y-85268336D01*
X142803572Y-85268336D02*
X142803572Y-85208812D01*
X142803572Y-85208812D02*
X142815476Y-85161193D01*
X142815476Y-85161193D02*
X142827381Y-85137384D01*
X142827381Y-85137384D02*
X142839286Y-85125479D01*
X142839286Y-85125479D02*
X142863095Y-85113574D01*
X143041667Y-85137384D02*
X143053571Y-85125479D01*
X143053571Y-85125479D02*
X143077381Y-85113574D01*
X143077381Y-85113574D02*
X143136905Y-85113574D01*
X143136905Y-85113574D02*
X143160714Y-85125479D01*
X143160714Y-85125479D02*
X143172619Y-85137384D01*
X143172619Y-85137384D02*
X143184524Y-85161193D01*
X143184524Y-85161193D02*
X143184524Y-85185003D01*
X143184524Y-85185003D02*
X143172619Y-85220717D01*
X143172619Y-85220717D02*
X143029762Y-85363574D01*
X143029762Y-85363574D02*
X143184524Y-85363574D01*
D14*
%TO.C,J1*%
X126670000Y-96825000D02*
X127305000Y-96190000D01*
X126670000Y-98730000D02*
X126670000Y-96825000D01*
X127305000Y-96190000D02*
X146990000Y-96190000D01*
X146990000Y-96190000D02*
X146990000Y-98730000D01*
X146990000Y-98730000D02*
X126670000Y-98730000D01*
%TO.C,J3*%
X149530000Y-96825000D02*
X150165000Y-96190000D01*
X149530000Y-98730000D02*
X149530000Y-96825000D01*
X150165000Y-96190000D02*
X164770000Y-96190000D01*
X164770000Y-96190000D02*
X164770000Y-98730000D01*
X164770000Y-98730000D02*
X149530000Y-98730000D01*
%TO.C,J2*%
X117526000Y-48565000D02*
X118161000Y-47930000D01*
X117526000Y-50470000D02*
X117526000Y-48565000D01*
X118161000Y-47930000D02*
X142926000Y-47930000D01*
X142926000Y-47930000D02*
X142926000Y-50470000D01*
X142926000Y-50470000D02*
X117526000Y-50470000D01*
%TO.C,J4*%
X144450000Y-48565000D02*
X145085000Y-47930000D01*
X144450000Y-50470000D02*
X144450000Y-48565000D01*
X145085000Y-47930000D02*
X164770000Y-47930000D01*
X164770000Y-47930000D02*
X164770000Y-50470000D01*
X164770000Y-50470000D02*
X144450000Y-50470000D01*
%TO.C,J103*%
X147617500Y-52750000D02*
X161617500Y-52750000D01*
X147617500Y-53550000D02*
X147617500Y-58550000D01*
X147617500Y-58550000D02*
X147617500Y-63550000D01*
X147617500Y-58550000D02*
X161617500Y-58550000D01*
X147617500Y-63550000D02*
X161617500Y-63550000D01*
X147617500Y-65050000D02*
X147617500Y-52750000D01*
X147967500Y-55550000D02*
X147967500Y-56550000D01*
X147967500Y-56550000D02*
X150467500Y-56550000D01*
X147967500Y-60550000D02*
X147967500Y-61550000D01*
X147967500Y-61550000D02*
X150467500Y-61550000D01*
X150467500Y-55550000D02*
X147967500Y-55550000D01*
X150467500Y-56550000D02*
X150467500Y-55550000D01*
X150467500Y-60550000D02*
X147967500Y-60550000D01*
X150467500Y-61550000D02*
X150467500Y-60550000D01*
X152117500Y-65050000D02*
X152117500Y-52750000D01*
X154917500Y-65050000D02*
X154917500Y-52750000D01*
X155317500Y-54050000D02*
X155317500Y-58050000D01*
X155317500Y-58050000D02*
X156317500Y-58050000D01*
X155317500Y-59050000D02*
X155317500Y-63050000D01*
X155317500Y-63050000D02*
X156317500Y-63050000D01*
X156317500Y-54050000D02*
X155317500Y-54050000D01*
X156317500Y-58050000D02*
X156317500Y-54050000D01*
X156317500Y-59050000D02*
X155317500Y-59050000D01*
X156317500Y-63050000D02*
X156317500Y-59050000D01*
X157017500Y-54050000D02*
X157017500Y-58050000D01*
X157017500Y-58050000D02*
X160317500Y-58050000D01*
X157017500Y-59050000D02*
X157017500Y-63050000D01*
X157017500Y-63050000D02*
X160317500Y-63050000D01*
X160317500Y-54050000D02*
X157017500Y-54050000D01*
X160317500Y-58050000D02*
X160317500Y-54050000D01*
X160317500Y-59050000D02*
X157017500Y-59050000D01*
X160317500Y-63050000D02*
X160317500Y-59050000D01*
X160617500Y-65050000D02*
X147617500Y-65050000D01*
X160617500Y-65050000D02*
X160617500Y-52750000D01*
X161617500Y-52750000D02*
X161617500Y-64050000D01*
X161617500Y-53550000D02*
X147617500Y-53550000D01*
X161617500Y-58550000D02*
X147617500Y-58550000D01*
X161617500Y-58550000D02*
X161617500Y-53550000D01*
X161617500Y-63550000D02*
X161617500Y-58550000D01*
X161617500Y-64050000D02*
X160617500Y-65050000D01*
%TO.C,R106*%
X120230000Y-60225000D02*
X120770000Y-60225000D01*
X120230000Y-61275000D02*
X120230000Y-60225000D01*
X120770000Y-60225000D02*
X120770000Y-61275000D01*
X120770000Y-61275000D02*
X120230000Y-61275000D01*
%TO.C,R105*%
X124130000Y-56615000D02*
X124670000Y-56615000D01*
X124130000Y-57665000D02*
X124130000Y-56615000D01*
X124670000Y-56615000D02*
X124670000Y-57665000D01*
X124670000Y-57665000D02*
X124130000Y-57665000D01*
%TO.C,J102*%
X147617500Y-67100000D02*
X161617500Y-67100000D01*
X147617500Y-67900000D02*
X147617500Y-72900000D01*
X147617500Y-72900000D02*
X147617500Y-77900000D01*
X147617500Y-72900000D02*
X161617500Y-72900000D01*
X147617500Y-77900000D02*
X161617500Y-77900000D01*
X147617500Y-79400000D02*
X147617500Y-67100000D01*
X147967500Y-69900000D02*
X147967500Y-70900000D01*
X147967500Y-70900000D02*
X150467500Y-70900000D01*
X147967500Y-74900000D02*
X147967500Y-75900000D01*
X147967500Y-75900000D02*
X150467500Y-75900000D01*
X150467500Y-69900000D02*
X147967500Y-69900000D01*
X150467500Y-70900000D02*
X150467500Y-69900000D01*
X150467500Y-74900000D02*
X147967500Y-74900000D01*
X150467500Y-75900000D02*
X150467500Y-74900000D01*
X152117500Y-79400000D02*
X152117500Y-67100000D01*
X154917500Y-79400000D02*
X154917500Y-67100000D01*
X155317500Y-68400000D02*
X155317500Y-72400000D01*
X155317500Y-72400000D02*
X156317500Y-72400000D01*
X155317500Y-73400000D02*
X155317500Y-77400000D01*
X155317500Y-77400000D02*
X156317500Y-77400000D01*
X156317500Y-68400000D02*
X155317500Y-68400000D01*
X156317500Y-72400000D02*
X156317500Y-68400000D01*
X156317500Y-73400000D02*
X155317500Y-73400000D01*
X156317500Y-77400000D02*
X156317500Y-73400000D01*
X157017500Y-68400000D02*
X157017500Y-72400000D01*
X157017500Y-72400000D02*
X160317500Y-72400000D01*
X157017500Y-73400000D02*
X157017500Y-77400000D01*
X157017500Y-77400000D02*
X160317500Y-77400000D01*
X160317500Y-68400000D02*
X157017500Y-68400000D01*
X160317500Y-72400000D02*
X160317500Y-68400000D01*
X160317500Y-73400000D02*
X157017500Y-73400000D01*
X160317500Y-77400000D02*
X160317500Y-73400000D01*
X160617500Y-79400000D02*
X147617500Y-79400000D01*
X160617500Y-79400000D02*
X160617500Y-67100000D01*
X161617500Y-67100000D02*
X161617500Y-78400000D01*
X161617500Y-67900000D02*
X147617500Y-67900000D01*
X161617500Y-72900000D02*
X147617500Y-72900000D01*
X161617500Y-72900000D02*
X161617500Y-67900000D01*
X161617500Y-77900000D02*
X161617500Y-72900000D01*
X161617500Y-78400000D02*
X160617500Y-79400000D01*
%TO.C,J101*%
X147617500Y-81450000D02*
X161617500Y-81450000D01*
X147617500Y-82250000D02*
X147617500Y-87250000D01*
X147617500Y-87250000D02*
X147617500Y-92250000D01*
X147617500Y-87250000D02*
X161617500Y-87250000D01*
X147617500Y-92250000D02*
X161617500Y-92250000D01*
X147617500Y-93750000D02*
X147617500Y-81450000D01*
X147967500Y-84250000D02*
X147967500Y-85250000D01*
X147967500Y-85250000D02*
X150467500Y-85250000D01*
X147967500Y-89250000D02*
X147967500Y-90250000D01*
X147967500Y-90250000D02*
X150467500Y-90250000D01*
X150467500Y-84250000D02*
X147967500Y-84250000D01*
X150467500Y-85250000D02*
X150467500Y-84250000D01*
X150467500Y-89250000D02*
X147967500Y-89250000D01*
X150467500Y-90250000D02*
X150467500Y-89250000D01*
X152117500Y-93750000D02*
X152117500Y-81450000D01*
X154917500Y-93750000D02*
X154917500Y-81450000D01*
X155317500Y-82750000D02*
X155317500Y-86750000D01*
X155317500Y-86750000D02*
X156317500Y-86750000D01*
X155317500Y-87750000D02*
X155317500Y-91750000D01*
X155317500Y-91750000D02*
X156317500Y-91750000D01*
X156317500Y-82750000D02*
X155317500Y-82750000D01*
X156317500Y-86750000D02*
X156317500Y-82750000D01*
X156317500Y-87750000D02*
X155317500Y-87750000D01*
X156317500Y-91750000D02*
X156317500Y-87750000D01*
X157017500Y-82750000D02*
X157017500Y-86750000D01*
X157017500Y-86750000D02*
X160317500Y-86750000D01*
X157017500Y-87750000D02*
X157017500Y-91750000D01*
X157017500Y-91750000D02*
X160317500Y-91750000D01*
X160317500Y-82750000D02*
X157017500Y-82750000D01*
X160317500Y-86750000D02*
X160317500Y-82750000D01*
X160317500Y-87750000D02*
X157017500Y-87750000D01*
X160317500Y-91750000D02*
X160317500Y-87750000D01*
X160617500Y-93750000D02*
X147617500Y-93750000D01*
X160617500Y-93750000D02*
X160617500Y-81450000D01*
X161617500Y-81450000D02*
X161617500Y-92750000D01*
X161617500Y-82250000D02*
X147617500Y-82250000D01*
X161617500Y-87250000D02*
X147617500Y-87250000D01*
X161617500Y-87250000D02*
X161617500Y-82250000D01*
X161617500Y-92250000D02*
X161617500Y-87250000D01*
X161617500Y-92750000D02*
X160617500Y-93750000D01*
%TO.C,C104*%
X142250000Y-70750000D02*
X143250000Y-70750000D01*
X142250000Y-71250000D02*
X142250000Y-70750000D01*
X143250000Y-70750000D02*
X143250000Y-71250000D01*
X143250000Y-71250000D02*
X142250000Y-71250000D01*
%TO.C,R102*%
X144475000Y-84980000D02*
X145525000Y-84980000D01*
X144475000Y-85520000D02*
X144475000Y-84980000D01*
X145525000Y-84980000D02*
X145525000Y-85520000D01*
X145525000Y-85520000D02*
X144475000Y-85520000D01*
%TO.C,U102*%
X122300000Y-58650000D02*
X120700000Y-58650000D01*
X120700000Y-56150000D01*
X121100000Y-55750000D01*
X122300000Y-55750000D01*
X122300000Y-58650000D01*
%TO.C,U101*%
X140450000Y-81975000D02*
X139475000Y-82950000D01*
X136550000Y-82950000D01*
X136550000Y-78050000D01*
X140450000Y-78050000D01*
X140450000Y-81975000D01*
%TO.C,R107*%
X117480000Y-60225000D02*
X118020000Y-60225000D01*
X117480000Y-61275000D02*
X117480000Y-60225000D01*
X118020000Y-60225000D02*
X118020000Y-61275000D01*
X118020000Y-61275000D02*
X117480000Y-61275000D01*
%TO.C,R101*%
X144475000Y-89980000D02*
X145525000Y-89980000D01*
X144475000Y-90520000D02*
X144475000Y-89980000D01*
X145525000Y-89980000D02*
X145525000Y-90520000D01*
X145525000Y-90520000D02*
X144475000Y-90520000D01*
%TO.C,C101*%
X142250000Y-90000000D02*
X143250000Y-90000000D01*
X142250000Y-90500000D02*
X142250000Y-90000000D01*
X143250000Y-90000000D02*
X143250000Y-90500000D01*
X143250000Y-90500000D02*
X142250000Y-90500000D01*
%TO.C,R104*%
X144475000Y-70730000D02*
X145525000Y-70730000D01*
X144475000Y-71270000D02*
X144475000Y-70730000D01*
X145525000Y-70730000D02*
X145525000Y-71270000D01*
X145525000Y-71270000D02*
X144475000Y-71270000D01*
%TO.C,C103*%
X142250000Y-75750000D02*
X143250000Y-75750000D01*
X142250000Y-76250000D02*
X142250000Y-75750000D01*
X143250000Y-75750000D02*
X143250000Y-76250000D01*
X143250000Y-76250000D02*
X142250000Y-76250000D01*
%TO.C,R103*%
X144475000Y-75730000D02*
X145525000Y-75730000D01*
X144475000Y-76270000D02*
X144475000Y-75730000D01*
X145525000Y-75730000D02*
X145525000Y-76270000D01*
X145525000Y-76270000D02*
X144475000Y-76270000D01*
%TO.C,F101*%
X143700000Y-61650000D02*
X145300000Y-61650000D01*
X143700000Y-64850000D02*
X143700000Y-61650000D01*
X145300000Y-61650000D02*
X145300000Y-64850000D01*
X145300000Y-64850000D02*
X143700000Y-64850000D01*
%TO.C,D101*%
X139750000Y-60200000D02*
X142750000Y-60200000D01*
X139750000Y-64800000D02*
X139750000Y-60200000D01*
X140499680Y-63001180D02*
X142049080Y-63001180D01*
X141248980Y-61850560D02*
X140499680Y-63001180D01*
X141248980Y-61850560D02*
X141248980Y-60948860D01*
X141248980Y-61850560D02*
X142049080Y-63001180D01*
X141248980Y-63001180D02*
X141248980Y-63999400D01*
X142049080Y-61850560D02*
X140448880Y-61850560D01*
X142750000Y-64800000D02*
X139750000Y-64800000D01*
X142750000Y-64800000D02*
X142750000Y-60200000D01*
%TO.C,C102*%
X142250000Y-85000000D02*
X143250000Y-85000000D01*
X142250000Y-85500000D02*
X142250000Y-85000000D01*
X143250000Y-85000000D02*
X143250000Y-85500000D01*
X143250000Y-85500000D02*
X142250000Y-85500000D01*
%TD*%
M02*
