%TF.GenerationSoftware,KiCad,Pcbnew,9.0.6+1*%
%TF.CreationDate,2025-12-14T17:38:49+00:00*%
%TF.ProjectId,dreh_shield,64726568-5f73-4686-9965-6c642e6b6963,0.1*%
%TF.SameCoordinates,Original*%
%TF.FileFunction,OtherDrawing,Comment*%
%FSLAX46Y46*%
G04 Gerber Fmt 4.6, Leading zero omitted, Abs format (unit mm)*
G04 Created by KiCad (PCBNEW 9.0.6+1) date 2025-12-14 17:38:49*
%MOMM*%
%LPD*%
G01*
G04 APERTURE LIST*
%ADD10C,0.150000*%
G04 APERTURE END LIST*
D10*
X98095000Y-96825000D02*
X98095000Y-87935000D01*
X111430000Y-96825000D02*
X98095000Y-96825000D01*
X162357000Y-68250000D02*
X167437000Y-68250000D01*
X167437000Y-75870000D01*
X162357000Y-75870000D01*
X162357000Y-68250000D01*
X98095000Y-87935000D02*
X111430000Y-87935000D01*
X93650000Y-67615000D02*
X93650000Y-56185000D01*
X111430000Y-87935000D02*
X111430000Y-96825000D01*
X109525000Y-56185000D02*
X109525000Y-67615000D01*
X93650000Y-56185000D02*
X109525000Y-56185000D01*
X109525000Y-67615000D02*
X93650000Y-67615000D01*
X165351819Y-73536189D02*
X164351819Y-73536189D01*
X165256580Y-72488571D02*
X165304200Y-72536190D01*
X165304200Y-72536190D02*
X165351819Y-72679047D01*
X165351819Y-72679047D02*
X165351819Y-72774285D01*
X165351819Y-72774285D02*
X165304200Y-72917142D01*
X165304200Y-72917142D02*
X165208961Y-73012380D01*
X165208961Y-73012380D02*
X165113723Y-73059999D01*
X165113723Y-73059999D02*
X164923247Y-73107618D01*
X164923247Y-73107618D02*
X164780390Y-73107618D01*
X164780390Y-73107618D02*
X164589914Y-73059999D01*
X164589914Y-73059999D02*
X164494676Y-73012380D01*
X164494676Y-73012380D02*
X164399438Y-72917142D01*
X164399438Y-72917142D02*
X164351819Y-72774285D01*
X164351819Y-72774285D02*
X164351819Y-72679047D01*
X164351819Y-72679047D02*
X164399438Y-72536190D01*
X164399438Y-72536190D02*
X164447057Y-72488571D01*
X165304200Y-72107618D02*
X165351819Y-71964761D01*
X165351819Y-71964761D02*
X165351819Y-71726666D01*
X165351819Y-71726666D02*
X165304200Y-71631428D01*
X165304200Y-71631428D02*
X165256580Y-71583809D01*
X165256580Y-71583809D02*
X165161342Y-71536190D01*
X165161342Y-71536190D02*
X165066104Y-71536190D01*
X165066104Y-71536190D02*
X164970866Y-71583809D01*
X164970866Y-71583809D02*
X164923247Y-71631428D01*
X164923247Y-71631428D02*
X164875628Y-71726666D01*
X164875628Y-71726666D02*
X164828009Y-71917142D01*
X164828009Y-71917142D02*
X164780390Y-72012380D01*
X164780390Y-72012380D02*
X164732771Y-72059999D01*
X164732771Y-72059999D02*
X164637533Y-72107618D01*
X164637533Y-72107618D02*
X164542295Y-72107618D01*
X164542295Y-72107618D02*
X164447057Y-72059999D01*
X164447057Y-72059999D02*
X164399438Y-72012380D01*
X164399438Y-72012380D02*
X164351819Y-71917142D01*
X164351819Y-71917142D02*
X164351819Y-71679047D01*
X164351819Y-71679047D02*
X164399438Y-71536190D01*
X165351819Y-71107618D02*
X164351819Y-71107618D01*
X164351819Y-71107618D02*
X164351819Y-70726666D01*
X164351819Y-70726666D02*
X164399438Y-70631428D01*
X164399438Y-70631428D02*
X164447057Y-70583809D01*
X164447057Y-70583809D02*
X164542295Y-70536190D01*
X164542295Y-70536190D02*
X164685152Y-70536190D01*
X164685152Y-70536190D02*
X164780390Y-70583809D01*
X164780390Y-70583809D02*
X164828009Y-70631428D01*
X164828009Y-70631428D02*
X164875628Y-70726666D01*
X164875628Y-70726666D02*
X164875628Y-71107618D01*
M02*
