G04 #@! TF.GenerationSoftware,KiCad,Pcbnew,9.0.6+1*
G04 #@! TF.CreationDate,2025-12-14T17:40:47+00:00*
G04 #@! TF.ProjectId,dreh_shield,64726568-5f73-4686-9965-6c642e6b6963,0.1*
G04 #@! TF.SameCoordinates,Original*
G04 #@! TF.FileFunction,Copper,L2,Bot*
G04 #@! TF.FilePolarity,Positive*
%FSLAX46Y46*%
G04 Gerber Fmt 4.6, Leading zero omitted, Abs format (unit mm)*
G04 Created by KiCad (PCBNEW 9.0.6+1) date 2025-12-14 17:40:47*
%MOMM*%
%LPD*%
G01*
G04 APERTURE LIST*
G04 #@! TA.AperFunction,ComponentPad*
%ADD10R,1.700000X1.700000*%
G04 #@! TD*
G04 #@! TA.AperFunction,ComponentPad*
%ADD11C,1.700000*%
G04 #@! TD*
G04 #@! TA.AperFunction,ComponentPad*
%ADD12R,3.000000X1.500000*%
G04 #@! TD*
G04 #@! TA.AperFunction,ComponentPad*
%ADD13O,3.000000X1.500000*%
G04 #@! TD*
G04 #@! TA.AperFunction,ViaPad*
%ADD14C,0.600000*%
G04 #@! TD*
G04 #@! TA.AperFunction,Conductor*
%ADD15C,1.000000*%
G04 #@! TD*
G04 APERTURE END LIST*
D10*
X127940000Y-97460000D03*
D11*
X130480000Y-97460000D03*
X133020000Y-97460000D03*
X135560000Y-97460000D03*
X138100000Y-97460000D03*
X140640000Y-97460000D03*
X143180000Y-97460000D03*
X145720000Y-97460000D03*
D10*
X150800000Y-97460000D03*
D11*
X153340000Y-97460000D03*
X155880000Y-97460000D03*
X158420000Y-97460000D03*
X160960000Y-97460000D03*
X163500000Y-97460000D03*
D10*
X118796000Y-49200000D03*
D11*
X121336000Y-49200000D03*
X123876000Y-49200000D03*
X126416000Y-49200000D03*
X128956000Y-49200000D03*
X131496000Y-49200000D03*
X134036000Y-49200000D03*
X136576000Y-49200000D03*
X139116000Y-49200000D03*
X141656000Y-49200000D03*
D10*
X145720000Y-49200000D03*
D11*
X148260000Y-49200000D03*
X150800000Y-49200000D03*
X153340000Y-49200000D03*
X155880000Y-49200000D03*
X158420000Y-49200000D03*
X160960000Y-49200000D03*
X163500000Y-49200000D03*
G04 #@! TA.AperFunction,ComponentPad*
G36*
G01*
X153867499Y-62300000D02*
X151367501Y-62300000D01*
G75*
G02*
X151117500Y-62049999I0J250001D01*
G01*
X151117500Y-61050001D01*
G75*
G02*
X151367501Y-60800000I250001J0D01*
G01*
X153867499Y-60800000D01*
G75*
G02*
X154117500Y-61050001I0J-250001D01*
G01*
X154117500Y-62049999D01*
G75*
G02*
X153867499Y-62300000I-250001J0D01*
G01*
G37*
G04 #@! TD.AperFunction*
D12*
X157617500Y-61550000D03*
D13*
X152617500Y-56550000D03*
X157617500Y-56550000D03*
G04 #@! TA.AperFunction,ComponentPad*
G36*
G01*
X153867499Y-76650000D02*
X151367501Y-76650000D01*
G75*
G02*
X151117500Y-76399999I0J250001D01*
G01*
X151117500Y-75400001D01*
G75*
G02*
X151367501Y-75150000I250001J0D01*
G01*
X153867499Y-75150000D01*
G75*
G02*
X154117500Y-75400001I0J-250001D01*
G01*
X154117500Y-76399999D01*
G75*
G02*
X153867499Y-76650000I-250001J0D01*
G01*
G37*
G04 #@! TD.AperFunction*
D12*
X157617500Y-75900000D03*
D13*
X152617500Y-70900000D03*
X157617500Y-70900000D03*
G04 #@! TA.AperFunction,ComponentPad*
G36*
G01*
X153867499Y-91000000D02*
X151367501Y-91000000D01*
G75*
G02*
X151117500Y-90749999I0J250001D01*
G01*
X151117500Y-89750001D01*
G75*
G02*
X151367501Y-89500000I250001J0D01*
G01*
X153867499Y-89500000D01*
G75*
G02*
X154117500Y-89750001I0J-250001D01*
G01*
X154117500Y-90749999D01*
G75*
G02*
X153867499Y-91000000I-250001J0D01*
G01*
G37*
G04 #@! TD.AperFunction*
D12*
X157617500Y-90250000D03*
D13*
X152617500Y-85250000D03*
X157617500Y-85250000D03*
D14*
X121500000Y-59500000D03*
X118750000Y-58250000D03*
X118750000Y-56750000D03*
X134250000Y-82000000D03*
X119250000Y-63000000D03*
X119500000Y-51750000D03*
X136250000Y-77250000D03*
X135250000Y-77250000D03*
X135560000Y-83500000D03*
X134750000Y-78912500D03*
X142500000Y-83500000D03*
X141250000Y-83250000D03*
X141250000Y-67250000D03*
D15*
X135560000Y-85000000D02*
X135560000Y-79722500D01*
X135560000Y-97460000D02*
X135560000Y-85000000D01*
X135560000Y-79722500D02*
X134750000Y-78912500D01*
X135560000Y-85000000D02*
X135560000Y-83500000D01*
X141250000Y-67250000D02*
X141250000Y-83250000D01*
G04 #@! TA.AperFunction,Conductor*
G36*
X163732289Y-46749852D02*
G01*
X163732661Y-46750228D01*
X164309355Y-47339513D01*
X165950520Y-49016511D01*
X165964500Y-49050782D01*
X165964500Y-59344982D01*
X165964500Y-59375018D01*
X165975994Y-59402767D01*
X165975995Y-59402768D01*
X165975995Y-59402769D01*
X168490148Y-61916921D01*
X168504500Y-61951569D01*
X168504500Y-96138430D01*
X168490147Y-96173078D01*
X165997233Y-98665994D01*
X165986613Y-98676613D01*
X165975994Y-98687232D01*
X165964500Y-98714980D01*
X165964500Y-99235593D01*
X165964264Y-99240396D01*
X165951782Y-99367127D01*
X165949908Y-99376548D01*
X165913643Y-99496095D01*
X165909967Y-99504969D01*
X165851080Y-99615140D01*
X165845743Y-99623128D01*
X165766489Y-99719698D01*
X165759698Y-99726489D01*
X165663128Y-99805743D01*
X165655140Y-99811080D01*
X165544969Y-99869967D01*
X165536095Y-99873643D01*
X165416548Y-99909908D01*
X165407127Y-99911782D01*
X165280396Y-99924264D01*
X165275593Y-99924500D01*
X100764407Y-99924500D01*
X100759604Y-99924264D01*
X100632872Y-99911782D01*
X100623452Y-99909908D01*
X100552972Y-99888528D01*
X100503904Y-99873643D01*
X100495030Y-99869967D01*
X100384859Y-99811080D01*
X100376871Y-99805743D01*
X100280301Y-99726489D01*
X100273510Y-99719698D01*
X100194256Y-99623128D01*
X100188921Y-99615144D01*
X100130030Y-99504965D01*
X100126356Y-99496095D01*
X100090089Y-99376539D01*
X100088218Y-99367134D01*
X100075736Y-99240395D01*
X100075500Y-99235593D01*
X100075500Y-97334038D01*
X112369500Y-97334038D01*
X112369500Y-97585961D01*
X112408909Y-97834782D01*
X112408910Y-97834785D01*
X112486759Y-98074380D01*
X112587048Y-98271208D01*
X112601130Y-98298845D01*
X112740087Y-98490104D01*
X112749208Y-98502657D01*
X112749212Y-98502662D01*
X112927338Y-98680788D01*
X112927342Y-98680791D01*
X112927344Y-98680793D01*
X113131155Y-98828870D01*
X113355621Y-98943241D01*
X113595215Y-99021090D01*
X113844038Y-99060500D01*
X113844039Y-99060500D01*
X114095961Y-99060500D01*
X114095962Y-99060500D01*
X114344785Y-99021090D01*
X114584379Y-98943241D01*
X114808845Y-98828870D01*
X115012656Y-98680793D01*
X115012659Y-98680789D01*
X115012662Y-98680788D01*
X115190788Y-98502662D01*
X115190789Y-98502659D01*
X115190793Y-98502656D01*
X115338870Y-98298845D01*
X115453241Y-98074379D01*
X115531090Y-97834785D01*
X115570500Y-97585962D01*
X115570500Y-97334038D01*
X115531090Y-97085215D01*
X115453241Y-96845621D01*
X115338870Y-96621155D01*
X115295979Y-96562120D01*
X126589500Y-96562120D01*
X126589500Y-98357879D01*
X126595907Y-98417478D01*
X126595909Y-98417483D01*
X126646204Y-98552331D01*
X126732454Y-98667546D01*
X126847669Y-98753796D01*
X126982517Y-98804091D01*
X126982520Y-98804092D01*
X127026177Y-98808785D01*
X127042127Y-98810500D01*
X128837872Y-98810499D01*
X128837878Y-98810499D01*
X128897478Y-98804092D01*
X128897479Y-98804091D01*
X128897483Y-98804091D01*
X129032331Y-98753796D01*
X129147546Y-98667546D01*
X129233796Y-98552331D01*
X129284091Y-98417483D01*
X129284091Y-98417481D01*
X129284092Y-98417479D01*
X129290499Y-98357879D01*
X129290500Y-98357873D01*
X129290499Y-98271206D01*
X129304850Y-98236559D01*
X129339498Y-98222207D01*
X129374147Y-98236558D01*
X129379141Y-98242406D01*
X129449897Y-98339793D01*
X129449901Y-98339798D01*
X129600202Y-98490099D01*
X129600206Y-98490102D01*
X129600208Y-98490104D01*
X129772184Y-98615051D01*
X129961588Y-98711557D01*
X130163757Y-98777246D01*
X130373713Y-98810500D01*
X130373714Y-98810500D01*
X130586286Y-98810500D01*
X130586287Y-98810500D01*
X130796243Y-98777246D01*
X130998412Y-98711557D01*
X131187816Y-98615051D01*
X131359792Y-98490104D01*
X131359795Y-98490100D01*
X131359798Y-98490099D01*
X131510099Y-98339798D01*
X131510100Y-98339795D01*
X131510104Y-98339792D01*
X131635051Y-98167816D01*
X131706341Y-98027900D01*
X131734858Y-98003544D01*
X131772245Y-98006487D01*
X131793659Y-98027901D01*
X131864947Y-98167813D01*
X131864952Y-98167821D01*
X131914893Y-98236559D01*
X131960146Y-98298845D01*
X131989897Y-98339793D01*
X131989901Y-98339798D01*
X132140202Y-98490099D01*
X132140206Y-98490102D01*
X132140208Y-98490104D01*
X132312184Y-98615051D01*
X132501588Y-98711557D01*
X132703757Y-98777246D01*
X132913713Y-98810500D01*
X132913714Y-98810500D01*
X133126286Y-98810500D01*
X133126287Y-98810500D01*
X133336243Y-98777246D01*
X133538412Y-98711557D01*
X133727816Y-98615051D01*
X133899792Y-98490104D01*
X133899795Y-98490100D01*
X133899798Y-98490099D01*
X134050099Y-98339798D01*
X134050100Y-98339795D01*
X134050104Y-98339792D01*
X134175051Y-98167816D01*
X134246341Y-98027900D01*
X134274858Y-98003544D01*
X134312245Y-98006487D01*
X134333659Y-98027901D01*
X134404947Y-98167813D01*
X134404952Y-98167821D01*
X134454893Y-98236559D01*
X134500146Y-98298845D01*
X134529897Y-98339793D01*
X134529901Y-98339798D01*
X134680202Y-98490099D01*
X134680206Y-98490102D01*
X134680208Y-98490104D01*
X134852184Y-98615051D01*
X135041588Y-98711557D01*
X135243757Y-98777246D01*
X135453713Y-98810500D01*
X135453714Y-98810500D01*
X135666286Y-98810500D01*
X135666287Y-98810500D01*
X135876243Y-98777246D01*
X136078412Y-98711557D01*
X136267816Y-98615051D01*
X136439792Y-98490104D01*
X136439795Y-98490100D01*
X136439798Y-98490099D01*
X136590099Y-98339798D01*
X136590100Y-98339795D01*
X136590104Y-98339792D01*
X136715051Y-98167816D01*
X136786341Y-98027900D01*
X136814858Y-98003544D01*
X136852245Y-98006487D01*
X136873659Y-98027901D01*
X136944947Y-98167813D01*
X136944952Y-98167821D01*
X136994893Y-98236559D01*
X137040146Y-98298845D01*
X137069897Y-98339793D01*
X137069901Y-98339798D01*
X137220202Y-98490099D01*
X137220206Y-98490102D01*
X137220208Y-98490104D01*
X137392184Y-98615051D01*
X137581588Y-98711557D01*
X137783757Y-98777246D01*
X137993713Y-98810500D01*
X137993714Y-98810500D01*
X138206286Y-98810500D01*
X138206287Y-98810500D01*
X138416243Y-98777246D01*
X138618412Y-98711557D01*
X138807816Y-98615051D01*
X138979792Y-98490104D01*
X138979795Y-98490100D01*
X138979798Y-98490099D01*
X139130099Y-98339798D01*
X139130100Y-98339795D01*
X139130104Y-98339792D01*
X139255051Y-98167816D01*
X139351557Y-97978412D01*
X139417246Y-97776243D01*
X139450500Y-97566287D01*
X139450500Y-97353713D01*
X144369500Y-97353713D01*
X144369500Y-97566286D01*
X144402753Y-97776240D01*
X144402754Y-97776243D01*
X144468443Y-97978413D01*
X144564947Y-98167813D01*
X144564952Y-98167821D01*
X144614893Y-98236559D01*
X144660146Y-98298845D01*
X144689897Y-98339793D01*
X144689901Y-98339798D01*
X144840202Y-98490099D01*
X144840206Y-98490102D01*
X144840208Y-98490104D01*
X145012184Y-98615051D01*
X145201588Y-98711557D01*
X145403757Y-98777246D01*
X145613713Y-98810500D01*
X145613714Y-98810500D01*
X145826286Y-98810500D01*
X145826287Y-98810500D01*
X146036243Y-98777246D01*
X146238412Y-98711557D01*
X146427816Y-98615051D01*
X146599792Y-98490104D01*
X146599795Y-98490100D01*
X146599798Y-98490099D01*
X146750099Y-98339798D01*
X146750100Y-98339795D01*
X146750104Y-98339792D01*
X146875051Y-98167816D01*
X146971557Y-97978412D01*
X147037246Y-97776243D01*
X147070500Y-97566287D01*
X147070500Y-97353713D01*
X147037246Y-97143757D01*
X146971557Y-96941588D01*
X146875051Y-96752184D01*
X146750104Y-96580208D01*
X146750102Y-96580206D01*
X146750099Y-96580202D01*
X146732017Y-96562120D01*
X149449500Y-96562120D01*
X149449500Y-98357879D01*
X149455907Y-98417478D01*
X149455909Y-98417483D01*
X149506204Y-98552331D01*
X149592454Y-98667546D01*
X149707669Y-98753796D01*
X149842517Y-98804091D01*
X149842520Y-98804092D01*
X149886177Y-98808785D01*
X149902127Y-98810500D01*
X151697872Y-98810499D01*
X151697878Y-98810499D01*
X151757478Y-98804092D01*
X151757479Y-98804091D01*
X151757483Y-98804091D01*
X151892331Y-98753796D01*
X152007546Y-98667546D01*
X152093796Y-98552331D01*
X152144091Y-98417483D01*
X152144091Y-98417481D01*
X152144092Y-98417479D01*
X152150499Y-98357879D01*
X152150500Y-98357873D01*
X152150499Y-98271206D01*
X152164850Y-98236559D01*
X152199498Y-98222207D01*
X152234147Y-98236558D01*
X152239141Y-98242406D01*
X152309897Y-98339793D01*
X152309901Y-98339798D01*
X152460202Y-98490099D01*
X152460206Y-98490102D01*
X152460208Y-98490104D01*
X152632184Y-98615051D01*
X152821588Y-98711557D01*
X153023757Y-98777246D01*
X153233713Y-98810500D01*
X153233714Y-98810500D01*
X153446286Y-98810500D01*
X153446287Y-98810500D01*
X153656243Y-98777246D01*
X153858412Y-98711557D01*
X154047816Y-98615051D01*
X154219792Y-98490104D01*
X154219795Y-98490100D01*
X154219798Y-98490099D01*
X154370099Y-98339798D01*
X154370100Y-98339795D01*
X154370104Y-98339792D01*
X154495051Y-98167816D01*
X154566341Y-98027900D01*
X154594858Y-98003544D01*
X154632245Y-98006487D01*
X154653659Y-98027901D01*
X154724947Y-98167813D01*
X154724952Y-98167821D01*
X154774893Y-98236559D01*
X154820146Y-98298845D01*
X154849897Y-98339793D01*
X154849901Y-98339798D01*
X155000202Y-98490099D01*
X155000206Y-98490102D01*
X155000208Y-98490104D01*
X155172184Y-98615051D01*
X155361588Y-98711557D01*
X155563757Y-98777246D01*
X155773713Y-98810500D01*
X155773714Y-98810500D01*
X155986286Y-98810500D01*
X155986287Y-98810500D01*
X156196243Y-98777246D01*
X156398412Y-98711557D01*
X156587816Y-98615051D01*
X156759792Y-98490104D01*
X156759795Y-98490100D01*
X156759798Y-98490099D01*
X156910099Y-98339798D01*
X156910100Y-98339795D01*
X156910104Y-98339792D01*
X157035051Y-98167816D01*
X157106341Y-98027900D01*
X157134858Y-98003544D01*
X157172245Y-98006487D01*
X157193659Y-98027901D01*
X157264947Y-98167813D01*
X157264952Y-98167821D01*
X157314893Y-98236559D01*
X157360146Y-98298845D01*
X157389897Y-98339793D01*
X157389901Y-98339798D01*
X157540202Y-98490099D01*
X157540206Y-98490102D01*
X157540208Y-98490104D01*
X157712184Y-98615051D01*
X157901588Y-98711557D01*
X158103757Y-98777246D01*
X158313713Y-98810500D01*
X158313714Y-98810500D01*
X158526286Y-98810500D01*
X158526287Y-98810500D01*
X158736243Y-98777246D01*
X158938412Y-98711557D01*
X159127816Y-98615051D01*
X159299792Y-98490104D01*
X159299795Y-98490100D01*
X159299798Y-98490099D01*
X159450099Y-98339798D01*
X159450100Y-98339795D01*
X159450104Y-98339792D01*
X159575051Y-98167816D01*
X159646341Y-98027900D01*
X159674858Y-98003544D01*
X159712245Y-98006487D01*
X159733659Y-98027901D01*
X159804947Y-98167813D01*
X159804952Y-98167821D01*
X159854893Y-98236559D01*
X159900146Y-98298845D01*
X159929897Y-98339793D01*
X159929901Y-98339798D01*
X160080202Y-98490099D01*
X160080206Y-98490102D01*
X160080208Y-98490104D01*
X160252184Y-98615051D01*
X160441588Y-98711557D01*
X160643757Y-98777246D01*
X160853713Y-98810500D01*
X160853714Y-98810500D01*
X161066286Y-98810500D01*
X161066287Y-98810500D01*
X161276243Y-98777246D01*
X161478412Y-98711557D01*
X161667816Y-98615051D01*
X161839792Y-98490104D01*
X161839795Y-98490100D01*
X161839798Y-98490099D01*
X161990099Y-98339798D01*
X161990100Y-98339795D01*
X161990104Y-98339792D01*
X162115051Y-98167816D01*
X162186341Y-98027900D01*
X162214858Y-98003544D01*
X162252245Y-98006487D01*
X162273659Y-98027901D01*
X162344947Y-98167813D01*
X162344952Y-98167821D01*
X162394893Y-98236559D01*
X162440146Y-98298845D01*
X162469897Y-98339793D01*
X162469901Y-98339798D01*
X162620202Y-98490099D01*
X162620206Y-98490102D01*
X162620208Y-98490104D01*
X162792184Y-98615051D01*
X162981588Y-98711557D01*
X163183757Y-98777246D01*
X163393713Y-98810500D01*
X163393714Y-98810500D01*
X163606286Y-98810500D01*
X163606287Y-98810500D01*
X163816243Y-98777246D01*
X164018412Y-98711557D01*
X164207816Y-98615051D01*
X164379792Y-98490104D01*
X164379795Y-98490100D01*
X164379798Y-98490099D01*
X164530099Y-98339798D01*
X164530100Y-98339795D01*
X164530104Y-98339792D01*
X164655051Y-98167816D01*
X164751557Y-97978412D01*
X164817246Y-97776243D01*
X164850500Y-97566287D01*
X164850500Y-97353713D01*
X164817246Y-97143757D01*
X164751557Y-96941588D01*
X164655051Y-96752184D01*
X164530104Y-96580208D01*
X164530102Y-96580206D01*
X164530099Y-96580202D01*
X164379798Y-96429901D01*
X164379793Y-96429897D01*
X164362515Y-96417344D01*
X164327894Y-96392190D01*
X164207821Y-96304952D01*
X164207813Y-96304947D01*
X164018413Y-96208443D01*
X163816243Y-96142754D01*
X163816240Y-96142753D01*
X163654957Y-96117208D01*
X163606287Y-96109500D01*
X163393713Y-96109500D01*
X163354202Y-96115757D01*
X163183759Y-96142753D01*
X163183756Y-96142754D01*
X162981586Y-96208443D01*
X162792186Y-96304947D01*
X162792178Y-96304952D01*
X162620206Y-96429897D01*
X162469897Y-96580206D01*
X162344952Y-96752178D01*
X162344950Y-96752181D01*
X162273659Y-96892099D01*
X162245142Y-96916455D01*
X162207754Y-96913512D01*
X162186341Y-96892099D01*
X162115049Y-96752181D01*
X162115047Y-96752178D01*
X162045502Y-96656458D01*
X161990104Y-96580208D01*
X161990102Y-96580206D01*
X161990099Y-96580202D01*
X161839798Y-96429901D01*
X161839793Y-96429897D01*
X161822515Y-96417344D01*
X161787894Y-96392190D01*
X161667821Y-96304952D01*
X161667813Y-96304947D01*
X161478413Y-96208443D01*
X161276243Y-96142754D01*
X161276240Y-96142753D01*
X161114957Y-96117208D01*
X161066287Y-96109500D01*
X160853713Y-96109500D01*
X160814202Y-96115757D01*
X160643759Y-96142753D01*
X160643756Y-96142754D01*
X160441586Y-96208443D01*
X160252186Y-96304947D01*
X160252178Y-96304952D01*
X160080206Y-96429897D01*
X159929897Y-96580206D01*
X159804952Y-96752178D01*
X159804950Y-96752181D01*
X159733659Y-96892099D01*
X159705142Y-96916455D01*
X159667754Y-96913512D01*
X159646341Y-96892099D01*
X159575049Y-96752181D01*
X159575047Y-96752178D01*
X159505502Y-96656458D01*
X159450104Y-96580208D01*
X159450102Y-96580206D01*
X159450099Y-96580202D01*
X159299798Y-96429901D01*
X159299793Y-96429897D01*
X159282515Y-96417344D01*
X159247894Y-96392190D01*
X159127821Y-96304952D01*
X159127813Y-96304947D01*
X158938413Y-96208443D01*
X158736243Y-96142754D01*
X158736240Y-96142753D01*
X158574957Y-96117208D01*
X158526287Y-96109500D01*
X158313713Y-96109500D01*
X158274202Y-96115757D01*
X158103759Y-96142753D01*
X158103756Y-96142754D01*
X157901586Y-96208443D01*
X157712186Y-96304947D01*
X157712178Y-96304952D01*
X157540206Y-96429897D01*
X157389897Y-96580206D01*
X157264952Y-96752178D01*
X157264950Y-96752181D01*
X157193659Y-96892099D01*
X157165142Y-96916455D01*
X157127754Y-96913512D01*
X157106341Y-96892099D01*
X157035049Y-96752181D01*
X157035047Y-96752178D01*
X156965502Y-96656458D01*
X156910104Y-96580208D01*
X156910102Y-96580206D01*
X156910099Y-96580202D01*
X156759798Y-96429901D01*
X156759793Y-96429897D01*
X156742515Y-96417344D01*
X156707894Y-96392190D01*
X156587821Y-96304952D01*
X156587813Y-96304947D01*
X156398413Y-96208443D01*
X156196243Y-96142754D01*
X156196240Y-96142753D01*
X156034957Y-96117208D01*
X155986287Y-96109500D01*
X155773713Y-96109500D01*
X155734202Y-96115757D01*
X155563759Y-96142753D01*
X155563756Y-96142754D01*
X155361586Y-96208443D01*
X155172186Y-96304947D01*
X155172178Y-96304952D01*
X155000206Y-96429897D01*
X154849897Y-96580206D01*
X154724952Y-96752178D01*
X154724950Y-96752181D01*
X154653659Y-96892099D01*
X154625142Y-96916455D01*
X154587754Y-96913512D01*
X154566341Y-96892099D01*
X154495049Y-96752181D01*
X154495047Y-96752178D01*
X154425502Y-96656458D01*
X154370104Y-96580208D01*
X154370102Y-96580206D01*
X154370099Y-96580202D01*
X154219798Y-96429901D01*
X154219793Y-96429897D01*
X154202515Y-96417344D01*
X154167894Y-96392190D01*
X154047821Y-96304952D01*
X154047813Y-96304947D01*
X153858413Y-96208443D01*
X153656243Y-96142754D01*
X153656240Y-96142753D01*
X153494957Y-96117208D01*
X153446287Y-96109500D01*
X153233713Y-96109500D01*
X153194202Y-96115757D01*
X153023759Y-96142753D01*
X153023756Y-96142754D01*
X152821586Y-96208443D01*
X152632186Y-96304947D01*
X152632178Y-96304952D01*
X152460206Y-96429897D01*
X152309897Y-96580206D01*
X152239141Y-96677594D01*
X152207164Y-96697190D01*
X152170698Y-96688435D01*
X152151102Y-96656458D01*
X152150499Y-96648793D01*
X152150499Y-96562120D01*
X152144092Y-96502521D01*
X152144091Y-96502517D01*
X152093796Y-96367669D01*
X152007546Y-96252454D01*
X151904057Y-96174982D01*
X151892333Y-96166205D01*
X151892331Y-96166204D01*
X151847381Y-96149439D01*
X151757479Y-96115907D01*
X151697879Y-96109500D01*
X149902120Y-96109500D01*
X149842521Y-96115907D01*
X149707666Y-96166205D01*
X149592454Y-96252454D01*
X149506205Y-96367666D01*
X149455907Y-96502520D01*
X149449500Y-96562120D01*
X146732017Y-96562120D01*
X146599798Y-96429901D01*
X146599793Y-96429897D01*
X146582515Y-96417344D01*
X146547894Y-96392190D01*
X146427821Y-96304952D01*
X146427813Y-96304947D01*
X146238413Y-96208443D01*
X146036243Y-96142754D01*
X146036240Y-96142753D01*
X145874957Y-96117208D01*
X145826287Y-96109500D01*
X145613713Y-96109500D01*
X145574202Y-96115757D01*
X145403759Y-96142753D01*
X145403756Y-96142754D01*
X145201586Y-96208443D01*
X145012186Y-96304947D01*
X145012178Y-96304952D01*
X144840206Y-96429897D01*
X144689897Y-96580206D01*
X144564952Y-96752178D01*
X144564947Y-96752186D01*
X144468443Y-96941586D01*
X144402754Y-97143756D01*
X144402753Y-97143759D01*
X144369500Y-97353713D01*
X139450500Y-97353713D01*
X139417246Y-97143757D01*
X139351557Y-96941588D01*
X139255051Y-96752184D01*
X139130104Y-96580208D01*
X139130102Y-96580206D01*
X139130099Y-96580202D01*
X138979798Y-96429901D01*
X138979793Y-96429897D01*
X138962515Y-96417344D01*
X138927894Y-96392190D01*
X138807821Y-96304952D01*
X138807813Y-96304947D01*
X138618413Y-96208443D01*
X138416243Y-96142754D01*
X138416240Y-96142753D01*
X138254957Y-96117208D01*
X138206287Y-96109500D01*
X137993713Y-96109500D01*
X137954202Y-96115757D01*
X137783759Y-96142753D01*
X137783756Y-96142754D01*
X137581586Y-96208443D01*
X137392186Y-96304947D01*
X137392178Y-96304952D01*
X137220206Y-96429897D01*
X137069897Y-96580206D01*
X136944952Y-96752178D01*
X136944950Y-96752181D01*
X136873659Y-96892099D01*
X136845142Y-96916455D01*
X136807754Y-96913512D01*
X136786341Y-96892099D01*
X136715049Y-96752181D01*
X136715047Y-96752178D01*
X136645502Y-96656458D01*
X136590104Y-96580208D01*
X136590102Y-96580206D01*
X136590099Y-96580202D01*
X136574852Y-96564955D01*
X136560500Y-96530307D01*
X136560500Y-79623959D01*
X136560499Y-79623955D01*
X136522052Y-79430672D01*
X136522051Y-79430665D01*
X136446632Y-79248586D01*
X136337139Y-79084718D01*
X136196568Y-78944146D01*
X136196537Y-78944117D01*
X135387780Y-78135360D01*
X135333649Y-78099191D01*
X135223914Y-78025869D01*
X135223911Y-78025867D01*
X135223910Y-78025867D01*
X135041839Y-77950450D01*
X135041837Y-77950449D01*
X135041836Y-77950449D01*
X135041833Y-77950448D01*
X135041824Y-77950446D01*
X134848545Y-77912000D01*
X134848540Y-77912000D01*
X134651460Y-77912000D01*
X134651454Y-77912000D01*
X134458175Y-77950446D01*
X134458160Y-77950450D01*
X134276089Y-78025867D01*
X134112219Y-78135360D01*
X133972860Y-78274719D01*
X133863367Y-78438589D01*
X133787950Y-78620660D01*
X133787946Y-78620675D01*
X133749500Y-78813954D01*
X133749500Y-79011045D01*
X133787946Y-79204324D01*
X133787948Y-79204333D01*
X133787949Y-79204336D01*
X133863369Y-79386414D01*
X133936691Y-79496149D01*
X133972860Y-79550280D01*
X134545148Y-80122568D01*
X134559500Y-80157216D01*
X134559500Y-96530307D01*
X134545148Y-96564955D01*
X134529897Y-96580206D01*
X134404952Y-96752178D01*
X134404950Y-96752181D01*
X134333659Y-96892099D01*
X134305142Y-96916455D01*
X134267754Y-96913512D01*
X134246341Y-96892099D01*
X134175049Y-96752181D01*
X134175047Y-96752178D01*
X134105502Y-96656458D01*
X134050104Y-96580208D01*
X134050102Y-96580206D01*
X134050099Y-96580202D01*
X133899798Y-96429901D01*
X133899793Y-96429897D01*
X133882515Y-96417344D01*
X133847894Y-96392190D01*
X133727821Y-96304952D01*
X133727813Y-96304947D01*
X133538413Y-96208443D01*
X133336243Y-96142754D01*
X133336240Y-96142753D01*
X133174957Y-96117208D01*
X133126287Y-96109500D01*
X132913713Y-96109500D01*
X132874202Y-96115757D01*
X132703759Y-96142753D01*
X132703756Y-96142754D01*
X132501586Y-96208443D01*
X132312186Y-96304947D01*
X132312178Y-96304952D01*
X132140206Y-96429897D01*
X131989897Y-96580206D01*
X131864952Y-96752178D01*
X131864950Y-96752181D01*
X131793659Y-96892099D01*
X131765142Y-96916455D01*
X131727754Y-96913512D01*
X131706341Y-96892099D01*
X131635049Y-96752181D01*
X131635047Y-96752178D01*
X131565502Y-96656458D01*
X131510104Y-96580208D01*
X131510102Y-96580206D01*
X131510099Y-96580202D01*
X131359798Y-96429901D01*
X131359793Y-96429897D01*
X131342515Y-96417344D01*
X131307894Y-96392190D01*
X131187821Y-96304952D01*
X131187813Y-96304947D01*
X130998413Y-96208443D01*
X130796243Y-96142754D01*
X130796240Y-96142753D01*
X130634957Y-96117208D01*
X130586287Y-96109500D01*
X130373713Y-96109500D01*
X130334202Y-96115757D01*
X130163759Y-96142753D01*
X130163756Y-96142754D01*
X129961586Y-96208443D01*
X129772186Y-96304947D01*
X129772178Y-96304952D01*
X129600206Y-96429897D01*
X129449897Y-96580206D01*
X129379141Y-96677594D01*
X129347164Y-96697190D01*
X129310698Y-96688435D01*
X129291102Y-96656458D01*
X129290499Y-96648793D01*
X129290499Y-96562120D01*
X129284092Y-96502521D01*
X129284091Y-96502517D01*
X129233796Y-96367669D01*
X129147546Y-96252454D01*
X129044057Y-96174982D01*
X129032333Y-96166205D01*
X129032331Y-96166204D01*
X128987381Y-96149439D01*
X128897479Y-96115907D01*
X128837879Y-96109500D01*
X127042120Y-96109500D01*
X126982521Y-96115907D01*
X126847666Y-96166205D01*
X126732454Y-96252454D01*
X126646205Y-96367666D01*
X126595907Y-96502520D01*
X126589500Y-96562120D01*
X115295979Y-96562120D01*
X115190793Y-96417344D01*
X115190791Y-96417342D01*
X115190788Y-96417338D01*
X115012662Y-96239212D01*
X115012657Y-96239208D01*
X114924257Y-96174982D01*
X114808845Y-96091130D01*
X114808844Y-96091129D01*
X114808842Y-96091128D01*
X114584380Y-95976759D01*
X114344785Y-95898910D01*
X114344782Y-95898909D01*
X114153642Y-95868635D01*
X114095962Y-95859500D01*
X113844038Y-95859500D01*
X113797212Y-95866916D01*
X113595217Y-95898909D01*
X113595214Y-95898910D01*
X113355619Y-95976759D01*
X113131157Y-96091128D01*
X112927342Y-96239208D01*
X112749208Y-96417342D01*
X112601128Y-96621157D01*
X112486759Y-96845619D01*
X112408910Y-97085214D01*
X112408909Y-97085217D01*
X112369500Y-97334038D01*
X100075500Y-97334038D01*
X100075500Y-52348995D01*
X137994500Y-52348995D01*
X137994500Y-94151002D01*
X138000720Y-94230055D01*
X138000720Y-94230060D01*
X138000722Y-94230070D01*
X138005567Y-94260663D01*
X138017438Y-94307175D01*
X138028744Y-94351469D01*
X138095881Y-94478710D01*
X138095882Y-94478711D01*
X138095884Y-94478714D01*
X138095887Y-94478719D01*
X138131851Y-94528219D01*
X138149482Y-94551083D01*
X138255486Y-94648371D01*
X138384604Y-94711853D01*
X138442795Y-94730760D01*
X138442821Y-94730768D01*
X138442824Y-94730769D01*
X138456576Y-94735022D01*
X138456579Y-94735022D01*
X138456584Y-94735024D01*
X138599000Y-94755500D01*
X138599004Y-94755500D01*
X162150989Y-94755500D01*
X162151000Y-94755500D01*
X162230057Y-94749279D01*
X162230060Y-94749279D01*
X162230062Y-94749278D01*
X162230070Y-94749278D01*
X162260663Y-94744433D01*
X162351467Y-94721257D01*
X162478719Y-94654113D01*
X162528219Y-94618149D01*
X162551083Y-94600518D01*
X162648371Y-94494514D01*
X162711853Y-94365396D01*
X162730760Y-94307205D01*
X162735024Y-94293416D01*
X162755500Y-94151000D01*
X162755500Y-92254038D01*
X164439500Y-92254038D01*
X164439500Y-92505961D01*
X164478909Y-92754782D01*
X164478910Y-92754785D01*
X164556759Y-92994380D01*
X164671128Y-93218842D01*
X164819208Y-93422657D01*
X164819212Y-93422662D01*
X164997338Y-93600788D01*
X164997342Y-93600791D01*
X164997344Y-93600793D01*
X165201155Y-93748870D01*
X165425621Y-93863241D01*
X165665215Y-93941090D01*
X165914038Y-93980500D01*
X165914039Y-93980500D01*
X166165961Y-93980500D01*
X166165962Y-93980500D01*
X166414785Y-93941090D01*
X166654379Y-93863241D01*
X166878845Y-93748870D01*
X167082656Y-93600793D01*
X167082659Y-93600789D01*
X167082662Y-93600788D01*
X167260788Y-93422662D01*
X167260789Y-93422659D01*
X167260793Y-93422656D01*
X167408870Y-93218845D01*
X167523241Y-92994379D01*
X167601090Y-92754785D01*
X167640500Y-92505962D01*
X167640500Y-92254038D01*
X167601090Y-92005215D01*
X167523241Y-91765621D01*
X167408870Y-91541155D01*
X167260793Y-91337344D01*
X167260791Y-91337342D01*
X167260788Y-91337338D01*
X167082662Y-91159212D01*
X167082657Y-91159208D01*
X166878842Y-91011128D01*
X166654380Y-90896759D01*
X166414785Y-90818910D01*
X166414782Y-90818909D01*
X166223642Y-90788635D01*
X166165962Y-90779500D01*
X165914038Y-90779500D01*
X165867212Y-90786916D01*
X165665217Y-90818909D01*
X165665214Y-90818910D01*
X165425619Y-90896759D01*
X165201157Y-91011128D01*
X164997342Y-91159208D01*
X164819208Y-91337342D01*
X164671128Y-91541157D01*
X164556759Y-91765619D01*
X164478910Y-92005214D01*
X164478909Y-92005217D01*
X164439500Y-92254038D01*
X162755500Y-92254038D01*
X162755500Y-64314038D01*
X164439500Y-64314038D01*
X164439500Y-64565961D01*
X164478909Y-64814782D01*
X164478910Y-64814785D01*
X164556759Y-65054380D01*
X164671128Y-65278842D01*
X164819208Y-65482657D01*
X164819212Y-65482662D01*
X164997338Y-65660788D01*
X164997342Y-65660791D01*
X164997344Y-65660793D01*
X165201155Y-65808870D01*
X165425621Y-65923241D01*
X165665215Y-66001090D01*
X165914038Y-66040500D01*
X165914039Y-66040500D01*
X166165961Y-66040500D01*
X166165962Y-66040500D01*
X166414785Y-66001090D01*
X166654379Y-65923241D01*
X166878845Y-65808870D01*
X167082656Y-65660793D01*
X167082659Y-65660789D01*
X167082662Y-65660788D01*
X167260788Y-65482662D01*
X167260789Y-65482659D01*
X167260793Y-65482656D01*
X167408870Y-65278845D01*
X167523241Y-65054379D01*
X167601090Y-64814785D01*
X167640500Y-64565962D01*
X167640500Y-64314038D01*
X167601090Y-64065215D01*
X167523241Y-63825621D01*
X167408870Y-63601155D01*
X167260793Y-63397344D01*
X167260791Y-63397342D01*
X167260788Y-63397338D01*
X167082662Y-63219212D01*
X167082657Y-63219208D01*
X166878842Y-63071128D01*
X166654380Y-62956759D01*
X166414785Y-62878910D01*
X166414782Y-62878909D01*
X166223642Y-62848635D01*
X166165962Y-62839500D01*
X165914038Y-62839500D01*
X165867212Y-62846916D01*
X165665217Y-62878909D01*
X165665214Y-62878910D01*
X165425619Y-62956759D01*
X165201157Y-63071128D01*
X164997342Y-63219208D01*
X164819208Y-63397342D01*
X164671128Y-63601157D01*
X164556759Y-63825619D01*
X164478910Y-64065214D01*
X164478909Y-64065217D01*
X164439500Y-64314038D01*
X162755500Y-64314038D01*
X162755500Y-52349000D01*
X162749278Y-52269930D01*
X162744433Y-52239337D01*
X162721257Y-52148533D01*
X162697841Y-52104155D01*
X162654118Y-52021289D01*
X162654117Y-52021288D01*
X162654115Y-52021286D01*
X162654113Y-52021281D01*
X162618149Y-51971781D01*
X162600518Y-51948917D01*
X162494514Y-51851629D01*
X162365396Y-51788147D01*
X162332640Y-51777504D01*
X162307175Y-51769230D01*
X162293423Y-51764977D01*
X162293412Y-51764975D01*
X162151004Y-51744500D01*
X162151000Y-51744500D01*
X138599000Y-51744500D01*
X138598997Y-51744500D01*
X138519944Y-51750720D01*
X138519939Y-51750720D01*
X138489341Y-51755566D01*
X138489337Y-51755567D01*
X138398533Y-51778743D01*
X138398532Y-51778743D01*
X138398530Y-51778744D01*
X138271289Y-51845881D01*
X138271288Y-51845882D01*
X138221768Y-51881860D01*
X138198918Y-51899481D01*
X138198914Y-51899485D01*
X138101629Y-52005485D01*
X138038147Y-52134604D01*
X138019230Y-52192824D01*
X138014977Y-52206576D01*
X138014975Y-52206587D01*
X137994500Y-52348995D01*
X100075500Y-52348995D01*
X100075500Y-49074038D01*
X113639500Y-49074038D01*
X113639500Y-49325961D01*
X113678909Y-49574782D01*
X113678910Y-49574785D01*
X113756759Y-49814380D01*
X113857048Y-50011208D01*
X113871130Y-50038845D01*
X114010087Y-50230104D01*
X114019208Y-50242657D01*
X114019212Y-50242662D01*
X114197338Y-50420788D01*
X114197342Y-50420791D01*
X114197344Y-50420793D01*
X114401155Y-50568870D01*
X114625621Y-50683241D01*
X114865215Y-50761090D01*
X115114038Y-50800500D01*
X115114039Y-50800500D01*
X115365961Y-50800500D01*
X115365962Y-50800500D01*
X115614785Y-50761090D01*
X115854379Y-50683241D01*
X116078845Y-50568870D01*
X116282656Y-50420793D01*
X116282659Y-50420789D01*
X116282662Y-50420788D01*
X116460788Y-50242662D01*
X116460789Y-50242659D01*
X116460793Y-50242656D01*
X116608870Y-50038845D01*
X116723241Y-49814379D01*
X116801090Y-49574785D01*
X116840500Y-49325962D01*
X116840500Y-49074038D01*
X116801090Y-48825215D01*
X116723241Y-48585621D01*
X116608870Y-48361155D01*
X116565979Y-48302120D01*
X117445500Y-48302120D01*
X117445500Y-50097879D01*
X117451907Y-50157478D01*
X117451909Y-50157483D01*
X117502204Y-50292331D01*
X117588454Y-50407546D01*
X117703669Y-50493796D01*
X117838517Y-50544091D01*
X117838520Y-50544092D01*
X117882177Y-50548785D01*
X117898127Y-50550500D01*
X119693872Y-50550499D01*
X119693878Y-50550499D01*
X119753478Y-50544092D01*
X119753479Y-50544091D01*
X119753483Y-50544091D01*
X119888331Y-50493796D01*
X120003546Y-50407546D01*
X120089796Y-50292331D01*
X120140091Y-50157483D01*
X120140091Y-50157481D01*
X120140092Y-50157479D01*
X120146499Y-50097879D01*
X120146500Y-50097873D01*
X120146499Y-50011206D01*
X120160850Y-49976559D01*
X120195498Y-49962207D01*
X120230147Y-49976558D01*
X120235141Y-49982406D01*
X120305897Y-50079793D01*
X120305901Y-50079798D01*
X120456202Y-50230099D01*
X120456206Y-50230102D01*
X120456208Y-50230104D01*
X120628184Y-50355051D01*
X120817588Y-50451557D01*
X121019757Y-50517246D01*
X121229713Y-50550500D01*
X121229714Y-50550500D01*
X121442286Y-50550500D01*
X121442287Y-50550500D01*
X121652243Y-50517246D01*
X121854412Y-50451557D01*
X122043816Y-50355051D01*
X122215792Y-50230104D01*
X122215795Y-50230100D01*
X122215798Y-50230099D01*
X122366099Y-50079798D01*
X122366100Y-50079795D01*
X122366104Y-50079792D01*
X122491051Y-49907816D01*
X122562341Y-49767900D01*
X122590858Y-49743544D01*
X122628245Y-49746487D01*
X122649659Y-49767901D01*
X122720947Y-49907813D01*
X122720952Y-49907821D01*
X122770893Y-49976559D01*
X122816146Y-50038845D01*
X122845897Y-50079793D01*
X122845901Y-50079798D01*
X122996202Y-50230099D01*
X122996206Y-50230102D01*
X122996208Y-50230104D01*
X123168184Y-50355051D01*
X123357588Y-50451557D01*
X123559757Y-50517246D01*
X123769713Y-50550500D01*
X123769714Y-50550500D01*
X123982286Y-50550500D01*
X123982287Y-50550500D01*
X124192243Y-50517246D01*
X124394412Y-50451557D01*
X124583816Y-50355051D01*
X124755792Y-50230104D01*
X124755795Y-50230100D01*
X124755798Y-50230099D01*
X124906099Y-50079798D01*
X124906100Y-50079795D01*
X124906104Y-50079792D01*
X125031051Y-49907816D01*
X125127557Y-49718412D01*
X125193246Y-49516243D01*
X125226500Y-49306287D01*
X125226500Y-49093713D01*
X127605500Y-49093713D01*
X127605500Y-49306286D01*
X127638753Y-49516240D01*
X127638754Y-49516243D01*
X127704443Y-49718413D01*
X127800947Y-49907813D01*
X127800952Y-49907821D01*
X127850893Y-49976559D01*
X127896146Y-50038845D01*
X127925897Y-50079793D01*
X127925901Y-50079798D01*
X128076202Y-50230099D01*
X128076206Y-50230102D01*
X128076208Y-50230104D01*
X128248184Y-50355051D01*
X128437588Y-50451557D01*
X128639757Y-50517246D01*
X128849713Y-50550500D01*
X128849714Y-50550500D01*
X129062286Y-50550500D01*
X129062287Y-50550500D01*
X129272243Y-50517246D01*
X129474412Y-50451557D01*
X129663816Y-50355051D01*
X129835792Y-50230104D01*
X129835795Y-50230100D01*
X129835798Y-50230099D01*
X129986099Y-50079798D01*
X129986100Y-50079795D01*
X129986104Y-50079792D01*
X130111051Y-49907816D01*
X130182341Y-49767900D01*
X130210858Y-49743544D01*
X130248245Y-49746487D01*
X130269659Y-49767901D01*
X130340947Y-49907813D01*
X130340952Y-49907821D01*
X130390893Y-49976559D01*
X130436146Y-50038845D01*
X130465897Y-50079793D01*
X130465901Y-50079798D01*
X130616202Y-50230099D01*
X130616206Y-50230102D01*
X130616208Y-50230104D01*
X130788184Y-50355051D01*
X130977588Y-50451557D01*
X131179757Y-50517246D01*
X131389713Y-50550500D01*
X131389714Y-50550500D01*
X131602286Y-50550500D01*
X131602287Y-50550500D01*
X131812243Y-50517246D01*
X132014412Y-50451557D01*
X132203816Y-50355051D01*
X132375792Y-50230104D01*
X132375795Y-50230100D01*
X132375798Y-50230099D01*
X132526099Y-50079798D01*
X132526100Y-50079795D01*
X132526104Y-50079792D01*
X132651051Y-49907816D01*
X132722341Y-49767900D01*
X132750858Y-49743544D01*
X132788245Y-49746487D01*
X132809659Y-49767901D01*
X132880947Y-49907813D01*
X132880952Y-49907821D01*
X132930893Y-49976559D01*
X132976146Y-50038845D01*
X133005897Y-50079793D01*
X133005901Y-50079798D01*
X133156202Y-50230099D01*
X133156206Y-50230102D01*
X133156208Y-50230104D01*
X133328184Y-50355051D01*
X133517588Y-50451557D01*
X133719757Y-50517246D01*
X133929713Y-50550500D01*
X133929714Y-50550500D01*
X134142286Y-50550500D01*
X134142287Y-50550500D01*
X134352243Y-50517246D01*
X134554412Y-50451557D01*
X134743816Y-50355051D01*
X134915792Y-50230104D01*
X134915795Y-50230100D01*
X134915798Y-50230099D01*
X135066099Y-50079798D01*
X135066100Y-50079795D01*
X135066104Y-50079792D01*
X135191051Y-49907816D01*
X135262341Y-49767900D01*
X135290858Y-49743544D01*
X135328245Y-49746487D01*
X135349659Y-49767901D01*
X135420947Y-49907813D01*
X135420952Y-49907821D01*
X135470893Y-49976559D01*
X135516146Y-50038845D01*
X135545897Y-50079793D01*
X135545901Y-50079798D01*
X135696202Y-50230099D01*
X135696206Y-50230102D01*
X135696208Y-50230104D01*
X135868184Y-50355051D01*
X136057588Y-50451557D01*
X136259757Y-50517246D01*
X136469713Y-50550500D01*
X136469714Y-50550500D01*
X136682286Y-50550500D01*
X136682287Y-50550500D01*
X136892243Y-50517246D01*
X137094412Y-50451557D01*
X137283816Y-50355051D01*
X137455792Y-50230104D01*
X137455795Y-50230100D01*
X137455798Y-50230099D01*
X137606099Y-50079798D01*
X137606100Y-50079795D01*
X137606104Y-50079792D01*
X137731051Y-49907816D01*
X137802341Y-49767900D01*
X137830858Y-49743544D01*
X137868245Y-49746487D01*
X137889659Y-49767901D01*
X137960947Y-49907813D01*
X137960952Y-49907821D01*
X138010893Y-49976559D01*
X138056146Y-50038845D01*
X138085897Y-50079793D01*
X138085901Y-50079798D01*
X138236202Y-50230099D01*
X138236206Y-50230102D01*
X138236208Y-50230104D01*
X138408184Y-50355051D01*
X138597588Y-50451557D01*
X138799757Y-50517246D01*
X139009713Y-50550500D01*
X139009714Y-50550500D01*
X139222286Y-50550500D01*
X139222287Y-50550500D01*
X139432243Y-50517246D01*
X139634412Y-50451557D01*
X139823816Y-50355051D01*
X139995792Y-50230104D01*
X139995795Y-50230100D01*
X139995798Y-50230099D01*
X140146099Y-50079798D01*
X140146100Y-50079795D01*
X140146104Y-50079792D01*
X140271051Y-49907816D01*
X140342341Y-49767900D01*
X140370858Y-49743544D01*
X140408245Y-49746487D01*
X140429659Y-49767901D01*
X140500947Y-49907813D01*
X140500952Y-49907821D01*
X140550893Y-49976559D01*
X140596146Y-50038845D01*
X140625897Y-50079793D01*
X140625901Y-50079798D01*
X140776202Y-50230099D01*
X140776206Y-50230102D01*
X140776208Y-50230104D01*
X140948184Y-50355051D01*
X141137588Y-50451557D01*
X141339757Y-50517246D01*
X141549713Y-50550500D01*
X141549714Y-50550500D01*
X141762286Y-50550500D01*
X141762287Y-50550500D01*
X141972243Y-50517246D01*
X142174412Y-50451557D01*
X142363816Y-50355051D01*
X142535792Y-50230104D01*
X142535795Y-50230100D01*
X142535798Y-50230099D01*
X142686099Y-50079798D01*
X142686100Y-50079795D01*
X142686104Y-50079792D01*
X142811051Y-49907816D01*
X142907557Y-49718412D01*
X142973246Y-49516243D01*
X143006500Y-49306287D01*
X143006500Y-49093713D01*
X142973246Y-48883757D01*
X142907557Y-48681588D01*
X142811051Y-48492184D01*
X142686104Y-48320208D01*
X142686102Y-48320206D01*
X142686099Y-48320202D01*
X142668017Y-48302120D01*
X144369500Y-48302120D01*
X144369500Y-50097879D01*
X144375907Y-50157478D01*
X144375909Y-50157483D01*
X144426204Y-50292331D01*
X144512454Y-50407546D01*
X144627669Y-50493796D01*
X144762517Y-50544091D01*
X144762520Y-50544092D01*
X144806177Y-50548785D01*
X144822127Y-50550500D01*
X146617872Y-50550499D01*
X146617878Y-50550499D01*
X146677478Y-50544092D01*
X146677479Y-50544091D01*
X146677483Y-50544091D01*
X146812331Y-50493796D01*
X146927546Y-50407546D01*
X147013796Y-50292331D01*
X147064091Y-50157483D01*
X147064091Y-50157481D01*
X147064092Y-50157479D01*
X147070499Y-50097879D01*
X147070500Y-50097873D01*
X147070499Y-50011206D01*
X147084850Y-49976559D01*
X147119498Y-49962207D01*
X147154147Y-49976558D01*
X147159141Y-49982406D01*
X147229897Y-50079793D01*
X147229901Y-50079798D01*
X147380202Y-50230099D01*
X147380206Y-50230102D01*
X147380208Y-50230104D01*
X147552184Y-50355051D01*
X147741588Y-50451557D01*
X147943757Y-50517246D01*
X148153713Y-50550500D01*
X148153714Y-50550500D01*
X148366286Y-50550500D01*
X148366287Y-50550500D01*
X148576243Y-50517246D01*
X148778412Y-50451557D01*
X148967816Y-50355051D01*
X149139792Y-50230104D01*
X149139795Y-50230100D01*
X149139798Y-50230099D01*
X149290099Y-50079798D01*
X149290100Y-50079795D01*
X149290104Y-50079792D01*
X149415051Y-49907816D01*
X149486341Y-49767900D01*
X149514858Y-49743544D01*
X149552245Y-49746487D01*
X149573659Y-49767901D01*
X149644947Y-49907813D01*
X149644952Y-49907821D01*
X149694893Y-49976559D01*
X149740146Y-50038845D01*
X149769897Y-50079793D01*
X149769901Y-50079798D01*
X149920202Y-50230099D01*
X149920206Y-50230102D01*
X149920208Y-50230104D01*
X150092184Y-50355051D01*
X150281588Y-50451557D01*
X150483757Y-50517246D01*
X150693713Y-50550500D01*
X150693714Y-50550500D01*
X150906286Y-50550500D01*
X150906287Y-50550500D01*
X151116243Y-50517246D01*
X151318412Y-50451557D01*
X151507816Y-50355051D01*
X151679792Y-50230104D01*
X151679795Y-50230100D01*
X151679798Y-50230099D01*
X151830099Y-50079798D01*
X151830100Y-50079795D01*
X151830104Y-50079792D01*
X151955051Y-49907816D01*
X152026341Y-49767900D01*
X152054858Y-49743544D01*
X152092245Y-49746487D01*
X152113659Y-49767901D01*
X152184947Y-49907813D01*
X152184952Y-49907821D01*
X152234893Y-49976559D01*
X152280146Y-50038845D01*
X152309897Y-50079793D01*
X152309901Y-50079798D01*
X152460202Y-50230099D01*
X152460206Y-50230102D01*
X152460208Y-50230104D01*
X152632184Y-50355051D01*
X152821588Y-50451557D01*
X153023757Y-50517246D01*
X153233713Y-50550500D01*
X153233714Y-50550500D01*
X153446286Y-50550500D01*
X153446287Y-50550500D01*
X153656243Y-50517246D01*
X153858412Y-50451557D01*
X154047816Y-50355051D01*
X154219792Y-50230104D01*
X154219795Y-50230100D01*
X154219798Y-50230099D01*
X154370099Y-50079798D01*
X154370100Y-50079795D01*
X154370104Y-50079792D01*
X154495051Y-49907816D01*
X154566341Y-49767900D01*
X154594858Y-49743544D01*
X154632245Y-49746487D01*
X154653659Y-49767901D01*
X154724947Y-49907813D01*
X154724952Y-49907821D01*
X154774893Y-49976559D01*
X154820146Y-50038845D01*
X154849897Y-50079793D01*
X154849901Y-50079798D01*
X155000202Y-50230099D01*
X155000206Y-50230102D01*
X155000208Y-50230104D01*
X155172184Y-50355051D01*
X155361588Y-50451557D01*
X155563757Y-50517246D01*
X155773713Y-50550500D01*
X155773714Y-50550500D01*
X155986286Y-50550500D01*
X155986287Y-50550500D01*
X156196243Y-50517246D01*
X156398412Y-50451557D01*
X156587816Y-50355051D01*
X156759792Y-50230104D01*
X156759795Y-50230100D01*
X156759798Y-50230099D01*
X156910099Y-50079798D01*
X156910100Y-50079795D01*
X156910104Y-50079792D01*
X157035051Y-49907816D01*
X157106341Y-49767900D01*
X157134858Y-49743544D01*
X157172245Y-49746487D01*
X157193659Y-49767901D01*
X157264947Y-49907813D01*
X157264952Y-49907821D01*
X157314893Y-49976559D01*
X157360146Y-50038845D01*
X157389897Y-50079793D01*
X157389901Y-50079798D01*
X157540202Y-50230099D01*
X157540206Y-50230102D01*
X157540208Y-50230104D01*
X157712184Y-50355051D01*
X157901588Y-50451557D01*
X158103757Y-50517246D01*
X158313713Y-50550500D01*
X158313714Y-50550500D01*
X158526286Y-50550500D01*
X158526287Y-50550500D01*
X158736243Y-50517246D01*
X158938412Y-50451557D01*
X159127816Y-50355051D01*
X159299792Y-50230104D01*
X159299795Y-50230100D01*
X159299798Y-50230099D01*
X159450099Y-50079798D01*
X159450100Y-50079795D01*
X159450104Y-50079792D01*
X159575051Y-49907816D01*
X159646341Y-49767900D01*
X159674858Y-49743544D01*
X159712245Y-49746487D01*
X159733659Y-49767901D01*
X159804947Y-49907813D01*
X159804952Y-49907821D01*
X159854893Y-49976559D01*
X159900146Y-50038845D01*
X159929897Y-50079793D01*
X159929901Y-50079798D01*
X160080202Y-50230099D01*
X160080206Y-50230102D01*
X160080208Y-50230104D01*
X160252184Y-50355051D01*
X160441588Y-50451557D01*
X160643757Y-50517246D01*
X160853713Y-50550500D01*
X160853714Y-50550500D01*
X161066286Y-50550500D01*
X161066287Y-50550500D01*
X161276243Y-50517246D01*
X161478412Y-50451557D01*
X161667816Y-50355051D01*
X161839792Y-50230104D01*
X161839795Y-50230100D01*
X161839798Y-50230099D01*
X161990099Y-50079798D01*
X161990100Y-50079795D01*
X161990104Y-50079792D01*
X162115051Y-49907816D01*
X162186341Y-49767900D01*
X162214858Y-49743544D01*
X162252245Y-49746487D01*
X162273659Y-49767901D01*
X162344947Y-49907813D01*
X162344952Y-49907821D01*
X162394893Y-49976559D01*
X162440146Y-50038845D01*
X162469897Y-50079793D01*
X162469901Y-50079798D01*
X162620202Y-50230099D01*
X162620206Y-50230102D01*
X162620208Y-50230104D01*
X162792184Y-50355051D01*
X162981588Y-50451557D01*
X163183757Y-50517246D01*
X163393713Y-50550500D01*
X163393714Y-50550500D01*
X163606286Y-50550500D01*
X163606287Y-50550500D01*
X163816243Y-50517246D01*
X164018412Y-50451557D01*
X164207816Y-50355051D01*
X164379792Y-50230104D01*
X164379795Y-50230100D01*
X164379798Y-50230099D01*
X164530099Y-50079798D01*
X164530100Y-50079795D01*
X164530104Y-50079792D01*
X164655051Y-49907816D01*
X164751557Y-49718412D01*
X164817246Y-49516243D01*
X164850500Y-49306287D01*
X164850500Y-49093713D01*
X164817246Y-48883757D01*
X164751557Y-48681588D01*
X164655051Y-48492184D01*
X164530104Y-48320208D01*
X164530102Y-48320206D01*
X164530099Y-48320202D01*
X164379798Y-48169901D01*
X164379793Y-48169897D01*
X164362515Y-48157344D01*
X164327894Y-48132190D01*
X164207821Y-48044952D01*
X164207813Y-48044947D01*
X164018413Y-47948443D01*
X163816243Y-47882754D01*
X163816240Y-47882753D01*
X163654957Y-47857208D01*
X163606287Y-47849500D01*
X163393713Y-47849500D01*
X163354202Y-47855757D01*
X163183759Y-47882753D01*
X163183756Y-47882754D01*
X162981586Y-47948443D01*
X162792186Y-48044947D01*
X162792178Y-48044952D01*
X162620206Y-48169897D01*
X162469897Y-48320206D01*
X162344952Y-48492178D01*
X162344950Y-48492181D01*
X162273659Y-48632099D01*
X162245142Y-48656455D01*
X162207754Y-48653512D01*
X162186341Y-48632099D01*
X162115049Y-48492181D01*
X162115047Y-48492178D01*
X162045502Y-48396458D01*
X161990104Y-48320208D01*
X161990102Y-48320206D01*
X161990099Y-48320202D01*
X161839798Y-48169901D01*
X161839793Y-48169897D01*
X161822515Y-48157344D01*
X161787894Y-48132190D01*
X161667821Y-48044952D01*
X161667813Y-48044947D01*
X161478413Y-47948443D01*
X161276243Y-47882754D01*
X161276240Y-47882753D01*
X161114957Y-47857208D01*
X161066287Y-47849500D01*
X160853713Y-47849500D01*
X160814202Y-47855757D01*
X160643759Y-47882753D01*
X160643756Y-47882754D01*
X160441586Y-47948443D01*
X160252186Y-48044947D01*
X160252178Y-48044952D01*
X160080206Y-48169897D01*
X159929897Y-48320206D01*
X159804952Y-48492178D01*
X159804950Y-48492181D01*
X159733659Y-48632099D01*
X159705142Y-48656455D01*
X159667754Y-48653512D01*
X159646341Y-48632099D01*
X159575049Y-48492181D01*
X159575047Y-48492178D01*
X159505502Y-48396458D01*
X159450104Y-48320208D01*
X159450102Y-48320206D01*
X159450099Y-48320202D01*
X159299798Y-48169901D01*
X159299793Y-48169897D01*
X159282515Y-48157344D01*
X159247894Y-48132190D01*
X159127821Y-48044952D01*
X159127813Y-48044947D01*
X158938413Y-47948443D01*
X158736243Y-47882754D01*
X158736240Y-47882753D01*
X158574957Y-47857208D01*
X158526287Y-47849500D01*
X158313713Y-47849500D01*
X158274202Y-47855757D01*
X158103759Y-47882753D01*
X158103756Y-47882754D01*
X157901586Y-47948443D01*
X157712186Y-48044947D01*
X157712178Y-48044952D01*
X157540206Y-48169897D01*
X157389897Y-48320206D01*
X157264952Y-48492178D01*
X157264950Y-48492181D01*
X157193659Y-48632099D01*
X157165142Y-48656455D01*
X157127754Y-48653512D01*
X157106341Y-48632099D01*
X157035049Y-48492181D01*
X157035047Y-48492178D01*
X156965502Y-48396458D01*
X156910104Y-48320208D01*
X156910102Y-48320206D01*
X156910099Y-48320202D01*
X156759798Y-48169901D01*
X156759793Y-48169897D01*
X156742515Y-48157344D01*
X156707894Y-48132190D01*
X156587821Y-48044952D01*
X156587813Y-48044947D01*
X156398413Y-47948443D01*
X156196243Y-47882754D01*
X156196240Y-47882753D01*
X156034957Y-47857208D01*
X155986287Y-47849500D01*
X155773713Y-47849500D01*
X155734202Y-47855757D01*
X155563759Y-47882753D01*
X155563756Y-47882754D01*
X155361586Y-47948443D01*
X155172186Y-48044947D01*
X155172178Y-48044952D01*
X155000206Y-48169897D01*
X154849897Y-48320206D01*
X154724952Y-48492178D01*
X154724950Y-48492181D01*
X154653659Y-48632099D01*
X154625142Y-48656455D01*
X154587754Y-48653512D01*
X154566341Y-48632099D01*
X154495049Y-48492181D01*
X154495047Y-48492178D01*
X154425502Y-48396458D01*
X154370104Y-48320208D01*
X154370102Y-48320206D01*
X154370099Y-48320202D01*
X154219798Y-48169901D01*
X154219793Y-48169897D01*
X154202515Y-48157344D01*
X154167894Y-48132190D01*
X154047821Y-48044952D01*
X154047813Y-48044947D01*
X153858413Y-47948443D01*
X153656243Y-47882754D01*
X153656240Y-47882753D01*
X153494957Y-47857208D01*
X153446287Y-47849500D01*
X153233713Y-47849500D01*
X153194202Y-47855757D01*
X153023759Y-47882753D01*
X153023756Y-47882754D01*
X152821586Y-47948443D01*
X152632186Y-48044947D01*
X152632178Y-48044952D01*
X152460206Y-48169897D01*
X152309897Y-48320206D01*
X152184952Y-48492178D01*
X152184950Y-48492181D01*
X152113659Y-48632099D01*
X152085142Y-48656455D01*
X152047754Y-48653512D01*
X152026341Y-48632099D01*
X151955049Y-48492181D01*
X151955047Y-48492178D01*
X151885502Y-48396458D01*
X151830104Y-48320208D01*
X151830102Y-48320206D01*
X151830099Y-48320202D01*
X151679798Y-48169901D01*
X151679793Y-48169897D01*
X151662515Y-48157344D01*
X151627894Y-48132190D01*
X151507821Y-48044952D01*
X151507813Y-48044947D01*
X151318413Y-47948443D01*
X151116243Y-47882754D01*
X151116240Y-47882753D01*
X150954957Y-47857208D01*
X150906287Y-47849500D01*
X150693713Y-47849500D01*
X150654202Y-47855757D01*
X150483759Y-47882753D01*
X150483756Y-47882754D01*
X150281586Y-47948443D01*
X150092186Y-48044947D01*
X150092178Y-48044952D01*
X149920206Y-48169897D01*
X149769897Y-48320206D01*
X149644952Y-48492178D01*
X149644950Y-48492181D01*
X149573659Y-48632099D01*
X149545142Y-48656455D01*
X149507754Y-48653512D01*
X149486341Y-48632099D01*
X149415049Y-48492181D01*
X149415047Y-48492178D01*
X149345502Y-48396458D01*
X149290104Y-48320208D01*
X149290102Y-48320206D01*
X149290099Y-48320202D01*
X149139798Y-48169901D01*
X149139793Y-48169897D01*
X149122515Y-48157344D01*
X149087894Y-48132190D01*
X148967821Y-48044952D01*
X148967813Y-48044947D01*
X148778413Y-47948443D01*
X148576243Y-47882754D01*
X148576240Y-47882753D01*
X148414957Y-47857208D01*
X148366287Y-47849500D01*
X148153713Y-47849500D01*
X148114202Y-47855757D01*
X147943759Y-47882753D01*
X147943756Y-47882754D01*
X147741586Y-47948443D01*
X147552186Y-48044947D01*
X147552178Y-48044952D01*
X147380206Y-48169897D01*
X147229897Y-48320206D01*
X147159141Y-48417594D01*
X147127164Y-48437190D01*
X147090698Y-48428435D01*
X147071102Y-48396458D01*
X147070499Y-48388793D01*
X147070499Y-48302120D01*
X147064092Y-48242521D01*
X147064091Y-48242517D01*
X147013796Y-48107669D01*
X146927546Y-47992454D01*
X146858314Y-47940627D01*
X146812333Y-47906205D01*
X146812331Y-47906204D01*
X146767381Y-47889439D01*
X146677479Y-47855907D01*
X146617879Y-47849500D01*
X144822120Y-47849500D01*
X144762521Y-47855907D01*
X144627666Y-47906205D01*
X144512454Y-47992454D01*
X144426205Y-48107666D01*
X144375907Y-48242520D01*
X144369500Y-48302120D01*
X142668017Y-48302120D01*
X142535798Y-48169901D01*
X142535793Y-48169897D01*
X142518515Y-48157344D01*
X142483894Y-48132190D01*
X142363821Y-48044952D01*
X142363813Y-48044947D01*
X142174413Y-47948443D01*
X141972243Y-47882754D01*
X141972240Y-47882753D01*
X141810957Y-47857208D01*
X141762287Y-47849500D01*
X141549713Y-47849500D01*
X141510202Y-47855757D01*
X141339759Y-47882753D01*
X141339756Y-47882754D01*
X141137586Y-47948443D01*
X140948186Y-48044947D01*
X140948178Y-48044952D01*
X140776206Y-48169897D01*
X140625897Y-48320206D01*
X140500952Y-48492178D01*
X140500950Y-48492181D01*
X140429659Y-48632099D01*
X140401142Y-48656455D01*
X140363754Y-48653512D01*
X140342341Y-48632099D01*
X140271049Y-48492181D01*
X140271047Y-48492178D01*
X140201502Y-48396458D01*
X140146104Y-48320208D01*
X140146102Y-48320206D01*
X140146099Y-48320202D01*
X139995798Y-48169901D01*
X139995793Y-48169897D01*
X139978515Y-48157344D01*
X139943894Y-48132190D01*
X139823821Y-48044952D01*
X139823813Y-48044947D01*
X139634413Y-47948443D01*
X139432243Y-47882754D01*
X139432240Y-47882753D01*
X139270957Y-47857208D01*
X139222287Y-47849500D01*
X139009713Y-47849500D01*
X138970202Y-47855757D01*
X138799759Y-47882753D01*
X138799756Y-47882754D01*
X138597586Y-47948443D01*
X138408186Y-48044947D01*
X138408178Y-48044952D01*
X138236206Y-48169897D01*
X138085897Y-48320206D01*
X137960952Y-48492178D01*
X137960950Y-48492181D01*
X137889659Y-48632099D01*
X137861142Y-48656455D01*
X137823754Y-48653512D01*
X137802341Y-48632099D01*
X137731049Y-48492181D01*
X137731047Y-48492178D01*
X137661502Y-48396458D01*
X137606104Y-48320208D01*
X137606102Y-48320206D01*
X137606099Y-48320202D01*
X137455798Y-48169901D01*
X137455793Y-48169897D01*
X137438515Y-48157344D01*
X137403894Y-48132190D01*
X137283821Y-48044952D01*
X137283813Y-48044947D01*
X137094413Y-47948443D01*
X136892243Y-47882754D01*
X136892240Y-47882753D01*
X136730957Y-47857208D01*
X136682287Y-47849500D01*
X136469713Y-47849500D01*
X136430202Y-47855757D01*
X136259759Y-47882753D01*
X136259756Y-47882754D01*
X136057586Y-47948443D01*
X135868186Y-48044947D01*
X135868178Y-48044952D01*
X135696206Y-48169897D01*
X135545897Y-48320206D01*
X135420952Y-48492178D01*
X135420950Y-48492181D01*
X135349659Y-48632099D01*
X135321142Y-48656455D01*
X135283754Y-48653512D01*
X135262341Y-48632099D01*
X135191049Y-48492181D01*
X135191047Y-48492178D01*
X135121502Y-48396458D01*
X135066104Y-48320208D01*
X135066102Y-48320206D01*
X135066099Y-48320202D01*
X134915798Y-48169901D01*
X134915793Y-48169897D01*
X134898515Y-48157344D01*
X134863894Y-48132190D01*
X134743821Y-48044952D01*
X134743813Y-48044947D01*
X134554413Y-47948443D01*
X134352243Y-47882754D01*
X134352240Y-47882753D01*
X134190957Y-47857208D01*
X134142287Y-47849500D01*
X133929713Y-47849500D01*
X133890202Y-47855757D01*
X133719759Y-47882753D01*
X133719756Y-47882754D01*
X133517586Y-47948443D01*
X133328186Y-48044947D01*
X133328178Y-48044952D01*
X133156206Y-48169897D01*
X133005897Y-48320206D01*
X132880952Y-48492178D01*
X132880950Y-48492181D01*
X132809659Y-48632099D01*
X132781142Y-48656455D01*
X132743754Y-48653512D01*
X132722341Y-48632099D01*
X132651049Y-48492181D01*
X132651047Y-48492178D01*
X132581502Y-48396458D01*
X132526104Y-48320208D01*
X132526102Y-48320206D01*
X132526099Y-48320202D01*
X132375798Y-48169901D01*
X132375793Y-48169897D01*
X132358515Y-48157344D01*
X132323894Y-48132190D01*
X132203821Y-48044952D01*
X132203813Y-48044947D01*
X132014413Y-47948443D01*
X131812243Y-47882754D01*
X131812240Y-47882753D01*
X131650957Y-47857208D01*
X131602287Y-47849500D01*
X131389713Y-47849500D01*
X131350202Y-47855757D01*
X131179759Y-47882753D01*
X131179756Y-47882754D01*
X130977586Y-47948443D01*
X130788186Y-48044947D01*
X130788178Y-48044952D01*
X130616206Y-48169897D01*
X130465897Y-48320206D01*
X130340952Y-48492178D01*
X130340950Y-48492181D01*
X130269659Y-48632099D01*
X130241142Y-48656455D01*
X130203754Y-48653512D01*
X130182341Y-48632099D01*
X130111049Y-48492181D01*
X130111047Y-48492178D01*
X130041502Y-48396458D01*
X129986104Y-48320208D01*
X129986102Y-48320206D01*
X129986099Y-48320202D01*
X129835798Y-48169901D01*
X129835793Y-48169897D01*
X129818515Y-48157344D01*
X129783894Y-48132190D01*
X129663821Y-48044952D01*
X129663813Y-48044947D01*
X129474413Y-47948443D01*
X129272243Y-47882754D01*
X129272240Y-47882753D01*
X129110957Y-47857208D01*
X129062287Y-47849500D01*
X128849713Y-47849500D01*
X128810202Y-47855757D01*
X128639759Y-47882753D01*
X128639756Y-47882754D01*
X128437586Y-47948443D01*
X128248186Y-48044947D01*
X128248178Y-48044952D01*
X128076206Y-48169897D01*
X127925897Y-48320206D01*
X127800952Y-48492178D01*
X127800947Y-48492186D01*
X127704443Y-48681586D01*
X127638754Y-48883756D01*
X127638753Y-48883759D01*
X127605500Y-49093713D01*
X125226500Y-49093713D01*
X125193246Y-48883757D01*
X125127557Y-48681588D01*
X125031051Y-48492184D01*
X124906104Y-48320208D01*
X124906102Y-48320206D01*
X124906099Y-48320202D01*
X124755798Y-48169901D01*
X124755793Y-48169897D01*
X124738515Y-48157344D01*
X124703894Y-48132190D01*
X124583821Y-48044952D01*
X124583813Y-48044947D01*
X124394413Y-47948443D01*
X124192243Y-47882754D01*
X124192240Y-47882753D01*
X124030957Y-47857208D01*
X123982287Y-47849500D01*
X123769713Y-47849500D01*
X123730202Y-47855757D01*
X123559759Y-47882753D01*
X123559756Y-47882754D01*
X123357586Y-47948443D01*
X123168186Y-48044947D01*
X123168178Y-48044952D01*
X122996206Y-48169897D01*
X122845897Y-48320206D01*
X122720952Y-48492178D01*
X122720950Y-48492181D01*
X122649659Y-48632099D01*
X122621142Y-48656455D01*
X122583754Y-48653512D01*
X122562341Y-48632099D01*
X122491049Y-48492181D01*
X122491047Y-48492178D01*
X122421502Y-48396458D01*
X122366104Y-48320208D01*
X122366102Y-48320206D01*
X122366099Y-48320202D01*
X122215798Y-48169901D01*
X122215793Y-48169897D01*
X122198515Y-48157344D01*
X122163894Y-48132190D01*
X122043821Y-48044952D01*
X122043813Y-48044947D01*
X121854413Y-47948443D01*
X121652243Y-47882754D01*
X121652240Y-47882753D01*
X121490957Y-47857208D01*
X121442287Y-47849500D01*
X121229713Y-47849500D01*
X121190202Y-47855757D01*
X121019759Y-47882753D01*
X121019756Y-47882754D01*
X120817586Y-47948443D01*
X120628186Y-48044947D01*
X120628178Y-48044952D01*
X120456206Y-48169897D01*
X120305897Y-48320206D01*
X120235141Y-48417594D01*
X120203164Y-48437190D01*
X120166698Y-48428435D01*
X120147102Y-48396458D01*
X120146499Y-48388793D01*
X120146499Y-48302120D01*
X120140092Y-48242521D01*
X120140091Y-48242517D01*
X120089796Y-48107669D01*
X120003546Y-47992454D01*
X119934314Y-47940627D01*
X119888333Y-47906205D01*
X119888331Y-47906204D01*
X119843381Y-47889439D01*
X119753479Y-47855907D01*
X119693879Y-47849500D01*
X117898120Y-47849500D01*
X117838521Y-47855907D01*
X117703666Y-47906205D01*
X117588454Y-47992454D01*
X117502205Y-48107666D01*
X117451907Y-48242520D01*
X117445500Y-48302120D01*
X116565979Y-48302120D01*
X116460793Y-48157344D01*
X116460791Y-48157342D01*
X116460788Y-48157338D01*
X116282662Y-47979212D01*
X116282657Y-47979208D01*
X116182175Y-47906204D01*
X116078845Y-47831130D01*
X116078844Y-47831129D01*
X116078842Y-47831128D01*
X115854380Y-47716759D01*
X115614785Y-47638910D01*
X115614782Y-47638909D01*
X115423642Y-47608635D01*
X115365962Y-47599500D01*
X115114038Y-47599500D01*
X115067212Y-47606916D01*
X114865217Y-47638909D01*
X114865214Y-47638910D01*
X114625619Y-47716759D01*
X114401157Y-47831128D01*
X114197342Y-47979208D01*
X114019208Y-48157342D01*
X113871128Y-48361157D01*
X113756759Y-48585619D01*
X113678910Y-48825214D01*
X113678909Y-48825217D01*
X113639500Y-49074038D01*
X100075500Y-49074038D01*
X100075500Y-47424406D01*
X100075736Y-47419604D01*
X100083624Y-47339513D01*
X100088218Y-47292863D01*
X100090088Y-47283462D01*
X100126358Y-47163897D01*
X100130028Y-47155037D01*
X100188924Y-47044850D01*
X100194251Y-47036878D01*
X100273510Y-46940301D01*
X100280301Y-46933510D01*
X100289908Y-46925625D01*
X100376878Y-46854251D01*
X100384850Y-46848924D01*
X100495037Y-46790028D01*
X100503897Y-46786358D01*
X100623462Y-46750088D01*
X100632863Y-46748218D01*
X100746137Y-46737062D01*
X100759605Y-46735736D01*
X100764407Y-46735500D01*
X100786531Y-46735500D01*
X163697641Y-46735500D01*
X163732289Y-46749852D01*
G37*
G04 #@! TD.AperFunction*
G04 #@! TA.AperFunction,Conductor*
G36*
X162209191Y-52268907D02*
G01*
X162245155Y-52318407D01*
X162250000Y-52349000D01*
X162250000Y-94151000D01*
X162231093Y-94209191D01*
X162181593Y-94245155D01*
X162151000Y-94250000D01*
X138599000Y-94250000D01*
X138540809Y-94231093D01*
X138504845Y-94181593D01*
X138500000Y-94151000D01*
X138500000Y-89699984D01*
X150617000Y-89699984D01*
X150617000Y-90800015D01*
X150627500Y-90902794D01*
X150682685Y-91069333D01*
X150682686Y-91069334D01*
X150774789Y-91218655D01*
X150898845Y-91342711D01*
X151048166Y-91434814D01*
X151214703Y-91489999D01*
X151235260Y-91492099D01*
X151317484Y-91500500D01*
X151317492Y-91500500D01*
X153917516Y-91500500D01*
X153992263Y-91492862D01*
X154020297Y-91489999D01*
X154186834Y-91434814D01*
X154336155Y-91342711D01*
X154460211Y-91218655D01*
X154552314Y-91069334D01*
X154607499Y-90902797D01*
X154610649Y-90871960D01*
X154618000Y-90800015D01*
X154618000Y-89699984D01*
X154607499Y-89597205D01*
X154607499Y-89597203D01*
X154559426Y-89452129D01*
X155617000Y-89452129D01*
X155617000Y-91047866D01*
X155617001Y-91047870D01*
X155623408Y-91107480D01*
X155623409Y-91107485D01*
X155673702Y-91242329D01*
X155759950Y-91357541D01*
X155759954Y-91357546D01*
X155759957Y-91357548D01*
X155759958Y-91357549D01*
X155875170Y-91443797D01*
X156010011Y-91494089D01*
X156010012Y-91494089D01*
X156010017Y-91494091D01*
X156069627Y-91500500D01*
X159165372Y-91500499D01*
X159224983Y-91494091D01*
X159292407Y-91468943D01*
X159359829Y-91443797D01*
X159359829Y-91443796D01*
X159359831Y-91443796D01*
X159475046Y-91357546D01*
X159561296Y-91242331D01*
X159611591Y-91107483D01*
X159618000Y-91047873D01*
X159617999Y-89452128D01*
X159611591Y-89392517D01*
X159570127Y-89281345D01*
X159561297Y-89257670D01*
X159475049Y-89142458D01*
X159475048Y-89142457D01*
X159475046Y-89142454D01*
X159475041Y-89142450D01*
X159359829Y-89056202D01*
X159224988Y-89005910D01*
X159224983Y-89005909D01*
X159224981Y-89005908D01*
X159224977Y-89005908D01*
X159193749Y-89002550D01*
X159165373Y-88999500D01*
X159165370Y-88999500D01*
X156069633Y-88999500D01*
X156069629Y-88999500D01*
X156069628Y-88999501D01*
X156062449Y-89000272D01*
X156010019Y-89005908D01*
X156010014Y-89005909D01*
X155875170Y-89056202D01*
X155759958Y-89142450D01*
X155759950Y-89142458D01*
X155673702Y-89257670D01*
X155623410Y-89392511D01*
X155623408Y-89392522D01*
X155617000Y-89452129D01*
X154559426Y-89452129D01*
X154552314Y-89430666D01*
X154460211Y-89281345D01*
X154336155Y-89157289D01*
X154279596Y-89122403D01*
X154186833Y-89065185D01*
X154020294Y-89010000D01*
X153917516Y-88999500D01*
X153917508Y-88999500D01*
X151317492Y-88999500D01*
X151317484Y-88999500D01*
X151214705Y-89010000D01*
X151048166Y-89065185D01*
X150898846Y-89157288D01*
X150774788Y-89281346D01*
X150682685Y-89430666D01*
X150627500Y-89597205D01*
X150617000Y-89699984D01*
X138500000Y-89699984D01*
X138500000Y-85151579D01*
X150617000Y-85151579D01*
X150617000Y-85348420D01*
X150647789Y-85542821D01*
X150647791Y-85542826D01*
X150708616Y-85730025D01*
X150797976Y-85905405D01*
X150913672Y-86064646D01*
X151052854Y-86203828D01*
X151212095Y-86319524D01*
X151387475Y-86408884D01*
X151574674Y-86469709D01*
X151574675Y-86469709D01*
X151574678Y-86469710D01*
X151769080Y-86500500D01*
X151769083Y-86500500D01*
X153465920Y-86500500D01*
X153660321Y-86469710D01*
X153660322Y-86469709D01*
X153660326Y-86469709D01*
X153847525Y-86408884D01*
X154022905Y-86319524D01*
X154182146Y-86203828D01*
X154321328Y-86064646D01*
X154437024Y-85905405D01*
X154526384Y-85730025D01*
X154587209Y-85542826D01*
X154618000Y-85348417D01*
X154618000Y-85151583D01*
X154618000Y-85151579D01*
X155617000Y-85151579D01*
X155617000Y-85348420D01*
X155647789Y-85542821D01*
X155647791Y-85542826D01*
X155708616Y-85730025D01*
X155797976Y-85905405D01*
X155913672Y-86064646D01*
X156052854Y-86203828D01*
X156212095Y-86319524D01*
X156387475Y-86408884D01*
X156574674Y-86469709D01*
X156574675Y-86469709D01*
X156574678Y-86469710D01*
X156769080Y-86500500D01*
X156769083Y-86500500D01*
X158465920Y-86500500D01*
X158660321Y-86469710D01*
X158660322Y-86469709D01*
X158660326Y-86469709D01*
X158847525Y-86408884D01*
X159022905Y-86319524D01*
X159182146Y-86203828D01*
X159321328Y-86064646D01*
X159437024Y-85905405D01*
X159526384Y-85730025D01*
X159587209Y-85542826D01*
X159618000Y-85348417D01*
X159618000Y-85151583D01*
X159618000Y-85151579D01*
X159587210Y-84957178D01*
X159587209Y-84957174D01*
X159526384Y-84769975D01*
X159437024Y-84594595D01*
X159321328Y-84435354D01*
X159182146Y-84296172D01*
X159022905Y-84180476D01*
X159022904Y-84180475D01*
X159022902Y-84180474D01*
X158847525Y-84091116D01*
X158660321Y-84030289D01*
X158465920Y-83999500D01*
X158465917Y-83999500D01*
X156769083Y-83999500D01*
X156769080Y-83999500D01*
X156574678Y-84030289D01*
X156387474Y-84091116D01*
X156212097Y-84180474D01*
X156052855Y-84296171D01*
X155913671Y-84435355D01*
X155797974Y-84594597D01*
X155708616Y-84769974D01*
X155647789Y-84957178D01*
X155617000Y-85151579D01*
X154618000Y-85151579D01*
X154587210Y-84957178D01*
X154587209Y-84957174D01*
X154526384Y-84769975D01*
X154437024Y-84594595D01*
X154321328Y-84435354D01*
X154182146Y-84296172D01*
X154022905Y-84180476D01*
X154022904Y-84180475D01*
X154022902Y-84180474D01*
X153847525Y-84091116D01*
X153660321Y-84030289D01*
X153465920Y-83999500D01*
X153465917Y-83999500D01*
X151769083Y-83999500D01*
X151769080Y-83999500D01*
X151574678Y-84030289D01*
X151387474Y-84091116D01*
X151212097Y-84180474D01*
X151052855Y-84296171D01*
X150913671Y-84435355D01*
X150797974Y-84594597D01*
X150708616Y-84769974D01*
X150647789Y-84957178D01*
X150617000Y-85151579D01*
X138500000Y-85151579D01*
X138500000Y-67151456D01*
X140249500Y-67151456D01*
X140249500Y-83348543D01*
X140287949Y-83541834D01*
X140287949Y-83541836D01*
X140363367Y-83723913D01*
X140363368Y-83723914D01*
X140472861Y-83887782D01*
X140612218Y-84027139D01*
X140776086Y-84136632D01*
X140958165Y-84212051D01*
X141151459Y-84250500D01*
X141151460Y-84250500D01*
X141348540Y-84250500D01*
X141348541Y-84250500D01*
X141541835Y-84212051D01*
X141723914Y-84136632D01*
X141887782Y-84027139D01*
X142027139Y-83887782D01*
X142136632Y-83723914D01*
X142212051Y-83541835D01*
X142250500Y-83348541D01*
X142250500Y-75349984D01*
X150617000Y-75349984D01*
X150617000Y-76450015D01*
X150627500Y-76552794D01*
X150682685Y-76719333D01*
X150682686Y-76719334D01*
X150774789Y-76868655D01*
X150898845Y-76992711D01*
X151048166Y-77084814D01*
X151214703Y-77139999D01*
X151235260Y-77142099D01*
X151317484Y-77150500D01*
X151317492Y-77150500D01*
X153917516Y-77150500D01*
X153992263Y-77142862D01*
X154020297Y-77139999D01*
X154186834Y-77084814D01*
X154336155Y-76992711D01*
X154460211Y-76868655D01*
X154552314Y-76719334D01*
X154607499Y-76552797D01*
X154610649Y-76521960D01*
X154618000Y-76450015D01*
X154618000Y-75349984D01*
X154607499Y-75247205D01*
X154607499Y-75247203D01*
X154559426Y-75102129D01*
X155617000Y-75102129D01*
X155617000Y-76697866D01*
X155617001Y-76697870D01*
X155623408Y-76757480D01*
X155623409Y-76757485D01*
X155673702Y-76892329D01*
X155759950Y-77007541D01*
X155759954Y-77007546D01*
X155759957Y-77007548D01*
X155759958Y-77007549D01*
X155875170Y-77093797D01*
X156010011Y-77144089D01*
X156010012Y-77144089D01*
X156010017Y-77144091D01*
X156069627Y-77150500D01*
X159165372Y-77150499D01*
X159224983Y-77144091D01*
X159292407Y-77118943D01*
X159359829Y-77093797D01*
X159359829Y-77093796D01*
X159359831Y-77093796D01*
X159475046Y-77007546D01*
X159561296Y-76892331D01*
X159611591Y-76757483D01*
X159618000Y-76697873D01*
X159617999Y-75102128D01*
X159611591Y-75042517D01*
X159570127Y-74931345D01*
X159561297Y-74907670D01*
X159475049Y-74792458D01*
X159475048Y-74792457D01*
X159475046Y-74792454D01*
X159475041Y-74792450D01*
X159359829Y-74706202D01*
X159224988Y-74655910D01*
X159224983Y-74655909D01*
X159224981Y-74655908D01*
X159224977Y-74655908D01*
X159193749Y-74652550D01*
X159165373Y-74649500D01*
X159165370Y-74649500D01*
X156069633Y-74649500D01*
X156069629Y-74649500D01*
X156069628Y-74649501D01*
X156062449Y-74650272D01*
X156010019Y-74655908D01*
X156010014Y-74655909D01*
X155875170Y-74706202D01*
X155759958Y-74792450D01*
X155759950Y-74792458D01*
X155673702Y-74907670D01*
X155623410Y-75042511D01*
X155623408Y-75042522D01*
X155617000Y-75102129D01*
X154559426Y-75102129D01*
X154552314Y-75080666D01*
X154460211Y-74931345D01*
X154336155Y-74807289D01*
X154279596Y-74772403D01*
X154186833Y-74715185D01*
X154020294Y-74660000D01*
X153917516Y-74649500D01*
X153917508Y-74649500D01*
X151317492Y-74649500D01*
X151317484Y-74649500D01*
X151214705Y-74660000D01*
X151048166Y-74715185D01*
X150898846Y-74807288D01*
X150774788Y-74931346D01*
X150682685Y-75080666D01*
X150627500Y-75247205D01*
X150617000Y-75349984D01*
X142250500Y-75349984D01*
X142250500Y-70801579D01*
X150617000Y-70801579D01*
X150617000Y-70998420D01*
X150647789Y-71192821D01*
X150647791Y-71192826D01*
X150708616Y-71380025D01*
X150797976Y-71555405D01*
X150913672Y-71714646D01*
X151052854Y-71853828D01*
X151212095Y-71969524D01*
X151387475Y-72058884D01*
X151574674Y-72119709D01*
X151574675Y-72119709D01*
X151574678Y-72119710D01*
X151769080Y-72150500D01*
X151769083Y-72150500D01*
X153465920Y-72150500D01*
X153660321Y-72119710D01*
X153660322Y-72119709D01*
X153660326Y-72119709D01*
X153847525Y-72058884D01*
X154022905Y-71969524D01*
X154182146Y-71853828D01*
X154321328Y-71714646D01*
X154437024Y-71555405D01*
X154526384Y-71380025D01*
X154587209Y-71192826D01*
X154618000Y-70998417D01*
X154618000Y-70801583D01*
X154618000Y-70801579D01*
X155617000Y-70801579D01*
X155617000Y-70998420D01*
X155647789Y-71192821D01*
X155647791Y-71192826D01*
X155708616Y-71380025D01*
X155797976Y-71555405D01*
X155913672Y-71714646D01*
X156052854Y-71853828D01*
X156212095Y-71969524D01*
X156387475Y-72058884D01*
X156574674Y-72119709D01*
X156574675Y-72119709D01*
X156574678Y-72119710D01*
X156769080Y-72150500D01*
X156769083Y-72150500D01*
X158465920Y-72150500D01*
X158660321Y-72119710D01*
X158660322Y-72119709D01*
X158660326Y-72119709D01*
X158847525Y-72058884D01*
X159022905Y-71969524D01*
X159182146Y-71853828D01*
X159321328Y-71714646D01*
X159437024Y-71555405D01*
X159526384Y-71380025D01*
X159587209Y-71192826D01*
X159618000Y-70998417D01*
X159618000Y-70801583D01*
X159618000Y-70801579D01*
X159587210Y-70607178D01*
X159587209Y-70607174D01*
X159526384Y-70419975D01*
X159437024Y-70244595D01*
X159321328Y-70085354D01*
X159182146Y-69946172D01*
X159022905Y-69830476D01*
X159022904Y-69830475D01*
X159022902Y-69830474D01*
X158847525Y-69741116D01*
X158660321Y-69680289D01*
X158465920Y-69649500D01*
X158465917Y-69649500D01*
X156769083Y-69649500D01*
X156769080Y-69649500D01*
X156574678Y-69680289D01*
X156387474Y-69741116D01*
X156212097Y-69830474D01*
X156052855Y-69946171D01*
X155913671Y-70085355D01*
X155797974Y-70244597D01*
X155708616Y-70419974D01*
X155647789Y-70607178D01*
X155617000Y-70801579D01*
X154618000Y-70801579D01*
X154587210Y-70607178D01*
X154587209Y-70607174D01*
X154526384Y-70419975D01*
X154437024Y-70244595D01*
X154321328Y-70085354D01*
X154182146Y-69946172D01*
X154022905Y-69830476D01*
X154022904Y-69830475D01*
X154022902Y-69830474D01*
X153847525Y-69741116D01*
X153660321Y-69680289D01*
X153465920Y-69649500D01*
X153465917Y-69649500D01*
X151769083Y-69649500D01*
X151769080Y-69649500D01*
X151574678Y-69680289D01*
X151387474Y-69741116D01*
X151212097Y-69830474D01*
X151052855Y-69946171D01*
X150913671Y-70085355D01*
X150797974Y-70244597D01*
X150708616Y-70419974D01*
X150647789Y-70607178D01*
X150617000Y-70801579D01*
X142250500Y-70801579D01*
X142250500Y-67151459D01*
X142212051Y-66958165D01*
X142136632Y-66776086D01*
X142027139Y-66612218D01*
X141887782Y-66472861D01*
X141723914Y-66363368D01*
X141723915Y-66363368D01*
X141723913Y-66363367D01*
X141541835Y-66287949D01*
X141348543Y-66249500D01*
X141348541Y-66249500D01*
X141151459Y-66249500D01*
X141151456Y-66249500D01*
X140958165Y-66287949D01*
X140958163Y-66287949D01*
X140776086Y-66363367D01*
X140612218Y-66472861D01*
X140612214Y-66472864D01*
X140472864Y-66612214D01*
X140472861Y-66612218D01*
X140363367Y-66776086D01*
X140287949Y-66958163D01*
X140287949Y-66958165D01*
X140249500Y-67151456D01*
X138500000Y-67151456D01*
X138500000Y-60999984D01*
X150617000Y-60999984D01*
X150617000Y-62100015D01*
X150627500Y-62202794D01*
X150682685Y-62369333D01*
X150682686Y-62369334D01*
X150774789Y-62518655D01*
X150898845Y-62642711D01*
X151048166Y-62734814D01*
X151214703Y-62789999D01*
X151235260Y-62792099D01*
X151317484Y-62800500D01*
X151317492Y-62800500D01*
X153917516Y-62800500D01*
X153992263Y-62792862D01*
X154020297Y-62789999D01*
X154186834Y-62734814D01*
X154336155Y-62642711D01*
X154460211Y-62518655D01*
X154552314Y-62369334D01*
X154607499Y-62202797D01*
X154610649Y-62171960D01*
X154618000Y-62100015D01*
X154618000Y-60999984D01*
X154607499Y-60897205D01*
X154607499Y-60897203D01*
X154559426Y-60752129D01*
X155617000Y-60752129D01*
X155617000Y-62347866D01*
X155617001Y-62347870D01*
X155623408Y-62407480D01*
X155623409Y-62407485D01*
X155673702Y-62542329D01*
X155759950Y-62657541D01*
X155759954Y-62657546D01*
X155759957Y-62657548D01*
X155759958Y-62657549D01*
X155875170Y-62743797D01*
X156010011Y-62794089D01*
X156010012Y-62794089D01*
X156010017Y-62794091D01*
X156069627Y-62800500D01*
X159165372Y-62800499D01*
X159224983Y-62794091D01*
X159292407Y-62768943D01*
X159359829Y-62743797D01*
X159359829Y-62743796D01*
X159359831Y-62743796D01*
X159475046Y-62657546D01*
X159561296Y-62542331D01*
X159611591Y-62407483D01*
X159618000Y-62347873D01*
X159617999Y-60752128D01*
X159611591Y-60692517D01*
X159570127Y-60581345D01*
X159561297Y-60557670D01*
X159475049Y-60442458D01*
X159475048Y-60442457D01*
X159475046Y-60442454D01*
X159475041Y-60442450D01*
X159359829Y-60356202D01*
X159224988Y-60305910D01*
X159224983Y-60305909D01*
X159224981Y-60305908D01*
X159224977Y-60305908D01*
X159193749Y-60302550D01*
X159165373Y-60299500D01*
X159165370Y-60299500D01*
X156069633Y-60299500D01*
X156069629Y-60299500D01*
X156069628Y-60299501D01*
X156062449Y-60300272D01*
X156010019Y-60305908D01*
X156010014Y-60305909D01*
X155875170Y-60356202D01*
X155759958Y-60442450D01*
X155759950Y-60442458D01*
X155673702Y-60557670D01*
X155623410Y-60692511D01*
X155623408Y-60692522D01*
X155617000Y-60752129D01*
X154559426Y-60752129D01*
X154552314Y-60730666D01*
X154460211Y-60581345D01*
X154336155Y-60457289D01*
X154279596Y-60422403D01*
X154186833Y-60365185D01*
X154020294Y-60310000D01*
X153917516Y-60299500D01*
X153917508Y-60299500D01*
X151317492Y-60299500D01*
X151317484Y-60299500D01*
X151214705Y-60310000D01*
X151048166Y-60365185D01*
X150898846Y-60457288D01*
X150774788Y-60581346D01*
X150682685Y-60730666D01*
X150627500Y-60897205D01*
X150617000Y-60999984D01*
X138500000Y-60999984D01*
X138500000Y-52349000D01*
X138518907Y-52290809D01*
X138568407Y-52254845D01*
X138599000Y-52250000D01*
X162151000Y-52250000D01*
X162209191Y-52268907D01*
G37*
G04 #@! TD.AperFunction*
M02*
